<?xml version="1.0" encoding="UTF-8" standalone="no"?>
<!-- Created with Inkscape (http://www.inkscape.org/) -->

<svg
   xmlns:dc="http://purl.org/dc/elements/1.1/"
   xmlns:cc="http://creativecommons.org/ns#"
   xmlns:rdf="http://www.w3.org/1999/02/22-rdf-syntax-ns#"
   xmlns:svg="http://www.w3.org/2000/svg"
   xmlns="http://www.w3.org/2000/svg"
   xmlns:xlink="http://www.w3.org/1999/xlink"
   xmlns:sodipodi="http://sodipodi.sourceforge.net/DTD/sodipodi-0.dtd"
   xmlns:inkscape="http://www.inkscape.org/namespaces/inkscape"
   width="210.71001mm"
   height="58.194256mm"
   version="1.1"
   viewBox="0 0 210.71001 58.194256"
   id="svg581"
   sodipodi:docname="asn_at_ndh2.svg"
   inkscape:version="0.92.1 r15371"
   inkscape:export-filename="E:\other\asn\asn_at_ndh2.png"
   inkscape:export-xdpi="96.43586"
   inkscape:export-ydpi="96.43586">
  <sodipodi:namedview
     pagecolor="#ffffff"
     bordercolor="#666666"
     borderopacity="1"
     objecttolerance="10"
     gridtolerance="10"
     guidetolerance="10"
     inkscape:pageopacity="0"
     inkscape:pageshadow="2"
     inkscape:window-width="1536"
     inkscape:window-height="803"
     id="namedview583"
     showgrid="false"
     inkscape:zoom="0.25"
     inkscape:cx="215.69214"
     inkscape:cy="109.9734"
     inkscape:window-x="-8"
     inkscape:window-y="-8"
     inkscape:window-maximized="1"
     inkscape:current-layer="svg581"
     fit-margin-top="0"
     fit-margin-left="0"
     fit-margin-right="0"
     fit-margin-bottom="0" />
  <defs
     id="defs7">
    <linearGradient
       id="a"
       x1="96.825996"
       x2="96.825996"
       y1="242.31"
       y2="296.75"
       gradientUnits="userSpaceOnUse">
      <stop
         stop-color="#c2efff"
         offset="0"
         id="stop2" />
      <stop
         id="stop4770"
         offset="0.63767833"
         stop-color="#c2efff"
         style="stop-color:#bcd1dd;stop-opacity:1;" />
      <stop
         stop-color="#aa6f6f"
         offset="1"
         id="stop4" />
    </linearGradient>
    <linearGradient
       id="a-1"
       x1="96.825996"
       x2="96.825996"
       y1="205.11899"
       y2="296.75"
       gradientUnits="userSpaceOnUse"
       gradientTransform="matrix(1,0,0,0.19561094,-0.35501327,-0.24999981)">
      <stop
         stop-color="#c2efff"
         offset="0"
         id="stop2-4" />
      <stop
         stop-color="#aa6f6f"
         offset="1"
         id="stop4-6" />
    </linearGradient>
    <linearGradient
       inkscape:collect="always"
       xlink:href="#a-1"
       id="linearGradient4757"
       gradientUnits="userSpaceOnUse"
       gradientTransform="matrix(1,0,0,0.19561094,-0.35501327,-0.24999981)"
       x1="96.825996"
       y1="5.0700698"
       x2="96.825996"
       y2="296.75" />
  </defs>
  <metadata
     id="metadata9">
    <rdf:RDF>
      <cc:Work
         rdf:about="">
        <dc:format>image/svg+xml</dc:format>
        <dc:type
           rdf:resource="http://purl.org/dc/dcmitype/StillImage" />
        <dc:title></dc:title>
      </cc:Work>
    </rdf:RDF>
  </metadata>
  <g
     id="g5006"
     transform="matrix(0.08482747,0,0,0.08482747,24.778232,-17.182353)">
    <path
       id="path4506"
       d="m 210,-385 324,21 1146,3 z"
       inkscape:connector-curvature="0"
       style="fill:#c37e79;stroke:#c37e79;stroke-width:1.50999999" />
    <path
       id="path4508"
       d="m 534,-364 511,59 635,-56 z"
       inkscape:connector-curvature="0"
       style="fill:#c28485;stroke:#c28485;stroke-width:1.50999999" />
    <path
       id="path4510"
       d="m 1045,-305 83,16 552,-72 z"
       inkscape:connector-curvature="0"
       style="fill:#bb7f83;stroke:#bb7f83;stroke-width:1.50999999" />
    <path
       id="path4512"
       d="m 1371,1381 -596,95 908,-34 z"
       inkscape:connector-curvature="0"
       style="fill:#748fb6;stroke:#748fb6;stroke-width:1.50999999" />
    <path
       id="path4514"
       d="m 2094,511 21,89 13,-369 z"
       inkscape:connector-curvature="0"
       style="fill:#979cbc;stroke:#979cbc;stroke-width:1.50999999" />
    <path
       id="path4516"
       d="m 1973,-57 155,288 19,-367 z"
       inkscape:connector-curvature="0"
       style="fill:#986a7f;stroke:#986a7f;stroke-width:1.50999999" />
    <path
       id="path4518"
       d="m 2115,600 -138,366 209,30 z"
       inkscape:connector-curvature="0"
       style="fill:#6c94c0;stroke:#6c94c0;stroke-width:1.50999999" />
    <path
       id="path4520"
       d="m 210,-385 1470,24 512,3 z"
       inkscape:connector-curvature="0"
       style="fill:#a8777e;stroke:#a8777e;stroke-width:1.50999999" />
    <path
       id="path4522"
       d="m 1680,-361 316,14 196,-11 z"
       inkscape:connector-curvature="0"
       style="fill:#794968;stroke:#794968;stroke-width:1.50999999" />
    <path
       id="path4524"
       d="m 2147,-136 -19,367 64,-589 z"
       inkscape:connector-curvature="0"
       style="fill:#8b5369;stroke:#8b5369;stroke-width:1.50999999" />
    <path
       id="path4526"
       d="m 2000,1390 -317,52 560,-45 z"
       inkscape:connector-curvature="0"
       style="fill:#205f9d;stroke:#205f9d;stroke-width:1.50999999" />
    <path
       id="path4528"
       d="m 2186,996 -287,61 367,61 z"
       inkscape:connector-curvature="0"
       style="fill:#427cb1;stroke:#427cb1;stroke-width:1.50999999" />
    <path
       id="path4530"
       d="m 1899,1057 101,333 266,-272 z"
       inkscape:connector-curvature="0"
       style="fill:#2e73b1;stroke:#2e73b1;stroke-width:1.50999999" />
    <path
       id="path4532"
       d="m 2115,600 71,396 80,122 z"
       inkscape:connector-curvature="0"
       style="fill:#5d85b0;stroke:#5d85b0;stroke-width:1.50999999" />
    <path
       id="path4534"
       d="m 2128,231 -13,369 151,518 z"
       inkscape:connector-curvature="0"
       style="fill:#8498bc;stroke:#8498bc;stroke-width:1.50999999" />
    <path
       id="path4536"
       d="m 2192,-358 -64,589 138,887 z"
       inkscape:connector-curvature="0"
       style="fill:#938aa1;stroke:#938aa1;stroke-width:1.50999999" />
    <path
       id="path4538"
       d="m 2000,1390 243,7 23,-279 z"
       inkscape:connector-curvature="0"
       style="fill:#1d5b9a;stroke:#1d5b9a;stroke-width:1.50999999" />
    <path
       id="path4540"
       d="m 1856,761 121,205 138,-366 z"
       inkscape:connector-curvature="0"
       style="fill:#80a4cf;stroke:#80a4cf;stroke-width:1.50999999" />
    <path
       id="path4542"
       d="m 1940,413 154,98 34,-280 z"
       inkscape:connector-curvature="0"
       style="fill:#9d9fbd;stroke:#9d9fbd;stroke-width:1.50999999" />
    <path
       id="path4544"
       d="m 1951,272 -11,141 188,-182 z"
       inkscape:connector-curvature="0"
       style="fill:#a29bb5;stroke:#a29bb5;stroke-width:1.50999999" />
    <path
       id="path4546"
       d="m 1977,966 -78,91 287,-61 z"
       inkscape:connector-curvature="0"
       style="fill:#538dc1;stroke:#538dc1;stroke-width:1.50999999" />
    <path
       id="path4548"
       d="m 1996,-347 151,211 45,-222 z"
       inkscape:connector-curvature="0"
       style="fill:#7d405f;stroke:#7d405f;stroke-width:1.50999999" />
    <path
       id="path4550"
       d="m 1973,-57 -22,329 177,-41 z"
       inkscape:connector-curvature="0"
       style="fill:#a3869a;stroke:#a3869a;stroke-width:1.50999999" />
    <path
       id="path4552"
       d="m 1996,-347 -23,290 174,-79 z"
       inkscape:connector-curvature="0"
       style="fill:#905370;stroke:#905370;stroke-width:1.50999999" />
    <path
       id="path4554"
       d="M 2094,511 1856,761 2115,600 Z"
       inkscape:connector-curvature="0"
       style="fill:#91a9d1;stroke:#91a9d1;stroke-width:1.50999999" />
    <path
       id="path4556"
       d="m 1940,413 -84,348 238,-250 z"
       inkscape:connector-curvature="0"
       style="fill:#9ab1d4;stroke:#9ab1d4;stroke-width:1.50999999" />
    <path
       id="path4558"
       d="m 1128,-289 254,23 298,-95 z"
       inkscape:connector-curvature="0"
       style="fill:#b37b80;stroke:#b37b80;stroke-width:1.50999999" />
    <path
       id="path4560"
       d="m 1711,596 145,165 84,-348 z"
       inkscape:connector-curvature="0"
       style="fill:#9dbbd9;stroke:#9dbbd9;stroke-width:1.50999999" />
    <path
       id="path4562"
       d="m 1743,101 208,171 22,-329 z"
       inkscape:connector-curvature="0"
       style="fill:#a88b99;stroke:#a88b99;stroke-width:1.50999999" />
    <path
       id="path4564"
       d="m 1856,761 -86,57 207,148 z"
       inkscape:connector-curvature="0"
       style="fill:#79a9d1;stroke:#79a9d1;stroke-width:1.50999999" />
    <path
       id="path4566"
       d="m 1666,-118 307,61 23,-290 z"
       inkscape:connector-curvature="0"
       style="fill:#996277;stroke:#996277;stroke-width:1.50999999" />
    <path
       id="path4568"
       d="m 1680,-361 -14,243 330,-229 z"
       inkscape:connector-curvature="0"
       style="fill:#935f72;stroke:#935f72;stroke-width:1.50999999" />
    <path
       id="path4570"
       d="m 1899,1057 -244,182 345,151 z"
       inkscape:connector-curvature="0"
       style="fill:#3780b9;stroke:#3780b9;stroke-width:1.50999999" />
    <path
       id="path4572"
       d="m 1655,1239 28,203 317,-52 z"
       inkscape:connector-curvature="0"
       style="fill:#3176b0;stroke:#3176b0;stroke-width:1.50999999" />
    <path
       id="path4574"
       d="m 1770,818 129,239 78,-91 z"
       inkscape:connector-curvature="0"
       style="fill:#66a0cb;stroke:#66a0cb;stroke-width:1.50999999" />
    <path
       id="path4576"
       d="m 1666,-118 77,219 230,-158 z"
       inkscape:connector-curvature="0"
       style="fill:#a77f8a;stroke:#a77f8a;stroke-width:1.50999999" />
    <path
       id="path4578"
       d="m 1675,506 36,90 229,-183 z"
       inkscape:connector-curvature="0"
       style="fill:#a6c1d8;stroke:#a6c1d8;stroke-width:1.50999999" />
    <path
       id="path4580"
       d="m 1675,506 265,-93 11,-141 z"
       inkscape:connector-curvature="0"
       style="fill:#a7b2c9;stroke:#a7b2c9;stroke-width:1.50999999" />
    <path
       id="path4582"
       d="m 1743,101 -68,405 276,-234 z"
       inkscape:connector-curvature="0"
       style="fill:#adaebc;stroke:#adaebc;stroke-width:1.50999999" />
    <path
       id="path4584"
       d="m 1770,818 -115,421 244,-182 z"
       inkscape:connector-curvature="0"
       style="fill:#589ec9;stroke:#589ec9;stroke-width:1.50999999" />
    <path
       id="path4586"
       d="m 1519,858 136,381 115,-421 z"
       inkscape:connector-curvature="0"
       style="fill:#77b2d4;stroke:#77b2d4;stroke-width:1.50999999" />
    <path
       id="path4588"
       d="m 1711,596 59,222 86,-57 z"
       inkscape:connector-curvature="0"
       style="fill:#91bbd9;stroke:#91bbd9;stroke-width:1.50999999" />
    <path
       id="path4590"
       d="m 1519,858 -102,278 238,103 z"
       inkscape:connector-curvature="0"
       style="fill:#73afd3;stroke:#73afd3;stroke-width:1.50999999" />
    <path
       id="path4592"
       d="m 1433,159 9,277 233,70 z"
       inkscape:connector-curvature="0"
       style="fill:#c9d0d5;stroke:#c9d0d5;stroke-width:1.50999999" />
    <path
       id="path4594"
       d="m 1433,159 242,347 68,-405 z"
       inkscape:connector-curvature="0"
       style="fill:#bfb9bd;stroke:#bfb9bd;stroke-width:1.50999999" />
    <path
       id="path4596"
       d="m 1711,596 -192,262 251,-40 z"
       inkscape:connector-curvature="0"
       style="fill:#99c3de;stroke:#99c3de;stroke-width:1.50999999" />
    <path
       id="path4598"
       d="m 1426,681 93,177 192,-262 z"
       inkscape:connector-curvature="0"
       style="fill:#aed1e5;stroke:#aed1e5;stroke-width:1.50999999" />
    <path
       id="path4600"
       d="m 1666,-118 -233,277 310,-58 z"
       inkscape:connector-curvature="0"
       style="fill:#bc9a9c;stroke:#bc9a9c;stroke-width:1.50999999" />
    <path
       id="path4602"
       d="m 424,1441 -240,34 591,1 z"
       inkscape:connector-curvature="0"
       style="fill:#917383;stroke:#917383;stroke-width:1.50999999" />
    <path
       id="path4604"
       d="m 1418,-107 15,266 233,-277 z"
       inkscape:connector-curvature="0"
       style="fill:#c49997;stroke:#c49997;stroke-width:1.50999999" />
    <path
       id="path4606"
       d="m 1382,-266 284,148 14,-243 z"
       inkscape:connector-curvature="0"
       style="fill:#ad737c;stroke:#ad737c;stroke-width:1.50999999" />
    <path
       id="path4608"
       d="m 1675,506 -249,175 285,-85 z"
       inkscape:connector-curvature="0"
       style="fill:#b4d1e4;stroke:#b4d1e4;stroke-width:1.50999999" />
    <path
       id="path4610"
       d="m 1382,-266 36,159 248,-11 z"
       inkscape:connector-curvature="0"
       style="fill:#bd8688;stroke:#bd8688;stroke-width:1.50999999" />
    <path
       id="path4612"
       d="m 1442,436 -16,245 249,-175 z"
       inkscape:connector-curvature="0"
       style="fill:#c4dcea;stroke:#c4dcea;stroke-width:1.50999999" />
    <path
       id="path4614"
       d="m 1655,1239 -284,142 312,61 z"
       inkscape:connector-curvature="0"
       style="fill:#5489bb;stroke:#5489bb;stroke-width:1.50999999" />
    <path
       id="path4616"
       d="m 1181,1328 -406,148 596,-95 z"
       inkscape:connector-curvature="0"
       style="fill:#869bc1;stroke:#869bc1;stroke-width:1.50999999" />
    <path
       id="path4618"
       d="m 1417,1136 -46,245 284,-142 z"
       inkscape:connector-curvature="0"
       style="fill:#689dca;stroke:#689dca;stroke-width:1.50999999" />
    <path
       id="path4620"
       d="m 1426,681 -171,269 264,-92 z"
       inkscape:connector-curvature="0"
       style="fill:#afd3e6;stroke:#afd3e6;stroke-width:1.50999999" />
    <path
       id="path4622"
       d="m 1255,950 162,186 102,-278 z"
       inkscape:connector-curvature="0"
       style="fill:#96c4de;stroke:#96c4de;stroke-width:1.50999999" />
    <path
       id="path4624"
       d="m 1253,1206 118,175 46,-245 z"
       inkscape:connector-curvature="0"
       style="fill:#7ba7cf;stroke:#7ba7cf;stroke-width:1.50999999" />
    <path
       id="path4626"
       d="M 1418,-107 1124,2 1433,159 Z"
       inkscape:connector-curvature="0"
       style="fill:#d8aaa2;stroke:#d8aaa2;stroke-width:1.50999999" />
    <path
       id="path4628"
       d="m 1124,2 5,109 304,48 z"
       inkscape:connector-curvature="0"
       style="fill:#e6bbb0;stroke:#e6bbb0;stroke-width:1.50999999" />
    <path
       id="path4630"
       d="m 1129,111 -7,359 311,-311 z"
       inkscape:connector-curvature="0"
       style="fill:#e9d3ca;stroke:#e9d3ca;stroke-width:1.50999999" />
    <path
       id="path4632"
       d="m 1171,577 255,104 16,-245 z"
       inkscape:connector-curvature="0"
       style="fill:#d4e6ef;stroke:#d4e6ef;stroke-width:1.50999999" />
    <path
       id="path4634"
       d="m 1433,159 -311,311 320,-34 z"
       inkscape:connector-curvature="0"
       style="fill:#dedbda;stroke:#dedbda;stroke-width:1.50999999" />
    <path
       id="path4636"
       d="m 1122,470 49,107 271,-141 z"
       inkscape:connector-curvature="0"
       style="fill:#e4eaee;stroke:#e4eaee;stroke-width:1.50999999" />
    <path
       id="path4638"
       d="m 1171,577 84,373 171,-269 z"
       inkscape:connector-curvature="0"
       style="fill:#cbe1ee;stroke:#cbe1ee;stroke-width:1.50999999" />
    <path
       id="path4640"
       d="m 1255,950 -2,256 164,-70 z"
       inkscape:connector-curvature="0"
       style="fill:#8cbbd9;stroke:#8cbbd9;stroke-width:1.50999999" />
    <path
       id="path4642"
       d="m 1382,-266 -254,-23 290,182 z"
       inkscape:connector-curvature="0"
       style="fill:#ca8787;stroke:#ca8787;stroke-width:1.50999999" />
    <path
       id="path4644"
       d="m 1128,-289 -4,291 294,-109 z"
       inkscape:connector-curvature="0"
       style="fill:#d99893;stroke:#d99893;stroke-width:1.50999999" />
    <path
       id="path4646"
       d="m 1253,1206 -72,122 190,53 z"
       inkscape:connector-curvature="0"
       style="fill:#80a3ce;stroke:#80a3ce;stroke-width:1.50999999" />
    <path
       id="path4648"
       d="m 1171,577 -137,310 221,63 z"
       inkscape:connector-curvature="0"
       style="fill:#cce2ee;stroke:#cce2ee;stroke-width:1.50999999" />
    <path
       id="path4650"
       d="m 984,-67 140,69 4,-291 z"
       inkscape:connector-curvature="0"
       style="fill:#e29e96;stroke:#e29e96;stroke-width:1.50999999" />
    <path
       id="path4652"
       d="m 862,1351 -87,125 406,-148 z"
       inkscape:connector-curvature="0"
       style="fill:#93a1c3;stroke:#93a1c3;stroke-width:1.50999999" />
    <path
       id="path4654"
       d="m 889,1251 292,77 72,-122 z"
       inkscape:connector-curvature="0"
       style="fill:#91aed3;stroke:#91aed3;stroke-width:1.50999999" />
    <path
       id="path4656"
       d="m 1034,887 -145,364 364,-45 z"
       inkscape:connector-curvature="0"
       style="fill:#a0c2dd;stroke:#a0c2dd;stroke-width:1.50999999" />
    <path
       id="path4658"
       d="m 1034,887 219,319 2,-256 z"
       inkscape:connector-curvature="0"
       style="fill:#a8cce2;stroke:#a8cce2;stroke-width:1.50999999" />
    <path
       id="path4660"
       d="m 989,115 133,355 7,-359 z"
       inkscape:connector-curvature="0"
       style="fill:#f2d6c9;stroke:#f2d6c9;stroke-width:1.50999999" />
    <path
       id="path4662"
       d="m 806,997 83,254 145,-364 z"
       inkscape:connector-curvature="0"
       style="fill:#b5ccde;stroke:#b5ccde;stroke-width:1.50999999" />
    <path
       id="path4664"
       d="m 534,-364 114,81 397,-22 z"
       inkscape:connector-curvature="0"
       style="fill:#ce7f76;stroke:#ce7f76;stroke-width:1.50999999" />
    <path
       id="path4666"
       d="m 989,115 -13,361 146,-6 z"
       inkscape:connector-curvature="0"
       style="fill:#f6e7df;stroke:#f6e7df;stroke-width:1.50999999" />
    <path
       id="path4668"
       d="m 1045,-305 -61,238 144,-222 z"
       inkscape:connector-curvature="0"
       style="fill:#dc918c;stroke:#dc918c;stroke-width:1.50999999" />
    <path
       id="path4670"
       d="m 891,682 143,205 137,-310 z"
       inkscape:connector-curvature="0"
       style="fill:#e1ecf3;stroke:#e1ecf3;stroke-width:1.50999999" />
    <path
       id="path4672"
       d="m 889,1251 -27,100 319,-23 z"
       inkscape:connector-curvature="0"
       style="fill:#98acd3;stroke:#98acd3;stroke-width:1.50999999" />
    <path
       id="path4674"
       d="m 1122,470 -146,6 195,101 z"
       inkscape:connector-curvature="0"
       style="fill:#eff0f2;stroke:#eff0f2;stroke-width:1.50999999" />
    <path
       id="path4676"
       d="M 976,476 891,682 1171,577 Z"
       inkscape:connector-curvature="0"
       style="fill:#f0f3f6;stroke:#f0f3f6;stroke-width:1.50999999" />
    <path
       id="path4678"
       d="m 1124,2 -135,113 140,-4 z"
       inkscape:connector-curvature="0"
       style="fill:#eebeaf;stroke:#eebeaf;stroke-width:1.50999999" />
    <path
       id="path4680"
       d="M 984,-67 989,115 1124,2 Z"
       inkscape:connector-curvature="0"
       style="fill:#eeb5a7;stroke:#eeb5a7;stroke-width:1.50999999" />
    <path
       id="path4682"
       d="m 795,434 181,42 13,-361 z"
       inkscape:connector-curvature="0"
       style="fill:#fbe6db;stroke:#fbe6db;stroke-width:1.50999999" />
    <path
       id="path4684"
       d="m 733,-122 251,55 61,-238 z"
       inkscape:connector-curvature="0"
       style="fill:#e69a8f;stroke:#e69a8f;stroke-width:1.50999999" />
    <path
       id="path4686"
       d="m 648,-283 85,161 312,-183 z"
       inkscape:connector-curvature="0"
       style="fill:#df897e;stroke:#df897e;stroke-width:1.50999999" />
    <path
       id="path4688"
       d="M 891,682 806,997 1034,887 Z"
       inkscape:connector-curvature="0"
       style="fill:#d3e1ea;stroke:#d3e1ea;stroke-width:1.50999999" />
    <path
       id="path4690"
       d="m 795,434 96,248 85,-206 z"
       inkscape:connector-curvature="0"
       style="fill:#f8f2ef;stroke:#f8f2ef;stroke-width:1.50999999" />
    <path
       id="path4692"
       d="M 624,134 795,434 989,115 Z"
       inkscape:connector-curvature="0"
       style="fill:#fbd1bc;stroke:#fbd1bc;stroke-width:1.50999999" />
    <path
       id="path4694"
       d="M 984,-67 733,-122 989,115 Z"
       inkscape:connector-curvature="0"
       style="fill:#f0ad9d;stroke:#f0ad9d;stroke-width:1.50999999" />
    <path
       id="path4696"
       d="M 733,-122 624,134 989,115 Z"
       inkscape:connector-curvature="0"
       style="fill:#f4b29c;stroke:#f4b29c;stroke-width:1.50999999" />
    <path
       id="path4698"
       d="m 806,997 -82,67 165,187 z"
       inkscape:connector-curvature="0"
       style="fill:#aebfd1;stroke:#aebfd1;stroke-width:1.50999999" />
    <path
       id="path4700"
       d="M 670,604 469,834 806,997 Z"
       inkscape:connector-curvature="0"
       style="fill:#ded6d3;stroke:#ded6d3;stroke-width:1.50999999" />
    <path
       id="path4702"
       d="M 670,604 806,997 891,682 Z"
       inkscape:connector-curvature="0"
       style="fill:#e4e3e3;stroke:#e4e3e3;stroke-width:1.50999999" />
    <path
       id="path4704"
       d="M 795,434 670,604 891,682 Z"
       inkscape:connector-curvature="0"
       style="fill:#f7ece7;stroke:#f7ece7;stroke-width:1.50999999" />
    <path
       id="path4706"
       d="m 562,1250 300,101 27,-100 z"
       inkscape:connector-curvature="0"
       style="fill:#a1a7c4;stroke:#a1a7c4;stroke-width:1.50999999" />
    <path
       id="path4708"
       d="m 724,1064 -162,186 327,1 z"
       inkscape:connector-curvature="0"
       style="fill:#a8b1c5;stroke:#a8b1c5;stroke-width:1.50999999" />
    <path
       id="path4710"
       d="m 562,1250 213,226 87,-125 z"
       inkscape:connector-curvature="0"
       style="fill:#9b9ab7;stroke:#9b9ab7;stroke-width:1.50999999" />
    <path
       id="path4712"
       d="M 624,134 521,224 795,434 Z"
       inkscape:connector-curvature="0"
       style="fill:#fccbb3;stroke:#fccbb3;stroke-width:1.50999999" />
    <path
       id="path4714"
       d="m 521,224 -67,204 341,6 z"
       inkscape:connector-curvature="0"
       style="fill:#fcd2bc;stroke:#fcd2bc;stroke-width:1.50999999" />
    <path
       id="path4716"
       d="m 469,834 255,230 82,-67 z"
       inkscape:connector-curvature="0"
       style="fill:#c7c9cd;stroke:#c7c9cd;stroke-width:1.50999999" />
    <path
       id="path4718"
       d="M 454,428 670,604 795,434 Z"
       inkscape:connector-curvature="0"
       style="fill:#fbe0d2;stroke:#fbe0d2;stroke-width:1.50999999" />
    <path
       id="path4720"
       d="m 562,1250 -138,191 351,35 z"
       inkscape:connector-curvature="0"
       style="fill:#9a8aa0;stroke:#9a8aa0;stroke-width:1.50999999" />
    <path
       id="path4722"
       d="m 648,-283 -170,169 255,-8 z"
       inkscape:connector-curvature="0"
       style="fill:#e28673;stroke:#e28673;stroke-width:1.50999999" />
    <path
       id="path4724"
       d="M 478,-114 624,134 733,-122 Z"
       inkscape:connector-curvature="0"
       style="fill:#ec9980;stroke:#ec9980;stroke-width:1.50999999" />
    <path
       id="path4726"
       d="m 469,834 93,416 162,-186 z"
       inkscape:connector-curvature="0"
       style="fill:#bbb7be;stroke:#bbb7be;stroke-width:1.50999999" />
    <path
       id="path4728"
       d="M 469,834 311,943 562,1250 Z"
       inkscape:connector-curvature="0"
       style="fill:#c1aeae;stroke:#c1aeae;stroke-width:1.50999999" />
    <path
       id="path4730"
       d="M 388,734 469,834 670,604 Z"
       inkscape:connector-curvature="0"
       style="fill:#eacfc4;stroke:#eacfc4;stroke-width:1.50999999" />
    <path
       id="path4732"
       d="M 454,428 388,734 670,604 Z"
       inkscape:connector-curvature="0"
       style="fill:#f6d4c5;stroke:#f6d4c5;stroke-width:1.50999999" />
    <path
       id="path4734"
       d="m 534,-364 -56,250 170,-169 z"
       inkscape:connector-curvature="0"
       style="fill:#d87363;stroke:#d87363;stroke-width:1.50999999" />
    <path
       id="path4736"
       d="m 478,-114 43,338 103,-90 z"
       inkscape:connector-curvature="0"
       style="fill:#f2a687;stroke:#f2a687;stroke-width:1.50999999" />
    <path
       id="path4738"
       d="m 478,-114 -166,14 209,324 z"
       inkscape:connector-curvature="0"
       style="fill:#ea8e70;stroke:#ea8e70;stroke-width:1.50999999" />
    <path
       id="path4740"
       d="m 312,-100 -42,323 251,1 z"
       inkscape:connector-curvature="0"
       style="fill:#ef9978;stroke:#ef9978;stroke-width:1.50999999" />
    <path
       id="path4742"
       d="m 312,-100 166,-14 56,-250 z"
       inkscape:connector-curvature="0"
       style="fill:#da705c;stroke:#da705c;stroke-width:1.50999999" />
    <path
       id="path4744"
       d="m 225,1189 199,252 138,-191 z"
       inkscape:connector-curvature="0"
       style="fill:#a38699;stroke:#a38699;stroke-width:1.50999999" />
    <path
       id="path4746"
       d="m 311,943 -86,246 337,61 z"
       inkscape:connector-curvature="0"
       style="fill:#ad969e;stroke:#ad969e;stroke-width:1.50999999" />
    <path
       id="path4748"
       d="M 270,223 454,428 521,224 Z"
       inkscape:connector-curvature="0"
       style="fill:#f8b89a;stroke:#f8b89a;stroke-width:1.50999999" />
    <path
       id="path4750"
       d="m 210,-385 102,285 222,-264 z"
       inkscape:connector-curvature="0"
       style="fill:#c95b4d;stroke:#c95b4d;stroke-width:1.50999999" />
    <path
       id="path4752"
       d="m -332,-355 300,46 242,-76 z"
       inkscape:connector-curvature="0"
       style="fill:#a21e2c;stroke:#a21e2c;stroke-width:1.50999999" />
    <path
       id="path4754"
       d="M 149,405 388,734 454,428 Z"
       inkscape:connector-curvature="0"
       style="fill:#f6c1b0;stroke:#f6c1b0;stroke-width:1.50999999" />
    <path
       id="path4756"
       d="M 388,734 311,943 469,834 Z"
       inkscape:connector-curvature="0"
       style="fill:#d9b9b1;stroke:#d9b9b1;stroke-width:1.50999999" />
    <path
       id="path4758"
       d="m 149,405 -4,333 243,-4 z"
       inkscape:connector-curvature="0"
       style="fill:#ebb2a5;stroke:#ebb2a5;stroke-width:1.50999999" />
    <path
       id="path4760"
       d="m 225,1189 -41,286 240,-34 z"
       inkscape:connector-curvature="0"
       style="fill:#986d81;stroke:#986d81;stroke-width:1.50999999" />
    <path
       id="path4762"
       d="M 270,223 149,405 454,428 Z"
       inkscape:connector-curvature="0"
       style="fill:#f4b097;stroke:#f4b097;stroke-width:1.50999999" />
    <path
       id="path4764"
       d="M 145,738 311,943 388,734 Z"
       inkscape:connector-curvature="0"
       style="fill:#daafa6;stroke:#daafa6;stroke-width:1.50999999" />
    <path
       id="path4766"
       d="m 38,619 107,119 4,-333 z"
       inkscape:connector-curvature="0"
       style="fill:#e9a69b;stroke:#e9a69b;stroke-width:1.50999999" />
    <path
       id="path4768"
       d="M 61,450 38,619 149,405 Z"
       inkscape:connector-curvature="0"
       style="fill:#eba294;stroke:#eba294;stroke-width:1.50999999" />
    <path
       id="path4770"
       d="m 36,814 -126,294 315,81 z"
       inkscape:connector-curvature="0"
       style="fill:#b07f86;stroke:#b07f86;stroke-width:1.50999999" />
    <path
       id="path4772"
       d="m 39,1342 145,133 41,-286 z"
       inkscape:connector-curvature="0"
       style="fill:#97637b;stroke:#97637b;stroke-width:1.50999999" />
    <path
       id="path4774"
       d="m 36,814 189,375 86,-246 z"
       inkscape:connector-curvature="0"
       style="fill:#be9494;stroke:#be9494;stroke-width:1.50999999" />
    <path
       id="path4776"
       d="M 145,738 36,814 311,943 Z"
       inkscape:connector-curvature="0"
       style="fill:#d29e98;stroke:#d29e98;stroke-width:1.50999999" />
    <path
       id="path4778"
       d="m -100,90 370,133 42,-323 z"
       inkscape:connector-curvature="0"
       style="fill:#e0765e;stroke:#e0765e;stroke-width:1.50999999" />
    <path
       id="path4780"
       d="M -15,-158 -100,90 312,-100 Z"
       inkscape:connector-curvature="0"
       style="fill:#d05647;stroke:#d05647;stroke-width:1.50999999" />
    <path
       id="path4782"
       d="m 210,-385 -225,227 327,58 z"
       inkscape:connector-curvature="0"
       style="fill:#c84940;stroke:#c84940;stroke-width:1.50999999" />
    <path
       id="path4784"
       d="m -32,-309 17,151 225,-227 z"
       inkscape:connector-curvature="0"
       style="fill:#b53234;stroke:#b53234;stroke-width:1.50999999" />
    <path
       id="path4786"
       d="M -100,90 149,405 270,223 Z"
       inkscape:connector-curvature="0"
       style="fill:#e78b73;stroke:#e78b73;stroke-width:1.50999999" />
    <path
       id="path4788"
       d="M -90,1108 39,1342 225,1189 Z"
       inkscape:connector-curvature="0"
       style="fill:#9c697c;stroke:#9c697c;stroke-width:1.50999999" />
    <path
       id="path4790"
       d="M -100,90 61,450 149,405 Z"
       inkscape:connector-curvature="0"
       style="fill:#e68e7b;stroke:#e68e7b;stroke-width:1.50999999" />
    <path
       id="path4792"
       d="m 39,1342 -356,134 501,-1 z"
       inkscape:connector-curvature="0"
       style="fill:#82435c;stroke:#82435c;stroke-width:1.50999999" />
    <path
       id="path4794"
       d="M -100,90 -191,264 61,450 Z"
       inkscape:connector-curvature="0"
       style="fill:#de7c6b;stroke:#de7c6b;stroke-width:1.50999999" />
    <path
       id="path4796"
       d="M 38,619 36,814 145,738 Z"
       inkscape:connector-curvature="0"
       style="fill:#db9c96;stroke:#db9c96;stroke-width:1.50999999" />
    <path
       id="path4798"
       d="M -200,569 36,814 38,619 Z"
       inkscape:connector-curvature="0"
       style="fill:#d9938e;stroke:#d9938e;stroke-width:1.50999999" />
    <path
       id="path4800"
       d="M -200,569 38,619 61,450 Z"
       inkscape:connector-curvature="0"
       style="fill:#e49990;stroke:#e49990;stroke-width:1.50999999" />
    <path
       id="path4802"
       d="M -191,264 -200,569 61,450 Z"
       inkscape:connector-curvature="0"
       style="fill:#df897e;stroke:#df897e;stroke-width:1.50999999" />
    <path
       id="path4804"
       d="M -366,923 -90,1108 36,814 Z"
       inkscape:connector-curvature="0"
       style="fill:#b1777e;stroke:#b1777e;stroke-width:1.50999999" />
    <path
       id="path4806"
       d="m -90,1108 -184,135 313,99 z"
       inkscape:connector-curvature="0"
       style="fill:#92576f;stroke:#92576f;stroke-width:1.50999999" />
    <path
       id="path4808"
       d="m -274,1243 -43,233 356,-134 z"
       inkscape:connector-curvature="0"
       style="fill:#7e4262;stroke:#7e4262;stroke-width:1.50999999" />
    <path
       id="path4810"
       d="M -200,569 -366,923 36,814 Z"
       inkscape:connector-curvature="0"
       style="fill:#c28384;stroke:#c28384;stroke-width:1.50999999" />
    <path
       id="path4812"
       d="m -334,-47 234,137 85,-248 z"
       inkscape:connector-curvature="0"
       style="fill:#c1423c;stroke:#c1423c;stroke-width:1.50999999" />
    <path
       id="path4814"
       d="m -32,-309 -300,-46 317,197 z"
       inkscape:connector-curvature="0"
       style="fill:#ab152a;stroke:#ab152a;stroke-width:1.50999999" />
    <path
       id="path4816"
       d="m -332,-355 -2,308 319,-111 z"
       inkscape:connector-curvature="0"
       style="fill:#a8212d;stroke:#a8212d;stroke-width:1.50999999" />
    <path
       id="path4818"
       d="m -325,335 125,234 9,-305 z"
       inkscape:connector-curvature="0"
       style="fill:#cc7e76;stroke:#cc7e76;stroke-width:1.50999999" />
    <path
       id="path4820"
       d="m -366,923 92,320 184,-135 z"
       inkscape:connector-curvature="0"
       style="fill:#8b6072;stroke:#8b6072;stroke-width:1.50999999" />
    <path
       id="path4822"
       d="m -334,-47 143,311 91,-174 z"
       inkscape:connector-curvature="0"
       style="fill:#c4594c;stroke:#c4594c;stroke-width:1.50999999" />
    <path
       id="path4824"
       d="m -334,-47 9,382 134,-71 z"
       inkscape:connector-curvature="0"
       style="fill:#bd6256;stroke:#bd6256;stroke-width:1.50999999" />
    <path
       id="path4826"
       d="m -325,335 -41,588 166,-354 z"
       inkscape:connector-curvature="0"
       style="fill:#bd8284;stroke:#bd8284;stroke-width:1.50999999" />
    <path
       id="path4828"
       d="m -366,923 49,553 43,-233 z"
       inkscape:connector-curvature="0"
       style="fill:#744d69;stroke:#744d69;stroke-width:1.50999999" />
    <path
       id="path4830"
       d="m -334,-47 -32,970 41,-588 z"
       inkscape:connector-curvature="0"
       style="fill:#bb7874;stroke:#bb7874;stroke-width:1.50999999" />
    <path
       id="path4832"
       d="m -366,923 32,-970 2,-308 z"
       inkscape:connector-curvature="0"
       style="fill:#b45d53;stroke:#b45d53;stroke-width:1.50999999" />
  </g>
  <g
     id="g5663"
     transform="translate(-1.9350438,0.24999961)">
    <path
       id="path501"
       style="color:#000000;font-variant-ligatures:normal;font-variant-position:normal;font-variant-caps:normal;font-variant-numeric:normal;font-variant-alternates:normal;font-feature-settings:normal;text-indent:0;text-decoration:none;text-decoration-line:none;text-decoration-style:solid;text-decoration-color:#000000;text-transform:none;text-orientation:mixed;dominant-baseline:auto;white-space:normal;shape-padding:0;isolation:auto;mix-blend-mode:normal;solid-color:#000000;fill:#c23624;paint-order:stroke fill markers;color-rendering:auto;image-rendering:auto;shape-rendering:auto"
       dominant-baseline="auto"
       d="m 154.41,21.432 c -0.12734,-0.0015 -0.25152,0.02397 -0.3452,0.0708 l -7.4311,3.6814 0.11059,1.741 -1.3865,0.82424 0.12919,5.3449 c 0.002,0.12644 0.0726,0.24181 0.18397,0.30179 l 1.1756,0.63149 -0.0878,3.3119 c -0.004,0.1359 0.0717,0.26162 0.19327,0.32246 l 2.0838,1.0233 0.88037,-0.2764 0.01,0.67332 c 0.49102,0.26369 1.5032,0.81538 1.5032,0.81538 l 1.2922,-0.65244 -0.0315,1.1298 c -0.003,0.14428 0.0822,0.34558 0.21549,0.40101 l 1.5839,0.7369 1.4562,-0.80977 1.404,0.7798 0.44442,0.12557 1.1632,-0.62167 c 0.11384,-0.06086 0.18493,-0.17942 0.185,-0.30851 v -1.6418 l 0.93741,0.68575 v 0.08165 c 2.6e-4,0.26405 0.28169,0.43273 0.5147,0.30851 l 1.263,-0.67489 c 0.11383,-0.06086 0.18493,-0.17943 0.185,-0.30851 v -1.3503 l 1.0253,0.61495 c 0.091,0.17046 0.30282,0.23499 0.47335,0.14418 l 1.6201,-0.86558 c 0.11383,-0.06086 0.18493,-0.17943 0.185,-0.30851 v -3.4246 l 1.0506,-0.54519 c 0.11806,-0.06133 0.19115,-0.18428 0.18862,-0.31729 l -0.0935,-4.8881 c -0.002,-0.10218 -0.0491,-0.19827 -0.12815,-0.26303 l 0.009,-0.05684 -1.4072,-0.84956 -0.0191,-1.7699 -7.1944,-3.7047 c -0.18739,-0.09438 -0.48505,-0.09074 -0.67076,0.0083 l -1.1855,0.62838 -1.1477,-0.66766 c -0.0864,-0.05057 -0.20833,-0.08002 -0.33797,-0.08165 z m -0.0512,0.61857 1.1565,0.67386 c 0.18256,0.10636 0.49805,0.10868 0.6935,0.0052 l 1.2087,-0.64182 6.3603,3.2251 -0.9219,0.58343 c -0.14109,0.08958 -0.15279,0.21728 -0.0284,0.31109 l 0.86247,0.65061 -6.1464,3.1042 -1.3343,-0.55397 c -0.19817,-0.08198 -0.48503,-0.06682 -0.65525,0.03462 l -0.97875,0.58343 -6.611,-3.1828 0.91467,-0.57826 c 0.16041,-0.1012 0.15262,-0.2491 -0.0181,-0.3421 l -1.0811,-0.58446 z m 10.044,3.6675 0.0129,0.84594 -0.58963,-0.49713 z m -17.21,0.03824 0.67386,0.3638 -0.58859,0.37207 z m 17.769,1.6635 0.86557,0.54415 -0.86971,0.44907 -0.004,-0.1602 z m -18.102,0.2341 0.009,0.93018 -0.73226,-0.51883 z m 0.49299,0.05994 6.5381,3.0913 -0.0238,0.9741 -0.49868,-0.22841 -0.54673,-0.25011 -0.94672,-0.43356 c -0.0426,-0.01945 -0.0886,-0.03017 -0.13539,-0.03152 -0.1972,-0.0057 -0.36015,0.15257 -0.36018,0.34985 v 2.744 c 0.13781,0.42626 0.20517,0.55292 0.5581,0.80977 l 2.1255,0.9741 c 0.23182,0.10599 0.49556,-0.06342 0.49557,-0.31833 v -2.342 l 0.84336,0.4222 v 3.9207 l -1.0867,-0.38034 c -0.22566,-0.07896 -0.46231,0.08651 -0.46561,0.32556 l -0.0403,3.1466 -0.41445,-0.21859 0.0408,-1.8262 c 0.003,-0.13957 -0.0768,-0.26772 -0.2036,-0.32608 l -1.7306,-0.79478 c -0.22469,-0.10314 -0.48261,0.05284 -0.49557,0.29972 l -0.0641,1.2516 -0.31678,-0.18862 -0.0419,-1.7084 c -0.003,-0.13411 -0.083,-0.25454 -0.20515,-0.31006 l -1.0294,-0.46819 c -0.22464,-0.10178 -0.48129,0.05446 -0.49402,0.30076 l -0.0661,1.2981 -1.3245,-0.66146 0.0884,-3.3047 c 0.004,-0.13218 -0.0681,-0.25513 -0.18448,-0.31781 l -1.1844,-0.63665 -0.0791,-4.1858 0.75964,0.45837 c 0.22951,0.13004 0.44878,-0.03088 0.45631,-0.29456 z m 16.887,0.03979 0.0274,1.048 -2.3926,1.0966 c -0.12444,0.05707 -0.20419,0.18143 -0.20413,0.31833 v 3.0737 c 1e-5,0.2549 0.26376,0.42432 0.49558,0.31833 l 2.4515,-1.124 c 0.20395,-0.15412 0.24691,-0.53356 0.23151,-0.99477 v -2.234 l 0.95395,-0.49196 0.0785,4.1093 -1.0464,0.54312 c -0.11589,0.06023 -0.18861,0.17997 -0.18862,0.31058 v 3.4272 l -0.92036,0.49196 v -1.1756 c -7e-5,-0.25315 -0.26055,-0.42252 -0.49196,-0.31988 l -1.6836,0.74828 c -0.12636,0.05622 -0.20777,0.18157 -0.20773,0.31988 v 1.7007 l -0.5632,0.30127 v -1.4872 c -1.3e-4,-0.25834 -0.2704,-0.42753 -0.50281,-0.31471 l -1.6371,0.7953 c -0.12043,0.0586 -0.19687,0.18078 -0.19689,0.31471 v 1.9399 l -0.46354,0.24805 v -3.1678 c -1.5e-4,-0.26233 -0.27815,-0.43127 -0.51107,-0.31058 l -0.90382,0.4687 v -4.4731 l 1.2263,-0.63665 c 0.11589,-0.06023 0.18861,-0.17997 0.18861,-0.31058 v -1.4495 z m 0.0749,1.6738 0.0496,2.1017 -0.96222,-0.4439 -0.0315,-1.2165 z m -1.419,0.56431 0.06,1.1648 -0.75086,0.28784 -0.0331,-1.1353 z m -6.6373,0.0894 1.0103,0.42013 c 0.009,0.0037 0.0198,0.0045 0.0289,0.0077 -0.0119,0.03565 -0.018,0.07299 -0.0181,0.11059 v 1.2573 l -0.99374,-0.43615 z m -0.51728,0.01912 -0.0341,1.1751 -1.141,0.56224 0.0129,-1.049 z m -8.6708,0.0031 c -0.22541,-0.02701 -0.33558,0.1817 -0.41393,0.33383 v 1.3084 c -0.0257,0.43312 0.073,0.63798 0.34779,0.81804 l 2.7807,1.5012 c 0.23316,0.12733 0.51761,-0.0413 0.5178,-0.30696 v -1.7115 c -2e-5,-0.12786 -0.0698,-0.24554 -0.1819,-0.30696 -0.48808,-0.25728 -0.98588,-0.52277 -1.4278,-0.7798 l -1.5187,-0.8294 c -0.0371,-0.01433 -0.0717,-0.02301 -0.10387,-0.02687 z m 0.31884,0.79117 0.84233,0.41755 -0.8754,0.18758 z m 4.5253,0.67076 0.68368,0.24856 -0.0543,1.6242 -0.62942,0.29249 z m 11.394,0.05839 0.9834,0.50333 -2.0872,0.94826 0.0165,-0.97152 z m -14.372,0.12196 0.86506,0.54157 0.0331,1.1126 -2.0888,-1.1829 z m 6.9195,0.09198 1.0785,0.52762 -1.0573,0.56482 -1.0356,-0.51883 c 0.41529,-0.26413 1.0144,-0.57361 1.0144,-0.57361 z m -2.4877,0.2434 0.62373,0.36587 v 1.2532 l -0.66662,-0.31574 z m 7.0047,0.01705 c -0.0552,0.0017 -0.1092,0.01637 -0.15761,0.04289 l -2.9466,1.6097 c -0.11216,0.06141 -0.18189,0.17909 -0.18191,0.30696 v 1.7115 c 2e-4,0.26566 0.28464,0.43428 0.5178,0.30696 l 3.1285,-1.8784 v -1.7498 c -2e-5,-0.19728 -0.16298,-0.35557 -0.36018,-0.34985 z m -0.33951,0.94 0.047,0.72812 -0.79168,-0.339 z m -1.3048,0.67851 0.83715,0.46974 -1.7792,0.99322 V 34.2654 Z m -5.7221,0.2651 1.0185,0.5116 -0.0496,0.63717 -1.6836,-0.79117 z m 10.02,3.0272 v 0.94206 l -0.89348,-0.54519 z m -13.499,0.03979 0.36173,0.16433 -0.001,0.86377 -0.42465,0.12602 z m 5.0157,0.78807 1.0935,0.38292 c 0.018,0.0063 0.0358,0.0056 0.0537,0.0088 v 1.9436 l -1.1869,0.64751 z m 2.7363,0.28784 v 2.7218 c -0.30143,-0.16694 -0.9276,-0.54209 -0.9276,-0.54209 l -0.0512,-1.6831 c 0.0259,-0.0064 0.0511,-0.01577 0.0749,-0.02791 z m -5.6007,0.04858 1.0521,0.48318 -0.004,0.16898 -1.1054,0.47026 z m 8.401,0.11937 v 1.0072 l -0.8232,-0.6072 z"
       inkscape:connector-curvature="0" />
    <text
       id="text505"
       xml:space="preserve"
       style="font-size:7.76109982px;line-height:7.05555534px;font-family:'Liberation Mono';font-variant-ligatures:normal;font-variant-caps:normal;font-variant-numeric:normal;font-feature-settings:normal;letter-spacing:0px;word-spacing:0px;fill:#000000;stroke-width:0.26458001"
       word-spacing="0px"
       letter-spacing="0px"
       font-size="7.7611px"
       y="33.795811"
       x="86.655647"><tspan
         id="tspan503"
         style="font-size:7.76109982px;font-family:'Liberation Mono';font-variant-ligatures:normal;font-variant-caps:normal;font-variant-numeric:normal;font-feature-settings:normal;stroke-width:0.26458001"
         font-size="7.7611px"
         y="33.795811"
         x="86.655647">ASN @ NDH</tspan></text>
    <g
       id="g5647">
      <path
         style="fill:#395582;fill-rule:evenodd;stroke:#182336;stroke-width:0.47003001;stroke-linecap:round;stroke-linejoin:round"
         inkscape:connector-curvature="0"
         id="path507"
         d="m 70.64,36.185 2.4616,2.1111 -3.0201,4.2478 1.2468,-4.0735 -1.6754,-0.7065 z" />
      <path
         style="fill:#395582;fill-rule:evenodd;stroke:#182336;stroke-width:0.47003001;stroke-linecap:round;stroke-linejoin:round"
         inkscape:connector-curvature="0"
         id="path509"
         d="m 52.704,37.14 -2.26,2.5785 3.4887,3.2058 -1.7145,-3.3733 1.5247,-1.0495 z" />
      <path
         style="fill:#395582;fill-rule:evenodd;stroke:#182336;stroke-width:0.47003001;stroke-linecap:round;stroke-linejoin:round"
         inkscape:connector-curvature="0"
         id="path511"
         d="m 71.211,31.037 3.2171,0.40932 -0.18608,5.2086 -1.1991,-4.0877 -1.7878,0.33133 z" />
      <path
         style="fill:#395582;fill-rule:evenodd;stroke:#182336;stroke-width:0.47003001;stroke-linecap:round;stroke-linejoin:round"
         inkscape:connector-curvature="0"
         id="path513"
         d="m 51.729,31.326 -3.3553,0.7056 0.86568,4.6581 0.65374,-3.7271 1.8494,0.07581 z" />
      <path
         style="fill:#395582;fill-rule:evenodd;stroke:#182336;stroke-width:0.47003001;stroke-linecap:round;stroke-linejoin:round"
         inkscape:connector-curvature="0"
         id="path515"
         d="m 68.771,26.196 3.2185,-1.7312 2.1481,4.9077 -2.715,-3.1369 -1.3714,1.1939 z" />
      <path
         style="fill:#395582;fill-rule:evenodd;stroke:#182336;stroke-width:0.47003001;stroke-linecap:round;stroke-linejoin:round"
         inkscape:connector-curvature="0"
         id="path517"
         d="m 53.637,26.516 -2.9127,-1.814 -2.4947,5.2104 3.0165,-3.3573 1.3368,1.3306 z" />
      <path
         style="fill:#e40000;fill-rule:evenodd;stroke:#320d0d;stroke-width:0.47003001;stroke-linecap:round;stroke-linejoin:round"
         inkscape:connector-curvature="0"
         id="path521"
         d="m 62.564,20.116 2.8541,2.5755 -0.20152,1.5592 -1.664,-0.38021 0.3858,-1.3305 z" />
      <path
         style="fill:#e40000;fill-rule:evenodd;stroke:#320d0d;stroke-width:0.47003001;stroke-linecap:round;stroke-linejoin:round"
         inkscape:connector-curvature="0"
         id="path523"
         d="m 59.362,23.595 -0.71408,-1.0145 1.753,-2.4643 -3.2606,2.5171 0.76323,1.7939 z" />
      <path
         style="fill:#6f6f6f;stroke:#292929;stroke-width:0.47003001;stroke-linecap:round;stroke-linejoin:round"
         inkscape:connector-curvature="0"
         id="path525"
         d="m 63.193,34.705 h -2.8704 c -0.17935,-0.87292 0.712,-1.6198 0.71762,-2.2707 -0.84888,-0.74826 -0.79725,-2.3265 0.71762,-2.3438 1.5149,-0.01731 1.6188,1.4177 0.71762,2.3438 0.02919,0.67156 0.89934,1.4445 0.71762,2.2707 z" />
      <path
         style="fill:#3ba337;stroke:#123111;stroke-width:0.47003001;stroke-linecap:round;stroke-linejoin:round"
         inkscape:connector-curvature="0"
         id="path527"
         d="m 60.302,35.969 c 0,0 -2.6558,-0.75239 -2.7189,-3.2715 -0.06314,-2.519 2.0125,-3.832 4.1288,-3.899 2.1163,-0.06692 4.0912,1.6738 4.2085,3.899 0.11736,2.2251 -2.7199,3.2715 -2.7199,3.2715 l 1.6386,4.1521 c 0,0 5.5062,-2.1938 5.5156,-7.4236 0.0092,-5.2298 -3.1682,-8.067 -8.5091,-8.1218 -5.3409,-0.05466 -9.2143,2.1128 -9.1086,8.1412 0.10557,6.0283 5.3363,7.7182 5.6712,7.4042 z" />
    </g>
  </g>
</svg>
