<?xml version="1.0" encoding="UTF-8"?>
<!-- Created with Inkscape (http://www.inkscape.org/) -->
<svg width="200mm" height="200mm" version="1.1" viewBox="0 0 200 200" xmlns="http://www.w3.org/2000/svg" xmlns:cc="http://creativecommons.org/ns#" xmlns:dc="http://purl.org/dc/elements/1.1/" xmlns:rdf="http://www.w3.org/1999/02/22-rdf-syntax-ns#">
  <metadata>
    <rdf:RDF>
      <cc:Work rdf:about="">
        <dc:format>image/svg+xml</dc:format>
        <dc:type rdf:resource="http://purl.org/dc/dcmitype/StillImage"/>
        <dc:title/>
      </cc:Work>
    </rdf:RDF>
  </metadata>
  <g stroke-linecap="round" stroke-linejoin="round" stroke-width="3.3655">
    <g fill="none" stroke="#b070ff">
      <path class="cls-2" d="m154.72 52.985 23.09-12.781 14.784 34.321-19.209-22.373-9.412 7.7621z"/>
      <path d="m114.25 113.44h-20.553c-1.2842-6.2503 5.0981-11.598 5.1383-16.259-6.0782-5.3577-5.7085-16.658 5.1383-16.782 10.847-0.12398 11.591 10.151 5.1383 16.782 0.20901 4.8086 6.4395 10.343 5.1383 16.259z"/>
      <path d="m93.038 122.92s-19.016-5.3873-19.468-23.425c-0.4521-18.037 14.124-27.725 28.991-28.347 14.867-0.62205 29.866 12.415 30.706 28.347 0.84036 15.932-19.475 23.425-19.475 23.425l11.733 29.73s39.426-15.708 39.493-53.155c0.0661-37.447-22.685-57.762-60.927-58.154-38.242-0.39134-65.977 15.128-65.22 58.293 0.75588 43.164 38.209 55.264 40.607 53.016z"/>
      <path d="m38.127 131.31-16.182 18.463 24.98 22.954-12.276-24.154 10.917-7.515z"/>
      <path d="m45.313 54.729-20.856-12.989-17.863 37.308 21.599-24.039l9.5716 9.5272z"/>
      <path class="cls-2" d="m167.1 123.7 17.75 15.457-21.773 31.142 9.006-29.867-12.091-5.1631z"/>
      <path d="m32.157 89.177-24.025 5.0522 6.1985 33.353 4.6809-26.687 13.242 0.54284z"/>
      <path class="cls-2" d="m171.66 86.454 23.202 3.0064-1.3495 38.168-8.6498-29.965-12.894 2.4181z"/>
      <path d="m86.813 33.31-5.113-7.2641 12.552-17.645l-23.347 18.023 5.4649 12.845z"/>
      <path d="m112.01 12.712 17.815 15.592-1.215 10.594-11.915-2.7224 2.7624-9.5265z"/>
    </g>
    <path d="m153.18 51.429 23.045-12.396 15.381 35.14-19.44-22.461-9.8196 8.5484z" fill="#395582" fill-rule="evenodd" stroke="#182336"/>
    <path d="m113.24 112.36h-20.553c-1.2842-6.2503 5.0981-11.598 5.1383-16.259-6.0782-5.3577-5.7085-16.658 5.1383-16.782 10.847-0.12398 11.591 10.151 5.1383 16.782 0.20901 4.8085 6.4395 10.343 5.1383 16.259z" fill="#6f6f6f" stroke="#292929"/>
    <path d="m92.534 121.41s-19.016-5.3873-19.468-23.425c-0.4521-18.037 14.41-27.438 29.563-27.918 15.153-0.47913 29.294 11.985 30.134 27.918 0.84036 15.932-19.475 23.425-19.475 23.425l11.733 29.73s39.426-15.708 39.493-53.155c0.0661-37.447-22.685-57.762-60.927-58.154-38.242-0.39134-65.977 15.128-65.22 58.293 0.75588 43.164 38.209 55.264 40.607 53.016z" fill="#3ba337" stroke="#123111"/>
    <g fill-rule="evenodd">
      <path d="m38.127 129.8-16.182 18.463 24.98 22.954-12.276-24.154 10.917-7.515z" fill="#395582" stroke="#182336"/>
      <path d="M 44.808,53.72 23.952,40.731 6.089,78.039 27.688,54 l 9.5716,9.5272 z" fill="#395582" stroke="#182336"/>
      <path d="m85.804 32.805-5.113-7.2641 12.552-17.645-23.347 18.023 5.4649 12.845z" fill="#e40000" stroke="#320d0d"/>
      <path d="m108.73 7.894 20.436 18.441-1.4429 11.164-11.915-2.7224 2.7624-9.5265z" fill="#e40000" stroke="#320d0d"/>
    </g>
    <g fill="#395582" fill-rule="evenodd" stroke="#182336">
      <path d="m166.56 122.96 17.626 15.116-21.625 30.415 8.9272-29.167-11.996-5.0587z"/>
      <path d="m31.148 88.166-24.025 5.0523 6.1985 33.353 4.6809-26.687 13.242 0.54284z"/>
      <path d="m170.65 86.092 23.035 2.9308-1.3324 37.295-8.5857-29.269-12.801 2.3724z"/>
    </g>
  </g>
  <g fill="#454545" stroke="#cbcbcb" stroke-linecap="round" stroke-linejoin="round" stroke-width="2.6458">
    <path d="m112.79 190.42v-5.8645q0-1.3358-0.36949-1.9611-0.36001-0.62529-1.2506-0.62529-0.98531 0-1.5822 0.84319-0.58739 0.83373-0.58739 2.1127v5.495h-2.6622v-7.9583q0-0.82425-0.0284-1.3453-0.019-0.53055-0.0474-0.94742h2.5391q0.0284 0.18001 0.0758 0.96637 0.0474 0.77687 0.0474 1.0706h0.0379q0.54002-1.1748 1.3548-1.7053 0.81477-0.53055 1.9422-0.53055 3.1833 0 3.1833 3.9412v6.5087z" style="paint-order:stroke fill markers"/>
    <path d="m105.44 185.28q0 2.5485-1.2885 3.9412-1.2885 1.3832-3.7044 1.3832-2.3306 0-3.6191-1.3832-1.2885-1.3927-1.2885-3.9412 0-2.5391 1.279-3.9223t3.6854-1.3832q4.936 0 4.936 5.3055zm-2.7854 0q0-1.819-0.48318-2.6433-0.48318-0.83372-1.6296-0.83372-1.1748 0-1.6959 0.83372-0.5116 0.83372-0.5116 2.6433 0 1.8285 0.52108 2.6717 0.53055 0.83372 1.5632 0.83372 1.1748 0 1.7053-0.82424 0.53055-0.83373 0.53055-2.6812z" style="paint-order:stroke fill markers"/>
    <path d="m91.879 188.61h3.3444v1.8001h-9.7489v-1.8001h3.7423v-6.6508h-2.7475v-1.8001h5.4097zm-2.6622-10.298v-1.9611h2.6622v1.9611z" style="paint-order:stroke fill markers"/>
    <path d="m77.153 181.96h-1.5822v-1.8001h1.7148l0.83372-2.6717h1.6674v2.6717h3.6475v1.8001h-3.6475v5.0213q0 0.83372 0.15159 1.1274 0.16106 0.28423 0.5116 0.45476 0.35054 0.16106 0.98531 0.16106 1.1748 0 2.4159-0.2558v1.7622q-1.3453 0.2179-1.9043 0.2558-0.55897 0.0474-1.1653 0.0474-1.2032 0-2.018-0.32212-0.8053-0.3316-1.2222-1.0232-0.40739-0.70108-0.40739-1.9611z" style="paint-order:stroke fill markers"/>
    <path d="m67.893 190.6q-1.4874 0-2.3212-0.8053-0.83372-0.81478-0.83372-2.2833 0-1.5916 0.98531-2.4159 0.99478-0.83372 2.9654-0.86214l2.1127-0.0379v-0.52108q0-0.97583-0.33159-1.478t-1.0706-0.50213q-0.69161 0-1.0232 0.35054-0.32212 0.34107-0.39791 1.099l-2.7759-0.13263q0.5116-3.0412 4.3107-3.0412 1.9138 0 2.9275 0.93794 1.0232 0.93794 1.0232 2.757v3.7139q0 0.86214 0.18948 1.1937 0.19896 0.32212 0.65372 0.32212 0.30317 0 0.5874-0.0568v1.4401q-0.23685 0.0568-0.42634 0.10421-0.18948 0.0474-0.37896 0.0758t-0.40739 0.0474q-0.20843 0.0189-0.49266 0.0189-1.0043 0-1.4874-0.49265-0.47371-0.49266-0.56845-1.4495h-0.05685q-0.59687 1.0706-1.3643 1.5443-0.75793 0.47371-1.819 0.47371zm2.9086-4.936-1.2695 0.019q-0.85267 0.0189-1.2411 0.18001-0.37896 0.15158-0.57792 0.50212-0.19896 0.34107-0.19896 0.93794 0 1.4401 1.1369 1.4401 0.91899 0 1.5348-0.72003 0.61582-0.72951 0.61582-1.838z" style="paint-order:stroke fill markers"/>
    <path d="m60.945 188.61h3.3444v1.8001h-9.7489v-1.8001h3.7423v-6.6508h-2.7475v-1.8001h5.4097zm-2.6622-10.298v-1.9611h2.6622v1.9611z" style="paint-order:stroke fill markers"/>
    <path d="m49.023 190.6q-2.3306 0-3.6002-1.3832-1.2695-1.3927-1.2695-3.8749 0-2.5391 1.279-3.9507 1.279-1.4211 3.6286-1.4211 1.8096 0 2.9938 0.90952 1.1843 0.90951 1.4874 2.5106l-2.6812 0.13264q-0.11369-0.78635-0.56845-1.2506-0.45476-0.4737-1.2885-0.4737-2.0559 0-2.0559 3.4391 0 3.5433 2.0938 3.5433 0.75793 0 1.2695-0.4737 0.5116-0.48318 0.63477-1.4306l2.6717 0.12316q-0.14211 1.0516-0.75793 1.8759-0.60634 0.82424-1.6011 1.279-0.99478 0.44529-2.2359 0.44529z" style="paint-order:stroke fill markers"/>
    <path d="m43.572 185.28q0 2.5485-1.2885 3.9412-1.2885 1.3832-3.7044 1.3832-2.3306 0-3.6191-1.3832-1.2885-1.3927-1.2885-3.9412 0-2.5391 1.279-3.9223t3.6854-1.3832q4.936 0 4.936 5.3055zm-2.7854 0q0-1.819-0.48318-2.6433-0.48318-0.83372-1.6295-0.83372-1.1748 0-1.6959 0.83372-0.5116 0.83372-0.5116 2.6433 0 1.8285 0.52108 2.6717 0.53055 0.83372 1.5632 0.83372 1.1748 0 1.7053-0.82424 0.53055-0.83373 0.53055-2.6812z" style="paint-order:stroke fill markers"/>
    <path d="m32.948 187.42q0 1.4874-1.2222 2.3401-1.2127 0.8432-3.3633 0.8432-2.1127 0-3.2402-0.66319-1.1179-0.67266-1.4874-2.0843l2.3401-0.35054q0.19896 0.72951 0.68214 1.0327 0.49265 0.30317 1.7053 0.30317 1.1179 0 1.6295-0.28422 0.5116-0.28423 0.5116-0.89057 0-0.49266-0.41686-0.77688-0.40739-0.2937-1.3927-0.49265-2.2548-0.44529-3.0412-0.82425-0.78635-0.38844-1.2032-0.99478-0.40739-0.61582-0.40739-1.5064 0-1.4685 1.1274-2.2833 1.1369-0.82425 3.2117-0.82425 1.8285 0 2.937 0.71056 1.1179 0.71056 1.3927 2.0559l-2.3591 0.24633q-0.11369-0.62529-0.55897-0.92847-0.44528-0.31264-1.4116-0.31264-0.94741 0-1.4211 0.24633-0.47371 0.23685-0.47371 0.8053 0 0.44528 0.36002 0.71056 0.36949 0.2558 1.2316 0.42633 1.2032 0.24633 2.1317 0.5116 0.93794 0.2558 1.4969 0.61582 0.56845 0.36002 0.90004 0.92847 0.34107 0.55897 0.34107 1.4401z" style="paint-order:stroke fill markers"/>
    <path d="m22.637 187.42q0 1.4874-1.2222 2.3401-1.2127 0.8432-3.3633 0.8432-2.1127 0-3.2401-0.66319-1.1179-0.67266-1.4874-2.0843l2.3401-0.35054q0.19896 0.72951 0.68214 1.0327 0.49265 0.30317 1.7053 0.30317 1.1179 0 1.6295-0.28422 0.5116-0.28423 0.5116-0.89057 0-0.49266-0.41686-0.77688-0.40739-0.2937-1.3927-0.49265-2.2548-0.44529-3.0412-0.82425-0.78635-0.38844-1.2032-0.99478-0.40739-0.61582-0.40739-1.5064 0-1.4685 1.1274-2.2833 1.1369-0.82425 3.2117-0.82425 1.8285 0 2.937 0.71056 1.1179 0.71056 1.3927 2.0559l-2.3591 0.24633q-0.11369-0.62529-0.55897-0.92847-0.44528-0.31264-1.4116-0.31264-0.94741 0-1.4211 0.24633-0.47371 0.23685-0.47371 0.8053 0 0.44528 0.36002 0.71056 0.36949 0.2558 1.2316 0.42633 1.2032 0.24633 2.1317 0.5116 0.93794 0.2558 1.4969 0.61582 0.56845 0.36002 0.90004 0.92847 0.34107 0.55897 0.34107 1.4401z" style="paint-order:stroke fill markers"/>
  </g>
  <path d="m13.51 190.42h-2.7854l-0.87162-3.1265h-4.3202l-0.87162 3.1265h-2.7949l4.197-12.781h3.2591zm-5.8171-11.056q-0.075793 0.39792-0.28422 1.1937-0.19896 0.78636-1.2885 4.6328h3.1454q-1.1085-3.9033-1.3074-4.6707-0.18948-0.76741-0.26528-1.1558z" stroke="#d7d7d7" stroke-linecap="round" stroke-linejoin="round" stroke-width="2.6458" style="paint-order:stroke fill markers"/>
  <g fill="#454545" stroke="#cbcbcb" stroke-linecap="round" stroke-linejoin="round" stroke-width="2.6458">
    <path d="m161.71 187.42q0 1.4874-1.2222 2.3401-1.2127 0.8432-3.3633 0.8432-2.1127 0-3.2402-0.66319-1.1179-0.67266-1.4874-2.0843l2.3401-0.35054q0.19895 0.72951 0.68213 1.0327 0.49266 0.30317 1.7053 0.30317 1.118 0 1.6296-0.28422 0.51161-0.28423 0.51161-0.89057 0-0.49266-0.41687-0.77688-0.40738-0.2937-1.3927-0.49265-2.2548-0.44529-3.0412-0.82425-0.78636-0.38844-1.2032-0.99478-0.40739-0.61582-0.40739-1.5064 0-1.4685 1.1274-2.2833 1.1369-0.82425 3.2117-0.82425 1.8285 0 2.937 0.71056 1.118 0.71056 1.3927 2.0559l-2.3591 0.24633q-0.11369-0.62529-0.55897-0.92847-0.44529-0.31264-1.4116-0.31264-0.94741 0-1.4211 0.24633-0.4737 0.23685-0.4737 0.8053 0 0.44528 0.36001 0.71056 0.3695 0.2558 1.2316 0.42633 1.2032 0.24633 2.1317 0.5116 0.93794 0.2558 1.4969 0.61582 0.56845 0.36002 0.90004 0.92847 0.34107 0.55897 0.34107 1.4401z" style="paint-order:stroke fill markers"/>
    <path d="m148.74 190.42v-5.8645q0-1.3358-0.36949-1.9611-0.36002-0.62529-1.2506-0.62529-0.9853 0-1.5822 0.84319-0.5874 0.83373-0.5874 2.1127v5.495h-2.6622v-7.9583q0-0.82425-0.0284-1.3453-0.0189-0.53055-0.0474-0.94742h2.5391q0.0284 0.18001 0.0758 0.96637 0.0474 0.77687 0.0474 1.0706h0.0379q0.54003-1.1748 1.3548-1.7053 0.81478-0.53055 1.9422-0.53055 3.1833 0 3.1833 3.9412v6.5087z" style="paint-order:stroke fill markers"/>
    <path d="m134.78 190.6q-1.4874 0-2.3212-0.8053-0.83372-0.81478-0.83372-2.2833 0-1.5916 0.98531-2.4159 0.99478-0.83372 2.9654-0.86214l2.1127-0.0379v-0.52108q0-0.97583-0.3316-1.478-0.33159-0.50213-1.0706-0.50213-0.69161 0-1.0232 0.35054-0.32212 0.34107-0.39791 1.099l-2.7759-0.13263q0.51161-3.0412 4.3107-3.0412 1.9138 0 2.9275 0.93794 1.0232 0.93794 1.0232 2.757v3.7139q0 0.86214 0.18948 1.1937 0.19896 0.32212 0.65371 0.32212 0.30317 0 0.5874-0.0568v1.4401q-0.23685 0.0568-0.42634 0.10421-0.18948 0.0474-0.37896 0.0758t-0.40739 0.0474q-0.20843 0.0189-0.49265 0.0189-1.0043 0-1.4874-0.49265-0.47371-0.49266-0.56845-1.4495h-0.0568q-0.59687 1.0706-1.3643 1.5443-0.75793 0.47371-1.819 0.47371zm2.9086-4.936-1.2695 0.019q-0.85267 0.0189-1.2411 0.18001-0.37897 0.15158-0.57793 0.50212-0.19895 0.34107-0.19895 0.93794 0 1.4401 1.1369 1.4401 0.91899 0 1.5348-0.72003 0.61582-0.72951 0.61582-1.838z" style="paint-order:stroke fill markers"/>
  </g>
  <g stroke-linecap="round" stroke-linejoin="round" stroke-width="2.6458">
    <path d="m131.35 186.71q0 1.819-1.3927 2.8612-1.3832 1.0327-3.856 1.0327-2.2264 0-3.6286-0.93794t-1.8001-2.7286l2.7001-0.35054q0.2179 0.89057 0.90952 1.4116 0.69161 0.51161 1.8948 0.51161 1.2506 0 1.8474-0.39792 0.60635-0.39791 0.60635-1.2411 0-0.62529-0.53055-1.0516-0.53055-0.43581-1.5443-0.68214-2.0369-0.49266-2.8801-0.85267-0.83372-0.36949-1.3358-0.82425t-0.77688-1.0611q-0.26527-0.61582-0.26527-1.3738 0-1.658 1.3264-2.6243 1.3359-0.96636 3.5149-0.96636 2.1222 0 3.316 0.84319 1.1937 0.83373 1.5443 2.5959l-2.7096 0.27475q-0.41686-1.7338-2.2075-1.7338-1.0043 0-1.5348 0.37896-0.53055 0.36949-0.53055 1.0706 0 0.46423 0.2558 0.77688 0.2558 0.30317 0.69161 0.52107 0.44529 0.20844 1.8001 0.55898 1.7811 0.43581 2.738 0.97583 0.95688 0.53055 1.4022 1.2885 0.44528 0.75793 0.44528 1.7243z" stroke="#d7d7d7" style="paint-order:stroke fill markers"/>
    <path d="m191.95 190.42v-6.234q0-1.4116-0.18001-1.9611-0.17054-0.5495-0.64424-0.5495-0.48318 0-0.76741 0.89057-0.27475 0.89056-0.27475 2.3401v5.5139h-2.1696v-8.0625q0-1.7906-0.0568-2.1885h1.9801l0.0568 1.2032v0.45476h0.019q0.32212-0.96636 0.81477-1.4022 0.49266-0.44529 1.2316-0.44529 0.83372 0 1.2411 0.45476 0.41686 0.45476 0.59687 1.4022h0.0189q0.37896-1.0043 0.90004-1.4306 0.53055-0.42634 1.3358-0.42634 1.118 0 1.6011 0.81478 0.48318 0.81477 0.48318 2.7949v6.8308h-2.1601v-6.234q0-1.4116-0.18001-1.9611-0.17053-0.5495-0.64424-0.5495-0.48318 0-0.7674 0.7674-0.27475 0.75793-0.27475 2.2833v5.6939z" fill="#454545" stroke="#cbcbcb" style="paint-order:stroke fill markers"/>
    <path d="m187.66 185.28q0 2.5485-1.2885 3.9412-1.2885 1.3832-3.7044 1.3832-2.3306 0-3.6191-1.3832-1.2885-1.3927-1.2885-3.9412 0-2.5391 1.279-3.9223t3.6854-1.3832q4.936 0 4.936 5.3055zm-2.7854 0q0-1.819-0.48318-2.6433-0.48318-0.83372-1.6296-0.83372-1.1748 0-1.6959 0.83372-0.5116 0.83372-0.5116 2.6433 0 1.8285 0.52107 2.6717 0.53055 0.83372 1.5632 0.83372 1.1748 0 1.7054-0.82424 0.53055-0.83373 0.53055-2.6812z" fill="#454545" stroke="#cbcbcb" style="paint-order:stroke fill markers"/>
    <path d="m173.66 190.42-3.6381-9.5689q0.26527 2.3875 0.26527 3.3538v6.215h-2.4348v-12.781h3.1928l3.7233 9.8247q-0.26527-2.2264-0.26527-3.4581v-6.3666h2.4348v12.781z" stroke="#d7d7d7" style="paint-order:stroke fill markers"/>
  </g>
</svg>
