<?xml version="1.0" encoding="UTF-8" standalone="no"?>
<!-- Created with Inkscape (http://www.inkscape.org/) -->

<svg
   xmlns:dc="http://purl.org/dc/elements/1.1/"
   xmlns:cc="http://creativecommons.org/ns#"
   xmlns:rdf="http://www.w3.org/1999/02/22-rdf-syntax-ns#"
   xmlns:svg="http://www.w3.org/2000/svg"
   xmlns="http://www.w3.org/2000/svg"
   xmlns:sodipodi="http://sodipodi.sourceforge.net/DTD/sodipodi-0.dtd"
   xmlns:inkscape="http://www.inkscape.org/namespaces/inkscape"
   height="210mm"
   width="297mm"
   version="1.1"
   viewBox="0 0 1052.3622 744.09448"
   id="svg4136"
   inkscape:version="0.91 r13725"
   sodipodi:docname="affiche_reunion_asn.svg">
  <defs
     id="defs4348" />
  <sodipodi:namedview
     pagecolor="#ffffff"
     bordercolor="#666666"
     borderopacity="1"
     objecttolerance="10"
     gridtolerance="10"
     guidetolerance="10"
     inkscape:pageopacity="0"
     inkscape:pageshadow="2"
     inkscape:window-width="1536"
     inkscape:window-height="803"
     id="namedview4346"
     showgrid="false"
     inkscape:zoom="0.8144127"
     inkscape:cx="532.27482"
     inkscape:cy="262.83849"
     inkscape:window-x="-8"
     inkscape:window-y="-8"
     inkscape:window-maximized="1"
     inkscape:current-layer="g4140" />
  <metadata
     id="metadata4138">
    <rdf:RDF>
      <cc:Work
         rdf:about="">
        <dc:format>image/svg+xml</dc:format>
        <dc:type
           rdf:resource="http://purl.org/dc/dcmitype/StillImage" />
        <dc:title />
      </cc:Work>
    </rdf:RDF>
  </metadata>
  <g
     transform="translate(0 -308.27)"
     id="g4140">
    <rect
       style="stroke-linejoin:round;stroke:#000;stroke-linecap:round;stroke-width:.81943;fill:#161616"
       transform="scale(-1)"
       height="356.01"
       width="400.61"
       y="-1039.4"
       x="-482.57"
       id="rect4142" />
    <rect
       style="stroke-linejoin:round;stroke:#000;stroke-linecap:round;stroke-width:.81943;fill:#161616"
       transform="scale(-1)"
       height="356.01"
       width="400.61"
       y="-1039.4"
       x="-984.45"
       id="rect4144" />
    <text
       style="letter-spacing:0px;font-size:17.5px;word-spacing:0px;font-family:sans-serif;line-height:125%;fill:#000000"
       xml:space="preserve"
       y="236.17371"
       x="487.97653"
       id="text4146"><tspan
         x="487.97653"
         y="236.17371"
         id="tspan4148" /></text>
    <flowRoot
       xml:space="preserve"
       style="letter-spacing:0px;font-size:17.5px;word-spacing:0px;font-family:sans-serif;line-height:125%;fill:#000000"
       id="flowRoot4150"><flowRegion
         id="flowRegion4152"><rect
           y="298.69"
           width="764.09"
           x="-116.35"
           height="347.31"
           id="rect4154" /></flowRegion><flowPara
         id="flowPara4156" /></flowRoot>    <text
       style="font-size:19.496px;font-weight:bold;letter-spacing:0px;line-height:125%;word-spacing:0px;font-family:Aharoni;fill:#60ff56"
       y="728.05493"
       x="99.835342"
       xml:space="preserve"
       id="text4158"><tspan
         y="728.05493"
         x="99.835342"
         style="font-size:29.243px;fill:#60ff56"
         id="tspan4160">&gt; Association Sans Nom</tspan></text>
    <circle
       cx="248.41"
       cy="922.11"
       r="93.667"
       style="fill:#fff"
       id="circle4162" />
    <circle
       r="93.667"
       style="fill:#fff"
       cx="316.12"
       cy="922.11"
       id="circle4164" />
    <circle
       r="93.667"
       style="fill:#ff6b14;fill-opacity:.36078"
       cx="248.41"
       cy="922.11"
       id="circle4166" />
    <circle
       cx="316.12"
       cy="922.11"
       r="93.667"
       style="fill:#94e844;fill-opacity:.39216"
       id="circle4168" />
    <text
       style="letter-spacing:0px;font-family:sans-serif;font-size:57.5px;word-spacing:0px;stroke:#000000;stroke-width:1px;line-height:125%;fill:#ffffff"
       y="939.67273"
       x="227.57675"
       xml:space="preserve"
       id="text4170"><tspan
         y="939.67273"
         x="227.57675"
         style="font-size:57.5px;stroke:#000000;font-family:Sylfaen"
         id="tspan4172">ASN</tspan></text>
    <g
       transform="matrix(.64985 0 0 .64985 40.494 515.84)"
       id="g4174">
      <path
         style="stroke:#000;stroke-width:.61143px;fill:#b4b4b4"
         d="m224.89 686.89 9.4172-40.3-13.553 44.339z"
         id="path4176" />
      <path
         style="stroke-linejoin:round;stroke:#000;stroke-width:.76428;stroke-linecap:round"
         d="m228.27 598.47c-4.891 0-8.8284 5.5154-8.8284 12.367v9.3829c0 6.8516 3.9377 12.367 8.8284 12.367h13.048c4.891 0 8.8284-5.5154 8.8284-12.367v-9.3829c0-6.8516-3.9377-12.367-8.8284-12.367h-13.048zm2.1209 5.5482h8.8045c3.3002 0 5.9578 3.7218 5.9578 8.3447v6.3307c0 4.6232-2.6576 8.3447-5.9578 8.3447h-8.8045c-3.3002 0-5.9566-3.7218-5.9566-8.3447v-6.3307c0-4.6232 2.6564-8.3447 5.9566-8.3447z"
         id="path4178" />
      <path
         style="stroke:#000;stroke-width:.61143px;fill:#b4b4b4"
         d="m250.38 687.54s-9.3071-37.011-10.032-37.422c-0.72405-0.41115-6.3686-0.56085-4.1899 2.0329 1.7616 2.0972 4.5562-0.21889 3.8128 3.2287-0.56787 2.6337-2.8212 0.0747-2.2889 2.9987 0.20494 1.1256 4.7214-0.48559 4.0121 1.8949-0.45169 1.5158-2.9611-0.61906-2.0053 3.382 0.65954 2.7608 2.8381-1.8126 3.5684 1.4718 0.94551 4.2518-2.6492 1.746-2.2177 4.4097 0.6132 3.7853 3.1116-2.0082 3.8699 1.7514 0.40542 2.0099-3.7756 0.55899-2.7718 3.9492 0.83814 2.8309 3.6357-1.0312 4.7287 2.3531 0.75713 2.3443-3.7968-0.23617-2.0689 4.2545 1.2671 3.2931 3.0299-0.56958 3.6946 2.3355 1.2585 5.5-3.8279 0.18774-2.5234 4.132 1.4424 4.3608 4.4107-0.77272 4.4107-0.77272z"
         id="path4180" />
      <rect
         style="stroke-linejoin:round;stroke:#000;stroke-width:.76428;stroke-linecap:round"
         rx="0"
         ry="0"
         height="34.97"
         width="45.632"
         y="620.99"
         x="211.98"
         id="rect4182" />
    </g>
    <text
       style="letter-spacing:0px;font-size:11.372px;word-spacing:0px;font-family:sans-serif;line-height:125%;fill:#000000"
       y="897.56158"
       x="167.01167"
       xml:space="preserve"
       id="text4184"><tspan
         y="897.56158"
         x="167.01167"
         style="font-size:14.622px;font-family:Tahoma;fill:#000000"
         id="tspan4186">Sécurité</tspan></text>
    <path
       style="stroke-linejoin:round;stroke:#000;stroke-width:.59597;stroke-linecap:round;fill:#265d2c"
       d="m373.21 907.78a26.167 26.167 0 0 0 -24.514 15.811 26.167 26.167 0 0 0 5.3516 28.674l11.075-10.864a10.72 10.72 0 0 1 -3.1037 -7.5369 10.72 10.72 0 0 1 10.72 -10.72 10.72 10.72 0 0 1 10.72 10.72 10.72 10.72 0 0 1 -3.3988 7.819l10.662 11.255a26.167 26.167 0 0 0 6.4019 -28.458 26.167 26.167 0 0 0 -23.915 -16.701z"
       id="path4188" />
    <text
       style="letter-spacing:0px;font-size:11.372px;word-spacing:0px;font-family:sans-serif;line-height:125%;fill:#000000"
       y="899.61194"
       x="356.539"
       xml:space="preserve"
       id="text4190"><tspan
         y="899.61194"
         x="356.539"
         style="font-size:14.622px;font-family:Tahoma"
         id="tspan4192">Libre</tspan></text>
    <rect
       style="stroke-linejoin:round;stroke:#000;stroke-linecap:round;stroke-width:.81943;fill:#161616"
       transform="scale(-1)"
       height="356.01"
       width="400.61"
       y="-679.21"
       x="-482.57"
       id="rect4204" />
    <text
       style="font-size:19.496px;font-weight:bold;letter-spacing:0px;line-height:125%;word-spacing:0px;font-family:Aharoni;fill:#60ff56"
       xml:space="preserve"
       transform="scale(-1)"
       y="-635.15356"
       x="-464.70291"
       id="text4206"><tspan
         x="-464.70291"
         style="font-size:29.243px;fill:#60ff56"
         y="-635.15356"
         id="tspan4208">&gt; Association Sans Nom</tspan></text>
    <circle
       style="fill:#fff"
       cx="-316.12"
       transform="scale(-1)"
       cy="-441.1"
       r="93.667"
       id="circle4210" />
    <circle
       style="fill:#fff"
       transform="scale(-1)"
       cy="-441.1"
       cx="-248.41"
       r="93.667"
       id="circle4212" />
    <circle
       style="fill:#ff6b14;fill-opacity:.36078"
       transform="scale(-1)"
       cy="-441.1"
       cx="-316.12"
       r="93.667"
       id="circle4214" />
    <circle
       style="fill:#94e844;fill-opacity:.39216"
       cx="-248.41"
       transform="scale(-1)"
       cy="-441.1"
       r="93.667"
       id="circle4216" />
    <text
       style="letter-spacing:0px;font-family:sans-serif;font-size:57.5px;word-spacing:0px;stroke:#000000;stroke-width:1px;line-height:125%;fill:#ffffff"
       xml:space="preserve"
       transform="scale(-1)"
       y="-423.53577"
       x="-336.96149"
       id="text4218"><tspan
         x="-336.96149"
         style="font-size:57.5px;stroke:#000000;font-family:Sylfaen"
         y="-423.53577"
         id="tspan4220">ASN</tspan></text>
    <g
       transform="matrix(-.64985 0 0 -.64985 524.04 847.37)"
       id="g4222">
      <path
         style="stroke:#000;stroke-width:.61143px;fill:#b4b4b4"
         d="m224.89 686.89 9.4172-40.3-13.553 44.339z"
         id="path4224" />
      <path
         style="stroke-linejoin:round;stroke:#000;stroke-width:.76428;stroke-linecap:round"
         d="m228.27 598.47c-4.891 0-8.8284 5.5154-8.8284 12.367v9.3829c0 6.8516 3.9377 12.367 8.8284 12.367h13.048c4.891 0 8.8284-5.5154 8.8284-12.367v-9.3829c0-6.8516-3.9377-12.367-8.8284-12.367h-13.048zm2.1209 5.5482h8.8045c3.3002 0 5.9578 3.7218 5.9578 8.3447v6.3307c0 4.6232-2.6576 8.3447-5.9578 8.3447h-8.8045c-3.3002 0-5.9566-3.7218-5.9566-8.3447v-6.3307c0-4.6232 2.6564-8.3447 5.9566-8.3447z"
         id="path4226" />
      <path
         style="stroke:#000;stroke-width:.61143px;fill:#b4b4b4"
         d="m250.38 687.54s-9.3071-37.011-10.032-37.422c-0.72405-0.41115-6.3686-0.56085-4.1899 2.0329 1.7616 2.0972 4.5562-0.21889 3.8128 3.2287-0.56787 2.6337-2.8212 0.0747-2.2889 2.9987 0.20494 1.1256 4.7214-0.48559 4.0121 1.8949-0.45169 1.5158-2.9611-0.61906-2.0053 3.382 0.65954 2.7608 2.8381-1.8126 3.5684 1.4718 0.94551 4.2518-2.6492 1.746-2.2177 4.4097 0.6132 3.7853 3.1116-2.0082 3.8699 1.7514 0.40542 2.0099-3.7756 0.55899-2.7718 3.9492 0.83814 2.8309 3.6357-1.0312 4.7287 2.3531 0.75713 2.3443-3.7968-0.23617-2.0689 4.2545 1.2671 3.2931 3.0299-0.56958 3.6946 2.3355 1.2585 5.5-3.8279 0.18774-2.5234 4.132 1.4424 4.3608 4.4107-0.77272 4.4107-0.77272z"
         id="path4228" />
      <rect
         style="stroke-linejoin:round;stroke:#000;stroke-width:.76428;stroke-linecap:round"
         rx="0"
         ry="0"
         height="34.97"
         width="45.632"
         y="620.99"
         x="211.98"
         id="rect4230" />
    </g>
    <text
       style="letter-spacing:0px;font-size:11.372px;word-spacing:0px;font-family:sans-serif;line-height:125%;fill:#000000"
       xml:space="preserve"
       transform="scale(-1)"
       y="-465.64685"
       x="-397.52658"
       id="text4232"><tspan
         x="-397.52658"
         style="font-size:14.622px;font-family:Tahoma;fill:#000000"
         y="-465.64685"
         id="tspan4234">Sécurité</tspan></text>
    <path
       style="stroke-linejoin:round;stroke:#000;stroke-width:.59597;stroke-linecap:round;fill:#265d2c"
       d="m191.33 455.42a26.167 26.167 0 0 0 24.514 -15.811 26.167 26.167 0 0 0 -5.3516 -28.674l-11.075 10.864a10.72 10.72 0 0 1 3.1037 7.5369 10.72 10.72 0 0 1 -10.72 10.72 10.72 10.72 0 0 1 -10.72 -10.72 10.72 10.72 0 0 1 3.3988 -7.819l-10.662-11.255a26.167 26.167 0 0 0 -6.4019 28.458 26.167 26.167 0 0 0 23.915 16.701z"
       id="path4236" />
    <text
       style="letter-spacing:0px;font-size:11.372px;word-spacing:0px;font-family:sans-serif;line-height:125%;fill:#000000"
       xml:space="preserve"
       transform="scale(-1)"
       y="-463.59653"
       x="-207.99927"
       id="text4238"><tspan
         x="-207.99927"
         style="font-size:14.622px;font-family:Tahoma"
         y="-463.59653"
         id="tspan4240">Libre</tspan></text>
    <text
       style="font-size:19.496px;font-weight:bold;letter-spacing:0px;line-height:125%;word-spacing:0px;font-family:Aharoni;fill:#60ff56"
       xml:space="preserve"
       y="728.05493"
       x="601.70447"
       id="text4252"><tspan
         x="601.70447"
         style="font-size:29.243px;fill:#60ff56"
         y="728.05493"
         id="tspan4254">&gt; Association Sans Nom</tspan></text>
    <circle
       r="93.667"
       style="fill:#fff"
       cx="750.28"
       cy="922.11"
       id="circle4256" />
    <circle
       cx="817.99"
       cy="922.11"
       r="93.667"
       style="fill:#fff"
       id="circle4258" />
    <circle
       cx="750.28"
       cy="922.11"
       r="93.667"
       style="fill:#ff6b14;fill-opacity:.36196"
       id="circle4260" />
    <circle
       r="93.667"
       style="fill:#94e844;fill-opacity:.39216"
       cx="817.99"
       cy="922.11"
       id="circle4262" />
    <text
       style="letter-spacing:0px;font-family:sans-serif;font-size:57.5px;word-spacing:0px;stroke:#000000;stroke-width:1px;line-height:125%;fill:#ffffff"
       xml:space="preserve"
       y="939.67273"
       x="729.44586"
       id="text4264"><tspan
         x="729.44586"
         style="font-size:57.5px;stroke:#000000;font-family:Sylfaen"
         y="939.67273"
         id="tspan4266">ASN</tspan></text>
    <g
       transform="matrix(.64985 0 0 .64985 542.36 515.84)"
       id="g4268">
      <path
         style="stroke:#000;stroke-width:.61143px;fill:#b4b4b4"
         d="m224.89 686.89 9.4172-40.3-13.553 44.339z"
         id="path4270" />
      <path
         style="stroke-linejoin:round;stroke:#000;stroke-width:.76428;stroke-linecap:round"
         d="m228.27 598.47c-4.891 0-8.8284 5.5154-8.8284 12.367v9.3829c0 6.8516 3.9377 12.367 8.8284 12.367h13.048c4.891 0 8.8284-5.5154 8.8284-12.367v-9.3829c0-6.8516-3.9377-12.367-8.8284-12.367h-13.048zm2.1209 5.5482h8.8045c3.3002 0 5.9578 3.7218 5.9578 8.3447v6.3307c0 4.6232-2.6576 8.3447-5.9578 8.3447h-8.8045c-3.3002 0-5.9566-3.7218-5.9566-8.3447v-6.3307c0-4.6232 2.6564-8.3447 5.9566-8.3447z"
         id="path4272" />
      <path
         style="stroke:#000;stroke-width:.61143px;fill:#b4b4b4"
         d="m250.38 687.54s-9.3071-37.011-10.032-37.422c-0.72405-0.41115-6.3686-0.56085-4.1899 2.0329 1.7616 2.0972 4.5562-0.21889 3.8128 3.2287-0.56787 2.6337-2.8212 0.0747-2.2889 2.9987 0.20494 1.1256 4.7214-0.48559 4.0121 1.8949-0.45169 1.5158-2.9611-0.61906-2.0053 3.382 0.65954 2.7608 2.8381-1.8126 3.5684 1.4718 0.94551 4.2518-2.6492 1.746-2.2177 4.4097 0.6132 3.7853 3.1116-2.0082 3.8699 1.7514 0.40542 2.0099-3.7756 0.55899-2.7718 3.9492 0.83814 2.8309 3.6357-1.0312 4.7287 2.3531 0.75713 2.3443-3.7968-0.23617-2.0689 4.2545 1.2671 3.2931 3.0299-0.56958 3.6946 2.3355 1.2585 5.5-3.8279 0.18774-2.5234 4.132 1.4424 4.3608 4.4107-0.77272 4.4107-0.77272z"
         id="path4274" />
      <rect
         style="stroke-linejoin:round;stroke:#000;stroke-width:.76428;stroke-linecap:round"
         rx="0"
         ry="0"
         height="34.97"
         width="45.632"
         y="620.99"
         x="211.98"
         id="rect4276" />
    </g>
    <text
       style="letter-spacing:0px;font-size:11.372px;word-spacing:0px;font-family:sans-serif;line-height:125%;fill:#000000"
       xml:space="preserve"
       y="897.56158"
       x="668.8808"
       id="text4278"><tspan
         x="668.8808"
         style="font-size:14.622px;font-family:Tahoma;fill:#000000"
         y="897.56158"
         id="tspan4280">Sécurité</tspan></text>
    <path
       style="stroke-linejoin:round;stroke:#000;stroke-width:.59597;stroke-linecap:round;fill:#265d2c"
       d="m875.08 907.78a26.167 26.167 0 0 0 -24.514 15.811 26.167 26.167 0 0 0 5.3516 28.674l11.075-10.864a10.72 10.72 0 0 1 -3.1037 -7.5369 10.72 10.72 0 0 1 10.72 -10.72 10.72 10.72 0 0 1 10.72 10.72 10.72 10.72 0 0 1 -3.3988 7.819l10.662 11.255a26.167 26.167 0 0 0 6.4019 -28.458 26.167 26.167 0 0 0 -23.915 -16.701z"
       id="path4282" />
    <text
       style="letter-spacing:0px;font-size:11.372px;word-spacing:0px;font-family:sans-serif;line-height:125%;fill:#000000"
       xml:space="preserve"
       y="899.61194"
       x="858.40808"
       id="text4284"><tspan
         x="858.40808"
         style="font-size:14.622px;font-family:Tahoma"
         y="899.61194"
         id="tspan4286">Libre</tspan></text>
    <rect
       style="stroke-linejoin:round;stroke:#000;stroke-linecap:round;stroke-width:.81943;fill:#161616"
       transform="scale(-1)"
       height="356.01"
       width="400.61"
       y="-679.21"
       x="-984.45"
       id="rect4298" />
    <text
       style="font-size:19.496px;font-weight:bold;letter-spacing:0px;line-height:125%;word-spacing:0px;font-family:Aharoni;fill:#60ff56"
       transform="scale(-1)"
       y="-635.15356"
       x="-966.57208"
       xml:space="preserve"
       id="text4300"><tspan
         y="-635.15356"
         x="-966.57208"
         style="font-size:29.243px;fill:#60ff56"
         id="tspan4302">&gt; Association Sans Nom</tspan></text>
    <circle
       style="fill:#fff"
       transform="scale(-1)"
       cy="-441.1"
       cx="-817.99"
       r="93.667"
       id="circle4304" />
    <circle
       style="fill:#fff"
       cx="-750.28"
       transform="scale(-1)"
       cy="-441.1"
       r="93.667"
       id="circle4306" />
    <circle
       style="fill:#ff6b14;fill-opacity:.36078"
       cx="-817.99"
       transform="scale(-1)"
       cy="-441.1"
       r="93.667"
       id="circle4308" />
    <circle
       style="fill:#94e844;fill-opacity:.39216"
       transform="scale(-1)"
       cy="-441.1"
       cx="-750.28"
       r="93.667"
       id="circle4310" />
    <text
       style="letter-spacing:0px;font-family:sans-serif;font-size:57.5px;word-spacing:0px;stroke:#000000;stroke-width:1px;line-height:125%;fill:#ffffff"
       transform="scale(-1)"
       y="-423.53577"
       x="-838.83069"
       xml:space="preserve"
       id="text4312"><tspan
         y="-423.53577"
         x="-838.83069"
         style="font-size:57.5px;stroke:#000000;font-family:Sylfaen"
         id="tspan4314">ASN</tspan></text>
    <g
       transform="matrix(-.64985 0 0 -.64985 1025.9 847.37)"
       id="g4316">
      <path
         style="stroke:#000;stroke-width:.61143px;fill:#b4b4b4"
         d="m224.89 686.89 9.4172-40.3-13.553 44.339z"
         id="path4318" />
      <path
         style="stroke-linejoin:round;stroke:#000;stroke-width:.76428;stroke-linecap:round"
         d="m228.27 598.47c-4.891 0-8.8284 5.5154-8.8284 12.367v9.3829c0 6.8516 3.9377 12.367 8.8284 12.367h13.048c4.891 0 8.8284-5.5154 8.8284-12.367v-9.3829c0-6.8516-3.9377-12.367-8.8284-12.367h-13.048zm2.1209 5.5482h8.8045c3.3002 0 5.9578 3.7218 5.9578 8.3447v6.3307c0 4.6232-2.6576 8.3447-5.9578 8.3447h-8.8045c-3.3002 0-5.9566-3.7218-5.9566-8.3447v-6.3307c0-4.6232 2.6564-8.3447 5.9566-8.3447z"
         id="path4320" />
      <path
         style="stroke:#000;stroke-width:.61143px;fill:#b4b4b4"
         d="m250.38 687.54s-9.3071-37.011-10.032-37.422c-0.72405-0.41115-6.3686-0.56085-4.1899 2.0329 1.7616 2.0972 4.5562-0.21889 3.8128 3.2287-0.56787 2.6337-2.8212 0.0747-2.2889 2.9987 0.20494 1.1256 4.7214-0.48559 4.0121 1.8949-0.45169 1.5158-2.9611-0.61906-2.0053 3.382 0.65954 2.7608 2.8381-1.8126 3.5684 1.4718 0.94551 4.2518-2.6492 1.746-2.2177 4.4097 0.6132 3.7853 3.1116-2.0082 3.8699 1.7514 0.40542 2.0099-3.7756 0.55899-2.7718 3.9492 0.83814 2.8309 3.6357-1.0312 4.7287 2.3531 0.75713 2.3443-3.7968-0.23617-2.0689 4.2545 1.2671 3.2931 3.0299-0.56958 3.6946 2.3355 1.2585 5.5-3.8279 0.18774-2.5234 4.132 1.4424 4.3608 4.4107-0.77272 4.4107-0.77272z"
         id="path4322" />
      <rect
         style="stroke-linejoin:round;stroke:#000;stroke-width:.76428;stroke-linecap:round"
         rx="0"
         ry="0"
         height="34.97"
         width="45.632"
         y="620.99"
         x="211.98"
         id="rect4324" />
    </g>
    <text
       style="letter-spacing:0px;font-size:11.372px;word-spacing:0px;font-family:sans-serif;line-height:125%;fill:#000000"
       transform="scale(-1)"
       y="-465.64685"
       x="-899.39575"
       xml:space="preserve"
       id="text4326"><tspan
         y="-465.64685"
         x="-899.39575"
         style="font-size:14.622px;font-family:Tahoma;fill:#000000"
         id="tspan4328">Sécurité</tspan></text>
    <path
       style="stroke-linejoin:round;stroke:#000;stroke-width:.59597;stroke-linecap:round;fill:#265d2c"
       d="m693.2 455.42a26.167 26.167 0 0 0 24.514 -15.811 26.167 26.167 0 0 0 -5.3516 -28.674l-11.075 10.864a10.72 10.72 0 0 1 3.1037 7.5369 10.72 10.72 0 0 1 -10.72 10.72 10.72 10.72 0 0 1 -10.72 -10.72 10.72 10.72 0 0 1 3.3988 -7.819l-10.662-11.255a26.167 26.167 0 0 0 -6.4019 28.458 26.167 26.167 0 0 0 23.915 16.701z"
       id="path4330" />
    <text
       style="letter-spacing:0px;font-size:11.372px;word-spacing:0px;font-family:sans-serif;line-height:125%;fill:#000000"
       transform="scale(-1)"
       y="-463.59653"
       x="-709.86841"
       xml:space="preserve"
       id="text4332"><tspan
         y="-463.59653"
         x="-709.86841"
         style="font-size:14.622px;font-family:Tahoma"
         id="tspan4334">Libre</tspan></text>
    <text
       xml:space="preserve"
       style="font-style:normal;font-weight:normal;font-size:17.5px;line-height:125%;font-family:sans-serif;letter-spacing:0px;word-spacing:0px;fill:#60ff56;fill-opacity:1;stroke:none;stroke-width:1px;stroke-linecap:butt;stroke-linejoin:miter;stroke-opacity:1"
       x="-466.12555"
       y="-604.49213"
       id="text4362"
       sodipodi:linespacing="125%"
       transform="scale(-1,-1)"><tspan
         sodipodi:role="line"
         id="tspan4364"
         x="-466.12555"
         y="-604.49213"
         style="font-style:normal;font-variant:normal;font-weight:bold;font-stretch:normal;font-size:20px;font-family:Aharoni;-inkscape-font-specification:'Aharoni Bold';fill:#60ff56;fill-opacity:1">&gt; Première réunion</tspan><tspan
         sodipodi:role="line"
         x="-466.12555"
         y="-579.49213"
         id="tspan4366"
         style="font-style:normal;font-variant:normal;font-weight:bold;font-stretch:normal;font-size:20px;font-family:Aharoni;-inkscape-font-specification:'Aharoni Bold';fill:#60ff56;fill-opacity:1">&gt; Amphi Holodeck</tspan><tspan
         sodipodi:role="line"
         x="-466.12555"
         y="-554.49213"
         id="tspan4368"
         style="font-style:normal;font-variant:normal;font-weight:bold;font-stretch:normal;font-size:20px;font-family:Aharoni;-inkscape-font-specification:'Aharoni Bold';fill:#60ff56;fill-opacity:1">&gt; aujourd'hui (2017-01-17)</tspan><tspan
         sodipodi:role="line"
         x="-466.12555"
         y="-529.49213"
         id="tspan4370"
         style="font-style:normal;font-variant:normal;font-weight:bold;font-stretch:normal;font-size:20px;font-family:Aharoni;-inkscape-font-specification:'Aharoni Bold';fill:#60ff56;fill-opacity:1">&gt; 17:00 - 18:00</tspan></text>
    <text
       xml:space="preserve"
       style="font-style:normal;font-weight:normal;font-size:17.5px;line-height:125%;font-family:sans-serif;letter-spacing:0px;word-spacing:0px;fill:#60ff56;fill-opacity:1;stroke:none;stroke-width:1px;stroke-linecap:butt;stroke-linejoin:miter;stroke-opacity:1"
       x="98.412682"
       y="758.71631"
       id="text4362-7"
       sodipodi:linespacing="125%"><tspan
         sodipodi:role="line"
         id="tspan4364-4"
         x="98.412682"
         y="758.71631"
         style="font-style:normal;font-variant:normal;font-weight:bold;font-stretch:normal;font-size:20px;font-family:Aharoni;-inkscape-font-specification:'Aharoni Bold';fill:#60ff56;fill-opacity:1">&gt; Première réunion</tspan><tspan
         sodipodi:role="line"
         x="98.412682"
         y="783.71631"
         id="tspan4366-0"
         style="font-style:normal;font-variant:normal;font-weight:bold;font-stretch:normal;font-size:20px;font-family:Aharoni;-inkscape-font-specification:'Aharoni Bold';fill:#60ff56;fill-opacity:1">&gt; Amphi Holodeck</tspan><tspan
         sodipodi:role="line"
         x="98.412682"
         y="808.71631"
         id="tspan4368-7"
         style="font-style:normal;font-variant:normal;font-weight:bold;font-stretch:normal;font-size:20px;font-family:Aharoni;-inkscape-font-specification:'Aharoni Bold';fill:#60ff56;fill-opacity:1">&gt; aujourd'hui (2017-01-17)</tspan><tspan
         sodipodi:role="line"
         x="98.412682"
         y="833.71631"
         id="tspan4370-9"
         style="font-style:normal;font-variant:normal;font-weight:bold;font-stretch:normal;font-size:20px;font-family:Aharoni;-inkscape-font-specification:'Aharoni Bold';fill:#60ff56;fill-opacity:1">&gt; 17:00 - 18:00</tspan></text>
    <text
       transform="scale(-1,-1)"
       sodipodi:linespacing="125%"
       id="text4426"
       y="-604.49213"
       x="-967.99475"
       style="font-style:normal;font-weight:normal;font-size:17.5px;line-height:125%;font-family:sans-serif;letter-spacing:0px;word-spacing:0px;fill:#60ff56;fill-opacity:1;stroke:none;stroke-width:1px;stroke-linecap:butt;stroke-linejoin:miter;stroke-opacity:1"
       xml:space="preserve"><tspan
         style="font-style:normal;font-variant:normal;font-weight:bold;font-stretch:normal;font-size:20px;font-family:Aharoni;-inkscape-font-specification:'Aharoni Bold';fill:#60ff56;fill-opacity:1"
         y="-604.49213"
         x="-967.99475"
         id="tspan4428"
         sodipodi:role="line">&gt; Première réunion</tspan><tspan
         style="font-style:normal;font-variant:normal;font-weight:bold;font-stretch:normal;font-size:20px;font-family:Aharoni;-inkscape-font-specification:'Aharoni Bold';fill:#60ff56;fill-opacity:1"
         id="tspan4430"
         y="-579.49213"
         x="-967.99475"
         sodipodi:role="line">&gt; Amphi Holodeck</tspan><tspan
         style="font-style:normal;font-variant:normal;font-weight:bold;font-stretch:normal;font-size:20px;font-family:Aharoni;-inkscape-font-specification:'Aharoni Bold';fill:#60ff56;fill-opacity:1"
         id="tspan4432"
         y="-554.49213"
         x="-967.99475"
         sodipodi:role="line">&gt; aujourd'hui (2017-01-17)</tspan><tspan
         style="font-style:normal;font-variant:normal;font-weight:bold;font-stretch:normal;font-size:20px;font-family:Aharoni;-inkscape-font-specification:'Aharoni Bold';fill:#60ff56;fill-opacity:1"
         id="tspan4434"
         y="-529.49213"
         x="-967.99475"
         sodipodi:role="line">&gt; 17:00 - 18:00</tspan></text>
    <text
       sodipodi:linespacing="125%"
       id="text4440"
       y="758.71631"
       x="600.2818"
       style="font-style:normal;font-weight:normal;font-size:17.5px;line-height:125%;font-family:sans-serif;letter-spacing:0px;word-spacing:0px;fill:#60ff56;fill-opacity:1;stroke:none;stroke-width:1px;stroke-linecap:butt;stroke-linejoin:miter;stroke-opacity:1"
       xml:space="preserve"><tspan
         style="font-style:normal;font-variant:normal;font-weight:bold;font-stretch:normal;font-size:20px;font-family:Aharoni;-inkscape-font-specification:'Aharoni Bold';fill:#60ff56;fill-opacity:1"
         y="758.71631"
         x="600.2818"
         id="tspan4442"
         sodipodi:role="line">&gt; Première réunion</tspan><tspan
         style="font-style:normal;font-variant:normal;font-weight:bold;font-stretch:normal;font-size:20px;font-family:Aharoni;-inkscape-font-specification:'Aharoni Bold';fill:#60ff56;fill-opacity:1"
         id="tspan4444"
         y="783.71631"
         x="600.2818"
         sodipodi:role="line">&gt; Amphi Holodeck</tspan><tspan
         style="font-style:normal;font-variant:normal;font-weight:bold;font-stretch:normal;font-size:20px;font-family:Aharoni;-inkscape-font-specification:'Aharoni Bold';fill:#60ff56;fill-opacity:1"
         id="tspan4446"
         y="808.71631"
         x="600.2818"
         sodipodi:role="line">&gt; aujourd'hui (2017-01-17)</tspan><tspan
         style="font-style:normal;font-variant:normal;font-weight:bold;font-stretch:normal;font-size:20px;font-family:Aharoni;-inkscape-font-specification:'Aharoni Bold';fill:#60ff56;fill-opacity:1"
         id="tspan4448"
         y="833.71631"
         x="600.2818"
         sodipodi:role="line">&gt; 17:00 - 18:00</tspan></text>
  </g>
</svg>
