<?xml version="1.0" encoding="UTF-8" standalone="no"?>
<!-- Created with Inkscape (http://www.inkscape.org/) -->

<svg
   xmlns:dc="http://purl.org/dc/elements/1.1/"
   xmlns:cc="http://creativecommons.org/ns#"
   xmlns:rdf="http://www.w3.org/1999/02/22-rdf-syntax-ns#"
   xmlns:svg="http://www.w3.org/2000/svg"
   xmlns="http://www.w3.org/2000/svg"
   xmlns:sodipodi="http://sodipodi.sourceforge.net/DTD/sodipodi-0.dtd"
   xmlns:inkscape="http://www.inkscape.org/namespaces/inkscape"
   width="210mm"
   height="297mm"
   viewBox="0 0 210 297"
   version="1.1"
   id="svg8"
   inkscape:version="0.92.1 r15371"
   sodipodi:docname="flyer_asn4.svg"
   inkscape:export-filename="E:\dessins\flyer_asn4.png"
   inkscape:export-xdpi="96"
   inkscape:export-ydpi="96">
  <defs
     id="defs2" />
  <sodipodi:namedview
     id="base"
     pagecolor="#ffffff"
     bordercolor="#666666"
     borderopacity="1.0"
     inkscape:pageopacity="0.0"
     inkscape:pageshadow="2"
     inkscape:zoom="0.5211942"
     inkscape:cx="396.85039"
     inkscape:cy="561.25984"
     inkscape:document-units="mm"
     inkscape:current-layer="layer1"
     showgrid="false"
     inkscape:snap-global="false"
     inkscape:snap-page="true"
     inkscape:window-width="1536"
     inkscape:window-height="803"
     inkscape:window-x="-8"
     inkscape:window-y="-8"
     inkscape:window-maximized="1" />
  <metadata
     id="metadata5">
    <rdf:RDF>
      <cc:Work
         rdf:about="">
        <dc:format>image/svg+xml</dc:format>
        <dc:type
           rdf:resource="http://purl.org/dc/dcmitype/StillImage" />
        <dc:title></dc:title>
      </cc:Work>
    </rdf:RDF>
  </metadata>
  <g
     inkscape:label="Calque 1"
     inkscape:groupmode="layer"
     id="layer1">
    <g
       id="g556"
       transform="matrix(-0.1712007,-0.00783048,0.00766325,-0.17493686,286.10815,254.29072)">
      <path
         id="path56"
         d="m 210,-385 324,21 1146,3 z"
         inkscape:connector-curvature="0"
         style="fill:#c37e79;stroke:#c37e79;stroke-width:1.50999999" />
      <path
         id="path58"
         d="m 534,-364 511,59 635,-56 z"
         inkscape:connector-curvature="0"
         style="fill:#c28485;stroke:#c28485;stroke-width:1.50999999" />
      <path
         id="path60"
         d="m 1045,-305 83,16 552,-72 z"
         inkscape:connector-curvature="0"
         style="fill:#bb7f83;stroke:#bb7f83;stroke-width:1.50999999" />
      <path
         id="path62"
         d="m 1371,1381 -596,95 908,-34 z"
         inkscape:connector-curvature="0"
         style="fill:#748fb6;stroke:#748fb6;stroke-width:1.50999999" />
      <path
         id="path64"
         d="m 2094,511 21,89 13,-369 z"
         inkscape:connector-curvature="0"
         style="fill:#979cbc;stroke:#979cbc;stroke-width:1.50999999" />
      <path
         id="path66"
         d="m 1973,-57 155,288 19,-367 z"
         inkscape:connector-curvature="0"
         style="fill:#986a7f;stroke:#986a7f;stroke-width:1.50999999" />
      <path
         id="path68"
         d="m 2115,600 -138,366 209,30 z"
         inkscape:connector-curvature="0"
         style="fill:#6c94c0;stroke:#6c94c0;stroke-width:1.50999999" />
      <path
         id="path70"
         d="m 210,-385 1470,24 512,3 z"
         inkscape:connector-curvature="0"
         style="fill:#a8777e;stroke:#a8777e;stroke-width:1.50999999" />
      <path
         id="path72"
         d="m 1680,-361 316,14 196,-11 z"
         inkscape:connector-curvature="0"
         style="fill:#794968;stroke:#794968;stroke-width:1.50999999" />
      <path
         id="path74"
         d="m 2147,-136 -19,367 64,-589 z"
         inkscape:connector-curvature="0"
         style="fill:#8b5369;stroke:#8b5369;stroke-width:1.50999999" />
      <path
         id="path76"
         d="m 2000,1390 -317,52 560,-45 z"
         inkscape:connector-curvature="0"
         style="fill:#205f9d;stroke:#205f9d;stroke-width:1.50999999" />
      <path
         id="path78"
         d="m 2186,996 -287,61 367,61 z"
         inkscape:connector-curvature="0"
         style="fill:#427cb1;stroke:#427cb1;stroke-width:1.50999999" />
      <path
         id="path80"
         d="m 1899,1057 101,333 266,-272 z"
         inkscape:connector-curvature="0"
         style="fill:#2e73b1;stroke:#2e73b1;stroke-width:1.50999999" />
      <path
         id="path82"
         d="m 2115,600 71,396 80,122 z"
         inkscape:connector-curvature="0"
         style="fill:#5d85b0;stroke:#5d85b0;stroke-width:1.50999999" />
      <path
         id="path84"
         d="m 2128,231 -13,369 151,518 z"
         inkscape:connector-curvature="0"
         style="fill:#8498bc;stroke:#8498bc;stroke-width:1.50999999" />
      <path
         id="path86"
         d="m 2192,-358 -64,589 138,887 z"
         inkscape:connector-curvature="0"
         style="fill:#938aa1;stroke:#938aa1;stroke-width:1.50999999" />
      <path
         id="path88"
         d="m 2000,1390 243,7 23,-279 z"
         inkscape:connector-curvature="0"
         style="fill:#1d5b9a;stroke:#1d5b9a;stroke-width:1.50999999" />
      <path
         id="path90"
         d="m 1856,761 121,205 138,-366 z"
         inkscape:connector-curvature="0"
         style="fill:#80a4cf;stroke:#80a4cf;stroke-width:1.50999999" />
      <path
         id="path92"
         d="m 1940,413 154,98 34,-280 z"
         inkscape:connector-curvature="0"
         style="fill:#9d9fbd;stroke:#9d9fbd;stroke-width:1.50999999" />
      <path
         id="path94"
         d="m 1951,272 -11,141 188,-182 z"
         inkscape:connector-curvature="0"
         style="fill:#a29bb5;stroke:#a29bb5;stroke-width:1.50999999" />
      <path
         id="path96"
         d="m 1977,966 -78,91 287,-61 z"
         inkscape:connector-curvature="0"
         style="fill:#538dc1;stroke:#538dc1;stroke-width:1.50999999" />
      <path
         id="path98"
         d="m 1996,-347 151,211 45,-222 z"
         inkscape:connector-curvature="0"
         style="fill:#7d405f;stroke:#7d405f;stroke-width:1.50999999" />
      <path
         id="path100"
         d="m 1973,-57 -22,329 177,-41 z"
         inkscape:connector-curvature="0"
         style="fill:#a3869a;stroke:#a3869a;stroke-width:1.50999999" />
      <path
         id="path102"
         d="m 1996,-347 -23,290 174,-79 z"
         inkscape:connector-curvature="0"
         style="fill:#905370;stroke:#905370;stroke-width:1.50999999" />
      <path
         id="path104"
         d="M 2094,511 1856,761 2115,600 Z"
         inkscape:connector-curvature="0"
         style="fill:#91a9d1;stroke:#91a9d1;stroke-width:1.50999999" />
      <path
         id="path106"
         d="m 1940,413 -84,348 238,-250 z"
         inkscape:connector-curvature="0"
         style="fill:#9ab1d4;stroke:#9ab1d4;stroke-width:1.50999999" />
      <path
         id="path108"
         d="m 1128,-289 254,23 298,-95 z"
         inkscape:connector-curvature="0"
         style="fill:#b37b80;stroke:#b37b80;stroke-width:1.50999999" />
      <path
         id="path110"
         d="m 1711,596 145,165 84,-348 z"
         inkscape:connector-curvature="0"
         style="fill:#9dbbd9;stroke:#9dbbd9;stroke-width:1.50999999" />
      <path
         id="path112"
         d="m 1743,101 208,171 22,-329 z"
         inkscape:connector-curvature="0"
         style="fill:#a88b99;stroke:#a88b99;stroke-width:1.50999999" />
      <path
         id="path114"
         d="m 1856,761 -86,57 207,148 z"
         inkscape:connector-curvature="0"
         style="fill:#79a9d1;stroke:#79a9d1;stroke-width:1.50999999" />
      <path
         id="path116"
         d="m 1666,-118 307,61 23,-290 z"
         inkscape:connector-curvature="0"
         style="fill:#996277;stroke:#996277;stroke-width:1.50999999" />
      <path
         id="path118"
         d="m 1680,-361 -14,243 330,-229 z"
         inkscape:connector-curvature="0"
         style="fill:#935f72;stroke:#935f72;stroke-width:1.50999999" />
      <path
         id="path120"
         d="m 1899,1057 -244,182 345,151 z"
         inkscape:connector-curvature="0"
         style="fill:#3780b9;stroke:#3780b9;stroke-width:1.50999999" />
      <path
         id="path122"
         d="m 1655,1239 28,203 317,-52 z"
         inkscape:connector-curvature="0"
         style="fill:#3176b0;stroke:#3176b0;stroke-width:1.50999999" />
      <path
         id="path124"
         d="m 1770,818 129,239 78,-91 z"
         inkscape:connector-curvature="0"
         style="fill:#66a0cb;stroke:#66a0cb;stroke-width:1.50999999" />
      <path
         id="path126"
         d="m 1666,-118 77,219 230,-158 z"
         inkscape:connector-curvature="0"
         style="fill:#a77f8a;stroke:#a77f8a;stroke-width:1.50999999" />
      <path
         id="path128"
         d="m 1675,506 36,90 229,-183 z"
         inkscape:connector-curvature="0"
         style="fill:#a6c1d8;stroke:#a6c1d8;stroke-width:1.50999999" />
      <path
         id="path130"
         d="m 1675,506 265,-93 11,-141 z"
         inkscape:connector-curvature="0"
         style="fill:#a7b2c9;stroke:#a7b2c9;stroke-width:1.50999999" />
      <path
         id="path132"
         d="m 1743,101 -68,405 276,-234 z"
         inkscape:connector-curvature="0"
         style="fill:#adaebc;stroke:#adaebc;stroke-width:1.50999999" />
      <path
         id="path134"
         d="m 1770,818 -115,421 244,-182 z"
         inkscape:connector-curvature="0"
         style="fill:#589ec9;stroke:#589ec9;stroke-width:1.50999999" />
      <path
         id="path136"
         d="m 1519,858 136,381 115,-421 z"
         inkscape:connector-curvature="0"
         style="fill:#77b2d4;stroke:#77b2d4;stroke-width:1.50999999" />
      <path
         id="path138"
         d="m 1711,596 59,222 86,-57 z"
         inkscape:connector-curvature="0"
         style="fill:#91bbd9;stroke:#91bbd9;stroke-width:1.50999999" />
      <path
         id="path140"
         d="m 1519,858 -102,278 238,103 z"
         inkscape:connector-curvature="0"
         style="fill:#73afd3;stroke:#73afd3;stroke-width:1.50999999" />
      <path
         id="path142"
         d="m 1433,159 9,277 233,70 z"
         inkscape:connector-curvature="0"
         style="fill:#c9d0d5;stroke:#c9d0d5;stroke-width:1.50999999" />
      <path
         id="path144"
         d="m 1433,159 242,347 68,-405 z"
         inkscape:connector-curvature="0"
         style="fill:#bfb9bd;stroke:#bfb9bd;stroke-width:1.50999999" />
      <path
         id="path146"
         d="m 1711,596 -192,262 251,-40 z"
         inkscape:connector-curvature="0"
         style="fill:#99c3de;stroke:#99c3de;stroke-width:1.50999999" />
      <path
         id="path148"
         d="m 1426,681 93,177 192,-262 z"
         inkscape:connector-curvature="0"
         style="fill:#aed1e5;stroke:#aed1e5;stroke-width:1.50999999" />
      <path
         id="path150"
         d="m 1666,-118 -233,277 310,-58 z"
         inkscape:connector-curvature="0"
         style="fill:#bc9a9c;stroke:#bc9a9c;stroke-width:1.50999999" />
      <path
         id="path152"
         d="m 424,1441 -240,34 591,1 z"
         inkscape:connector-curvature="0"
         style="fill:#917383;stroke:#917383;stroke-width:1.50999999" />
      <path
         id="path154"
         d="m 1418,-107 15,266 233,-277 z"
         inkscape:connector-curvature="0"
         style="fill:#c49997;stroke:#c49997;stroke-width:1.50999999" />
      <path
         id="path156"
         d="m 1382,-266 284,148 14,-243 z"
         inkscape:connector-curvature="0"
         style="fill:#ad737c;stroke:#ad737c;stroke-width:1.50999999" />
      <path
         id="path158"
         d="m 1675,506 -249,175 285,-85 z"
         inkscape:connector-curvature="0"
         style="fill:#b4d1e4;stroke:#b4d1e4;stroke-width:1.50999999" />
      <path
         id="path160"
         d="m 1382,-266 36,159 248,-11 z"
         inkscape:connector-curvature="0"
         style="fill:#bd8688;stroke:#bd8688;stroke-width:1.50999999" />
      <path
         id="path162"
         d="m 1442,436 -16,245 249,-175 z"
         inkscape:connector-curvature="0"
         style="fill:#c4dcea;stroke:#c4dcea;stroke-width:1.50999999" />
      <path
         id="path164"
         d="m 1655,1239 -284,142 312,61 z"
         inkscape:connector-curvature="0"
         style="fill:#5489bb;stroke:#5489bb;stroke-width:1.50999999" />
      <path
         id="path166"
         d="m 1181,1328 -406,148 596,-95 z"
         inkscape:connector-curvature="0"
         style="fill:#869bc1;stroke:#869bc1;stroke-width:1.50999999" />
      <path
         id="path168"
         d="m 1417,1136 -46,245 284,-142 z"
         inkscape:connector-curvature="0"
         style="fill:#689dca;stroke:#689dca;stroke-width:1.50999999" />
      <path
         id="path170"
         d="m 1426,681 -171,269 264,-92 z"
         inkscape:connector-curvature="0"
         style="fill:#afd3e6;stroke:#afd3e6;stroke-width:1.50999999" />
      <path
         id="path172"
         d="m 1255,950 162,186 102,-278 z"
         inkscape:connector-curvature="0"
         style="fill:#96c4de;stroke:#96c4de;stroke-width:1.50999999" />
      <path
         id="path174"
         d="m 1253,1206 118,175 46,-245 z"
         inkscape:connector-curvature="0"
         style="fill:#7ba7cf;stroke:#7ba7cf;stroke-width:1.50999999" />
      <path
         id="path176"
         d="M 1418,-107 1124,2 1433,159 Z"
         inkscape:connector-curvature="0"
         style="fill:#d8aaa2;stroke:#d8aaa2;stroke-width:1.50999999" />
      <path
         id="path178"
         d="m 1124,2 5,109 304,48 z"
         inkscape:connector-curvature="0"
         style="fill:#e6bbb0;stroke:#e6bbb0;stroke-width:1.50999999" />
      <path
         id="path180"
         d="m 1129,111 -7,359 311,-311 z"
         inkscape:connector-curvature="0"
         style="fill:#e9d3ca;stroke:#e9d3ca;stroke-width:1.50999999" />
      <path
         id="path182"
         d="m 1171,577 255,104 16,-245 z"
         inkscape:connector-curvature="0"
         style="fill:#d4e6ef;stroke:#d4e6ef;stroke-width:1.50999999" />
      <path
         id="path184"
         d="m 1433,159 -311,311 320,-34 z"
         inkscape:connector-curvature="0"
         style="fill:#dedbda;stroke:#dedbda;stroke-width:1.50999999" />
      <path
         id="path186"
         d="m 1122,470 49,107 271,-141 z"
         inkscape:connector-curvature="0"
         style="fill:#e4eaee;stroke:#e4eaee;stroke-width:1.50999999" />
      <path
         id="path188"
         d="m 1171,577 84,373 171,-269 z"
         inkscape:connector-curvature="0"
         style="fill:#cbe1ee;stroke:#cbe1ee;stroke-width:1.50999999" />
      <path
         id="path190"
         d="m 1255,950 -2,256 164,-70 z"
         inkscape:connector-curvature="0"
         style="fill:#8cbbd9;stroke:#8cbbd9;stroke-width:1.50999999" />
      <path
         id="path192"
         d="m 1382,-266 -254,-23 290,182 z"
         inkscape:connector-curvature="0"
         style="fill:#ca8787;stroke:#ca8787;stroke-width:1.50999999" />
      <path
         id="path194"
         d="m 1128,-289 -4,291 294,-109 z"
         inkscape:connector-curvature="0"
         style="fill:#d99893;stroke:#d99893;stroke-width:1.50999999" />
      <path
         id="path196"
         d="m 1253,1206 -72,122 190,53 z"
         inkscape:connector-curvature="0"
         style="fill:#80a3ce;stroke:#80a3ce;stroke-width:1.50999999" />
      <path
         id="path198"
         d="m 1171,577 -137,310 221,63 z"
         inkscape:connector-curvature="0"
         style="fill:#cce2ee;stroke:#cce2ee;stroke-width:1.50999999" />
      <path
         id="path200"
         d="m 984,-67 140,69 4,-291 z"
         inkscape:connector-curvature="0"
         style="fill:#e29e96;stroke:#e29e96;stroke-width:1.50999999" />
      <path
         id="path202"
         d="m 862,1351 -87,125 406,-148 z"
         inkscape:connector-curvature="0"
         style="fill:#93a1c3;stroke:#93a1c3;stroke-width:1.50999999" />
      <path
         id="path204"
         d="m 889,1251 292,77 72,-122 z"
         inkscape:connector-curvature="0"
         style="fill:#91aed3;stroke:#91aed3;stroke-width:1.50999999" />
      <path
         id="path206"
         d="m 1034,887 -145,364 364,-45 z"
         inkscape:connector-curvature="0"
         style="fill:#a0c2dd;stroke:#a0c2dd;stroke-width:1.50999999" />
      <path
         id="path208"
         d="m 1034,887 219,319 2,-256 z"
         inkscape:connector-curvature="0"
         style="fill:#a8cce2;stroke:#a8cce2;stroke-width:1.50999999" />
      <path
         id="path210"
         d="m 989,115 133,355 7,-359 z"
         inkscape:connector-curvature="0"
         style="fill:#f2d6c9;stroke:#f2d6c9;stroke-width:1.50999999" />
      <path
         id="path212"
         d="m 806,997 83,254 145,-364 z"
         inkscape:connector-curvature="0"
         style="fill:#b5ccde;stroke:#b5ccde;stroke-width:1.50999999" />
      <path
         id="path214"
         d="m 534,-364 114,81 397,-22 z"
         inkscape:connector-curvature="0"
         style="fill:#ce7f76;stroke:#ce7f76;stroke-width:1.50999999" />
      <path
         id="path216"
         d="m 989,115 -13,361 146,-6 z"
         inkscape:connector-curvature="0"
         style="fill:#f6e7df;stroke:#f6e7df;stroke-width:1.50999999" />
      <path
         id="path218"
         d="m 1045,-305 -61,238 144,-222 z"
         inkscape:connector-curvature="0"
         style="fill:#dc918c;stroke:#dc918c;stroke-width:1.50999999" />
      <path
         id="path220"
         d="m 891,682 143,205 137,-310 z"
         inkscape:connector-curvature="0"
         style="fill:#e1ecf3;stroke:#e1ecf3;stroke-width:1.50999999" />
      <path
         id="path222"
         d="m 889,1251 -27,100 319,-23 z"
         inkscape:connector-curvature="0"
         style="fill:#98acd3;stroke:#98acd3;stroke-width:1.50999999" />
      <path
         id="path224"
         d="m 1122,470 -146,6 195,101 z"
         inkscape:connector-curvature="0"
         style="fill:#eff0f2;stroke:#eff0f2;stroke-width:1.50999999" />
      <path
         id="path226"
         d="M 976,476 891,682 1171,577 Z"
         inkscape:connector-curvature="0"
         style="fill:#f0f3f6;stroke:#f0f3f6;stroke-width:1.50999999" />
      <path
         id="path228"
         d="m 1124,2 -135,113 140,-4 z"
         inkscape:connector-curvature="0"
         style="fill:#eebeaf;stroke:#eebeaf;stroke-width:1.50999999" />
      <path
         id="path230"
         d="M 984,-67 989,115 1124,2 Z"
         inkscape:connector-curvature="0"
         style="fill:#eeb5a7;stroke:#eeb5a7;stroke-width:1.50999999" />
      <path
         id="path232"
         d="m 795,434 181,42 13,-361 z"
         inkscape:connector-curvature="0"
         style="fill:#fbe6db;stroke:#fbe6db;stroke-width:1.50999999" />
      <path
         id="path234"
         d="m 733,-122 251,55 61,-238 z"
         inkscape:connector-curvature="0"
         style="fill:#e69a8f;stroke:#e69a8f;stroke-width:1.50999999" />
      <path
         id="path236"
         d="m 648,-283 85,161 312,-183 z"
         inkscape:connector-curvature="0"
         style="fill:#df897e;stroke:#df897e;stroke-width:1.50999999" />
      <path
         id="path238"
         d="M 891,682 806,997 1034,887 Z"
         inkscape:connector-curvature="0"
         style="fill:#d3e1ea;stroke:#d3e1ea;stroke-width:1.50999999" />
      <path
         id="path240"
         d="m 795,434 96,248 85,-206 z"
         inkscape:connector-curvature="0"
         style="fill:#f8f2ef;stroke:#f8f2ef;stroke-width:1.50999999" />
      <path
         id="path242"
         d="M 624,134 795,434 989,115 Z"
         inkscape:connector-curvature="0"
         style="fill:#fbd1bc;stroke:#fbd1bc;stroke-width:1.50999999" />
      <path
         id="path244"
         d="M 984,-67 733,-122 989,115 Z"
         inkscape:connector-curvature="0"
         style="fill:#f0ad9d;stroke:#f0ad9d;stroke-width:1.50999999" />
      <path
         id="path246"
         d="M 733,-122 624,134 989,115 Z"
         inkscape:connector-curvature="0"
         style="fill:#f4b29c;stroke:#f4b29c;stroke-width:1.50999999" />
      <path
         id="path248"
         d="m 806,997 -82,67 165,187 z"
         inkscape:connector-curvature="0"
         style="fill:#aebfd1;stroke:#aebfd1;stroke-width:1.50999999" />
      <path
         id="path250"
         d="M 670,604 469,834 806,997 Z"
         inkscape:connector-curvature="0"
         style="fill:#ded6d3;stroke:#ded6d3;stroke-width:1.50999999" />
      <path
         id="path252"
         d="M 670,604 806,997 891,682 Z"
         inkscape:connector-curvature="0"
         style="fill:#e4e3e3;stroke:#e4e3e3;stroke-width:1.50999999" />
      <path
         id="path254"
         d="M 795,434 670,604 891,682 Z"
         inkscape:connector-curvature="0"
         style="fill:#f7ece7;stroke:#f7ece7;stroke-width:1.50999999" />
      <path
         id="path256"
         d="m 562,1250 300,101 27,-100 z"
         inkscape:connector-curvature="0"
         style="fill:#a1a7c4;stroke:#a1a7c4;stroke-width:1.50999999" />
      <path
         id="path258"
         d="m 724,1064 -162,186 327,1 z"
         inkscape:connector-curvature="0"
         style="fill:#a8b1c5;stroke:#a8b1c5;stroke-width:1.50999999" />
      <path
         id="path260"
         d="m 562,1250 213,226 87,-125 z"
         inkscape:connector-curvature="0"
         style="fill:#9b9ab7;stroke:#9b9ab7;stroke-width:1.50999999" />
      <path
         id="path262"
         d="M 624,134 521,224 795,434 Z"
         inkscape:connector-curvature="0"
         style="fill:#fccbb3;stroke:#fccbb3;stroke-width:1.50999999" />
      <path
         id="path264"
         d="m 521,224 -67,204 341,6 z"
         inkscape:connector-curvature="0"
         style="fill:#fcd2bc;stroke:#fcd2bc;stroke-width:1.50999999" />
      <path
         id="path266"
         d="m 469,834 255,230 82,-67 z"
         inkscape:connector-curvature="0"
         style="fill:#c7c9cd;stroke:#c7c9cd;stroke-width:1.50999999" />
      <path
         id="path268"
         d="M 454,428 670,604 795,434 Z"
         inkscape:connector-curvature="0"
         style="fill:#fbe0d2;stroke:#fbe0d2;stroke-width:1.50999999" />
      <path
         id="path270"
         d="m 562,1250 -138,191 351,35 z"
         inkscape:connector-curvature="0"
         style="fill:#9a8aa0;stroke:#9a8aa0;stroke-width:1.50999999" />
      <path
         id="path272"
         d="m 648,-283 -170,169 255,-8 z"
         inkscape:connector-curvature="0"
         style="fill:#e28673;stroke:#e28673;stroke-width:1.50999999" />
      <path
         id="path274"
         d="M 478,-114 624,134 733,-122 Z"
         inkscape:connector-curvature="0"
         style="fill:#ec9980;stroke:#ec9980;stroke-width:1.50999999" />
      <path
         id="path276"
         d="m 469,834 93,416 162,-186 z"
         inkscape:connector-curvature="0"
         style="fill:#bbb7be;stroke:#bbb7be;stroke-width:1.50999999" />
      <path
         id="path278"
         d="M 469,834 311,943 562,1250 Z"
         inkscape:connector-curvature="0"
         style="fill:#c1aeae;stroke:#c1aeae;stroke-width:1.50999999" />
      <path
         id="path280"
         d="M 388,734 469,834 670,604 Z"
         inkscape:connector-curvature="0"
         style="fill:#eacfc4;stroke:#eacfc4;stroke-width:1.50999999" />
      <path
         id="path282"
         d="M 454,428 388,734 670,604 Z"
         inkscape:connector-curvature="0"
         style="fill:#f6d4c5;stroke:#f6d4c5;stroke-width:1.50999999" />
      <path
         id="path284"
         d="m 534,-364 -56,250 170,-169 z"
         inkscape:connector-curvature="0"
         style="fill:#d87363;stroke:#d87363;stroke-width:1.50999999" />
      <path
         id="path286"
         d="m 478,-114 43,338 103,-90 z"
         inkscape:connector-curvature="0"
         style="fill:#f2a687;stroke:#f2a687;stroke-width:1.50999999" />
      <path
         id="path288"
         d="m 478,-114 -166,14 209,324 z"
         inkscape:connector-curvature="0"
         style="fill:#ea8e70;stroke:#ea8e70;stroke-width:1.50999999" />
      <path
         id="path290"
         d="m 312,-100 -42,323 251,1 z"
         inkscape:connector-curvature="0"
         style="fill:#ef9978;stroke:#ef9978;stroke-width:1.50999999" />
      <path
         id="path292"
         d="m 312,-100 166,-14 56,-250 z"
         inkscape:connector-curvature="0"
         style="fill:#da705c;stroke:#da705c;stroke-width:1.50999999" />
      <path
         id="path294"
         d="m 225,1189 199,252 138,-191 z"
         inkscape:connector-curvature="0"
         style="fill:#a38699;stroke:#a38699;stroke-width:1.50999999" />
      <path
         id="path296"
         d="m 311,943 -86,246 337,61 z"
         inkscape:connector-curvature="0"
         style="fill:#ad969e;stroke:#ad969e;stroke-width:1.50999999" />
      <path
         id="path298"
         d="M 270,223 454,428 521,224 Z"
         inkscape:connector-curvature="0"
         style="fill:#f8b89a;stroke:#f8b89a;stroke-width:1.50999999" />
      <path
         id="path300"
         d="m 210,-385 102,285 222,-264 z"
         inkscape:connector-curvature="0"
         style="fill:#c95b4d;stroke:#c95b4d;stroke-width:1.50999999" />
      <path
         id="path302"
         d="m -332,-355 300,46 242,-76 z"
         inkscape:connector-curvature="0"
         style="fill:#a21e2c;stroke:#a21e2c;stroke-width:1.50999999" />
      <path
         id="path304"
         d="M 149,405 388,734 454,428 Z"
         inkscape:connector-curvature="0"
         style="fill:#f6c1b0;stroke:#f6c1b0;stroke-width:1.50999999" />
      <path
         id="path306"
         d="M 388,734 311,943 469,834 Z"
         inkscape:connector-curvature="0"
         style="fill:#d9b9b1;stroke:#d9b9b1;stroke-width:1.50999999" />
      <path
         id="path308"
         d="m 149,405 -4,333 243,-4 z"
         inkscape:connector-curvature="0"
         style="fill:#ebb2a5;stroke:#ebb2a5;stroke-width:1.50999999" />
      <path
         id="path310"
         d="m 225,1189 -41,286 240,-34 z"
         inkscape:connector-curvature="0"
         style="fill:#986d81;stroke:#986d81;stroke-width:1.50999999" />
      <path
         id="path312"
         d="M 270,223 149,405 454,428 Z"
         inkscape:connector-curvature="0"
         style="fill:#f4b097;stroke:#f4b097;stroke-width:1.50999999" />
      <path
         id="path314"
         d="M 145,738 311,943 388,734 Z"
         inkscape:connector-curvature="0"
         style="fill:#daafa6;stroke:#daafa6;stroke-width:1.50999999" />
      <path
         id="path316"
         d="m 38,619 107,119 4,-333 z"
         inkscape:connector-curvature="0"
         style="fill:#e9a69b;stroke:#e9a69b;stroke-width:1.50999999" />
      <path
         id="path318"
         d="M 61,450 38,619 149,405 Z"
         inkscape:connector-curvature="0"
         style="fill:#eba294;stroke:#eba294;stroke-width:1.50999999" />
      <path
         id="path320"
         d="m 36,814 -126,294 315,81 z"
         inkscape:connector-curvature="0"
         style="fill:#b07f86;stroke:#b07f86;stroke-width:1.50999999" />
      <path
         id="path322"
         d="m 39,1342 145,133 41,-286 z"
         inkscape:connector-curvature="0"
         style="fill:#97637b;stroke:#97637b;stroke-width:1.50999999" />
      <path
         id="path324"
         d="m 36,814 189,375 86,-246 z"
         inkscape:connector-curvature="0"
         style="fill:#be9494;stroke:#be9494;stroke-width:1.50999999" />
      <path
         id="path326"
         d="M 145,738 36,814 311,943 Z"
         inkscape:connector-curvature="0"
         style="fill:#d29e98;stroke:#d29e98;stroke-width:1.50999999" />
      <path
         id="path328"
         d="m -100,90 370,133 42,-323 z"
         inkscape:connector-curvature="0"
         style="fill:#e0765e;stroke:#e0765e;stroke-width:1.50999999" />
      <path
         id="path330"
         d="M -15,-158 -100,90 312,-100 Z"
         inkscape:connector-curvature="0"
         style="fill:#d05647;stroke:#d05647;stroke-width:1.50999999" />
      <path
         id="path332"
         d="m 210,-385 -225,227 327,58 z"
         inkscape:connector-curvature="0"
         style="fill:#c84940;stroke:#c84940;stroke-width:1.50999999" />
      <path
         id="path334"
         d="m -32,-309 17,151 225,-227 z"
         inkscape:connector-curvature="0"
         style="fill:#b53234;stroke:#b53234;stroke-width:1.50999999" />
      <path
         id="path336"
         d="M -100,90 149,405 270,223 Z"
         inkscape:connector-curvature="0"
         style="fill:#e78b73;stroke:#e78b73;stroke-width:1.50999999" />
      <path
         id="path338"
         d="M -90,1108 39,1342 225,1189 Z"
         inkscape:connector-curvature="0"
         style="fill:#9c697c;stroke:#9c697c;stroke-width:1.50999999" />
      <path
         id="path340"
         d="M -100,90 61,450 149,405 Z"
         inkscape:connector-curvature="0"
         style="fill:#e68e7b;stroke:#e68e7b;stroke-width:1.50999999" />
      <path
         id="path342"
         d="m 39,1342 -356,134 501,-1 z"
         inkscape:connector-curvature="0"
         style="fill:#82435c;stroke:#82435c;stroke-width:1.50999999" />
      <path
         id="path344"
         d="M -100,90 -191,264 61,450 Z"
         inkscape:connector-curvature="0"
         style="fill:#de7c6b;stroke:#de7c6b;stroke-width:1.50999999" />
      <path
         id="path346"
         d="M 38,619 36,814 145,738 Z"
         inkscape:connector-curvature="0"
         style="fill:#db9c96;stroke:#db9c96;stroke-width:1.50999999" />
      <path
         id="path348"
         d="M -200,569 36,814 38,619 Z"
         inkscape:connector-curvature="0"
         style="fill:#d9938e;stroke:#d9938e;stroke-width:1.50999999" />
      <path
         id="path350"
         d="M -200,569 38,619 61,450 Z"
         inkscape:connector-curvature="0"
         style="fill:#e49990;stroke:#e49990;stroke-width:1.50999999" />
      <path
         id="path352"
         d="M -191,264 -200,569 61,450 Z"
         inkscape:connector-curvature="0"
         style="fill:#df897e;stroke:#df897e;stroke-width:1.50999999" />
      <path
         id="path354"
         d="M -366,923 -90,1108 36,814 Z"
         inkscape:connector-curvature="0"
         style="fill:#b1777e;stroke:#b1777e;stroke-width:1.50999999" />
      <path
         id="path356"
         d="m -90,1108 -184,135 313,99 z"
         inkscape:connector-curvature="0"
         style="fill:#92576f;stroke:#92576f;stroke-width:1.50999999" />
      <path
         id="path358"
         d="m -274,1243 -43,233 356,-134 z"
         inkscape:connector-curvature="0"
         style="fill:#7e4262;stroke:#7e4262;stroke-width:1.50999999" />
      <path
         id="path360"
         d="M -200,569 -366,923 36,814 Z"
         inkscape:connector-curvature="0"
         style="fill:#c28384;stroke:#c28384;stroke-width:1.50999999" />
      <path
         id="path362"
         d="m -334,-47 234,137 85,-248 z"
         inkscape:connector-curvature="0"
         style="fill:#c1423c;stroke:#c1423c;stroke-width:1.50999999" />
      <path
         id="path364"
         d="m -32,-309 -300,-46 317,197 z"
         inkscape:connector-curvature="0"
         style="fill:#ab152a;stroke:#ab152a;stroke-width:1.50999999" />
      <path
         id="path366"
         d="m -332,-355 -2,308 319,-111 z"
         inkscape:connector-curvature="0"
         style="fill:#a8212d;stroke:#a8212d;stroke-width:1.50999999" />
      <path
         id="path368"
         d="m -325,335 125,234 9,-305 z"
         inkscape:connector-curvature="0"
         style="fill:#cc7e76;stroke:#cc7e76;stroke-width:1.50999999" />
      <path
         id="path370"
         d="m -366,923 92,320 184,-135 z"
         inkscape:connector-curvature="0"
         style="fill:#8b6072;stroke:#8b6072;stroke-width:1.50999999" />
      <path
         id="path372"
         d="m -334,-47 143,311 91,-174 z"
         inkscape:connector-curvature="0"
         style="fill:#c4594c;stroke:#c4594c;stroke-width:1.50999999" />
      <path
         id="path374"
         d="m -334,-47 9,382 134,-71 z"
         inkscape:connector-curvature="0"
         style="fill:#bd6256;stroke:#bd6256;stroke-width:1.50999999" />
      <path
         id="path376"
         d="m -325,335 -41,588 166,-354 z"
         inkscape:connector-curvature="0"
         style="fill:#bd8284;stroke:#bd8284;stroke-width:1.50999999" />
      <path
         id="path378"
         d="m -366,923 49,553 43,-233 z"
         inkscape:connector-curvature="0"
         style="fill:#744d69;stroke:#744d69;stroke-width:1.50999999" />
      <path
         id="path380"
         d="m -334,-47 -32,970 41,-588 z"
         inkscape:connector-curvature="0"
         style="fill:#bb7874;stroke:#bb7874;stroke-width:1.50999999" />
      <path
         id="path382"
         d="m -366,923 32,-970 2,-308 z"
         inkscape:connector-curvature="0"
         style="fill:#b45d53;stroke:#b45d53;stroke-width:1.50999999" />
    </g>
    <rect
       style="opacity:0.367;fill:#ffffff;fill-opacity:1;fill-rule:evenodd;stroke:#000000;stroke-width:3.52777767;stroke-linecap:round;stroke-linejoin:round;stroke-miterlimit:4;stroke-dasharray:none;stroke-opacity:1;paint-order:normal"
       id="rect257"
       width="210"
       height="297"
       x="0"
       y="0" />
    <g
       id="g37"
       transform="matrix(0.48298006,0,0,0.48298006,9.9109345,-0.00514814)">
      <path
         id="keyhole"
         d="M 113.35,122.8 H 92.797 c -1.2842,-6.2503 5.0981,-11.598 5.1383,-16.259 -6.0782,-5.3577 -5.7085,-16.658 5.1383,-16.782 10.847,-0.12398 11.591,10.151 5.1383,16.782 0.20901,4.8085 6.4395,10.343 5.1383,16.259 z"
         inkscape:connector-curvature="0"
         style="fill:#6f6f6f;stroke:#292929;stroke-width:3.36549997;stroke-linecap:round;stroke-linejoin:round" />
      <path
         id="opensource"
         d="m 92.647,131.85 c 0,0 -19.016,-5.3873 -19.468,-23.425 -0.4521,-18.037 14.41,-27.438 29.563,-27.918 15.153,-0.47913 29.294,11.985 30.134,27.918 0.84036,15.932 -19.475,23.425 -19.475,23.425 l 11.733,29.73 c 0,0 39.426,-15.708 39.493,-53.155 C 164.6931,70.978 141.942,50.663 103.7,50.271 65.458,49.87966 37.723,65.399 38.48,108.564 c 0.75588,43.164 40.607,53.016 40.607,53.016 z"
         inkscape:connector-curvature="0"
         style="fill:#3ba337;stroke:#123111;stroke-width:3.36549997;stroke-linecap:round;stroke-linejoin:round" />
      <path
         d="m 166.67,133.4 17.626,15.116 -21.625,30.415 8.9272,-29.167 -11.996,-5.0587 z"
         id="bottomrightleg"
         style="fill:#395582;fill-rule:evenodd;stroke:#182336;stroke-width:3.36549997;stroke-linecap:round;stroke-linejoin:round"
         inkscape:connector-curvature="0" />
      <path
         d="m 38.24,140.24 -16.182,18.463 24.98,22.954 -12.276,-24.154 10.917,-7.515 z"
         id="bottomleftleg"
         style="fill:#395582;fill-rule:evenodd;stroke:#182336;stroke-width:3.36549997;stroke-linecap:round;stroke-linejoin:round"
         inkscape:connector-curvature="0" />
      <path
         d="m 170.76,96.536 23.035,2.9308 -1.3324,37.295 -8.5857,-29.269 -12.801,2.3724 z"
         id="middlerightleg"
         style="fill:#395582;fill-rule:evenodd;stroke:#182336;stroke-width:3.36549997;stroke-linecap:round;stroke-linejoin:round"
         inkscape:connector-curvature="0" />
      <path
         d="m 31.261,98.61 -24.025,5.0523 6.1985,33.353 4.6809,-26.687 13.242,0.54284 z"
         id="middleleftleg"
         style="fill:#395582;fill-rule:evenodd;stroke:#182336;stroke-width:3.36549997;stroke-linecap:round;stroke-linejoin:round"
         inkscape:connector-curvature="0" />
      <path
         d="m 153.29,61.873 23.045,-12.396 15.381,35.14 -19.44,-22.461 -9.8196,8.5484 z"
         id="toprighttleg"
         style="fill:#395582;fill-rule:evenodd;stroke:#182336;stroke-width:3.36549997;stroke-linecap:round;stroke-linejoin:round"
         inkscape:connector-curvature="0" />
      <path
         d="M 44.921,64.164 24.065,51.175 6.202,88.483 27.801,64.444 l 9.5716,9.5272 z"
         id="topleftleg"
         style="fill:#395582;fill-rule:evenodd;stroke:#182336;stroke-width:3.36549997;stroke-linecap:round;stroke-linejoin:round"
         inkscape:connector-curvature="0" />
      <path
         id="rightmandible"
         d="m 108.84,18.338 20.436,18.441 -1.4429,11.164 -11.915,-2.7224 2.7624,-9.5265 z"
         inkscape:connector-curvature="0"
         style="fill:#e40000;fill-rule:evenodd;stroke:#320d0d;stroke-width:3.36549997;stroke-linecap:round;stroke-linejoin:round" />
      <path
         id="leftmandible"
         d="m 85.917,43.249 -5.113,-7.2641 12.552,-17.645 -23.347,18.023 5.4649,12.845 z"
         inkscape:connector-curvature="0"
         style="fill:#e40000;fill-rule:evenodd;stroke:#320d0d;stroke-width:3.36549997;stroke-linecap:round;stroke-linejoin:round" />
    </g>
    <text
       xml:space="preserve"
       style="font-style:normal;font-variant:normal;font-weight:normal;font-stretch:normal;font-size:14.11111069px;line-height:7.05555534px;font-family:'Liberation Sans';-inkscape-font-specification:'Liberation Sans';letter-spacing:0px;word-spacing:0px;fill:#000000;fill-opacity:1;stroke:none;stroke-width:0.26458332"
       x="114.40306"
       y="27.294771"
       id="text53"><tspan
         sodipodi:role="line"
         id="tspan51"
         x="114.40306"
         y="27.294771"
         style="stroke-width:0.26458332"><tspan
   style="-inkscape-font-specification:'Liberation Sans Bold';font-family:'Liberation Sans';font-weight:bold;font-style:normal;font-stretch:normal;font-variant:normal"
   id="tspan67">A</tspan>ssociation</tspan></text>
    <text
       xml:space="preserve"
       style="font-style:normal;font-variant:normal;font-weight:normal;font-stretch:normal;font-size:14.11111069px;line-height:7.05555534px;font-family:'Liberation Sans';-inkscape-font-specification:'Liberation Sans';letter-spacing:0px;word-spacing:0px;fill:#000000;fill-opacity:1;stroke:none;stroke-width:0.26458332"
       x="113.88345"
       y="52.655094"
       id="text61"><tspan
         sodipodi:role="line"
         id="tspan59"
         x="113.88345"
         y="52.655094"
         style="stroke-width:0.26458332"><tspan
   style="-inkscape-font-specification:'Liberation Sans Bold';font-family:'Liberation Sans';font-weight:bold;font-style:normal;font-stretch:normal;font-variant:normal"
   id="tspan69">S</tspan>ans</tspan></text>
    <text
       xml:space="preserve"
       style="font-style:normal;font-variant:normal;font-weight:normal;font-stretch:normal;font-size:14.11111069px;line-height:7.05555534px;font-family:'Liberation Sans';-inkscape-font-specification:'Liberation Sans';letter-spacing:0px;word-spacing:0px;fill:#000000;fill-opacity:1;stroke:none;stroke-width:0.26458332"
       x="114.88683"
       y="77.870735"
       id="text65"><tspan
         sodipodi:role="line"
         id="tspan63"
         x="114.88683"
         y="77.870735"
         style="stroke-width:0.26458332"><tspan
   style="-inkscape-font-specification:'Liberation Sans Bold';font-family:'Liberation Sans';font-weight:bold;font-style:normal;font-stretch:normal;font-variant:normal"
   id="tspan71">N</tspan>om</tspan></text>
    <text
       xml:space="preserve"
       style="font-style:normal;font-variant:normal;font-weight:normal;font-stretch:normal;font-size:4.93888855px;line-height:7.05555534px;font-family:'Liberation Sans';-inkscape-font-specification:'Liberation Sans';letter-spacing:0px;word-spacing:0px;fill:#000000;fill-opacity:1;stroke:none;stroke-width:0.26458332"
       x="13.380744"
       y="110.68097"
       id="text75"><tspan
         sodipodi:role="line"
         x="13.380744"
         y="110.68097"
         style="font-size:5.64444447px;stroke-width:0.26458332"
         id="tspan107">L'Association Sans Nom est une association étudiante de 42 autour du</tspan><tspan
         sodipodi:role="line"
         x="13.380744"
         y="117.93108"
         style="font-size:5.64444447px;stroke-width:0.26458332"
         id="tspan215">Libre et de la sécurité, au sens le plus large possible :</tspan><tspan
         sodipodi:role="line"
         x="13.380744"
         y="125.1812"
         style="font-size:5.64444447px;stroke-width:0.26458332"
         id="tspan5041">logiciel libre, open hardware, open data, sécurité logicielle, physique et</tspan><tspan
         sodipodi:role="line"
         x="13.380744"
         y="132.43132"
         style="font-size:5.64444447px;stroke-width:0.26458332"
         id="tspan5085">humaine, protection de la vie privée…</tspan><tspan
         sodipodi:role="line"
         x="13.380744"
         y="139.48688"
         style="font-size:5.64444447px;stroke-width:0.26458332"
         id="tspan219" /><tspan
         sodipodi:role="line"
         x="13.380744"
         y="146.737"
         style="font-size:5.64444447px;stroke-width:0.26458332"
         id="tspan221">L'ASN organise des sessions de lock picking (l'art du crochetage de</tspan><tspan
         sodipodi:role="line"
         x="13.380744"
         y="153.98711"
         style="font-size:5.64444447px;stroke-width:0.26458332"
         id="tspan227">serrures) toutes les deux semaines à 42.</tspan><tspan
         sodipodi:role="line"
         x="13.380744"
         y="161.04266"
         style="font-size:5.64444447px;stroke-width:0.26458332"
         id="tspan5051" /><tspan
         sodipodi:role="line"
         x="13.380744"
         y="168.29279"
         style="font-size:5.64444447px;stroke-width:0.26458332"
         id="tspan5115">Une conférence d'introduction générale à la sécurité informatique par</tspan><tspan
         sodipodi:role="line"
         x="13.380744"
         y="175.54289"
         style="font-size:5.64444447px;stroke-width:0.26458332"
         id="tspan5191">deux étudiants organisée à l'école par l'ASN est disponible en ligne.</tspan><tspan
         sodipodi:role="line"
         x="13.380744"
         y="182.79301"
         style="font-size:5.64444447px;stroke-width:0.26458332"
         id="tspan5171">Une conférence d'introduction à la cryptographie, ainsi qu'un atelier</tspan><tspan
         sodipodi:role="line"
         x="13.380744"
         y="190.04312"
         style="font-size:5.64444447px;stroke-width:0.26458332"
         id="tspan5187">autours du pentesting et un autre pour faire une première contribution</tspan><tspan
         sodipodi:role="line"
         x="13.380744"
         y="197.29324"
         style="font-size:5.64444447px;stroke-width:0.26458332"
         id="tspan5203">à un logiciel libre sont en préparation.</tspan><tspan
         sodipodi:role="line"
         x="13.380744"
         y="204.3488"
         style="font-size:5.64444447px;stroke-width:0.26458332"
         id="tspan5169" /><tspan
         sodipodi:role="line"
         x="13.380744"
         y="211.59891"
         style="font-size:5.64444447px;stroke-width:0.26458332"
         id="tspan5125">Nous avons également participé à des évènements extérieurs, avec</tspan><tspan
         sodipodi:role="line"
         x="13.380744"
         y="218.84903"
         style="font-size:5.64444447px;stroke-width:0.26458332"
         id="tspan60">notamment l'organisation d'un voyage groupé au FOSDEM, une</tspan><tspan
         sodipodi:role="line"
         x="13.380744"
         y="226.09915"
         style="font-size:5.64444447px;stroke-width:0.26458332"
         id="tspan5081">quinzaine d'étudiants bénévoles à la Nuit du Hack et une présence à</tspan><tspan
         sodipodi:role="line"
         x="13.380744"
         y="233.34926"
         style="font-size:5.64444447px;stroke-width:0.26458332"
         id="tspan5137">Pas Sage en Seine (stand et atelier lock picking).</tspan><tspan
         sodipodi:role="line"
         x="13.380744"
         y="240.40482"
         style="font-size:5.64444447px;stroke-width:0.26458332"
         id="tspan237" /><tspan
         sodipodi:role="line"
         x="13.380744"
         y="247.65494"
         style="font-size:5.64444447px;stroke-width:0.26458332"
         id="tspan247">Des services basés sur des logiciels libres, gérés par une équipe issue</tspan><tspan
         sodipodi:role="line"
         x="13.380744"
         y="254.90504"
         style="font-size:5.64444447px;stroke-width:0.26458332"
         id="tspan5069">des membres (etherpad, mastodon…) devrait être proposé aux adhérents.</tspan><tspan
         sodipodi:role="line"
         x="13.380744"
         y="261.96057"
         style="font-size:5.64444447px;stroke-width:0.26458332"
         id="tspan249" /><tspan
         sodipodi:role="line"
         x="13.380744"
         y="269.21069"
         style="font-size:5.64444447px;stroke-width:0.26458332"
         id="tspan251">L'ASN a organisé un mini CTF (jeu à base de challenges de sécurités,</tspan><tspan
         sodipodi:role="line"
         x="13.380744"
         y="276.46082"
         style="font-size:5.64444447px;stroke-width:0.26458332"
         id="tspan253">cryptographie et stéganographie où il faut trouver des &quot;flags&quot;) et est en</tspan><tspan
         sodipodi:role="line"
         x="13.380744"
         y="283.71094"
         style="font-size:5.64444447px;stroke-width:0.26458332"
         id="tspan255">discussion avec d'autres écoles pour en organiser en commun.</tspan></text>
    <text
       xml:space="preserve"
       style="font-style:normal;font-variant:normal;font-weight:normal;font-stretch:normal;font-size:4.93888855px;line-height:7.05555534px;font-family:'Liberation Sans';-inkscape-font-specification:'Liberation Sans';letter-spacing:0px;word-spacing:0px;fill:#000000;fill-opacity:1;stroke:none;stroke-width:0.26458332"
       x="115.42564"
       y="95.857979"
       id="text101"><tspan
         sodipodi:role="line"
         id="tspan99"
         x="115.42564"
         y="95.857979"
         style="stroke-width:0.26458332;font-size:7.05555556px">Libre et Sécurité à 42</tspan></text>
  </g>
</svg>
