<?xml version="1.0" encoding="UTF-8" standalone="no"?>
<svg
   xmlns:dc="http://purl.org/dc/elements/1.1/"
   xmlns:cc="http://creativecommons.org/ns#"
   xmlns:rdf="http://www.w3.org/1999/02/22-rdf-syntax-ns#"
   xmlns:svg="http://www.w3.org/2000/svg"
   xmlns="http://www.w3.org/2000/svg"
   xmlns:sodipodi="http://sodipodi.sourceforge.net/DTD/sodipodi-0.dtd"
   xmlns:inkscape="http://www.inkscape.org/namespaces/inkscape"
   width="200mm"
   height="200mm"
   version="1.1"
   viewBox="0 0 200 200"
   id="asnlogo"
   sodipodi:docname="asn_2-5d.svg"
   inkscape:version="0.92.1 r15371">
  <metadata
     id="metadata17">
    <rdf:RDF>
      <cc:Work
         rdf:about="">
        <dc:format>image/svg+xml</dc:format>
        <dc:type
           rdf:resource="http://purl.org/dc/dcmitype/StillImage" />
        <dc:title></dc:title>
      </cc:Work>
    </rdf:RDF>
  </metadata>
  <defs
     id="defs15" />
  <sodipodi:namedview
     pagecolor="#ffffff"
     bordercolor="#666666"
     borderopacity="1"
     objecttolerance="10"
     gridtolerance="10"
     guidetolerance="10"
     inkscape:pageopacity="0"
     inkscape:pageshadow="2"
     inkscape:window-width="1536"
     inkscape:window-height="803"
     id="namedview13"
     showgrid="false"
     inkscape:snap-global="false"
     inkscape:zoom="0.44152926"
     inkscape:cx="585.28035"
     inkscape:cy="348.87061"
     inkscape:window-x="-8"
     inkscape:window-y="-8"
     inkscape:window-maximized="1"
     inkscape:current-layer="asnlogo" />
  <ellipse
     style="opacity:1;fill:#fdfdfd;fill-opacity:1;fill-rule:evenodd;stroke:#292929;stroke-width:0.3507477;stroke-linecap:round;stroke-linejoin:round;stroke-miterlimit:4;stroke-dasharray:none;stroke-opacity:1;paint-order:markers fill stroke"
     id="path4496"
     cx="68.430244"
     cy="122.81775"
     rx="99.285286"
     ry="95.887497"
     transform="matrix(0.9674978,-0.25287942,0.28003389,0.95999012,0,0)" />
  <path
     inkscape:connector-curvature="0"
     style="fill:#000000;fill-opacity:1;stroke:#000000;stroke-width:2.82222223;stroke-linecap:round;stroke-linejoin:round;stroke-miterlimit:4;stroke-dasharray:none;stroke-opacity:1;paint-order:normal"
     d="m 108.09708,11.142896 9.84075,17.356046 -2.76263,9.526551 11.91504,2.722314 1.4428,-11.16366 z m -15.483805,0.0021 -23.346897,18.02319 5.464784,12.844693 10.443289,-5.958808 -5.113383,-7.264157 z m 82.978915,31.13712 -23.04511,12.396142 9.16637,8.830987 9.81955,-8.548317 19.44016,22.461162 z m -74.41975,0.787033 c -37.316931,0.107034 -64.180574,15.809253 -63.435402,58.299801 0.755881,43.164 40.60734,53.01589 40.60734,53.01589 l 13.559895,-29.72997 c 0,0 -19.016061,-5.38723 -19.468062,-23.42493 -0.452099,-18.037002 14.410052,-27.437677 29.563059,-27.917676 15.15299,-0.479131 29.29407,11.984675 30.13407,27.917676 0.84036,15.932 -19.4753,23.42493 -19.4753,23.42493 l 11.73314,29.72997 c 0,0 39.42619,-15.7079 39.49319,-53.1549 0.0661,-37.447002 -22.68503,-57.762075 -60.92702,-58.154074 -0.59754,-0.0061 -1.19258,-0.0084 -1.78491,-0.0067 z m -77.850026,0.911055 -17.8629925,37.3078 21.5986815,-24.038843 9.571509,9.527067 7.548377,-9.807152 z m 79.008616,38.58369 C 91.484226,82.68786 91.114122,93.988079 97.192323,99.34578 c -0.0402,4.661 -6.422387,10.00917 -5.138187,16.25947 H 112.6074 c 1.3012,-5.916 -4.92918,-11.45097 -5.13819,-16.25947 6.4527,-6.631 5.70882,-16.905901 -5.13818,-16.781922 z m 67.6863,6.777365 0.31575,13.328901 12.80128,-2.37246 8.58553,29.26901 1.33221,-37.294881 z m -139.498974,2.073775 -24.0248891,5.052404 6.1980711,33.353012 4.680851,-26.68726 13.242085,0.54312 z m 135.408784,34.790126 -7.06778,11.30526 11.99617,5.0586 -8.92711,29.16721 21.62504,-30.4152 z m -128.42988,6.8399 -16.181959,18.46295 24.97987,22.95415 -12.275735,-24.15408 10.916645,-7.5153 z"
     id="keyhole" />
</svg>
