<svg id="Calque_1" data-name="Calque 1" xmlns="http://www.w3.org/2000/svg" viewBox="0 0 560.84 498.52"><defs><style>.cls-1{fill:#e40000;stroke:#470000;stroke-width:6px;}.cls-1,.cls-2{stroke-linecap:round;}.cls-1,.cls-2,.cls-3{stroke-linejoin:round;}.cls-2{stroke:#000;stroke-width:2.84px;}.cls-3{fill:#3fa652;stroke:#21552a;stroke-width:7.37px;}.cls-4{fill:#878787;stroke:#353535;stroke-width:5px;}</style></defs><title>téléchargement2</title><g id="Calque_1-2" data-name="Calque 1"><path class="cls-1" d="M324.1,131.9l64.36,56.2-3.64,35.1-36.9-7.6,7.77-30Z" transform="translate(-18.58 -127.9)"/><path class="cls-2" d="M444.36,258.3l71.05-38.8,47.43,110.1-59.93-70.4L472.6,286Z" transform="translate(-18.58 -127.9)"/><path class="cls-2" d="M491.5,482.4l54.32,47.3L479.19,625l27.56-91.4-37-15.8Z" transform="translate(-18.58 -127.9)"/><path class="cls-2" d="M507,366.9l71,9.2-4.13,116.8-26.47-91.7-39.46,7.4Z" transform="translate(-18.58 -127.9)"/></g><g id="Calque_1-3" data-name="Calque 1"><path class="cls-1" d="M242.31,184.6l7.77,30-36.9,7.6-3.64-35.1,64.36-56.2Z" transform="translate(-18.58 -127.9)"/><path class="cls-2" d="M125.4,285L95.09,258.2,35.16,328.6,82.59,218.5l71.05,38.8Z" transform="translate(-18.58 -127.9)"/><path class="cls-2" d="M128.25,516.8l-37,15.8L118.81,624,52.18,528.7l54.32-47.3Z" transform="translate(-18.58 -127.9)"/><path class="cls-2" d="M90.07,407.6l-39.46-7.4L24.13,491.9,20,375.1l71-9.2Z" transform="translate(-18.58 -127.9)"/></g><g id="layer1"><g id="g3879"><path id="path3773" class="cls-3" d="M321.45,450.93c34.34-11.94,51.48-46.82,38.3-77.91s-51.7-46.62-86-34.69-51.48,46.82-38.3,77.91c6.76,16,20.68,28.56,38.3,34.69L228.86,556.78C130,522.41,80.58,421.95,118.53,332.39s148.89-134.28,247.78-99.91S514.6,367.31,476.64,456.87c-19.48,46-59.58,82.27-110.33,99.91Z" transform="translate(-18.58 -127.9)"/></g></g><path class="cls-4" d="M314.12,394.42C323.17,390.73,329,384,329,376.16c0-11.74-13.66-21.26-30.51-21.26S268,364.42,268,376.16c0,7.65,5.65,14.29,14.36,18l-8.85,33.71h51.21Z" transform="translate(-18.58 -127.9)"/></svg>