<?xml version="1.0" encoding="UTF-8"?>
<svg width="1280" height="720" version="1.1" viewBox="0 0 1280 720" xmlns="http://www.w3.org/2000/svg">
 <g transform="matrix(6.6591 0 0 6.6591 413.59 200.18)">
  <path class="ytp-large-play-button-bg" d="M 66.52,7.74 C 65.74,4.81 64.03,2.33 61.1,1.55 55.79,0.13 34,0 34,0 34,0 12.21,0.13 6.9,1.55 3.97,2.33 2.27,4.81 1.48,7.74 0.06,13.05 0,24 0,24 0,24 0.06,34.95 1.48,40.26 2.26,43.19 3.97,45.67 6.9,46.45 12.21,47.87 34,48 34,48 c 0,0 21.79,-0.13 27.1,-1.55 2.93,-0.78 4.64,-3.26 5.42,-6.19 C 67.94,34.95 68,24 68,24 68,24 67.94,13.05 66.52,7.74 Z" fill="#f00" fill-opacity=".8"/>
  <path d="m45 24-18-10v20" fill="#fff"/>
 </g>
</svg>
