<?xml version="1.0" encoding="UTF-8" standalone="no"?>
<svg
   xmlns:dc="http://purl.org/dc/elements/1.1/"
   xmlns:cc="http://creativecommons.org/ns#"
   xmlns:rdf="http://www.w3.org/1999/02/22-rdf-syntax-ns#"
   xmlns:svg="http://www.w3.org/2000/svg"
   xmlns="http://www.w3.org/2000/svg"
   xmlns:sodipodi="http://sodipodi.sourceforge.net/DTD/sodipodi-0.dtd"
   xmlns:inkscape="http://www.inkscape.org/namespaces/inkscape"
   inkscape:version="0.92.4 5da689c313, 2019-01-14"
   inkscape:export-ydpi="96"
   inkscape:export-xdpi="96"
   inkscape:export-filename="/home/tadlight/Téléchargements/android-sans-nom.png"
   sodipodi:docname="android-sans-nom.svg"
   id="svg378"
   viewBox="0 0 33.86624 33.86624"
   version="1.1"
   height="128"
   width="128">
  <metadata
     id="metadata384">
    <rdf:RDF>
      <cc:Work
         rdf:about="">
        <dc:format>image/svg+xml</dc:format>
        <dc:type
           rdf:resource="http://purl.org/dc/dcmitype/StillImage" />
        <dc:title />
        <dc:title />
      </cc:Work>
    </rdf:RDF>
  </metadata>
  <defs
     id="defs382" />
  <sodipodi:namedview
     pagecolor="#ffffff"
     bordercolor="#666666"
     borderopacity="1"
     objecttolerance="10"
     gridtolerance="10"
     guidetolerance="10"
     inkscape:pageopacity="0"
     inkscape:pageshadow="2"
     inkscape:window-width="1916"
     inkscape:window-height="1041"
     id="namedview380"
     showgrid="false"
     inkscape:zoom="4"
     inkscape:cx="64.81758"
     inkscape:cy="67.495983"
     inkscape:window-x="0"
     inkscape:window-y="18"
     inkscape:window-maximized="0"
     inkscape:current-layer="svg378"
     inkscape:snap-global="false" />
  <style
     id="style6076">.st0{fill:#79c257}</style>
  <path
     id="keyhole-3"
     d="m 15.696909,21.042601 c -0.319579,-0.388917 1.188459,-5.60014 1.197958,-5.935084 -4.132809,0.687641 -2.737011,-0.732297 0.310191,-0.985105 3.443793,-0.116118 4.569124,1.101374 0.713722,0.985105 0.04938,0.345545 1.521554,5.509953 1.214099,5.935084 z"
     inkscape:connector-curvature="0"
     style="fill:#6f6f6f;fill-opacity:1;stroke:#292929;stroke-width:0.46195668;stroke-linecap:round;stroke-linejoin:round;stroke-miterlimit:4;stroke-dasharray:none;stroke-opacity:1"
     sodipodi:nodetypes="cccccc" />
  <path
     inkscape:connector-curvature="0"
     style="fill:#e40000;fill-opacity:1;stroke:#7a0000;stroke-width:0.46195668;stroke-linecap:round;stroke-linejoin:round;stroke-miterlimit:4;stroke-dasharray:none;stroke-opacity:1"
     d="M 12.835922,9.1075321 11.137591,5.3260384 C 11.047683,5.1307706 10.85678,5.0606729 10.699423,5.1722553 c -0.157357,0.1115766 -0.213474,0.348923 -0.123556,0.5441909 0.499611,1.3778224 1.122883,2.4952015 1.674845,3.8253545 z"
     id="path7746" />
  <path
     inkscape:connector-curvature="0"
     style="fill:#e40000;fill-opacity:1;stroke:#7a0000;stroke-width:0.46195668;stroke-linecap:round;stroke-linejoin:round;stroke-miterlimit:4;stroke-dasharray:none;stroke-opacity:1"
     d="M 22.156688,9.0211205 C 22.64651,7.7129612 23.262681,6.45989 23.827477,5.1943921 c 0.08991,-0.1952679 0.0338,-0.446557 -0.123557,-0.5441908 -0.04496,-0.027898 -0.101292,-0.05538 -0.157489,-0.05538 -0.112398,0 -0.224847,0.069685 -0.281047,0.2091633 l -1.800705,3.7389001 z"
     id="opensource-6" />
  <path
     style="fill:#395582;fill-opacity:1;stroke:#2f3948;stroke-width:0.46195668;stroke-linecap:round;stroke-linejoin:round;stroke-miterlimit:4;stroke-dasharray:none;stroke-opacity:1"
     d="m 10.211102,21.678844 v 4.971404 c 0,1.26206 0.835588,2.298966 1.852621,2.298966 1.017032,0 1.852253,-1.036906 1.852253,-2.298966 v -4.701827 z"
     id="path7954"
     inkscape:connector-curvature="0" />
  <path
     style="fill:#395582;fill-opacity:1;stroke:#2f3948;stroke-width:0.46195668;stroke-linecap:round;stroke-linejoin:round;stroke-miterlimit:4;stroke-dasharray:none;stroke-opacity:1"
     d="m 20.646702,21.416589 v 4.902292 c 0,1.262062 0.835221,2.298967 1.852252,2.298967 1.017032,0 1.852622,-1.036905 1.852622,-2.298967 v -4.992457 z"
     id="path7952"
     inkscape:connector-curvature="0" />
  <path
     style="fill:#79c257;fill-opacity:1;stroke:#298100;stroke-width:0.46195668;stroke-linecap:round;stroke-linejoin:round;stroke-miterlimit:4;stroke-dasharray:none;stroke-opacity:1"
     d="m 25.265168,14.776363 c -0.136964,-3.392484 -3.386313,-1.923469 -8.069213,-1.978051 -4.977581,0.256057 -8.0693696,-0.08268 -7.9633594,2.000021 0.5244872,7.121385 -1.4195125,9.514565 5.0505914,9.032417 l 1.833946,-8.083654 c 0,0 -2.371364,0.399182 -2.474464,-0.289224 -0.103119,-1.369799 2.196639,-1.887899 4.122483,-1.963646 1.925846,-0.07561 3.494877,0.528332 3.464672,1.395726 -0.03016,0.924029 -2.475203,0.857144 -2.475203,0.857144 l 1.698535,7.904095 c 5.846195,0.36482 4.974001,-2.354089 4.812012,-8.874828 z"
     id="path7748"
     inkscape:connector-curvature="0"
     sodipodi:nodetypes="ccccccccccc" />
  <path
     sodipodi:nodetypes="sccccccccss"
     inkscape:connector-curvature="0"
     id="path7548"
     d="m 7.1240532,17.87119 c -0.3552413,0.07422 -0.6881967,0.31522 -0.9119691,0.704983 l -1.6979908,2.958106 c -0.4023633,0.836779 -0.5503084,1.368215 -0.5924402,1.814808 -0.045213,0.182932 -0.2268118,4.070391 -0.2268118,4.070391 -0.048686,0.954969 0.5431849,1.788737 1.3126257,1.848455 0.7694383,0.05972 1.4416344,-0.675906 1.490321,-1.630877 L 6.7416275,23.78438 c 0.031685,-0.167304 1.757571,-3.186598 1.757571,-3.186598 C 8.9467432,19.818252 8.7987312,18.721855 8.1709496,18.166999 7.8570574,17.88957 7.4792954,17.796967 7.1240532,17.87119 Z"
     style="fill:#395582;fill-opacity:1;stroke:#2f3948;stroke-width:0.46195668;stroke-miterlimit:4;stroke-dasharray:none;stroke-opacity:1" />
  <path
     sodipodi:nodetypes="scsscsccccs"
     inkscape:connector-curvature="0"
     id="path7554"
     d="m 6.9995027,12.508264 c -0.1376692,0.01069 -0.2758348,0.04665 -0.4108493,0.110849 l -3.1651296,1.678211 c -0.4869984,0.258217 -0.8180359,0.603339 -1.1034429,1.0702 L 0.55137725,18.260712 C 0.08530086,19.02315 0.20714915,20.12437 0.82133704,20.702429 1.4355232,21.280487 2.3225925,21.128842 2.7886695,20.366408 l 1.919943,-3.043229 c 0.066824,-0.07695 2.8837542,-1.449132 2.8837542,-1.449132 0.7200738,-0.342375 1.0853818,-1.35751 0.8097999,-2.250955 C 8.1782557,12.897165 7.5960744,12.462203 6.9995027,12.508264 Z"
     style="fill:#395582;fill-opacity:1;stroke:#2f3948;stroke-width:0.46195668;stroke-miterlimit:4;stroke-dasharray:none;stroke-opacity:1" />
  <path
     style="fill:#395582;fill-opacity:1;stroke:#2f3948;stroke-width:0.46195668;stroke-miterlimit:4;stroke-dasharray:none;stroke-opacity:1"
     d="m 27.710767,16.278762 c -0.353829,-0.08401 -0.733151,-0.0018 -1.051907,0.266874 -0.637512,0.537411 -0.805019,1.629461 -0.371474,2.421135 l 1.700191,3.234225 c 0.02922,0.07859 0.175331,3.858491 0.175331,3.858491 0.03166,0.956078 0.690225,1.709968 1.460538,1.671477 0.770317,-0.03849 1.377259,-0.855657 1.345596,-1.811736 L 30.848966,22.291229 C 30.724521,21.554302 30.575325,20.990048 30.41508,20.501469 30.3843,20.321538 28.609591,17.008627 28.609591,17.008627 28.392816,16.612789 28.0646,16.362755 27.710767,16.278757 Z"
     id="path7560"
     inkscape:connector-curvature="0"
     sodipodi:nodetypes="scccccccccs" />
  <path
     sodipodi:nodetypes="scccccccccs"
     inkscape:connector-curvature="0"
     id="path7566"
     d="m 27.311065,10.820872 c -0.591851,-0.103951 -1.199228,0.273129 -1.468083,0.975054 -0.330899,0.863901 -0.03052,1.911464 0.665828,2.32283 l 2.783654,1.725156 c 0.05154,0.04995 1.722952,3.220705 1.722952,3.220705 0.416725,0.805439 1.291545,1.042905 1.940187,0.526352 0.648644,-0.516549 0.83934,-1.602544 0.422617,-2.407983 l -1.581428,-3.056368 c -0.488847,-0.771266 -0.943715,-1.248652 -1.191984,-1.421476 -0.03182,-0.02958 -2.890758,-1.73372 -2.890758,-1.73372 -0.130564,-0.07713 -0.266405,-0.126568 -0.402986,-0.150553 z"
     style="fill:#395582;fill-opacity:1;stroke:#2f3948;stroke-width:0.46195668;stroke-miterlimit:4;stroke-dasharray:none;stroke-opacity:1" />
  <path
     sodipodi:nodetypes="zcccz"
     inkscape:connector-curvature="0"
     id="path7956"
     d="m 17.195955,7.5461066 c -2.253778,0.1470942 -8.2178578,2.6550164 -7.3630733,4.7364694 1.1906623,0.03749 2.5110523,-0.0654 7.2233343,-0.150925 5.087453,-0.09234 7.045963,-0.363671 7.874291,-0.456596 0,-2.8655296 -5.480775,-4.2760426 -7.734552,-4.1289484 z"
     style="fill:#79c257;fill-opacity:1;stroke:#298100;stroke-width:0.46195668;stroke-linecap:round;stroke-linejoin:round;stroke-miterlimit:4;stroke-dasharray:none;stroke-opacity:1" />
  <path
     style="fill:#ffffff;stroke:none;stroke-width:0.46195668;stroke-miterlimit:4;stroke-dasharray:none"
     d="m 13.919316,10.651997 c -0.332872,0 -0.60234,-0.268781 -0.60234,-0.600804 0,-0.3320233 0.269468,-0.6008039 0.60234,-0.6008039 0.332872,0 0.602341,0.2687806 0.602341,0.6008039 0,0.332023 -0.269469,0.600804 -0.602341,0.600804 z"
     id="path6703"
     inkscape:connector-curvature="0" />
  <path
     style="fill:#ffffff;stroke:none;stroke-width:0.46195668;stroke-miterlimit:4;stroke-dasharray:none"
     d="m 20.576761,10.378102 c -0.332872,0 -0.60234,-0.26878 -0.60234,-0.6008031 0,-0.3320236 0.269468,-0.6008043 0.60234,-0.6008043 0.332873,0 0.60234,0.2687807 0.60234,0.6008043 0,0.3320231 -0.269467,0.6008031 -0.60234,0.6008031 z"
     id="path6701"
     inkscape:connector-curvature="0" />
</svg>
