<?xml version="1.0" encoding="UTF-8"?>
<svg width="210mm" height="297mm" version="1.1" viewBox="0 0 210 297" xmlns="http://www.w3.org/2000/svg" xmlns:cc="http://creativecommons.org/ns#" xmlns:dc="http://purl.org/dc/elements/1.1/" xmlns:rdf="http://www.w3.org/1999/02/22-rdf-syntax-ns#">
  <metadata>
    <rdf:RDF>
      <cc:Work rdf:about="">
        <dc:format>image/svg+xml</dc:format>
        <dc:type rdf:resource="http://purl.org/dc/dcmitype/StillImage"/>
        <dc:title/>
      </cc:Work>
    </rdf:RDF>
  </metadata>
  <g transform="matrix(9.5773 0 0 9.5773 659.74 -1762.8)" stroke="#000" stroke-linecap="round" stroke-linejoin="round" stroke-width=".35278">
    <path d="m-68.472 197.72s0.1982 5.2212 0.19741 7.0086c-0.0016 3.3458 2.7123 6.058 6.058 6.058 3.3458 1e-5 6.0593-2.7123 6.058-6.058-7.94e-4 -1.8267 0.01296-4.0325-0.06666-5.7847 0.35948-0.67608 0.92347-1.2779 1.3152-1.8943-1.1713-0.69976-1.7404-1.6497-1.7599-2.8493-0.01954-1.1995 1.2728-2.459 2.8854-2.4576 1.6126 1e-3 2.7638 1.0944 2.8245 2.4201 0.0607 1.3257-0.2619 1.816-1.209 3.0303 0.32065 0.12833 2.0983 1.3038 2.366 1.8606 1.3689-1.1493 2.427-3.0275 2.4293-4.8149 1.6e-5 -3.3458-1.7568-5.8775-6.3273-5.8911-4.5705-0.0136-6.6942 2.4897-6.7285 5.2193-0.03432 2.7296 0.8969 3.3236 1.3077 4.149l-7.1523 0.23237c-0.75528-0.23791-1.4006-0.23625-2.1978-0.2284zm9.9033 2.199c0.05884 1.4156 0.10445 3.7942 0.10439 4.8095-1.27e-4 2.0722-1.68 3.752-3.7522 3.7522-2.0724 1.1e-4 -3.7108-1.6802-3.7527-3.7522-0.01733-0.85572-0.23014-3.0222-0.2998-4.6643z" fill="#008000"/>
    <path d="m-61.271 203.94c0.11469 0.60245 1.209 1.1527 1.2234 2.3458l-3.5899 0.69657c-0.34911-1.0764 0.86267-2.11 0.77819-2.9323-1.1765-0.82493-1.1892-2.8726 0.66314-3.0922 1.9551 0.0971 1.6941 2.0522 0.92516 2.9821z" fill="#787878"/>
  </g>
</svg>
