<?xml version="1.0" encoding="UTF-8"?>
<!-- Created with Inkscape (http://www.inkscape.org/) -->
<svg width="100" height="100" version="1.1" viewBox="0 0 26.458334 26.458334" xmlns="http://www.w3.org/2000/svg" xmlns:cc="http://creativecommons.org/ns#" xmlns:dc="http://purl.org/dc/elements/1.1/" xmlns:rdf="http://www.w3.org/1999/02/22-rdf-syntax-ns#">
  <metadata>
    <rdf:RDF>
      <cc:Work rdf:about="">
        <dc:format>image/svg+xml</dc:format>
        <dc:type rdf:resource="http://purl.org/dc/dcmitype/StillImage"/>
        <dc:title/>
      </cc:Work>
    </rdf:RDF>
  </metadata>
  <g transform="matrix(.28421 0 0 .28421 -3.5655 1.4221)">
    <g transform="matrix(.48298 0 0 .48298 10.796 -6.7528)" stroke-linecap="round" stroke-linejoin="round" stroke-width="3.3655">
      <path id="keyhole" d="m113.35 122.8h-20.553c-1.2842-6.2503 5.0981-11.598 5.1383-16.259-6.0782-5.3577-5.7085-16.658 5.1383-16.782 10.847-0.12398 11.591 10.151 5.1383 16.782 0.20901 4.8085 6.4395 10.343 5.1383 16.259z" fill="#6f6f6f" stroke="#292929"/>
      <path id="opensource" d="m92.647 131.85s-19.016-5.3873-19.468-23.425c-0.4521-18.037 14.41-27.438 29.563-27.918 15.153-0.47913 29.294 11.985 30.134 27.918 0.84036 15.932-19.475 23.425-19.475 23.425l11.733 29.73s39.426-15.708 39.493-53.155c0.0661-37.447-22.685-57.762-60.927-58.154-38.242-0.39134-65.977 15.128-65.22 58.293 0.75588 43.164 40.607 53.016 40.607 53.016z" fill="#3ba337" stroke="#123111"/>
      <g fill-rule="evenodd">
        <g fill="#395582" stroke="#182336">
          <path id="bottomrightleg" d="m166.67 133.4 17.626 15.116-21.625 30.415 8.9272-29.167-11.996-5.0587z"/>
          <path id="bottomleftleg" d="m38.24 140.24-16.182 18.463 24.98 22.954-12.276-24.154 10.917-7.515z"/>
          <path id="middlerightleg" d="m170.76 96.536 23.035 2.9308-1.3324 37.295-8.5857-29.269-12.801 2.3724z"/>
          <path id="middleleftleg" d="m31.261 98.61-24.025 5.0523 6.1985 33.353 4.6809-26.687 13.242 0.54284z"/>
          <path id="toprighttleg" d="m153.29 61.873 23.045-12.396 15.381 35.14-19.44-22.461-9.8196 8.5484z"/>
          <path id="topleftleg" d="m44.921 64.164-20.856-12.989-17.863 37.308 21.599-24.039l9.5716 9.5272z"/>
        </g>
        <path id="rightmandible" d="m108.84 18.338 20.436 18.441-1.4429 11.164-11.915-2.7224 2.7624-9.5265z" fill="#e40000" stroke="#320d0d"/>
        <path id="leftmandible" d="m85.917 43.249-5.113-7.2641 12.552-17.645-23.347 18.023 5.4649 12.845z" fill="#e40000" stroke="#320d0d"/>
      </g>
    </g>
  </g>
</svg>
