<?xml version="1.0" encoding="UTF-8"?>
<!-- Created with Inkscape (http://www.inkscape.org/) -->
<svg width="200mm" height="200mm" version="1.1" viewBox="0 0 200 200" xmlns="http://www.w3.org/2000/svg" xmlns:cc="http://creativecommons.org/ns#" xmlns:dc="http://purl.org/dc/elements/1.1/" xmlns:rdf="http://www.w3.org/1999/02/22-rdf-syntax-ns#">
  <metadata>
    <rdf:RDF>
      <cc:Work rdf:about="">
        <dc:format>image/svg+xml</dc:format>
        <dc:type rdf:resource="http://purl.org/dc/dcmitype/StillImage"/>
        <dc:title/>
      </cc:Work>
    </rdf:RDF>
  </metadata>
  <path d="m69.451 159.43c4.0489-6.3773 15.993-17.975 20.314-23.74-10.991-7.7716-15.867-17.547-15.149-29.361 0.71762-11.814 14.384-23.221 30.246-21.985 15.861 1.2325 26.355 12.861 25.947 25.948-0.40651 13.087-3.9537 17.664-14.191 28.889 3.0566 1.5055 19.65 14.416 21.861 20.096 14.336-10.266 26.17-27.939 27.548-45.517 2.5383-32.91-12.821-59.145-57.767-62.746-44.946-3.6011-67.734 19.41-70.142 46.234-2.1999 33.931 9.7104 47.551 31.336 62.182z" fill="#3c7c3c" stroke="#000" stroke-linecap="round" stroke-linejoin="round" stroke-width="2.6917"/>
  <g fill-rule="evenodd" stroke="#000" stroke-linecap="round" stroke-linejoin="round" stroke-width="2.6917">
    <path d="m40.112 141.23-16.962 19.353 26.184 24.061-12.868-25.318 11.443-7.8773z"/>
    <path d="m44.265 62.331-21.861-13.615-18.724 39.107 22.64-25.198 10.033 9.9865z"/>
    <path d="m85.735 41.466-5.3595-7.6143 13.157-18.496-24.472 18.892 5.7283 13.464z" fill="#e40000"/>
    <path d="m110.97 15.625 21.883 18.805-1.2283 11.735-12.555-2.5499 2.6526-10.053z" fill="#e40000"/>
    <path d="m153.86 59.93 24.156-12.994 16.122 36.834-20.377-23.544-10.293 8.9605z"/>
    <path d="m167.88 134.91 18.476 15.845-22.667 31.881 9.3575-30.573-12.574-5.3026z"/>
    <path d="m29.479 103.63-24.732 7.1115 9.0203 34.397 2.8611-28.256 13.885-0.441z"/>
    <path d="m172.17 96.264 24.145 3.0721-1.3966 39.093-8.9996-30.68-13.418 2.4868z"/>
  </g>
  <path d="m107.25 111.52c0.28 3.6141 6.3475 7.5627 5.6511 14.581l-21.544 1.7421c-1.3461-6.5516 6.4487-11.83 6.4908-16.716-6.3712-5.616-5.1055-17.653 5.9195-17.73 11.422 1.8502 8.6083 13.164 3.4828 18.124z" fill="#6a6a6a" stroke="#000" stroke-linecap="round" stroke-linejoin="round" stroke-width="2.439"/>
</svg>
