<?xml version="1.0" encoding="UTF-8" standalone="no"?>
<!-- Created with Inkscape (http://www.inkscape.org/) -->

<svg
   xmlns:dc="http://purl.org/dc/elements/1.1/"
   xmlns:cc="http://creativecommons.org/ns#"
   xmlns:rdf="http://www.w3.org/1999/02/22-rdf-syntax-ns#"
   xmlns:svg="http://www.w3.org/2000/svg"
   xmlns="http://www.w3.org/2000/svg"
   xmlns:sodipodi="http://sodipodi.sourceforge.net/DTD/sodipodi-0.dtd"
   xmlns:inkscape="http://www.inkscape.org/namespaces/inkscape"
   width="155.71028mm"
   height="107.65959mm"
   viewBox="0 0 551.72934 381.47099"
   id="svg2"
   version="1.1"
   inkscape:version="0.92.4 5da689c313, 2019-01-14"
   sodipodi:docname="tmp__asn_survey_icons.svg">
  <defs
     id="defs4" />
  <sodipodi:namedview
     id="base"
     pagecolor="#ffffff"
     bordercolor="#666666"
     borderopacity="1.0"
     inkscape:pageopacity="0.0"
     inkscape:pageshadow="2"
     inkscape:zoom="0.85393313"
     inkscape:cx="570.62388"
     inkscape:cy="203.45119"
     inkscape:document-units="px"
     inkscape:current-layer="layer1"
     showgrid="false"
     showguides="false"
     inkscape:window-width="1920"
     inkscape:window-height="1080"
     inkscape:window-x="0"
     inkscape:window-y="0"
     inkscape:window-maximized="0"
     fit-margin-top="10"
     fit-margin-left="10"
     fit-margin-right="10"
     fit-margin-bottom="10" />
  <metadata
     id="metadata7">
    <rdf:RDF>
      <cc:Work
         rdf:about="">
        <dc:format>image/svg+xml</dc:format>
        <dc:type
           rdf:resource="http://purl.org/dc/dcmitype/StillImage" />
        <dc:title></dc:title>
      </cc:Work>
    </rdf:RDF>
  </metadata>
  <g
     inkscape:label="Calque 1"
     inkscape:groupmode="layer"
     id="layer1"
     transform="translate(-81.385716,-239.57999)">
    <g
       id="g4386"
       transform="matrix(0.6585714,0,0,0.6585714,76.808058,142.0941)">
      <rect
         y="260.01028"
         x="62.774361"
         height="66.95932"
         width="116.48132"
         id="rect4209"
         style="opacity:1;fill:#ffffff;fill-opacity:1;stroke:#000000;stroke-width:1.25;stroke-linecap:round;stroke-linejoin:round;stroke-miterlimit:4;stroke-dasharray:none;stroke-opacity:1" />
      <path
         sodipodi:nodetypes="cccccc"
         inkscape:connector-curvature="0"
         style="opacity:1;fill:#ffffff;fill-opacity:1;stroke:#000000;stroke-width:1.25;stroke-linecap:round;stroke-linejoin:round;stroke-miterlimit:4;stroke-dasharray:none;stroke-opacity:1"
         d="m 177.86124,326.9696 v -0.37109 l -56.78856,-51.52919 -59.693859,49.94521 v 1.95507 z"
         id="path4231" />
      <path
         id="rect4209-3"
         d="m 62.77381,260.01028 v 0.37109 l 46.32617,57.80664 70.15625,-56.22266 v -1.95507 z"
         style="opacity:1;fill:#ffffff;fill-opacity:1;stroke:#000000;stroke-width:1.25;stroke-linecap:round;stroke-linejoin:round;stroke-miterlimit:4;stroke-dasharray:none;stroke-opacity:1"
         inkscape:connector-curvature="0" />
    </g>
    <path
       style="opacity:1;fill:#4b97a6;fill-opacity:1;stroke:#000000;stroke-width:0.96747023;stroke-linecap:round;stroke-linejoin:round;stroke-miterlimit:4;stroke-dasharray:none;stroke-opacity:1"
       d="m 287.70375,289.42921 c -8.39961,7e-4 -15.20824,7.72052 -15.20752,17.2424 0.004,3.0094 0.90418,6.1723 2.00489,8.52769 1.10071,2.35539 0.35742,2.76557 -1.21424,3.5816 -10.0762,4.11911 -16.509,12.26742 -16.51642,21.24061 0,26.55854 -3.29332,24.02512 30.93329,24.0251 34.2266,-3e-5 30.93328,2.86356 30.93328,-24.0251 -0.007,-8.38301 -5.62265,-16.04639 -14.57841,-20.37661 -1.75589,-1.50917 -3.29908,-3.59103 -2.63953,-5.52293 0.65956,-1.93189 1.49353,-4.85313 1.49361,-7.45036 7e-4,-9.52251 -6.80878,-17.24246 -15.20895,-17.2424 z"
       id="path4233"
       inkscape:connector-curvature="0"
       sodipodi:nodetypes="cczcczcczcc" />
    <g
       id="g4356"
       transform="matrix(0.76501863,0,0,0.76501863,96.052202,133.82872)">
      <ellipse
         ry="29.294701"
         rx="23.714758"
         cy="236.29553"
         cx="418.84448"
         id="path4241"
         style="opacity:1;fill:#dbd37a;fill-opacity:1;stroke:#000000;stroke-width:1.25;stroke-linecap:round;stroke-linejoin:round;stroke-miterlimit:4;stroke-dasharray:none;stroke-opacity:1" />
      <ellipse
         ry="12.554872"
         rx="6.2774358"
         cy="242.57297"
         cx="418.84448"
         id="path4239"
         style="opacity:1;fill:#ffffff;fill-opacity:1;stroke:#000000;stroke-width:1.25;stroke-linecap:round;stroke-linejoin:round;stroke-miterlimit:4;stroke-dasharray:none;stroke-opacity:1" />
      <rect
         y="267.15958"
         x="401.1456"
         height="4.0105844"
         width="35.397766"
         id="rect4243"
         style="opacity:1;fill:#ac6c28;fill-opacity:1;stroke:#000000;stroke-width:1.25;stroke-linecap:round;stroke-linejoin:round;stroke-miterlimit:4;stroke-dasharray:none;stroke-opacity:1" />
      <rect
         y="271.17017"
         x="398.79156"
         height="4.708077"
         width="40.105843"
         id="rect4245"
         style="opacity:1;fill:#ac6c28;fill-opacity:1;stroke:#000000;stroke-width:1.25;stroke-linecap:round;stroke-linejoin:round;stroke-miterlimit:4;stroke-dasharray:none;stroke-opacity:1" />
      <rect
         y="276.57574"
         x="401.05841"
         height="4.0105844"
         width="35.572136"
         id="rect4247"
         style="opacity:1;fill:#ac6c28;fill-opacity:1;stroke:#000000;stroke-width:1.25;stroke-linecap:round;stroke-linejoin:round;stroke-miterlimit:4;stroke-dasharray:none;stroke-opacity:1" />
      <rect
         y="280.93506"
         x="397.74533"
         height="4.5337038"
         width="42.198318"
         id="rect4249"
         style="opacity:1;fill:#ac6c28;fill-opacity:1;stroke:#000000;stroke-width:1.25;stroke-linecap:round;stroke-linejoin:round;stroke-miterlimit:4;stroke-dasharray:none;stroke-opacity:1" />
      <rect
         y="285.99188"
         x="400.88403"
         height="3.836211"
         width="35.920883"
         id="rect4251"
         style="opacity:1;fill:#ac6c28;fill-opacity:1;stroke:#000000;stroke-width:1.25;stroke-linecap:round;stroke-linejoin:round;stroke-miterlimit:4;stroke-dasharray:none;stroke-opacity:1" />
      <rect
         y="290.17685"
         x="398.44281"
         height="4.1849575"
         width="40.803333"
         id="rect4253"
         style="opacity:1;fill:#ac6c28;fill-opacity:1;stroke:#000000;stroke-width:1.25;stroke-linecap:round;stroke-linejoin:round;stroke-miterlimit:4;stroke-dasharray:none;stroke-opacity:1" />
      <rect
         y="294.53616"
         x="401.23279"
         height="2.6155879"
         width="35.223396"
         id="rect4255"
         style="opacity:1;fill:#ac6c28;fill-opacity:1;stroke:#000000;stroke-width:1.25;stroke-linecap:round;stroke-linejoin:round;stroke-miterlimit:4;stroke-dasharray:none;stroke-opacity:1" />
      <rect
         y="296.97742"
         x="403.58682"
         height="2.2668519"
         width="30.515314"
         id="rect4257"
         style="opacity:1;fill:#ac6c28;fill-opacity:1;stroke:#000000;stroke-width:1.25;stroke-linecap:round;stroke-linejoin:round;stroke-miterlimit:4;stroke-dasharray:none;stroke-opacity:1" />
      <rect
         y="299.59299"
         x="406.28961"
         height="1.9181055"
         width="25.109745"
         id="rect4259"
         style="opacity:1;fill:#ac6c28;fill-opacity:1;stroke:#000000;stroke-width:1.25;stroke-linecap:round;stroke-linejoin:round;stroke-miterlimit:4;stroke-dasharray:none;stroke-opacity:1" />
      <path
         inkscape:connector-curvature="0"
         id="path4261"
         d="m 384.66733,258.26655 c 0,0 -8.71866,0 -8.71866,-2.44123"
         style="fill:none;fill-rule:evenodd;stroke:#000000;stroke-width:1px;stroke-linecap:butt;stroke-linejoin:miter;stroke-opacity:1" />
      <path
         inkscape:connector-curvature="0"
         id="path4263"
         d="m 388.15479,221.64817 c 0,0 -8.02116,-6.62618 -8.02116,-9.41615"
         style="fill:none;fill-rule:evenodd;stroke:#000000;stroke-width:1px;stroke-linecap:butt;stroke-linejoin:miter;stroke-opacity:1" />
      <path
         inkscape:connector-curvature="0"
         id="path4265"
         d="m 413.26454,199.67715 c 0,0 -2.78997,-9.41616 0,-12.55488"
         style="fill:none;fill-rule:evenodd;stroke:#000000;stroke-width:1px;stroke-linecap:butt;stroke-linejoin:miter;stroke-opacity:1" />
      <path
         inkscape:connector-curvature="0"
         id="path4267"
         d="m 442.55924,201.07213 c 0,0 -2.09248,-6.97493 4.18496,-11.15988"
         style="fill:none;fill-rule:evenodd;stroke:#000000;stroke-width:1px;stroke-linecap:butt;stroke-linejoin:miter;stroke-opacity:1" />
      <path
         inkscape:connector-curvature="0"
         id="path4269"
         d="m 458.25283,230.36683 c 0,0 8.02117,-10.11364 11.15989,-6.62618"
         style="fill:none;fill-rule:evenodd;stroke:#000000;stroke-width:1px;stroke-linecap:butt;stroke-linejoin:miter;stroke-opacity:1" />
      <path
         inkscape:connector-curvature="0"
         id="path4271"
         d="m 455.46286,253.03535 c 0,0 9.7649,1.74373 11.15988,0"
         style="fill:none;fill-rule:evenodd;stroke:#000000;stroke-width:1px;stroke-linecap:butt;stroke-linejoin:miter;stroke-opacity:1" />
    </g>
    <g
       id="g4391"
       transform="matrix(0.78649486,0,0,0.78649486,87.607545,145.84509)">
      <path
         id="circle4317"
         d="m 605.49414,241.75977 c -1.2984,0.044 -2.56821,0.20703 -3.77344,0.46289 l 1.20508,6.94531 c -0.58246,0.13919 -2.71649,0.9417 -3.75195,1.98633 -0.97747,-0.57877 -6.62305,-3.66407 -6.62305,-3.66407 -2.31949,2.42161 -3.99756,5.46621 -4.75586,8.85547 l 6.5918,3.61719 c -1.60184,2.84407 -0.68206,5.20438 1.0664,8.125 -0.90188,1.10359 -2.23472,2.84413 -3.40039,4.91797 1.38653,3.07669 5.19591,4.86662 7.64063,5.07226 l 2.76562,-6.3125 c 0.54937,0.17359 2.32124,0.4063 3.62696,0.40626 1.25358,-1.6e-4 2.45942,-0.2018 3.59179,-0.56641 l 1.38282,6.35937 c 3.5251,-1.17733 6.48156,-2.90381 8.73828,-5.14843 l -4.07813,-5.70508 c 0.61705,-0.89142 1.11079,-1.87282 1.15625,-2.03321 -0.08,0.25034 6.93946,1.34766 6.93946,1.34766 0.7345,-2.13569 1.07366,-4.51089 0.97656,-7.11328 l -7.20508,-1.23047 c -0.0732,-0.54444 -0.50081,-1.88329 -0.77539,-2.40625 0.0296,0.056 4.94336,-5.50586 4.94336,-5.50586 -1.31801,-2.00414 -3.00967,-3.74048 -4.97656,-5.10937 l -4.83594,5.24218 c -0.80884,-0.66427 -1.60361,-1.05867 -2.79492,-1.16211 l 0.29297,-7.1289 c -1.32187,-0.22103 -2.64887,-0.29598 -3.94727,-0.25195 z m 0.80859,13.83789 a 4.3155169,4.3155169 0 0 1 4.31446,4.31445 4.3155169,4.3155169 0 0 1 -4.31446,4.31641 4.3155169,4.3155169 0 0 1 -4.3164,-4.31641 4.3155169,4.3155169 0 0 1 4.3164,-4.31445 z"
         style="opacity:1;fill:#665543;fill-opacity:1;stroke:#000000;stroke-width:1.25;stroke-linecap:round;stroke-linejoin:round;stroke-miterlimit:4;stroke-dasharray:none;stroke-opacity:1"
         inkscape:connector-curvature="0" />
      <path
         id="rect4283"
         d="m 626.57617,164.85742 a 38.564133,37.320129 0 0 0 -25.33398,11.71485 l 5.41992,5.69335 a 30.57852,29.592117 0 0 0 -7.91406,19.81641 30.57852,29.592117 0 0 0 0.043,1.20117 l -7.75391,2.86524 a 38.564133,37.320129 0 0 0 12.50391,23.6289 l 5.34765,-5.72851 a 30.57852,29.592117 0 0 0 20.4375,7.625 30.57852,29.592117 0 0 0 5.42383,-0.49414 v -15.76367 a 14.108195,13.653093 0 0 1 -2.95898,0.31836 14.108195,13.653093 0 0 1 -14.10743,-13.65235 14.108195,13.653093 0 0 1 14.10743,-13.65234 14.108195,13.653093 0 0 1 2.95898,0.31054 v -15.77148 a 30.57852,29.592117 0 0 0 -5.42383,-0.47852 30.57852,29.592117 0 0 0 -0.42773,0.0156 l -2.32227,-7.64844 z"
         style="opacity:1;fill:#665543;fill-opacity:1;stroke:#000000;stroke-width:1.25;stroke-linecap:round;stroke-linejoin:round;stroke-miterlimit:4;stroke-dasharray:none;stroke-opacity:1"
         inkscape:connector-curvature="0" />
      <path
         sodipodi:nodetypes="cccccccccccccccccccccccccccc"
         inkscape:connector-curvature="0"
         id="circle4321"
         d="m 572.06055,203.98633 c -0.21427,0.005 -0.42848,0.0132 -0.64258,0.0234 l -1.51953,9.10156 c -5.83277,0.41503 -11.2127,3.29465 -14.79297,7.91797 l -8.25195,-1.65625 c -2.08057,4.01738 -3.17076,8.47388 -3.17969,12.99804 0.008,0.85647 0.0538,1.71217 0.13867,2.56446 l 7.20898,1.44726 c 0.77191,5.60187 3.81752,10.63831 8.41993,13.92383 l -2.07618,6.31055 c 4.42838,2.69636 9.51066,4.12836 14.69532,4.14062 0.30745,-0.006 0.61478,-0.0171 0.92187,-0.0332 l 2.29102,-6.96289 c 6.30628,-1.22491 12.20035,-4.80461 15.56382,-11.78733 l 6.61455,2.21802 c 2.84641,-3.442 2.98353,-8.31303 2.9935,-11.82132 -3.6e-4,-0.65163 -0.0232,-1.30306 -0.0684,-1.95312 l -8.72461,0.0488 c -0.9601,-6.20806 -4.70626,-11.6363 -10.16992,-14.73633 l 1.58789,-9.51953 c -3.48511,-1.46747 -7.2283,-2.22382 -11.00976,-2.22461 z m -0.69922,21.2207 c 4.63085,-1.8e-4 8.38495,3.75392 8.38476,8.38477 -0.002,3.70981 -2.44167,6.97731 -5.99804,8.0332 -2.55845,0.37117 -5.12152,0.71924 -8.32227,-2.12109 -1.56522,-1.56971 -2.44512,-3.69538 -2.44726,-5.91211 -1.9e-4,-4.63009 3.75272,-8.38387 8.38281,-8.38477 z"
         style="opacity:1;fill:#665543;fill-opacity:1;stroke:#000000;stroke-width:1.25;stroke-linecap:round;stroke-linejoin:round;stroke-miterlimit:4;stroke-dasharray:none;stroke-opacity:1" />
    </g>
    <path
       style="opacity:1;fill:#265d2c;fill-opacity:1;stroke:#000000;stroke-width:0.9170804;stroke-linecap:round;stroke-linejoin:round;stroke-miterlimit:4;stroke-dasharray:none;stroke-opacity:1"
       d="m 551.76045,390.11815 a 40.265794,40.265794 0 0 0 -37.7221,24.32986 40.265794,40.265794 0 0 0 8.2351,44.12446 l 17.04337,-16.71665 a 16.495808,16.495808 0 0 1 -4.77598,-11.5982 16.495808,16.495808 0 0 1 16.49598,-16.49598 16.495808,16.495808 0 0 1 16.49598,16.49598 16.495808,16.495808 0 0 1 -5.23022,12.03238 l 16.40714,17.31992 a 40.265794,40.265794 0 0 0 9.85145,-43.79202 40.265794,40.265794 0 0 0 -36.80072,-25.69975 z"
       id="path3353"
       inkscape:connector-curvature="0" />
    <g
       id="g4412"
       transform="matrix(0.61144096,0,0,0.61144096,83.118387,125.32955)">
      <path
         id="rect4196"
         d="m 108.60156,414.85352 c -7.99928,0 -14.439451,9.02064 -14.439451,20.22656 v 15.3457 c 0,11.20592 6.440171,20.22656 14.439451,20.22656 h 21.33985 c 7.99928,0 14.43945,-9.02064 14.43945,-20.22656 v -15.3457 c 0,-11.20592 -6.44017,-20.22656 -14.43945,-20.22656 z m 3.46875,9.07421 h 14.40039 c 5.39762,0 9.74414,6.08711 9.74414,13.64844 v 10.35352 c 0,7.56133 -4.34652,13.64843 -9.74414,13.64843 h -14.40039 c -5.39761,0 -9.74219,-6.0871 -9.74219,-13.64843 v -10.35352 c 0,-7.56133 4.34458,-13.64844 9.74219,-13.64844 z"
         style="opacity:1;fill:#000000;fill-opacity:1;stroke:#000000;stroke-width:1.25;stroke-linecap:round;stroke-linejoin:round;stroke-miterlimit:4;stroke-dasharray:none;stroke-opacity:1"
         inkscape:connector-curvature="0" />
      <rect
         style="opacity:1;fill:#000000;fill-opacity:1;stroke:#000000;stroke-width:1.25;stroke-linecap:round;stroke-linejoin:round;stroke-miterlimit:4;stroke-dasharray:none;stroke-opacity:1"
         id="rect4198"
         width="74.631752"
         height="57.194382"
         x="81.955414"
         y="451.67584"
         rx="0"
         ry="0" />
      <path
         sodipodi:nodetypes="cccc"
         inkscape:connector-curvature="0"
         id="path4205"
         d="m 103.06506,559.45946 15.40235,-65.9116 -22.165666,72.51695 z"
         style="fill:none;fill-rule:evenodd;stroke:#000000;stroke-width:1px;stroke-linecap:butt;stroke-linejoin:miter;stroke-opacity:1" />
      <path
         sodipodi:nodetypes="czsssssssssssssc"
         inkscape:connector-curvature="0"
         id="path4207"
         d="m 144.77379,560.52216 c 0,0 -15.22228,-60.53162 -16.40653,-61.20406 -1.18424,-0.67244 -10.41598,-0.91727 -6.85274,3.32484 2.8811,3.43 7.45171,-0.35801 6.23593,5.2806 -0.92876,4.30746 -4.61417,0.12211 -3.74355,4.9045 0.33519,1.84094 7.72204,-0.79419 6.5619,3.09914 -0.73875,2.47917 -4.84305,-1.01251 -3.27969,5.53136 1.07874,4.51539 4.64175,-2.96455 5.83624,2.40708 1.54638,6.95405 -4.33286,2.85557 -3.62707,7.21216 1.00293,6.19095 5.0891,-3.28439 6.32931,2.86438 0.66307,3.28717 -6.17503,0.91425 -4.53338,6.45909 1.3708,4.63 5.94626,-1.68658 7.73389,3.84862 1.2383,3.83425 -6.20981,-0.38627 -3.38374,6.95843 2.07237,5.38592 4.9554,-0.93156 6.0426,3.8197 2.05833,8.99533 -6.26057,0.30704 -4.12699,6.75791 2.35895,7.13225 7.21382,-1.26375 7.21382,-1.26375 z"
         style="fill:none;fill-rule:evenodd;stroke:#000000;stroke-width:1px;stroke-linecap:butt;stroke-linejoin:miter;stroke-opacity:1" />
    </g>
    <g
       id="g4396"
       transform="matrix(0.65948526,0,0,0.65948526,177.8926,141.0281)">
      <path
         id="rect4160"
         d="m 228.91797,410.23047 v 37.66601 c -0.0425,0.95355 -0.0723,1.91249 -0.0723,2.88282 0,0.97033 0.0298,1.92927 0.0723,2.88281 v 1.57617 h 0.082 c 1.46724,21.18096 13.27202,37.58594 27.71094,37.58594 h 16.27539 c 15.43771,0 27.86719,-18.75174 27.86719,-42.04492 0,-2.48669 -0.15005,-4.91731 -0.42188,-7.28321 V 410.6543 c -1.75471,1.42192 -8.89894,2.48242 -17.50586,2.48242 h -36.1543 c -9.44234,0 -17.11888,-1.27611 -17.85351,-2.90625 z"
         style="opacity:1;fill:#d0d0d0;fill-opacity:1;stroke:#000000;stroke-width:1.25;stroke-linecap:round;stroke-linejoin:round;stroke-miterlimit:4;stroke-dasharray:none;stroke-opacity:1"
         inkscape:connector-curvature="0" />
      <ellipse
         ry="4.4942508"
         rx="10.037677"
         cy="442.23032"
         cx="251.15559"
         id="path4170"
         style="opacity:1;fill:#000000;fill-opacity:1;stroke:#000000;stroke-width:0.98015958;stroke-linecap:round;stroke-linejoin:round;stroke-miterlimit:4;stroke-dasharray:none;stroke-opacity:1" />
      <ellipse
         style="opacity:1;fill:#000000;fill-opacity:1;stroke:#000000;stroke-width:0.98015958;stroke-linecap:round;stroke-linejoin:round;stroke-miterlimit:4;stroke-dasharray:none;stroke-opacity:1"
         id="ellipse4172"
         cx="281.03149"
         cy="442.23032"
         rx="10.037677"
         ry="4.4942508" />
      <path
         inkscape:connector-curvature="0"
         id="path4174"
         d="m 238.01945,437.17347 c 0,0 -3.83621,-0.34874 -3.48747,-4.01058"
         style="fill:none;fill-rule:evenodd;stroke:#000000;stroke-width:1px;stroke-linecap:butt;stroke-linejoin:miter;stroke-opacity:1" />
      <path
         inkscape:connector-curvature="0"
         id="path4176"
         d="m 236.10134,442.2303 c 0,0 -3.66183,-1.22061 -3.13871,-2.78997"
         style="fill:none;fill-rule:evenodd;stroke:#000000;stroke-width:1px;stroke-linecap:butt;stroke-linejoin:miter;stroke-opacity:1" />
      <path
         inkscape:connector-curvature="0"
         id="path4178"
         d="m 237.49633,445.19464 c 0,0 -3.83621,0.17438 -4.18496,-1.22061"
         style="fill:none;fill-rule:evenodd;stroke:#000000;stroke-width:1px;stroke-linecap:butt;stroke-linejoin:miter;stroke-opacity:1" />
      <path
         inkscape:connector-curvature="0"
         id="path4180"
         d="m 294.86512,436.65036 c 0,0 3.13872,0 3.66184,-1.91811"
         style="fill:none;fill-rule:evenodd;stroke:#000000;stroke-width:1px;stroke-linecap:butt;stroke-linejoin:miter;stroke-opacity:1" />
      <path
         inkscape:connector-curvature="0"
         id="path4182"
         d="m 295.21387,441.18406 c 0,0 3.66183,-0.34875 4.18495,-1.56936"
         style="fill:none;fill-rule:evenodd;stroke:#000000;stroke-width:1px;stroke-linecap:butt;stroke-linejoin:miter;stroke-opacity:1" />
      <path
         inkscape:connector-curvature="0"
         id="path4184"
         d="m 293.64451,446.93838 c 0,0 3.31309,1.39498 4.5337,0"
         style="fill:none;fill-rule:evenodd;stroke:#000000;stroke-width:1px;stroke-linecap:butt;stroke-linejoin:miter;stroke-opacity:1" />
      <path
         sodipodi:nodetypes="sssscssssscs"
         inkscape:connector-curvature="0"
         id="path4186"
         d="m 251.62056,465.07319 c -2.96434,5.40557 -12.75889,7.47219 -13.42674,-3.48746 -0.22374,-3.67164 -5.21407,-13.30618 -5.75431,-12.03176 -1.96423,4.63355 4.58156,34.07397 18.8323,24.93537 11.2825,-7.23514 12.76915,-6.96975 12.72048,-7.11575 0,0 8.37972,2.44377 10.99428,5.72077 4.52249,5.66833 15.5248,5.8624 21.97103,-5.92869 2.1748,-3.97803 1.04624,-4.93797 1.04624,-10.11365 0,-0.25815 -5.92869,12.04242 -8.36992,13.07799 -2.24738,0.95334 -7.32367,2.78998 -9.24178,-0.52312 -1.9181,-3.31309 -11.50863,-9.93927 -15.92144,-8.97589 -4.41281,0.96339 -9.88579,-0.96338 -12.85014,4.44219 z"
         style="fill:#000000;fill-opacity:1;fill-rule:evenodd;stroke:#000000;stroke-width:1px;stroke-linecap:butt;stroke-linejoin:miter;stroke-opacity:1" />
      <path
         sodipodi:nodetypes="ssszss"
         inkscape:connector-curvature="0"
         id="path4188"
         d="m 261.82139,479.1799 c 2.15619,-1.47469 8.19554,0.43593 8.19554,0.43593 5.54252,3.06139 10.75253,-2.05339 9.67772,-1.81339 -9.99719,2.2323 -11.24249,-5.50646 -15.95514,-5.94621 -4.71264,-0.43976 -2.78999,6.97492 -14.82174,5.9462 -2.24083,-0.1916 9.53812,3.67925 12.90362,1.37747 z"
         style="fill:#000000;fill-opacity:1;fill-rule:evenodd;stroke:#000000;stroke-width:1px;stroke-linecap:butt;stroke-linejoin:miter;stroke-opacity:1" />
      <path
         sodipodi:nodetypes="zcczcsczz"
         inkscape:connector-curvature="0"
         id="path4190"
         d="m 261.1239,491.57792 c -1.3943,-1.14532 -3.48746,-9.24178 -2.6156,-10.11365 2.44493,-0.0577 2.76976,5.46216 3.83621,1.39499 0.69749,-2.87716 0.41875,-2.44255 1.56936,-2.35404 1.15062,0.0885 1.04625,2.70278 1.04625,2.70278 0,0 0.87186,1.74374 1.74373,-0.78467 0.87186,-2.52841 2.73981,-1.87477 2.52841,-0.43594 -1.29621,4.14343 -1.39138,9.69068 -3.05154,10.28802 -1.66016,0.59734 -3.66252,0.44783 -5.05682,-0.69749 z"
         style="fill:#000000;fill-opacity:1;fill-rule:evenodd;stroke:#000000;stroke-width:1px;stroke-linecap:butt;stroke-linejoin:miter;stroke-opacity:1" />
      <path
         sodipodi:nodetypes="cssc"
         inkscape:connector-curvature="0"
         id="path4192"
         d="m 257.37487,457.05203 c 0,0 4.5337,-6.97494 7.67242,-6.6262 3.13872,0.34875 8.02117,5.57996 6.62619,7.32369 -1.39499,1.74373 -13.94986,3.83621 -14.29861,-0.69749 z"
         style="fill:#000000;fill-opacity:1;fill-rule:evenodd;stroke:#000000;stroke-width:1px;stroke-linecap:butt;stroke-linejoin:miter;stroke-opacity:1" />
      <path
         sodipodi:nodetypes="cccscccc"
         inkscape:connector-curvature="0"
         id="path4375"
         d="m 234.81445,371.05972 c -0.35214,4.40615 -1.1582,11.02207 -1.1582,11.02207 -17.39886,3.89745 -35.35683,3.80057 -35.38867,10.37554 -6.5e-4,11.44027 30.47107,16.52966 68.06054,16.52988 37.59024,1.1e-4 68.06315,-5.08937 68.0625,-16.52988 -0.0156,-6.74327 -17.78968,-6.08813 -35.92187,-9.96343 l -1.07031,-11.43418 z"
         style="opacity:1;fill:#000000;fill-opacity:1;stroke:#000000;stroke-width:1.25;stroke-linecap:round;stroke-linejoin:round;stroke-miterlimit:4;stroke-dasharray:none;stroke-opacity:1" />
    </g>
    <g
       id="g4841"
       transform="translate(29.899506,-144.14488)">
      <path
         sodipodi:nodetypes="cccccc"
         inkscape:connector-curvature="0"
         id="path4429"
         d="m 381.08045,632.07784 0.3506,71.94026 c 0.35063,12.54562 3.87892,25.50879 8.03146,25.5216 4.15071,-0.023 7.67633,-12.9836 8.02891,-25.79355 l 0.35254,-71.66831 z"
         style="opacity:1;fill:#ffffff;fill-opacity:1;stroke:#000000;stroke-width:0.44615319;stroke-linecap:round;stroke-linejoin:round;stroke-miterlimit:4;stroke-dasharray:none;stroke-opacity:1" />
      <ellipse
         ry="2.7710061"
         rx="2.6251636"
         cy="698.68024"
         cx="385.61035"
         id="path4434"
         style="opacity:1;fill:#c448d8;fill-opacity:1;stroke:#000000;stroke-width:0.52273804;stroke-linecap:round;stroke-linejoin:round;stroke-miterlimit:4;stroke-dasharray:none;stroke-opacity:1" />
      <ellipse
         ry="5.6878548"
         rx="5.3961701"
         cy="681.70306"
         cx="390.45987"
         id="path4436"
         style="opacity:1;fill:#c448d8;fill-opacity:1;stroke:#000000;stroke-width:0.52273804;stroke-linecap:round;stroke-linejoin:round;stroke-miterlimit:4;stroke-dasharray:none;stroke-opacity:1" />
      <ellipse
         ry="1.6042666"
         rx="2.0417938"
         cy="664.53912"
         cx="385.27322"
         id="path4438"
         style="opacity:1;fill:#c448d8;fill-opacity:1;stroke:#000000;stroke-width:0.52273804;stroke-linecap:round;stroke-linejoin:round;stroke-miterlimit:4;stroke-dasharray:none;stroke-opacity:1" />
      <ellipse
         ry="6.4170666"
         rx="6.2712245"
         cy="644.90973"
         cx="389.02414"
         id="path4440"
         style="opacity:1;fill:#c448d8;fill-opacity:1;stroke:#000000;stroke-width:0.52273804;stroke-linecap:round;stroke-linejoin:round;stroke-miterlimit:4;stroke-dasharray:none;stroke-opacity:1" />
      <path
         id="path4442"
         d="m 394.64666,705.38984 a 2.4415752,2.7731853 0 0 0 -1.83764,0.95067 11.677099,12.552313 0 0 0 -1.24073,-0.0752 11.677099,12.552313 0 0 0 -6.05039,1.83429 2.8661968,3.648928 0 0 0 -2.33584,-1.54166 2.8661968,3.648928 0 0 0 -1.5951,0.61962 c 0.79339,11.47053 4.07154,22.35043 7.87555,22.36215 3.70319,-0.0205 6.9068,-10.3404 7.80539,-21.66247 a 11.677099,12.552313 0 0 0 -0.20927,-0.13158 2.4415752,2.7731853 0 0 0 -2.41197,-2.35581 z"
         style="opacity:1;fill:#c448d8;fill-opacity:1;stroke:#000000;stroke-width:0.44615319;stroke-linecap:round;stroke-linejoin:round;stroke-miterlimit:4;stroke-dasharray:none;stroke-opacity:1"
         inkscape:connector-curvature="0" />
    </g>
    <g
       id="g4823"
       transform="matrix(0.4832676,0,0,0.4832676,91.724403,113.19618)">
      <path
         id="rect4482"
         d="m 175.33223,807.60134 a 6.8076272,86.578526 10.19978 0 0 -22.04399,84.13304 6.8076272,86.578526 10.19978 0 0 -2.87761,16.7843 l 14.08844,-2.6332 a 6.8076272,86.578526 10.19978 0 0 2.23431,-11.9939 6.8076272,86.578526 10.19978 0 0 8.59885,-86.29024 z"
         style="opacity:1;fill:#ddb7b7;fill-opacity:1;stroke:#000000;stroke-width:1.25;stroke-linecap:round;stroke-linejoin:round;stroke-miterlimit:4;stroke-dasharray:none;stroke-opacity:1"
         inkscape:connector-curvature="0" />
      <path
         id="rect4484"
         d="m 184.08954,801.01663 a 9.7649002,86.83786 10.992382 0 0 -26.14462,83.38225 9.7649002,86.83786 10.992382 0 0 -4.17698,23.4922 l 20.05355,-3.7466 a 9.7649002,86.83786 10.992382 0 0 3.29511,-16.022 9.7649002,86.83786 10.992382 0 0 6.97294,-87.10585 z"
         style="opacity:1;fill:#ddb7b7;fill-opacity:1;stroke:#000000;stroke-width:1.25;stroke-linecap:round;stroke-linejoin:round;stroke-miterlimit:4;stroke-dasharray:none;stroke-opacity:1"
         inkscape:connector-curvature="0" />
      <path
         inkscape:connector-curvature="0"
         id="rect4486"
         d="m 193.61658,797.37926 a 9.7649002,86.83786 12.469882 0 0 -28.28584,82.68072 9.7649002,86.83786 12.469882 0 0 -5.59483,27.8413 l 19.97243,-3.7325 a 9.7649002,86.83786 12.469882 0 0 4.691,-19.8919 9.7649002,86.83786 12.469882 0 0 9.21724,-86.89762 z"
         style="opacity:1;fill:#ddb7b7;fill-opacity:1;stroke:#000000;stroke-width:1.25;stroke-linecap:round;stroke-linejoin:round;stroke-miterlimit:4;stroke-dasharray:none;stroke-opacity:1" />
      <path
         inkscape:connector-curvature="0"
         id="rect4488"
         d="m 203.17255,793.12903 a 10.850443,100.6132 12.469882 0 0 -32.31873,95.89705 10.850443,100.6132 12.469882 0 0 -3.59259,16.9963 l 22.96247,-4.2914 a 10.850443,100.6132 12.469882 0 0 1.81748,-8.0194 10.850443,100.6132 12.469882 0 0 11.1314,-100.58254 z"
         style="opacity:1;fill:#ddb7b7;fill-opacity:1;stroke:#000000;stroke-width:1.25;stroke-linecap:round;stroke-linejoin:round;stroke-miterlimit:4;stroke-dasharray:none;stroke-opacity:1" />
      <path
         sodipodi:nodetypes="ccccccsc"
         inkscape:connector-curvature="0"
         id="ellipse4477"
         d="m 191.99589,874.15568 c -9.22503,-2.04 -31.99112,-4.6436 -39.16834,19.0374 -3.76272,-8.5659 -2.43603,-19.4776 -5.86643,-22.4645 -7.82163,-6.7911 -11.05567,16.1266 -6.95698,38.0292 2.55812,13.6374 7.43493,28.4792 12.91409,39.3017 1.54648,10.1645 5.22796,16.4827 10.26598,17.6186 10.72706,2.3728 19.55941,-15.7011 25.88259,-44.2947 6.32335,-28.5936 13.6564,-44.856 2.92909,-47.2277 z"
         style="opacity:1;fill:#ddb7b7;fill-opacity:1;stroke:#000000;stroke-width:1.25;stroke-linecap:round;stroke-linejoin:round;stroke-miterlimit:4;stroke-dasharray:none;stroke-opacity:1" />
      <path
         style="opacity:1;fill:#ddb7b7;fill-opacity:1;stroke:#000000;stroke-width:1.25;stroke-linecap:round;stroke-linejoin:round;stroke-miterlimit:4;stroke-dasharray:none;stroke-opacity:1"
         d="m 91.04165,807.435 a 86.578526,6.8076272 77.465892 0 1 25.45248,83.16538 86.578526,6.8076272 77.465892 0 1 3.55885,16.6532 l -14.184,-2.0573 A 86.578526,6.8076272 77.465892 0 1 103.14801,893.30338 86.578526,6.8076272 77.465892 0 1 91.04165,807.435 Z"
         id="path4495"
         inkscape:connector-curvature="0" />
      <path
         style="opacity:1;fill:#ddb7b7;fill-opacity:1;stroke:#000000;stroke-width:1.25;stroke-linecap:round;stroke-linejoin:round;stroke-miterlimit:4;stroke-dasharray:none;stroke-opacity:1"
         d="m 82.02341,801.21244 a 86.83786,9.7649002 76.67329 0 1 29.51912,82.24814 86.83786,9.7649002 76.67329 0 1 5.13036,23.3026 l -20.18951,-2.9267 a 86.83786,9.7649002 76.67329 0 1 -3.94495,-15.8745 86.83786,9.7649002 76.67329 0 1 -10.51502,-86.74954 z"
         id="path4497"
         inkscape:connector-curvature="0" />
      <path
         style="opacity:1;fill:#ddb7b7;fill-opacity:1;stroke:#000000;stroke-width:1.25;stroke-linecap:round;stroke-linejoin:round;stroke-miterlimit:4;stroke-dasharray:none;stroke-opacity:1"
         d="m 72.35612,797.96613 a 86.83786,9.7649002 75.19579 0 1 31.63,81.46005 86.83786,9.7649002 75.19579 0 1 6.72417,27.5903 l -20.10788,-2.916 A 86.83786,9.7649002 75.19579 0 1 85.1051,884.41628 86.83786,9.7649002 75.19579 0 1 72.35612,797.96613 Z"
         id="path4499"
         inkscape:connector-curvature="0" />
      <path
         style="opacity:1;fill:#ddb7b7;fill-opacity:1;stroke:#000000;stroke-width:1.25;stroke-linecap:round;stroke-linejoin:round;stroke-miterlimit:4;stroke-dasharray:none;stroke-opacity:1"
         d="m 62.63497,794.10865 a 100.6132,10.850443 75.19579 0 1 36.19784,94.50113 100.6132,10.850443 75.19579 0 1 4.28188,16.8359 l -23.1182,-3.3526 a 100.6132,10.850443 75.19579 0 1 -2.14262,-7.9388 100.6132,10.850443 75.19579 0 1 -15.21892,-100.04562 z"
         id="path4501"
         inkscape:connector-curvature="0" />
      <path
         style="opacity:1;fill:#ddb7b7;fill-opacity:1;stroke:#000000;stroke-width:1.25;stroke-linecap:round;stroke-linejoin:round;stroke-miterlimit:4;stroke-dasharray:none;stroke-opacity:1"
         d="m 77.10261,874.61288 c 9.13429,-2.4141 31.77544,-5.9428 39.91123,17.4262 3.41071,-8.712 1.64068,-19.5607 4.94658,-22.6848 7.53854,-7.104 11.70334,15.6629 8.50015,37.7143 -2.00053,13.7303 -6.26879,28.7583 -11.30259,39.795 -1.13119,10.2191 -4.55228,16.682 -9.53985,18.0222 -10.62151,2.8078 -20.18269,-14.8914 -27.66526,-43.2037 -7.48272,-28.3123 -15.47206,-44.2626 -4.85026,-47.0692 z"
         id="path4503"
         inkscape:connector-curvature="0"
         sodipodi:nodetypes="ccccccsc" />
    </g>
    <g
       id="g4849"
       transform="translate(7.0688782,-144.14488)">
      <ellipse
         ry="16.669041"
         rx="50.007118"
         cy="706.15967"
         cx="277.01663"
         id="path4543"
         style="opacity:1;fill:#274ba8;fill-opacity:1;stroke:#000000;stroke-width:0.80738205;stroke-linecap:round;stroke-linejoin:round;stroke-miterlimit:4;stroke-dasharray:none;stroke-opacity:1" />
      <path
         sodipodi:nodetypes="szss"
         inkscape:connector-curvature="0"
         id="path4541"
         d="m 255.8631,709.31327 c -0.92573,-14.3944 13.05308,-79.63267 16.31333,-79.61975 3.26026,0.0129 24.57298,62.11513 26.03504,78.71871 0.43387,4.92723 -42.00485,6.24255 -42.34837,0.90104 z"
         style="fill:#272696;fill-opacity:1;fill-rule:evenodd;stroke:#000000;stroke-width:0.64590561px;stroke-linecap:butt;stroke-linejoin:miter;stroke-opacity:1" />
      <path
         inkscape:transform-center-y="0.79426081"
         inkscape:transform-center-x="0.49319803"
         d="m 289.20117,684.98546 -1.63397,5.47712 3.58561,4.45109 -5.71398,0.13853 -3.12523,4.78557 -1.89746,-5.3915 -5.5171,-1.49345 4.54128,-3.47066 -0.28453,-5.70857 4.70413,3.24652 z"
         inkscape:randomized="0"
         inkscape:rounded="0"
         inkscape:flatsided="false"
         sodipodi:arg2="-0.19409975"
         sodipodi:arg1="-0.82241828"
         sodipodi:r2="4.3035345"
         sodipodi:r1="8.607069"
         sodipodi:cy="691.29266"
         sodipodi:cx="283.34448"
         sodipodi:sides="5"
         id="path4545"
         style="opacity:1;fill:#ffffff;fill-opacity:1;stroke:#000000;stroke-width:0.80738205;stroke-linecap:round;stroke-linejoin:round;stroke-miterlimit:4;stroke-dasharray:none;stroke-opacity:1"
         sodipodi:type="star" />
      <path
         id="path4556"
         d="m 265.32773,654.54306 -1.13034,3.63696 -0.50587,0.15773 c -0.19993,0.90847 -0.39692,1.84077 -0.59544,2.76525 l 0.574,0.40621 -0.0479,3.80736 3.05165,-2.27708 3.60547,1.22238 -1.22243,-3.60667 2.27707,-3.05165 -3.80731,0.0491 -2.19886,-3.10965 z"
         style="fill:#ffffff;fill-opacity:1;fill-rule:evenodd;stroke:#000000;stroke-width:0.64590561px;stroke-linecap:butt;stroke-linejoin:miter;stroke-opacity:1"
         inkscape:connector-curvature="0" />
      <path
         id="path4559"
         d="m 273.77875,640.62702 -0.38603,2.96587 -2.66184,1.36499 2.70221,1.28303 0.4756,2.9545 2.05504,-2.17367 2.95577,0.46047 -1.43184,-2.62651 1.10889,-2.1913 c -0.0535,-0.13648 -0.10587,-0.26754 -0.15895,-0.4024 l -2.53947,0.47558 z"
         style="fill:#ffffff;fill-opacity:1;fill-rule:evenodd;stroke:#000000;stroke-width:0.64590561px;stroke-linecap:butt;stroke-linejoin:miter;stroke-opacity:1"
         inkscape:connector-curvature="0" />
      <path
         id="path4553"
         d="m 262.3278,687.23189 -2.87251,6.26102 -2.34519,0.40873 c -0.21304,1.52091 -0.39625,2.96186 -0.56139,4.34597 l 1.18711,1.09378 -0.97139,6.81857 6.00239,-3.37583 6.1853,3.03143 -1.35615,-6.75301 4.79383,-4.94518 -6.84004,-0.79731 z"
         style="fill:#ffffff;fill-opacity:1;fill-rule:evenodd;stroke:#000000;stroke-width:0.64590561px;stroke-linecap:butt;stroke-linejoin:miter;stroke-opacity:1"
         inkscape:connector-curvature="0" />
      <path
         inkscape:transform-center-y="0.20709606"
         inkscape:transform-center-x="0.50815885"
         d="m 277.48781,672.82156 -1.2194,2.93716 1.72827,2.66964 -3.17022,-0.25208 -2.00491,2.46864 -0.73991,-3.09296 -2.96738,-1.14393 2.71294,-1.65947 0.17098,-3.17564 2.41659,2.06736 z"
         inkscape:randomized="0"
         inkscape:rounded="0"
         inkscape:flatsided="false"
         sodipodi:arg2="-0.090511469"
         sodipodi:arg1="-0.71883"
         sodipodi:r2="2.3945179"
         sodipodi:r1="4.7890358"
         sodipodi:cy="675.97516"
         sodipodi:cx="273.8837"
         sodipodi:sides="5"
         id="path4562"
         style="opacity:1;fill:#ffffff;fill-opacity:1;stroke:#000000;stroke-width:0.80738205;stroke-linecap:round;stroke-linejoin:round;stroke-miterlimit:4;stroke-dasharray:none;stroke-opacity:1"
         sodipodi:type="star" />
      <path
         id="path4566"
         d="m 281.76174,657.59089 -0.63077,1.62613 -1.69803,0.40117 1.35111,1.10257 -0.14255,1.73839 1.46716,-0.94361 1.60846,0.67368 -0.44406,-1.68794 1.1379,-1.32211 -1.74218,-0.0984 -0.90704,-1.48991 z"
         style="fill:#ffffff;fill-opacity:1;fill-rule:evenodd;stroke:#000000;stroke-width:0.64590561px;stroke-linecap:butt;stroke-linejoin:miter;stroke-opacity:1"
         inkscape:connector-curvature="0" />
      <path
         sodipodi:nodetypes="ccczccc"
         inkscape:connector-curvature="0"
         id="ellipse4571"
         d="m 256.52613,721.56235 1.48644,6.69397 75.56708,-17.88577 c 0.63347,-0.68123 0.88169,-2.01652 0.64611,-3.0809 -0.23565,-1.06446 -0.57338,-1.91925 -1.67509,-2.74807 l -76.0247,17.02013 z"
         style="opacity:1;fill:#ffffff;fill-opacity:1;stroke:#000000;stroke-width:0.6886794;stroke-linecap:round;stroke-linejoin:round;stroke-miterlimit:4;stroke-dasharray:none;stroke-opacity:1" />
      <path
         sodipodi:nodetypes="ccccccc"
         inkscape:connector-curvature="0"
         style="opacity:1;fill:#000000;fill-opacity:1;stroke:#000000;stroke-width:0.60209155;stroke-linecap:round;stroke-linejoin:round;stroke-miterlimit:4;stroke-dasharray:none;stroke-opacity:1"
         d="m 256.5406,721.88227 1.34984,6.07881 63.90763,-14.77548 c 0.83669,-0.29447 1.61284,-1.83728 1.27128,-3.38403 -0.34426,-1.54707 -1.69771,-2.60216 -2.5778,-2.5014 l -63.95103,14.58171 z"
         id="path4576" />
      <ellipse
         transform="matrix(0.97464058,-0.22377609,0.2167763,0.97622131,0,0)"
         ry="3.5389657"
         rx="1.5815741"
         cy="764.11627"
         cx="93.649773"
         id="path4569"
         style="opacity:1;fill:#ffffff;fill-opacity:1;stroke:#000000;stroke-width:0.47777995;stroke-linecap:round;stroke-linejoin:round;stroke-miterlimit:4;stroke-dasharray:none;stroke-opacity:1" />
    </g>
    <g
       id="g4774"
       transform="matrix(0.35978754,0,0,0.35978754,1424.0602,-20.46912)">
      <path
         id="path4599"
         d="m -2345.2891,1437.0312 a 18.832308,39.408348 79.383762 0 0 -15.3574,1.3672 18.832308,39.408348 79.383762 0 0 -27.0781,11.1211 16.73983,9.4161539 0 0 0 -12.3477,-3.0742 16.73983,9.4161539 0 0 0 -12.3066,3.0488 11.159886,14.64735 0 0 0 -5.1309,-1.6543 11.159886,14.64735 0 0 0 -10.7343,10.6954 17.437323,8.7186613 0 0 0 -3.9141,-0.2325 17.437323,8.7186613 0 0 0 -3.2441,0.1582 16.042337,9.4161539 0 0 0 -14.1934,-5.041 16.042337,9.4161539 0 0 0 -9.4531,1.8242 12.903619,25.807238 0 0 0 -9.0293,-7.4043 12.903619,25.807238 0 0 0 -12.5899,20.2286 23.366013,16.042337 0 0 0 -23.0898,13.875 26.853476,29.643448 0 0 0 -9.6582,-2.0176 26.853476,29.643448 0 0 0 -26.8535,29.6426 26.853476,29.643448 0 0 0 0.2324,3.5996 20.227293,21.62228 0 0 0 -12.0899,19.7675 20.227293,21.62228 0 0 0 2.2344,9.8692 22.668518,21.62228 0 0 0 5.1895,11.6973 21.62228,15.344844 0 0 0 -10.9102,13.3066 21.62228,15.344844 0 0 0 8.4434,12.1426 19.181055,17.786068 0 0 0 -0.7715,4.9472 19.181055,17.786068 0 0 0 19.1816,17.7852 19.181055,17.786068 0 0 0 1.9688,-0.1133 11.159886,9.4161539 0 0 0 10.2363,5.6934 11.159886,9.4161539 0 0 0 10.8692,-7.3164 8.0211687,8.7186613 0 0 0 0.9882,-4.1914 8.0211687,8.7186613 0 0 0 -5.3007,-8.1914 19.181055,17.786068 0 0 0 0.1015,-0.5352 16.042337,16.73983 0 0 0 11.457,-15.6152 21.62228,21.273533 0 0 0 12.4532,-13.8809 16.73983,12.903619 0 0 0 2.9121,0.209 16.73983,12.903619 0 0 0 16.7402,-12.9043 16.73983,12.903619 0 0 0 -0.4922,-3.0469 27.202223,18.134815 0 0 0 0.4278,-0.3164 10.81114,8.7186613 0 0 0 8.4336,-8.4941 10.81114,8.7186613 0 0 0 -0.1133,-1.1875 20.227293,12.206125 0 0 0 2.9023,0.1425 20.227293,12.206125 0 0 0 20.2285,-12.207 20.227293,12.206125 0 0 0 -0.6718,-3.0859 26.50473,13.601111 0 0 0 2.5312,-1.8535 9.7649002,11.508633 0 0 0 6.2246,-6.1016 10.81114,14.64735 0 0 0 4.3047,-5.4785 10.81114,11.159886 0 0 0 9.2324,-11.0313 10.81114,11.159886 0 0 0 -0.3515,-2.7949 14.64735,5.5799432 0 0 0 13.7187,-4.0312 24.063505,17.786068 0 0 0 1.4512,-0.4805 17.437323,8.7186613 0 0 0 8.1992,1.0293 17.437323,8.7186613 0 0 0 17.084,-6.9746 14.298604,12.554872 0 0 0 0.01,0 14.298604,12.554872 0 0 0 9.6368,-3.2988 18.832308,39.408348 79.383762 0 0 9.875,-1.209 18.832308,39.408348 79.383762 0 0 22.5976,-8.1133 22.319773,11.159886 29.159354 0 0 4.416,2.8359 22.319773,11.159886 29.159354 0 0 6.6914,3.0137 21.273533,7.6724219 49.213876 0 0 1.6543,2.0176 21.273533,7.6724219 49.213876 0 0 9.25,8.4785 19.878548,4.8824501 87.83804 0 0 0.051,2.7363 19.878548,4.8824501 87.83804 0 0 3.2735,17.4727 3.4874644,17.088575 38.115389 0 0 -7.7637,8.4394 3.4874644,17.088575 38.115389 0 0 -6.8438,10.5332 2.7899716,16.391083 63.898626 0 0 -6.9863,3.0645 2.7899716,16.391083 63.898626 0 0 -13.4902,9.7168 2.7899716,16.391083 63.898626 0 0 15.9453,-4.7071 2.7899716,16.391083 63.898626 0 0 13.4922,-9.7167 2.7899716,16.391083 63.898626 0 0 -0.2891,-0.2481 3.4874644,17.088575 38.115389 0 0 3.6582,-4.3379 3.4874644,17.088575 38.115389 0 0 7.8047,-15.5976 3.4874644,17.088575 38.115389 0 0 -0.1328,-0.07 19.878548,4.8824501 87.83804 0 0 1.1074,-14.2597 21.273533,7.6724219 49.213876 0 0 0.6309,-0.4082 21.273533,7.6724219 49.213876 0 0 -2.2989,-13.0528 19.878548,4.8824501 87.83804 0 0 -0.6543,-2.3105 22.319773,11.159886 29.159354 0 0 -14.2246,-20.2539 22.319773,11.159886 29.159354 0 0 -2.7265,-1.3867 18.832308,39.408348 79.383762 0 0 -26.7442,-12.2325 z"
         style="opacity:1;fill:#d39898;fill-opacity:1;stroke:#000000;stroke-width:1.25;stroke-linecap:round;stroke-linejoin:round;stroke-miterlimit:4;stroke-dasharray:none;stroke-opacity:1"
         inkscape:connector-curvature="0" />
      <path
         id="path4682"
         d="m -2394.4922,1493.875 a 6.9749289,14.298604 0 0 0 -5.5273,5.6035 13.949858,14.996098 0 0 0 -13.1016,12.5137 9.4161539,18.483562 0 0 0 -2.5449,3.8105 12.554872,25.109743 0 0 0 -1.8438,-0.3047 12.554872,25.109743 0 0 0 -11.2285,13.9395 12.903619,14.298604 0 0 0 -8.1133,8.4473 17.437323,14.64735 0 0 0 -1.5839,-0.068 17.437323,14.64735 0 0 0 -17.4375,14.6484 17.437323,14.64735 0 0 0 0.01,0.1172 12.554872,20.924788 0 0 0 -0.5976,1.3106 12.903619,18.832308 0 0 0 -0.4532,-0.033 12.903619,18.832308 0 0 0 -10.0215,6.9941 19.5298,16.73983 0 0 0 -18.8164,14.9863 9.4161539,14.64735 0 0 0 -1.7324,4.8731 14.64735,10.462394 0 0 0 -10.9316,10.1133 14.64735,10.462394 0 0 0 0.086,1.0312 9.4161539,5.2311969 0 0 0 -1.4805,2.8047 9.4161539,5.2311969 0 0 0 3.5352,4.0801 11.508633,11.159886 0 0 0 10.5664,10.1758 8.369915,17.088575 0 0 0 -0.1523,3.1816 8.369915,17.088575 0 0 0 0.096,2.4629 13.252365,14.996098 0 0 0 -0.096,1.7227 13.252365,14.996098 0 0 0 13.2519,14.996 13.252365,14.996098 0 0 0 0.6699,-0.027 20.227293,13.949858 0 0 0 15.3731,4.9102 20.227293,13.949858 0 0 0 6.8144,-0.8301 14.298604,11.159886 0 0 0 4.1914,0.7832 17.786068,13.252365 0 0 0 10.9649,2.8359 17.786068,13.252365 0 0 0 6.6074,-0.9551 13.252365,3.4874644 0 0 0 9.086,0.9551 13.252365,3.4874644 0 0 0 12.0039,-2.0176 5.2311969,7.3236752 0 0 0 2.9921,1.3204 5.2311969,7.3236752 0 0 0 5.1582,-6.1621 13.601111,9.7649002 0 0 0 3.7227,-4.4063 9.4161539,11.159886 0 0 0 6.1406,-4.0898 20.57604,12.903619 0 0 0 12.9258,-8.2422 21.62228,22.668518 0 0 0 3.7461,-2.2383 21.273533,18.134815 0 0 0 20.2715,-18.1055 21.273533,18.134815 0 0 0 -0.957,-5.3183 22.319773,24.412251 0 0 0 3.4414,-9.6856 20.227293,15.344844 0 0 0 5.8847,-10.8027 20.227293,15.344844 0 0 0 -3.3711,-8.4668 25.45849,22.319773 0 0 0 3.3711,-11.0645 25.45849,22.319773 0 0 0 -17.4668,-21.1718 20.924788,27.55097 0 0 0 0.029,-0.7989 20.924788,27.55097 0 0 0 -20.9238,-27.5508 20.924788,27.55097 0 0 0 -6.3906,1.3516 6.9749289,14.298604 0 0 0 -6.1641,-7.6289 z m -24.1543,137.6504 a 17.786068,11.159886 0 0 0 0.5606,0.09 13.601111,9.7649002 0 0 0 0.5195,0.3809 13.252365,3.4874644 0 0 0 -1.3398,-0.018 13.252365,3.4874644 0 0 0 -0.035,0 17.786068,13.252365 0 0 0 0.2949,-0.4531 z"
         style="opacity:1;fill:#d39898;fill-opacity:1;stroke:#000000;stroke-width:1.25;stroke-linecap:round;stroke-linejoin:round;stroke-miterlimit:4;stroke-dasharray:none;stroke-opacity:1"
         inkscape:connector-curvature="0" />
      <path
         sodipodi:nodetypes="csssc"
         inkscape:connector-curvature="0"
         id="path4766"
         d="m -2516.5543,1571.9944 c 0,4.2476 -42.7122,-7.0235 0,-30.6897 38.2079,-21.1705 -21.6797,-0.5412 0,-13.9498 30.5591,-18.9005 47.276,-2.2794 9.7649,-11.8574 -20.9652,-5.3532 56.997,-51.5357 50.9169,-38.3621"
         style="fill:none;fill-rule:evenodd;stroke:#000000;stroke-width:1px;stroke-linecap:butt;stroke-linejoin:miter;stroke-opacity:1" />
      <path
         sodipodi:nodetypes="ccsc"
         inkscape:connector-curvature="0"
         id="path4768"
         d="m -2433.5527,1625.7014 c -14.9072,-5.6758 -18.3165,-9.9596 -9.9095,-13.2165 -7.821,0.5904 -11.5642,0.01 -13.8053,-2.1285 -8.9217,-8.5124 -25.1097,-30.6897 1.395,-36.9671"
         style="fill:none;fill-rule:evenodd;stroke:#000000;stroke-width:1px;stroke-linecap:butt;stroke-linejoin:miter;stroke-opacity:1" />
      <path
         sodipodi:nodetypes="cssssc"
         inkscape:connector-curvature="0"
         id="path4770"
         d="m -2423.0903,1563.6245 c 0,0 23.6034,-3.7775 23.7148,9.7649 0.067,8.1993 -7.5501,9.6679 -13.9512,9.4544 -5.2132,-0.1739 -9.5861,0.544 -11.8561,5.8904 -1.7247,4.0619 -6.2774,17.4374 16.0424,18.8323 22.3197,1.395 9.7649,7.6725 9.7649,7.6725"
         style="fill:none;fill-rule:evenodd;stroke:#000000;stroke-width:1px;stroke-linecap:butt;stroke-linejoin:miter;stroke-opacity:1" />
      <path
         sodipodi:nodetypes="cscscc"
         inkscape:connector-curvature="0"
         id="path4772"
         d="m -2377.7533,1517.59 c 0,0 -35.0637,45.607 9.0674,34.8746 9.5143,-2.3138 -4.5982,3.679 -3.4874,3.4875 0,0 -6.9749,10.4624 8.3699,17.4373 15.3448,6.9749 -10.4624,-1.395 -10.4624,-1.395 0,0 -3.4875,21.6223 -25.8072,27.2022"
         style="fill:none;fill-rule:evenodd;stroke:#000000;stroke-width:1px;stroke-linecap:butt;stroke-linejoin:miter;stroke-opacity:1" />
    </g>
  </g>
</svg>
