<?xml version="1.0" encoding="UTF-8"?>
<!-- Created with Inkscape (http://www.inkscape.org/) -->
<svg width="200mm" height="200mm" version="1.1" viewBox="0 0 200.00184 199.99765" xmlns="http://www.w3.org/2000/svg" xmlns:cc="http://creativecommons.org/ns#" xmlns:dc="http://purl.org/dc/elements/1.1/" xmlns:rdf="http://www.w3.org/1999/02/22-rdf-syntax-ns#">
  <defs>
    <filter id="g" x="-.12353" y="-.1594" width="1.2471" height="1.3188" color-interpolation-filters="sRGB">
      <feGaussianBlur stdDeviation="4.998639"/>
    </filter>
    <filter id="f" x="-.28275" y="-.099866" width="1.5655" height="1.1997" color-interpolation-filters="sRGB">
      <feGaussianBlur stdDeviation="0.9927793"/>
    </filter>
    <filter id="a" x="-.49957" y="-.25424" width="1.9991" height="1.5085" color-interpolation-filters="sRGB">
      <feGaussianBlur stdDeviation="11.275913"/>
    </filter>
    <filter id="e" x="-.037258" y="-.039614" width="1.0745" height="1.0792" color-interpolation-filters="sRGB">
      <feGaussianBlur stdDeviation="1.0602631"/>
    </filter>
    <filter id="d" x="-.031472" y="-.033385" width="1.0629" height="1.0668" color-interpolation-filters="sRGB">
      <feGaussianBlur stdDeviation="0.89560566"/>
    </filter>
    <filter id="c" x="-.023273" y="-.027475" width="1.0465" height="1.055" color-interpolation-filters="sRGB">
      <feGaussianBlur stdDeviation="1.3128349"/>
    </filter>
    <filter id="b" x="-.023118" y="-.027694" width="1.0462" height="1.0554" color-interpolation-filters="sRGB">
      <feGaussianBlur stdDeviation="1.3155684"/>
    </filter>
    <filter id="o" x="-.17729" y="-.11964" width="1.3546" height="1.2393" color-interpolation-filters="sRGB">
      <feGaussianBlur stdDeviation="1.2422669"/>
    </filter>
    <filter id="n" x="-.13158" y="-.12395" width="1.2632" height="1.2479" color-interpolation-filters="sRGB">
      <feGaussianBlur stdDeviation="1.2422669"/>
    </filter>
    <filter id="m" x="-.11725" y="-.13525" width="1.2345" height="1.2705" color-interpolation-filters="sRGB">
      <feGaussianBlur stdDeviation="1.2422669"/>
    </filter>
    <filter id="l" x="-.23806" y="-.13105" width="1.4761" height="1.2621" color-interpolation-filters="sRGB">
      <feGaussianBlur stdDeviation="1.2422669"/>
    </filter>
    <filter id="k" x="-.19639" y="-.11758" width="1.3928" height="1.2352" color-interpolation-filters="sRGB">
      <feGaussianBlur stdDeviation="1.2422669"/>
    </filter>
    <filter id="j" x="-.12883" y="-.11381" width="1.2577" height="1.2276" color-interpolation-filters="sRGB">
      <feGaussianBlur stdDeviation="1.2422669"/>
    </filter>
    <filter id="i" x="-.11476" y="-.14129" width="1.2295" height="1.2826" color-interpolation-filters="sRGB">
      <feGaussianBlur stdDeviation="1.2422669"/>
    </filter>
    <filter id="h" x="-.33157" y="-.15687" width="1.6631" height="1.3137" color-interpolation-filters="sRGB">
      <feGaussianBlur stdDeviation="1.2422669"/>
    </filter>
  </defs>
  <metadata>
    <rdf:RDF>
      <cc:Work rdf:about="">
        <dc:format>image/svg+xml</dc:format>
        <dc:type rdf:resource="http://purl.org/dc/dcmitype/StillImage"/>
        <dc:title/>
      </cc:Work>
    </rdf:RDF>
  </metadata>
  <path d="m69.304 159.57c4.0489-6.3774 15.993-17.975 20.314-23.74-10.991-7.7716-15.867-17.547-15.149-29.361 0.71762-11.814 14.385-23.221 30.246-21.985 15.862 1.2325 26.355 12.861 25.947 25.948-0.40651 13.087-3.9537 17.664-14.191 28.89 3.0566 1.5055 19.651 14.416 21.861 20.096 14.336-10.266 26.17-27.939 27.548-45.518 2.5383-32.91-12.821-59.145-57.768-62.746-44.947-3.6011-67.734 19.411-70.143 46.234-2.1999 33.932 9.7105 47.552 31.336 62.183z" fill="#3c7c3c" stroke="#000" stroke-linecap="round" stroke-linejoin="round" stroke-width="2.6917"/>
  <g fill-rule="evenodd" stroke="#000" stroke-linecap="round" stroke-linejoin="round" stroke-width="2.6917">
    <path d="m39.965 141.36-16.962 19.354 26.184 24.061-12.869-25.318 11.443-7.8774z"/>
    <path d="m44.118 62.459-21.861-13.615-18.724 39.108 22.64-25.198 10.033 9.9866z"/>
    <path d="m85.589 41.594-5.3596-7.6143 13.157-18.496-24.473 18.893 5.7284 13.464z" fill="#e40000"/>
    <path d="m110.82 15.752 21.883 18.805-1.2283 11.735-12.556-2.5499 2.6526-10.053z" fill="#e40000"/>
    <path d="m153.72 60.059 24.157-12.994 16.122 36.835-20.377-23.544-10.293 8.9606z"/>
    <path d="m167.73 135.04 18.476 15.846-22.667 31.882 9.3576-30.573-12.575-5.3026z"/>
    <path d="m29.332 103.76-24.733 7.1115 9.0203 34.398 2.8612-28.256 13.886-0.44101z"/>
    <path d="m172.03 96.392 24.145 3.0721-1.3966 39.093-8.9997-30.681-13.418 2.4868z"/>
  </g>
  <path d="m107.1 111.65c0.28001 3.6141 6.3476 7.5627 5.6512 14.581l-21.544 1.7421c-1.3462-6.5516 6.4487-11.83 6.4908-16.716-6.3712-5.6161-5.1055-17.653 5.9196-17.73 11.422 1.8502 8.6084 13.165 3.4828 18.124z" fill="#6a6a6a" stroke="#000" stroke-linecap="round" stroke-linejoin="round" stroke-width="2.439"/>
  <path transform="matrix(.94866 0 0 .94866 -2.5554 9.3944)" d="m75.748 158.3c-3.3434-2.3843 5.1567-7.7657 11.485-13.746-17.935-2.3804-44.628-38.571-27.22-65.534 8.4189-13.04 22.198-24.294 42.875-25.808 20.677-1.5142 44.143 4.2208 56.152 22.584 15.655 23.939 3.5348 62.547-21.907 69.831 3.7375 3.6236 9.5977 9.128 11.378 12.513 15.112-10.822 27.586-29.451 29.039-47.981 2.6757-34.691-13.515-62.346-60.894-66.142s-71.4 20.461-73.939 48.736c-2.319 35.768 10.236 50.125 33.032 65.548z" fill-opacity=".12857" filter="url(#c)"/>
  <g fill="#fff" fill-rule="evenodd">
    <path transform="matrix(.94866 0 0 .94866 -2.5554 9.3944)" d="m86.154 32.849-1.7825-5.8009 4.806-8.3591-9.6592 8.2496 3.7438 10.756z" fill-opacity=".79048" filter="url(#h)"/>
    <path transform="matrix(.94866 0 0 .94866 -2.5554 9.3944)" d="m137.27 36.72 1.0234-10.613-12.625-12.136 8.6516 13.721-1.6713 5.8404z" fill-opacity=".79216" filter="url(#l)"/>
    <g fill-opacity=".75714">
      <path transform="matrix(.94866 0 0 .94866 -2.5554 9.3944)" d="m33.242 156.92 1.061 6.0712 12.417 11.982-10.427-15.492 4.2812-6.122 7.8491-3.6439-4.8941 0.48627-0.49035-4.8842z" filter="url(#k)"/>
      <path transform="matrix(.94866 0 0 .94866 -2.5554 9.3944)" d="m28.162 47.766-13.068 21.097 14.012-17.054 5.6642 3.4739 6.3046 7.2354-1.6922-6.0695 2.631-2.7719-5.271 0.19106-8.3615-6.1058z" filter="url(#i)"/>
      <path transform="matrix(.94866 0 0 .94866 -2.5554 9.3944)" d="m23.995 103.79-14.497 4.7161 6.2522 23.486-1.1489-21.719 7.5011-2.0919 10.538 0.77071z" filter="url(#j)"/>
    </g>
  </g>
  <path transform="matrix(.94866 0 0 .94866 -2.5554 9.3944)" d="m106.02 44.29c-32.333 0.12426-64.26 20.837-64.046 53.077 0.11506 17.375 5.3162 37.532 18.794 49.02 3.7807 3.5049 10.832 9.09 14.983 11.909 1.458-2.9812 5.8111-7.6196 6.9364-9.5455-17.783-1.1882-32.088-22.732-34.584-42.593-2.4955-19.861 12.299-46.38 32.246-53.719 19.947-7.3393 39.785-5.0973 59.04 1.6216s30.713 22.94 32.396 45.131-7.3086 43.951-28.698 50.669c1.4719 2.095 3.2888 6.5077 5.4262 8.2747 18.67-13.741 33.707-39.63 29.245-61.995-3.7467-18.779-15.545-38.463-33.566-45.467-12.249-4.761-25.291-6.4325-38.172-6.383z" fill-opacity=".16146" filter="url(#b)"/>
  <path transform="matrix(.9406 .12346 -.10734 .94257 .2444 -40.746)" d="m173.01 128.43c3.4039 18.151-1.967 33.501-15.027 38.58 5.8776-10.774 12.668-23.931 0.0279-44.477-17.206-27.968-61.681-18.711-71.211 9.856-7.9324 23.778 7.339 32.81 14.126 42.244-19.225-4.0122-26.25-16.916-26.25-32.853 2e-6 -19.257 10.507-43.189 48.392-45.558 37.885-2.3692 47.115 17.133 49.943 32.209z" fill="#fff" fill-opacity=".53333" filter="url(#g)"/>
  <path transform="matrix(1.025 0 0 1.025 -7.9684 -52.903)" d="m141.71 161.74c0 4.7832-0.81587 10.192-3.0225 14.618-2.9426 5.9024-7.8389 10.578-11.552 14.714-1.0234 1.1401-3.2315-2.9553-4.281-4.5598 8.8752-11.642 14.272-23.318 12.037-34.025-3.1795-13.484-24.004-19.025-27.484-19.025-3.5611 0-24.033 6.1865-26.512 19.237-1.4923 13.8 7.3814 24.651 14.306 31.424-0.31904 1.2072-3.3225 5.3531-4.5164 4.4143-8.0719-6.3476-17.274-15.622-17.274-26.797 0-6.1225 0.0027-12.097 2.7408-17.091 5.8338-10.64 18.573-17.614 31.408-17.614 11.069 0 22.465 5.3522 28.705 13.649 4.392 5.8397 5.4437 13.138 5.4437 21.056z" fill-opacity=".24762" filter="url(#e)"/>
  <g fill="#fff" fill-opacity=".75714" fill-rule="evenodd">
    <path transform="matrix(.94866 0 0 .94866 -2.5554 9.3944)" d="m193.05 145.94 0.37772 6.1516-10.077 16.635 7.3268-19.588-5.5858-4.9606-8.4807-1.7217 4.8733-0.66345-0.65717-4.8645z" filter="url(#o)"/>
    <path transform="matrix(.94866 0 0 .94866 -2.5554 9.3944)" d="m189.22 43.851 11.438 22.024-12.377-18.328-6.681 2.7289-6.3695 7.3104 2.4426-6.0413-2.4494-1.8281 5.142-1.2297 8.6364-4.6565z" filter="url(#m)"/>
    <path transform="matrix(.94866 0 0 .94866 -2.5554 9.3944)" d="m192.61 94.776 15.12 1.9462-0.1696 24.687-3.9653-21.456-8.8213-1.9714-9.7018 3.4697z" filter="url(#n)"/>
  </g>
  <path transform="matrix(.251 0 0 .251 .2444 -40.746)" d="m377.76 658.57c26.768-3.9321 36.856-4.8379 54.171-7.4807-40.578-48.168-0.77293-72.893-2.8501-84.608-3.4573-19.499-39.917-19.134-40.387 1.1162-0.26349 11.34 33.13 30.603-10.934 90.973z" fill="#101010" filter="url(#a)"/>
  <path transform="matrix(.94866 0 0 .94866 .2444 -40.746)" d="m107.28 148.64c-4.297 0.96966 0.385 5.4772-0.33984 8.1484 0.70744 5.5497-1.057 10.07-3.5753 14.624 1.7328 0.21536 8.2165 1.8863 7.6894-0.38362-4.0756-6.4172-2.9834-14.328-0.077-20.922-0.56559-1.3818-2.4005-1.5729-3.6973-1.4668z" filter="url(#f)"/>
  <path d="m102.83 120.27c-1.1472-5.8622 0.2326-10.266 1.5761-17.645 0.24806-1.3623-3.0198-1.6996-2.804-0.0865 0.88812 6.6387 0.68057 12.107-0.70463 17.411-0.19262 2.5699 2.1868 1.8351 1.9325 0.32067z" stroke-width=".94866"/>
  <path transform="matrix(.94866 0 0 .94866 .2444 -40.746)" d="m141.71 161.74c0 4.7832-0.81587 10.192-3.0225 14.618-2.9426 5.9024-7.8389 10.578-11.552 14.714-1.0234 1.1401-2.0007-0.75925-3.0501-2.3637 10.622-8.1477 14.497-26.097 12.262-36.804-3.1795-13.484-25.751-19.753-29.231-19.753-3.5611 0-25.888 6.9714-28.367 20.022-1.4923 13.8 6.7276 27.16 13.653 33.933-0.31904 1.2072-0.52263 3.3693-1.7164 2.4305-8.0719-6.3476-17.274-15.622-17.274-26.797 0-6.1225 0.0027-12.097 2.7408-17.091 5.8338-10.64 18.573-17.614 31.408-17.614 11.069 0 22.465 5.3522 28.705 13.649 4.392 5.8397 5.4437 13.138 5.4437 21.056z" fill-opacity=".32292" filter="url(#d)"/>
  <path transform="matrix(.251 0 0 .251 .2444 -40.746)" d="m377.76 658.57c26.768-3.9321 36.856-4.8379 54.171-7.4807-40.578-48.168-0.77293-72.893-2.8501-84.608-3.4573-19.499-39.917-19.134-40.387 1.1162-0.26349 11.34 33.13 30.603-10.934 90.973z" fill="#101010" filter="url(#a)"/>
</svg>
