<?xml version="1.0" encoding="UTF-8" standalone="no"?>
<!-- Created with Inkscape (http://www.inkscape.org/) -->
<svg xmlns:rdf="http://www.w3.org/1999/02/22-rdf-syntax-ns#" xmlns="http://www.w3.org/2000/svg" height="217.1mm" width="217.1mm" version="1.1" xmlns:cc="http://creativecommons.org/ns#" xmlns:dc="http://purl.org/dc/elements/1.1/" viewBox="0 0 769.24999 769.24999">
 <metadata>
  <rdf:RDF>
   <cc:Work rdf:about="">
    <dc:format>image/svg+xml</dc:format>
    <dc:type rdf:resource="http://purl.org/dc/dcmitype/StillImage"/>
    <dc:title/>
   </cc:Work>
  </rdf:RDF>
 </metadata>
 <g transform="translate(12.578 32.322)">
  <rect style="stroke-linejoin:round;stroke:#000;stroke-linecap:round;stroke-width:1.25;fill:#ff0" height="768" width="768" y="-31.697" x="-11.953"/>
  <g transform="matrix(.47829 -.47818 .47818 .47829 647.04 -199.17)">
   <rect style="stroke-linejoin:round;stroke:#000;stroke-linecap:round;stroke-width:1.5115;fill:#a31c1c" transform="rotate(-90)" height="105.74" width="255.05" y="-661.33" x="-487.05"/>
   <rect style="stroke-linejoin:round;stroke:#000;stroke-linecap:round;stroke-width:.50979" transform="rotate(-90)" height="106.74" width="28.74" y="-661.83" x="-403.24"/>
   <rect style="stroke-linejoin:round;stroke:#000;stroke-linecap:round;stroke-width:.50979" transform="rotate(-90)" height="106.74" width="28.74" y="-661.83" x="-455.24"/>
   <rect style="stroke-linejoin:round;stroke:#000;stroke-linecap:round;stroke-width:1.25;fill:#a31c1c" height="106" width="174" y="245.36" x="-670"/>
   <rect style="stroke-linejoin:round;stroke:#000;stroke-linecap:round;stroke-width:.50979" height="106.74" width="28.74" y="244.99" x="-597.37"/>
   <rect style="stroke-linejoin:round;stroke:#000;stroke-linecap:round;stroke-width:.50979" height="106.74" width="28.74" y="244.99" x="-649.37"/>
   <path style="stroke-linejoin:round;stroke:#000;stroke-linecap:round;stroke-width:1.412;fill:#e6e6e6" d="m-538.26 236.45 279.35-96.779c-39.965 105.29-32.53 204.06 0 299.38l-279.35-77.286z"/>
   <path style="stroke-linejoin:round;stroke:#000;stroke-linecap:round;stroke-width:1.412;fill:#1a1a1a" d="m-237.24 288.7c-0.65893 19.878-5.3523 147.6-13.004 147.7-7.652 0.0974-29.862-70.014-29.862-149.03 0-79.013 18.383-146.97 28.899-146.38 9.6451 0.53994 14.627 127.82 13.968 147.7z"/>
  </g>
  <path style="stroke:#000;stroke-width:.62493px;fill-rule:evenodd" d="m117.61 327.5c-24.117-10.89-44.745 74.55-56.02 117.61-11.275 43.05-126.34 302.62-6.838 262.86 119.51-39.76 46.458-238.14 75.648-182.91 29.2 55.23 194.6 123.33 185.64 67.16s-71.64-50.47-111.57-107.35-62.75-146.47-86.86-157.37z"/>
  <path style="stroke:#000;stroke-width:.57485px;fill-rule:evenodd" d="m290.32 518.07c32.36 24.37 76.963 27.066 69.43 61.12-7.5334 34.054-39.668 66.474-64.151 63.611-24.483-2.8629-43.53-21.473-63.79-14.499-20.26 6.9747-45.914 74.718-19.237 89.027 26.677 14.308 126.6 4.1802 167.65-6.2856 41.052-10.466 73.119-86.895 74.858-121.23 1.7396-34.333 2.4377-50.528-14.772-74.451-17.21-23.924-113.65-56.237-109.31-87.753 4.3381-31.516 43.968-18.025 62.642-6.3305 18.673 11.695 36.081-12.379 33.386-32.646-2.6958-20.266-9.053-29.802-45.422-43.881s-69.55-21.264-106.12 12.017c-36.572 33.281-17.524 136.93 14.835 161.3z"/>
  <path style="stroke:#000;stroke-width:.57485px;fill-rule:evenodd" d="m499.22 380.26c57.445 15.502 176.03 139.76 174.93 201.55-1.1019 61.788-109.68-161.8-195.7-152.27-86.025 9.534-56.392 38.657-24.871 64.62s28.171 47.731 27.223 108.8c-0.94778 61.064-94.603 119.86 20.377 115.27 114.98-4.5837 55.39-135.25 71.479-132.14 16.089 3.1018 95.494 153.53 140.79 108.5 45.29-45.04 48.38-131.5-19.85-217.64-68.22-86.13-176.94-162.41-224.83-139.72s-26.99 27.53 30.45 43.03z"/>
  <path style="stroke:#000;stroke-width:.62493px;fill-rule:evenodd" d="m84.277 399.59c-121.92 96.71-105.63 137.73-9.012 89.25 96.615-48.48 143.96-14.83 164.08-53.25 20.13-38.43-33.14-132.72-155.06-36z"/>
 </g>
</svg>
