<?xml version="1.0" encoding="UTF-8" standalone="no"?>
<!-- Created with Inkscape (http://www.inkscape.org/) -->

<svg
   xmlns:dc="http://purl.org/dc/elements/1.1/"
   xmlns:cc="http://creativecommons.org/ns#"
   xmlns:rdf="http://www.w3.org/1999/02/22-rdf-syntax-ns#"
   xmlns:svg="http://www.w3.org/2000/svg"
   xmlns="http://www.w3.org/2000/svg"
   xmlns:sodipodi="http://sodipodi.sourceforge.net/DTD/sodipodi-0.dtd"
   xmlns:inkscape="http://www.inkscape.org/namespaces/inkscape"
   width="210mm"
   height="297mm"
   viewBox="0 0 210 297"
   version="1.1"
   id="svg106"
   inkscape:version="0.92.1 r15371"
   sodipodi:docname="pengonymous_.svg">
  <defs
     id="defs100">
    <filter
       inkscape:collect="always"
       style="color-interpolation-filters:sRGB"
       id="filter1246"
       x="-0.46814519"
       width="1.9362904"
       y="-0.67233805"
       height="2.3446761">
      <feGaussianBlur
         inkscape:collect="always"
         stdDeviation="2.9434904"
         id="feGaussianBlur1248" />
    </filter>
    <filter
       inkscape:collect="always"
       style="color-interpolation-filters:sRGB"
       id="filter1250"
       x="-0.46814519"
       width="1.9362904"
       y="-0.67233805"
       height="2.3446761">
      <feGaussianBlur
         inkscape:collect="always"
         stdDeviation="2.9434904"
         id="feGaussianBlur1252" />
    </filter>
    <filter
       inkscape:collect="always"
       style="color-interpolation-filters:sRGB"
       id="filter1952"
       x="-0.38389009"
       width="1.7677802"
       y="-0.39138232"
       height="1.7827646">
      <feGaussianBlur
         inkscape:collect="always"
         stdDeviation="2.9966398"
         id="feGaussianBlur1954" />
    </filter>
  </defs>
  <sodipodi:namedview
     id="base"
     pagecolor="#ffffff"
     bordercolor="#666666"
     borderopacity="1.0"
     inkscape:pageopacity="0.0"
     inkscape:pageshadow="2"
     inkscape:zoom="0.49497475"
     inkscape:cx="230.42471"
     inkscape:cy="627.38977"
     inkscape:document-units="mm"
     inkscape:current-layer="layer1"
     showgrid="false"
     inkscape:window-width="1536"
     inkscape:window-height="803"
     inkscape:window-x="-8"
     inkscape:window-y="-8"
     inkscape:window-maximized="1"
     inkscape:snap-global="false" />
  <metadata
     id="metadata103">
    <rdf:RDF>
      <cc:Work
         rdf:about="">
        <dc:format>image/svg+xml</dc:format>
        <dc:type
           rdf:resource="http://purl.org/dc/dcmitype/StillImage" />
        <dc:title></dc:title>
      </cc:Work>
    </rdf:RDF>
  </metadata>
  <g
     inkscape:label="Calque 1"
     inkscape:groupmode="layer"
     id="layer1">
    <path
       style="opacity:1;vector-effect:none;fill:#000000;fill-opacity:1;fill-rule:evenodd;stroke:#000000;stroke-width:1.29112673px;stroke-linecap:round;stroke-linejoin:round;stroke-miterlimit:4;stroke-dasharray:none;stroke-dashoffset:0;stroke-opacity:1"
       d="m 53.538576,71.699691 c 0,0 4.832959,14.175365 2.084216,34.361619 -4.621653,33.9401 -17.097889,83.17536 -10.918895,98.2109 1.961132,-12.56483 12.469432,-41.84866 17.080359,-48.94175 -1.893726,0 -17.197537,94.10615 -5.912428,102.48204 16.848742,30.10469 93.403322,21.35415 103.467472,7.88326 3.94161,-48.61328 -19.70808,-103.79591 -19.70808,-103.79591 9.30694,8.3678 19.79842,28.30754 21.67889,36.78842 4.08742,-8.17488 -17.41767,-63.3668 -26.65447,-100.803123 -4.86645,-19.723573 0.0483,-34.85421 0.0483,-34.85421 5.41293,-0.561883 8.55632,3.513295 18.28979,2.978118 C 157.13024,62.144481 129.51857,55.16651 127.16961,51.498204 121.89034,28.879626 118.52328,25.818781 116.7541,7.203052 116.41172,7.0673853 116.7113,5.1514902 114.15876,2.2533601 104.30632,4.0406502 85.291077,4.0650873 78.432081,8.954564 74.252832,20.154678 63.634372,44.328673 64.686965,51.49294 51.226423,58.770492 36.989131,68.511526 32.153751,75.789077 c 3.584337,3.48308 18.238344,-6.357414 21.384654,-4.089386"
       id="path4519"
       inkscape:connector-curvature="0"
       sodipodi:nodetypes="csccccccsccccccccc" />
    <path
       style="opacity:1;vector-effect:none;fill:#ff6600;fill-opacity:1;fill-rule:evenodd;stroke:#000000;stroke-width:1.29112673px;stroke-linecap:round;stroke-linejoin:round;stroke-miterlimit:4;stroke-dasharray:none;stroke-dashoffset:0;stroke-opacity:1"
       d="m 71.966743,293.94404 c -8.7591,-1.44393 -17.518301,-0.72105 -26.277444,-8.54015 -2.913066,-5.47447 -0.432549,-10.94898 0,-16.42345 2.272309,-4.02861 1.648071,-8.84718 10.182529,-11.16794 8.653493,9.7764 17.765882,19.40351 51.761932,20.4448 0.0343,20.97346 -16.543502,11.34459 -35.667017,15.68674 z"
       id="path4525"
       inkscape:connector-curvature="0"
       sodipodi:nodetypes="cccccc" />
    <path
       style="opacity:1;vector-effect:none;fill:#ff6600;fill-opacity:1;fill-rule:evenodd;stroke:#000000;stroke-width:1.29112673px;stroke-linecap:round;stroke-linejoin:round;stroke-miterlimit:4;stroke-dasharray:none;stroke-dashoffset:0;stroke-opacity:1"
       d="m 112.69682,278.8345 c -1.60211,2.67311 -2.47217,5.38468 -1.14965,8.21168 2.65024,2.54488 5.96521,4.25883 9.85406,5.25552 11.70995,2.79841 22.60039,2.50474 45.20903,2.35564 3.66792,-0.58003 7.56806,-0.0385 11.23598,-3.38089 -1.97526,-5.41789 -4.36949,-10.17786 -14.07265,-14.57696 -1.46071,-1.95374 -1.68394,-3.32195 -1.80655,-6.40514 -0.41556,-1.64631 -1.92069,-2.61181 -3.55682,-3.49536 -12.14763,8.69272 -27.92995,10.53072 -45.7134,12.03551 z"
       id="path4527"
       inkscape:connector-curvature="0"
       sodipodi:nodetypes="ccccccccc" />
    <path
       style="opacity:1;fill:#ffffff;fill-opacity:1;stroke:#000000;stroke-width:1.29316008;stroke-linecap:round;stroke-linejoin:round;stroke-miterlimit:4;stroke-dasharray:none;stroke-opacity:1"
       d="m 127.3979,214.30863 c 2.01694,18.51267 4.85982,29.58662 5.47639,45.79331 -10.50525,3.01736 -15.84491,4.07346 -32.4188,5.76887 -19.949967,-3.76036 -36.911762,-3.54591 -31.123119,-49.23958 1.942086,-15.3302 12.084857,-47.84389 32.516729,-47.84594 16.41917,-0.001 22.60107,18.46735 25.5488,45.52334 z"
       id="path4529"
       inkscape:connector-curvature="0"
       sodipodi:nodetypes="sccsss" />
    <path
       style="opacity:1;vector-effect:none;fill:#ffffff;fill-opacity:1;fill-rule:evenodd;stroke:#000000;stroke-width:4.87984896px;stroke-linecap:round;stroke-linejoin:round;stroke-miterlimit:4;stroke-dasharray:none;stroke-dashoffset:0;stroke-opacity:1"
       d="m 274.18945,216.16211 c -16.07431,0.51152 -34.63492,29.49223 -42.85547,35.7207 -8.48601,6.42962 -12.56271,113.32084 -5.77734,158.41407 33.10374,171.90315 106.19613,166.77706 141.0994,168.85321 34.90327,2.07615 106.22196,10.63635 130.92017,-167.65093 5.1311,-37.03949 4.99686,-127.80775 -11.84769,-155.53041 -14.90291,-20.73247 -43.64308,-40.32181 -57.25391,-33.92773 -59.94939,28.16258 -83.4376,26.2202 -148.5,-4.6836 -1.87532,-0.89074 -3.81112,-1.25813 -5.78516,-1.19531 z"
       transform="scale(0.26458333)"
       id="path233"
       inkscape:connector-curvature="0"
       sodipodi:nodetypes="scczscccs" />
    <path
       style="fill:#c8c8c8;fill-opacity:1;stroke:none;stroke-width:0.26458332px;stroke-linecap:butt;stroke-linejoin:miter;stroke-opacity:1;filter:url(#filter1952)"
       d="m 95.849609,93.548828 c -3.457854,7.026312 -5.270339,8.760352 -10.144532,11.575142 -3.499434,2.90102 -1.032084,5.62677 1.564454,4.56158 5.302384,-1.25648 5.988553,-0.70145 10.540814,-3.70282 -0.474306,-4.38624 -0.373837,-8.150442 -1.960736,-12.433902 z"
       id="path1654"
       inkscape:connector-curvature="0"
       sodipodi:nodetypes="ccccc" />
    <path
       sodipodi:nodetypes="ccscc"
       inkscape:connector-curvature="0"
       id="path1652"
       d="m 68.10094,93.750017 c 6.95741,4.852301 13.50197,4.463666 20.53298,0.315554 0.71005,-0.461172 0.95581,-2.303013 -0.18799,-3.275287 -5.0421,-4.285961 -16.62527,-3.875314 -20.54863,1.223478 -0.43138,0.631305 -0.55529,1.230246 0.20364,1.736255 z"
       style="fill:#a4a4a4;fill-opacity:1;stroke:none;stroke-width:0.26458332px;stroke-linecap:butt;stroke-linejoin:miter;stroke-opacity:1" />
    <path
       style="fill:#a4a4a4;stroke:none;stroke-width:0.26458332px;stroke-linecap:butt;stroke-linejoin:miter;stroke-opacity:1;fill-opacity:1"
       d="m 125.10207,93.750017 c -6.95741,4.852301 -13.50197,4.463666 -20.53298,0.315554 -0.71005,-0.461172 -0.95581,-2.303013 0.18799,-3.275287 5.0421,-4.285961 16.62527,-3.875314 20.54863,1.223478 0.43138,0.631305 0.55529,1.230246 -0.20364,1.736255 z"
       id="path1646"
       inkscape:connector-curvature="0"
       sodipodi:nodetypes="ccscc" />
    <path
       sodipodi:nodetypes="ccsc"
       inkscape:connector-curvature="0"
       id="path1644"
       d="m 125.10207,93.750017 c -6.95741,4.852301 -13.50197,4.463666 -20.53298,0.315554 -0.71005,-0.461172 -0.95581,-2.303013 0.18799,-3.275287 5.0421,-4.285961 16.62527,-3.875314 20.54863,1.223478"
       style="fill:none;stroke:#545454;stroke-width:0.26458332px;stroke-linecap:butt;stroke-linejoin:miter;stroke-opacity:1" />
    <path
       style="opacity:1;fill:#ffffff;fill-opacity:1;stroke:#000000;stroke-width:0.84379393;stroke-linecap:round;stroke-linejoin:round;stroke-miterlimit:4;stroke-dasharray:none;stroke-opacity:1"
       d="m 88.503629,91.968987 c -3.446518,2.097917 -5.459556,3.313497 -9.832319,3.313497 -4.372763,0 -7.917588,-1.653414 -10.023793,-2.985122 1.723259,-1.331709 5.651031,-3.422955 10.023793,-3.422955 4.372762,0 7.151693,1.325038 9.832319,3.09458 z"
       id="path4548"
       inkscape:connector-curvature="0"
       sodipodi:nodetypes="cscsc" />
    <path
       style="opacity:1;vector-effect:none;fill:#000000;fill-opacity:1;fill-rule:evenodd;stroke:#000000;stroke-width:0.99153769;stroke-linecap:round;stroke-linejoin:round;stroke-miterlimit:4;stroke-dasharray:none;stroke-dashoffset:0;stroke-opacity:1"
       d="m 92.706543,133.64858 c 3.36188,3.19942 -0.590296,3.08805 -1.570113,4.96256 -0.979815,1.87449 0.450727,9.10338 2.100562,12.67363 0.378557,0.8192 6.878588,1.18054 7.190898,0.28428 1.3154,-3.77481 3.03845,-12.0735 1.6488,-13.58179 -1.38968,-1.5083 -5.211393,-1.52894 -1.41604,-4.55643 1.51725,-1.21028 4.8161,-3.46351 1.55562,-1.89374 -3.260478,1.56977 -8.159165,0.98955 -11.400701,0.005 -3.241536,-0.98455 0.293795,0.58603 1.890974,2.10603 z"
       id="path4567"
       inkscape:connector-curvature="0"
       sodipodi:nodetypes="cccccszzsc" />
    <path
       style="opacity:1;fill:#d7edf7;fill-opacity:1;stroke:#000000;stroke-width:2.15564275;stroke-miterlimit:4;stroke-dasharray:none;stroke-opacity:1"
       d="M 297.33984 335.90234 C 293.71097 335.90234 290.17365 336.30115 286.77734 336.94922 A 15.88824 16.29563 0 0 0 282.32617 348.23438 A 15.88824 16.29563 0 0 0 286.49805 359.21484 C 289.93211 359.78243 293.54858 360.12305 297.33984 360.12305 C 302.31051 360.12305 306.46569 359.69926 310.21289 358.90234 A 15.88824 16.29563 0 0 0 314.10352 348.23438 A 15.88824 16.29563 0 0 0 309.69531 336.97852 C 305.94913 336.29246 301.87713 335.90234 297.33984 335.90234 z "
       transform="scale(0.26458333)"
       id="path1282" />
    <path
       style="opacity:1;fill:#000000;fill-opacity:1;stroke:#000000;stroke-width:0.80001456;stroke-linecap:round;stroke-linejoin:round;stroke-miterlimit:4;stroke-dasharray:none;stroke-opacity:1"
       d="m 76.379682,92.109643 c 0.150094,2.357462 2.448381,3.47437 3.962584,1.929814 -0.72869,-5.56e-4 -1.319265,-0.591113 -1.319824,-1.319823 -2.96e-4,-0.729293 0.590533,-1.32083 1.319824,-1.32136 0.529737,0.08393 0.808447,-0.03654 1.219771,0.355738 -0.775007,-3.898919 -5.353234,-2.328072 -5.182355,0.355631 z"
       id="path4552"
       inkscape:connector-curvature="0"
       sodipodi:nodetypes="sccccs" />
    <path
       sodipodi:nodetypes="cscsc"
       inkscape:connector-curvature="0"
       id="path1276"
       d="m 104.74423,91.968987 c 3.44652,2.097917 5.45956,3.313497 9.83232,3.313497 4.37277,0 7.91759,-1.653414 10.0238,-2.985122 -1.72326,-1.331709 -5.65104,-3.422955 -10.0238,-3.422955 -4.37276,0 -7.15169,1.325038 -9.83232,3.09458 z"
       style="opacity:1;fill:#ffffff;fill-opacity:1;stroke:#000000;stroke-width:0.84379393;stroke-linecap:round;stroke-linejoin:round;stroke-miterlimit:4;stroke-dasharray:none;stroke-opacity:1" />
    <path
       style="opacity:1;fill:#d7edf7;fill-opacity:1;stroke:#000000;stroke-width:2.15564275;stroke-miterlimit:4;stroke-dasharray:none;stroke-opacity:1"
       d="M 433.04492 335.90234 C 428.34331 335.90234 424.14188 336.32071 420.28516 337.05469 A 15.88824 16.29563 0 0 0 416.25391 347.87695 A 15.88824 16.29563 0 0 0 420.52344 358.9707 C 424.18047 359.72028 428.22734 360.12305 433.04492 360.12305 C 436.68412 360.12305 440.16156 359.80755 443.47266 359.28125 A 15.88824 16.29563 0 0 0 448.03125 347.87695 A 15.88824 16.29563 0 0 0 443.96094 337.01562 C 440.45837 336.32628 436.79898 335.90234 433.04492 335.90234 z "
       id="path1282-8"
       transform="scale(0.26458333)" />
    <path
       sodipodi:nodetypes="sccccs"
       inkscape:connector-curvature="0"
       id="path1327"
       d="m 111.88877,92.255249 c 0.30937,2.34189 2.67799,3.300636 4.08416,1.657108 -0.99433,0.04878 -1.28945,-0.500439 -1.33934,-1.227439 -0.0497,-0.7276 0.43294,-1.491415 1.16052,-1.541319 0.5342,0.04787 0.80411,0.04245 1.24106,0.405975 -1.0372,-3.837503 -5.49858,-1.960302 -5.1464,0.705675 z"
       style="opacity:1;fill:#000000;fill-opacity:1;stroke:#000000;stroke-width:0.80001456;stroke-linecap:round;stroke-linejoin:round;stroke-miterlimit:4;stroke-dasharray:none;stroke-opacity:1" />
    <ellipse
       style="opacity:1;fill:#ffc5c5;fill-opacity:1;stroke:none;stroke-width:1.13199997;stroke-miterlimit:4;stroke-dasharray:none;filter:url(#filter1250)"
       id="path1065"
       cx="70.256325"
       cy="106.24014"
       rx="7.5450706"
       ry="5.2535901"
       transform="matrix(0.82524531,0,0,0.82524531,10.406736,18.497181)" />
    <path
       sodipodi:nodetypes="scscszssssssss"
       inkscape:connector-curvature="0"
       id="path1271"
       d="m 130.37306,87.680902 c 0.0912,2.578375 -5.09824,4.561924 -5.09824,4.561924 5.07008,2.900049 5.55018,6.075358 5.18909,14.445164 -0.0234,0.54326 0.63833,0.66121 0.6666,0.15383 0.17517,-4.00264 1.39422,-7.351039 -0.2714,-11.305673 -0.1839,-0.43664 -0.23702,-0.57997 0.0313,-0.721864 0.26835,-0.141895 0.71225,-0.280677 0.32464,-1.626641 -0.26241,-0.911244 0.63303,-1.126449 -0.0611,-1.649466 -0.78483,-0.591305 -0.18179,-1.396119 0.083,-1.807811 2.58549,-4.019885 -8.89421,-15.405406 -16.68173,-14.39558 -1.6176,0.209759 -13.68733,1.943572 -13.6244,13.221193 0.005,0.972976 0.40963,0.651659 0.43892,0.112049 0.47351,-8.721834 12.63173,-12.352207 13.24972,-12.233459 8.90675,1.711448 15.65915,8.576611 15.7536,11.246334 z"
       style="fill:#a4a4a4;fill-opacity:1;stroke:none;stroke-width:0.26909792px;stroke-linecap:butt;stroke-linejoin:miter;stroke-opacity:1" />
    <ellipse
       transform="matrix(-0.82524531,0,0,0.82524531,181.79694,17.939712)"
       ry="5.2535901"
       rx="7.5450706"
       cy="106.24014"
       cx="70.256325"
       id="ellipse1155"
       style="opacity:1;fill:#ffc5c5;fill-opacity:1;stroke:none;stroke-width:1.13199997;stroke-miterlimit:4;stroke-dasharray:none;filter:url(#filter1246)" />
    <g
       id="g1585"
       transform="translate(0.1889881,0.1889881)">
      <path
         style="fill:#a4a4a4;fill-opacity:1;stroke:none;stroke-width:0.26458332px;stroke-linecap:butt;stroke-linejoin:miter;stroke-opacity:1"
         d="m 129.39989,109.88109 c -1.30179,2.59196 -3.52998,4.19024 -8.28798,2.4142 -1.75671,-0.65573 -5.7775,-3.17362 -2.12003,-0.17213 1.57283,1.29072 4.0739,2.00033 4.43644,2.22109 1.40222,0.85384 0.86288,2.91141 0.46647,4.43014 -0.99124,3.79756 -2.48594,9.15608 -5.7955,15.01232 -4.64821,8.22498 -7.07849,8.7804 -7.84051,10.62083 -0.70158,1.69443 9.61037,-2.67113 16.39875,-29.86036 0.71796,-1.19436 -1.65003,10.9891 -4.68828,17.95182 -4.43813,10.17082 -8.0559,14.04886 -7.23984,14.36918 1.41267,0.5545 10.78977,-14.5869 13.62508,-32.76893 0.0461,-0.29538 0.31909,-1.42622 0.49816,-1.70306 0.37104,-0.57365 0.76346,-0.87599 1.01427,-1.7881 0.25768,-0.93711 0.2825,-2.21936 -0.46703,-0.727 z"
         id="path1578"
         inkscape:connector-curvature="0"
         sodipodi:nodetypes="ssssssscssssss" />
      <path
         sodipodi:nodetypes="cccccccccccccc"
         inkscape:connector-curvature="0"
         id="path1172"
         transform="scale(0.26458333)"
         d="m 490.49805,413.47656 c -0.38185,-0.0302 -0.91802,2.95948 -1.21289,3.38672 -9.29371,17.99181 -26.58933,13.03908 -39.64844,4.63672 -1.07743,-1.21773 -4.41333,-2.68835 -3.54688,-1.77344 1.81123,2.08891 10.99893,9.00335 19.31446,9.96289 3.22628,0.37229 5.61373,0.5062 7.52148,0.45899 -12.56288,80.49106 -53.97506,114.12491 -54.48633,115.25586 9.07598,-4.34766 42.42371,-41.00499 58.26367,-115.70899 1.04039,-0.24845 1.95775,-0.57849 2.87305,-0.99219 -0.034,0.34583 2.28464,0.39456 2.21094,0.8379 -6.36499,62.63901 -49.13634,126.88868 -46.7168,123.89843 5.35899,-4.38531 38.00058,-51.93658 49.16602,-127.20507 3.09184,-2.99301 4.67027,-5.37336 7.21484,-12.06641 -0.21165,-0.41828 -0.57132,-0.66 -0.95312,-0.69141 z"
         style="fill:#545454;fill-opacity:1;stroke:none;stroke-width:0.99999994px;stroke-linecap:butt;stroke-linejoin:miter;stroke-opacity:1" />
    </g>
    <path
       style="opacity:1;fill:#a4a4a4;fill-opacity:1;stroke:none;stroke-width:0.49730244px;stroke-linecap:butt;stroke-linejoin:miter;stroke-opacity:1"
       d="m 70.145624,119.74654 c 3.844584,4.53742 14.74735,10.00267 25.522827,12.04444 8.567849,-1.37441 17.107529,-3.44585 23.490729,-10.02774 6.3832,-6.58188 -11.95812,0.0504 -23.400867,0.30393 -11.442735,0.25354 -29.457274,-6.85806 -25.612689,-2.32063 z"
       id="path1629"
       inkscape:connector-curvature="0"
       sodipodi:nodetypes="zczzz" />
    <path
       style="opacity:1;vector-effect:none;fill:#050505;fill-opacity:1;fill-rule:evenodd;stroke:none;stroke-width:4.87984896px;stroke-linecap:round;stroke-linejoin:round;stroke-miterlimit:4;stroke-dasharray:none;stroke-dashoffset:0;stroke-opacity:1"
       d="m 264.10746,446.42718 c 14.45668,17.38094 66.91033,45.22647 97.54879,49.15178 32.15057,-6.71404 65.58358,-18.26405 73.5483,-25.17314 18.32504,-15.1058 28.98573,-28.38501 22.71192,-30.13356 -16.85477,-4.69753 -29.43787,-8.71728 -48.72757,-11.21092 -34.77325,-4.49527 -71.21539,-3.79907 -96.68933,-0.58376 -25.47394,3.21532 -55.66755,4.667 -48.39211,17.9496 z m 81.88277,-18.3764 c 4.42575,-0.0145 9.13237,0.0339 14.20508,0.14063 41.70675,1.59201 50.84886,0.0724 97.99805,14.42773 -23.79303,16.78333 -52.46173,23.37371 -96.10547,29.94922 -39.82218,-7.44699 -77.59011,-17.29303 -97.73047,-33.32227 10.41143,-4.87576 50.65257,-11.09403 81.63281,-11.19531 z"
       transform="scale(0.26458333)"
       id="path1631"
       inkscape:connector-curvature="0"
       sodipodi:nodetypes="cccsszcsccccs" />
    <path
       sodipodi:nodetypes="zczzz"
       inkscape:connector-curvature="0"
       id="path1263"
       d="m 70.546527,118.54383 c 5.314567,6.40831 14.747352,9.06723 25.255559,12.04444 11.516664,-2.62881 18.414994,-4.25343 24.693434,-10.96318 6.27843,-6.70975 -13.16083,0.98586 -24.603572,1.23937 -11.442735,0.25354 -30.659992,-8.72897 -25.345421,-2.32063 z"
       style="opacity:1;fill:#f88600;fill-opacity:1;stroke:#000000;stroke-width:0.49730244px;stroke-linecap:butt;stroke-linejoin:miter;stroke-opacity:1" />
    <path
       style="opacity:1;fill:#a82200;fill-opacity:1;stroke:#000000;stroke-width:0.47121605px;stroke-linecap:butt;stroke-linejoin:miter;stroke-opacity:1"
       d="m 71.331192,118.25413 c 5.318168,5.74976 13.955708,7.97432 24.471026,10.64557 11.524442,-2.35864 18.427462,-3.81631 24.710132,-9.83652 6.2827,-6.02022 -13.03519,2.1707 -24.48567,2.26454 -11.450477,0.0939 -30.013656,-8.82333 -24.695488,-3.07359 z"
       id="path1044"
       inkscape:connector-curvature="0"
       sodipodi:nodetypes="zczzz" />
    <path
       sodipodi:nodetypes="ccccc"
       inkscape:connector-curvature="0"
       id="path1257"
       d="m 69.944321,116.2173 c 5.328802,4.24107 15.322009,6.84583 25.858293,8.81618 11.547406,-1.73977 19.132326,-3.48311 25.427566,-7.9237 -12.47489,-3.79818 -14.89368,-3.39603 -25.928591,-3.81725 -10.737247,-0.22594 -15.260042,0.53408 -25.357268,2.92477 z"
       style="opacity:1;fill:#f88600;fill-opacity:1;stroke:#000000;stroke-width:0.40510365px;stroke-linecap:butt;stroke-linejoin:miter;stroke-opacity:1" />
    <g
       id="g1591"
       transform="matrix(-0.99980889,0.01954946,0.01954946,0.99980889,189.24334,-2.4506638)">
      <path
         sodipodi:nodetypes="ssssssscssssss"
         inkscape:connector-curvature="0"
         id="path1587"
         d="m 129.39989,109.88109 c -1.30179,2.59196 -3.52998,4.19024 -8.28798,2.4142 -1.75671,-0.65573 -5.7775,-3.17362 -2.12003,-0.17213 1.57283,1.29072 4.0739,2.00033 4.43644,2.22109 1.40222,0.85384 0.86288,2.91141 0.46647,4.43014 -0.99124,3.79756 -2.48594,9.15608 -5.7955,15.01232 -4.64821,8.22498 -7.07849,8.7804 -7.84051,10.62083 -0.70158,1.69443 9.61037,-2.67113 16.39875,-29.86036 0.71796,-1.19436 -2.08557,10.93079 -5.12382,17.89351 -4.43813,10.17082 -8.63419,13.52552 -7.81813,13.84584 1.41267,0.5545 11.8036,-14.00525 14.63891,-32.18728 0.0461,-0.29538 0.31909,-1.42622 0.49816,-1.70306 0.37104,-0.57365 0.76346,-0.87599 1.01427,-1.7881 0.25768,-0.93711 0.2825,-2.21936 -0.46703,-0.727 z"
         style="fill:#a4a4a4;fill-opacity:1;stroke:none;stroke-width:0.26458332px;stroke-linecap:butt;stroke-linejoin:miter;stroke-opacity:1" />
      <path
         style="fill:#545454;fill-opacity:1;stroke:none;stroke-width:0.99999994px;stroke-linecap:butt;stroke-linejoin:miter;stroke-opacity:1"
         d="m 490.49805,413.47656 c -0.38185,-0.0302 -0.91802,2.95948 -1.21289,3.38672 -9.29371,17.99181 -26.58933,13.03908 -39.64844,4.63672 -1.07743,-1.21773 -4.41333,-2.68835 -3.54688,-1.77344 1.81123,2.08891 10.99893,9.00335 19.31446,9.96289 3.22628,0.37229 5.61373,0.5062 7.52148,0.45899 -12.56288,80.49106 -53.97506,114.12491 -54.48633,115.25586 9.07598,-4.34766 42.42371,-41.00499 58.26367,-115.70899 1.04039,-0.24845 1.95775,-0.57849 2.87305,-0.99219 -0.034,0.34583 2.28464,0.39456 2.21094,0.8379 -6.36499,62.63901 -53.21567,124.94775 -50.79613,121.9575 5.35899,-4.38531 42.07991,-49.99565 53.24535,-125.26414 3.09184,-2.99301 4.67027,-5.37336 7.21484,-12.06641 -0.21165,-0.41828 -0.57132,-0.66 -0.95312,-0.69141 z"
         transform="scale(0.26458333)"
         id="path1589"
         inkscape:connector-curvature="0"
         sodipodi:nodetypes="cccccccccccccc" />
    </g>
    <path
       style="fill:#545454;fill-opacity:1;stroke:none;stroke-width:0.26458332px;stroke-linecap:butt;stroke-linejoin:miter;stroke-opacity:1"
       d="m 130.01374,89.381795 c -2.22408,2.341523 -4.79159,2.861031 -4.79159,2.861031 5.60935,2.403955 5.93646,7.303781 5.24482,14.445164 -0.0524,0.54106 0.38871,0.66121 0.41604,0.15383 0.33121,-6.14906 0.70888,-9.916734 -2.47322,-13.02859 -0.27006,-0.264093 1.46265,0.507307 1.29296,0.151601 -0.16967,-0.355706 -2.05614,-0.964986 -1.69992,-0.916628 0.57136,0.07756 1.73121,0.190539 2.27685,-0.120419 0.64878,-0.369733 -1.5053,-0.358314 -2.33161,-0.439127 -0.30192,-0.02953 1.48211,-0.123115 1.77641,-0.40714 0.29429,-0.284022 -0.87727,-0.04024 -1.52808,-1.18e-4 0.86321,-0.407943 1.50519,-1.258815 2.48234,-2.634517 3.63317,-5.115028 -11.15796,-15.334225 -17.66852,-13.508077 -3.29791,0.925034 -9.32126,4.492711 -11.13126,8.274174 -0.62837,1.312807 -1.17342,4.058611 -0.89059,4.613673 0.44065,0.864771 0.72033,-3.259643 1.5845,-4.450111 1.62949,-2.244764 3.99277,-5.521102 10.61932,-7.649946 6.62656,-2.128844 20.31473,8.977559 16.82155,12.6552 z"
       id="path1265"
       inkscape:connector-curvature="0"
       sodipodi:nodetypes="scssszssszcssssszs" />
    <path
       sodipodi:nodetypes="zssszz"
       inkscape:connector-curvature="0"
       id="path1042"
       d="m 102.60035,79.54372 c 0.30616,-0.850252 12.44294,-8.756476 21.56224,-1.374405 1.19371,0.966325 6.91959,7.855649 1.5045,2.691162 -2.28127,-2.175691 -8.49206,-3.467251 -10.52092,-3.822912 -4.35861,-0.764069 -9.71113,4.959039 -11.06609,4.72031 -1.35497,-0.23873 -1.78589,-1.363906 -1.47973,-2.214155 z"
       style="fill:#000000;fill-opacity:1;stroke:#000000;stroke-width:1.13199997;stroke-linecap:butt;stroke-linejoin:miter;stroke-miterlimit:4;stroke-dasharray:none;stroke-opacity:1" />
    <path
       style="fill:#a4a4a4;fill-opacity:1;stroke:none;stroke-width:0.26909792px;stroke-linecap:butt;stroke-linejoin:miter;stroke-opacity:1"
       d="m 63.074824,89.93197 c 1.493284,2.87562 4.601011,3.320808 4.601011,3.320808 -5.926934,2.078077 -6.34784,6.762572 -6.030018,13.932652 0.02407,0.54324 -0.438183,0.63787 -0.438239,0.1297 0.04734,-4.00619 -0.983913,-7.417106 0.898713,-11.273158 0.20786,-0.425756 0.268856,-0.565916 0.0088,-0.722488 -0.260058,-0.156576 -0.695568,-0.319792 -0.233823,-1.642157 0.312602,-0.895269 -0.569509,-1.15986 0.15259,-1.643529 0.816451,-0.546817 0.264002,-1.38673 0.01751,-1.809631 -4.17734,-7.16699 9.948644,-12.77116 14.205766,-13.151634 4.257123,-0.380474 10.465677,1.319665 12.592245,4.546763 2.126568,3.227098 1.999074,4.684384 2.215501,6.929535 0.05741,0.595555 -0.527131,0.945929 -0.625442,5.74e-4 -0.794687,-7.641686 -6.613553,-9.772719 -11.446964,-10.187233 -4.833411,-0.414514 -9.029673,1.917753 -11.39197,3.121006 -2.362297,1.203253 -6.655441,4.347509 -4.52568,8.448792 z"
       id="path1273"
       inkscape:connector-curvature="0"
       sodipodi:nodetypes="scscszssszzsszzs" />
    <path
       sodipodi:nodetypes="cssszssszczzsszzc"
       inkscape:connector-curvature="0"
       id="path1269"
       d="m 67.704382,93.191573 c -5.740274,2.071964 -6.353227,6.944297 -6.080203,14.113897 0.02065,0.54319 -0.426695,0.63736 -0.424318,0.12925 0.02878,-6.15791 -0.128018,-9.94122 3.230537,-12.861753 0.285036,-0.247856 -1.489797,0.420943 -1.299612,0.07576 0.190176,-0.345179 2.109034,-0.843149 1.750593,-0.815696 -0.574916,0.04403 -1.739384,0.08902 -2.265918,-0.253301 -0.626058,-0.407023 1.523672,-0.269713 2.353297,-0.302087 0.303125,-0.01183 -1.472379,-0.209537 -1.749574,-0.510279 -0.277185,-0.300739 0.878118,0.01111 1.525471,0.0892 -1.210557,-1.451149 -2.164943,-0.510216 -3.042025,-5.084523 -0.877082,-4.574307 11.206695,-10.71012 15.809277,-10.283941 4.602582,0.426179 11.909988,0.553274 13.473956,10.735337 0.076,0.494797 -0.380648,1.205676 -0.466584,0.24572 -0.75502,-8.434006 -7.574337,-10.458207 -12.989856,-10.448278 -5.415519,0.0099 -15.73376,5.184623 -15.252141,9.686939 0.481619,4.502316 2.728627,4.793851 5.4271,5.483755 z"
       style="fill:#545454;fill-opacity:1;stroke:none;stroke-width:0.26458332px;stroke-linecap:butt;stroke-linejoin:miter;stroke-opacity:1" />
    <path
       sodipodi:nodetypes="sssccsscs"
       inkscape:connector-curvature="0"
       id="path1576"
       d="m 88.844189,73.226621 c -3.536835,-2.134406 -15.924578,-2.924047 -21.098618,-0.821584 -1.966811,0.79921 -2.933296,1.350768 -4.091553,2.701554 -2.003953,2.337055 -2.66752,8.162002 -2.713746,10.340891 0.567971,-2.722714 0.611033,-6.635548 2.903715,-9.216149 3.553609,-3.863944 7.12295,-3.789326 12.83944,-3.940155 4.869493,-0.128481 10.598961,0.730323 12.68072,2.991453 1.305022,1.417466 1.514752,1.185854 3.526789,4.749913 0.742229,-2.948438 -0.641014,-4.750633 -4.046747,-6.805923 z"
       style="fill:#a4a4a4;fill-opacity:1;stroke:none;stroke-width:0.26499999;stroke-linecap:butt;stroke-linejoin:miter;stroke-miterlimit:4;stroke-dasharray:none;stroke-opacity:1" />
    <path
       style="fill:#545454;fill-opacity:1;stroke:none;stroke-width:0.26499999;stroke-linecap:butt;stroke-linejoin:miter;stroke-miterlimit:4;stroke-dasharray:none;stroke-opacity:1"
       d="m 89.378728,74.696604 c -2.55235,-2.641724 -14.655047,-4.12676 -21.766791,-1.757028 -2.014117,0.671131 -2.866479,1.684855 -4.024736,3.035641 -2.003953,2.337055 -2.600703,7.293376 -2.646929,9.472265 0.567971,-2.722714 0.611033,-6.635548 2.903715,-9.216149 3.553609,-3.863944 7.12295,-3.789326 12.83944,-3.940155 4.869493,-0.128481 10.598961,0.730323 12.68072,2.991453 1.305022,1.417466 1.514752,1.185854 3.526789,4.749913 -0.727753,-2.280264 -1.112003,-2.851689 -3.512208,-5.33594 z"
       id="path1314"
       inkscape:connector-curvature="0"
       sodipodi:nodetypes="sssccsscs" />
    <path
       style="fill:#a4a4a4;fill-opacity:1;stroke:none;stroke-width:0.26499999;stroke-linecap:butt;stroke-linejoin:miter;stroke-miterlimit:4;stroke-dasharray:none;stroke-opacity:1"
       d="m 102.46682,72.979499 c 2.83583,-2.405489 13.79117,-3.65429 20.90291,-1.284558 2.01412,0.671131 3.6138,2.008476 4.75973,3.369728 2.70362,3.211631 2.75475,6.873112 2.87031,8.854696 -0.64992,-3.031 -1.08061,-5.778824 -3.12709,-8.220604 -2.98019,-3.490034 -6.5216,-4.176184 -12.23809,-4.274242 -4.87047,-0.08355 -10.59896,0.730323 -12.68072,2.991453 -1.30502,1.417466 -1.51475,1.185854 -3.526786,4.749913 -0.736902,-2.044029 0.405462,-3.951869 3.039736,-6.186386 z"
       id="path1574"
       inkscape:connector-curvature="0"
       sodipodi:nodetypes="sssccsscs" />
    <path
       sodipodi:nodetypes="sssccsscs"
       inkscape:connector-curvature="0"
       id="path1316"
       d="m 102.93929,73.829945 c 2.55235,-2.641724 13.3187,-4.12676 20.43044,-1.757028 2.01412,0.671131 3.6138,2.008476 4.75973,3.369728 2.70362,3.211631 2.75475,6.495136 2.87031,8.47672 -0.64992,-3.031 -1.08061,-5.778824 -3.12709,-8.220604 -2.98019,-3.490034 -6.5216,-4.176184 -12.23809,-4.274242 -4.87047,-0.08355 -10.59896,0.730323 -12.68072,2.991453 -1.30502,1.417466 -1.51475,1.185854 -3.526786,4.749913 0.727756,-2.280264 1.112006,-2.851689 3.512206,-5.33594 z"
       style="fill:#545454;fill-opacity:1;stroke:none;stroke-width:0.26499999;stroke-linecap:butt;stroke-linejoin:miter;stroke-miterlimit:4;stroke-dasharray:none;stroke-opacity:1" />
    <path
       style="fill:#000000;fill-opacity:1;stroke:#000000;stroke-width:1.15974057;stroke-linecap:butt;stroke-linejoin:miter;stroke-miterlimit:4;stroke-dasharray:none;stroke-opacity:1"
       d="m 89.517854,79.558349 c -0.403963,-0.815099 -14.445789,-7.488728 -23.296766,0.670866 -1.158607,1.068103 -7.13685,9.071661 -1.316953,2.8073 2.23727,-2.408129 9.964366,-4.310742 12.058692,-4.84999 4.499242,-1.158467 9.819124,4.065094 11.217686,3.703771 1.398562,-0.361329 1.741306,-1.516849 1.337341,-2.331947 z"
       id="path1040"
       inkscape:connector-curvature="0"
       sodipodi:nodetypes="zssszz" />
    <path
       sodipodi:nodetypes="czzzcsccc"
       inkscape:connector-curvature="0"
       id="path1331"
       transform="scale(0.26458333)"
       d="m 231.33398,255.81138 c -1.7672,8.74429 28.09477,-24.66381 37.7952,-31.21509 9.70042,-6.55127 50.5493,25.92907 86.48454,24.61163 35.93524,-1.31744 68.53362,-21.6963 83.3001,-20.81671 14.76648,0.8796 30.54582,19.94934 43.95756,28.64897 -8.73112,-14.51466 -39.37661,-39.84488 -53.32534,-32.8563 -6.90881,3.46145 -41.87372,21.56554 -74.54063,19.97737 -34.3225,-2.71359 -54.19996,-15.75243 -78.86484,-25.42489 -11.15367,-1.3552 -18.20262,8.03277 -44.80659,37.07502 z"
       style="opacity:1;vector-effect:none;fill:#a4a4a4;fill-opacity:1;fill-rule:evenodd;stroke:none;stroke-width:4.87984896px;stroke-linecap:round;stroke-linejoin:round;stroke-miterlimit:4;stroke-dasharray:none;stroke-dashoffset:0;stroke-opacity:1" />
    <path
       style="fill:#5a534a;fill-opacity:1;stroke:none;stroke-width:0.26458332px;stroke-linecap:butt;stroke-linejoin:miter;stroke-opacity:1"
       d="m 92.848483,133.74696 c 2.411985,2.86573 0.437263,3.36379 -0.850446,4.79464 -1.28771,1.43084 1.078576,10.65835 1.746749,11.46016 0.668173,0.80181 2.321269,2.13887 0.998352,0.06 -1.322917,-2.07887 -2.645834,-9.7329 -2.173363,-10.77233 0.472471,-1.03943 2.740327,-2.17336 2.078869,-4.06324 -0.661458,-1.88988 -4.212146,-4.34496 -1.800161,-1.47923 z"
       id="path1381"
       inkscape:connector-curvature="0"
       sodipodi:nodetypes="zzzzzzz" />
    <path
       style="fill:#5a534a;fill-opacity:1;stroke:none;stroke-width:0.26458332px;stroke-linecap:butt;stroke-linejoin:miter;stroke-opacity:1"
       d="m 94.430012,138.62913 c 1.292579,-1.85858 0.605657,-4.55229 -0.01957,-5.53603 -0.651274,-1.02472 2.809517,-0.14712 0.791737,5.77562 -2.017779,5.92274 1.258606,10.28701 1.652254,11.53858 0.393648,1.25157 -1.248097,1.11063 -2.152401,-2.392 -0.904305,-3.50263 -1.564596,-7.52759 -0.272017,-9.38617 z"
       id="path1383"
       inkscape:connector-curvature="0"
       sodipodi:nodetypes="zszzzz" />
    <path
       style="fill:#5a534a;fill-opacity:1;stroke:none;stroke-width:0.26458332px;stroke-linecap:butt;stroke-linejoin:miter;stroke-opacity:1"
       d="m 100.02531,133.4308 c 0.47247,-0.37798 2.55134,-1.70089 0.0945,-0.75595 -2.45685,0.94494 -1.413958,4.81173 0.28349,6.14211 1.69744,1.33038 0.0945,10.29985 -0.472482,10.48884 -0.56697,0.18899 -0.56696,2.55134 0.755962,0.75595 1.32292,-1.79539 1.32292,-9.26041 1.03943,-10.48884 -0.28349,-1.22843 -1.889886,-1.88987 -2.267862,-3.68526 -0.377976,-1.79539 0.0945,-2.07887 0.566962,-2.45685 z"
       id="path1385"
       inkscape:connector-curvature="0"
       sodipodi:nodetypes="czzzzzzzc" />
    <path
       sodipodi:nodetypes="csszzzsc"
       inkscape:connector-curvature="0"
       id="path1387"
       d="m 96.985284,134.42229 c 0.10828,0.96795 -0.891159,5.24327 -0.696887,8.24345 0.207639,3.20661 1.036686,4.96496 1.321573,6.46965 0.226601,1.19683 -0.130658,2.09642 -0.481268,0.033 -0.35061,-2.06342 -1.39234,-3.70251 -1.481887,-6.57244 -0.08955,-2.86993 1.138003,-7.82599 0.557114,-9.06026 -0.580888,-1.23426 0.587849,-0.84318 0.781355,0.88664 z"
       style="fill:#5a534a;fill-opacity:1;stroke:none;stroke-width:0.26458332px;stroke-linecap:butt;stroke-linejoin:miter;stroke-opacity:1" />
    <path
       style="fill:#5a534a;fill-opacity:1;stroke:none;stroke-width:0.26458332px;stroke-linecap:butt;stroke-linejoin:miter;stroke-opacity:1"
       d="m 97.41274,142.57125 c 0.173749,3.20862 0.857129,5.46035 0.572242,6.96504 -0.226601,1.19683 0.130658,2.09642 0.481268,0.033 0.35061,-2.06342 -0.422247,-4.66758 -0.459175,-6.97334 -0.03693,-2.30576 -0.428819,-7.0908 -0.08603,-8.72617 0.342784,-1.63537 -0.481861,-0.82602 -0.601634,0.2669 -0.119773,1.09292 -0.04359,5.90591 0.09333,8.43457 z"
       id="path1389"
       inkscape:connector-curvature="0"
       sodipodi:nodetypes="sszzzzs" />
    <path
       sodipodi:nodetypes="zzzzzzzz"
       inkscape:connector-curvature="0"
       id="path1391"
       d="m 98.66059,133.24181 c -0.307114,-0.0472 -0.558046,1.10822 -0.620921,1.78589 -0.06287,0.67767 0.104663,3.04947 0.904417,4.80507 0.799755,1.7556 0.02362,9.4494 -0.09451,10.11086 -0.118123,0.66147 0.165375,1.18118 0.543351,-0.0945 0.377975,-1.27567 0.425222,-8.78794 0.141732,-10.01637 -0.28349,-1.22843 -1.039435,-2.76394 -1.086682,-4.18136 -0.04725,-1.41741 0.519723,-2.36235 0.212609,-2.4096 z"
       style="fill:#5a534a;fill-opacity:1;stroke:none;stroke-width:0.26458332px;stroke-linecap:butt;stroke-linejoin:miter;stroke-opacity:1" />
    <path
       sodipodi:nodetypes="zscssszz"
       inkscape:connector-curvature="0"
       id="path1329"
       d="m 100.39931,119.66121 c 1.36089,-0.0459 7.74521,-0.24408 10.70506,1.07353 3.24617,1.44507 8.12353,1.54114 12.64816,-5.93317 -4.01108,3.51883 -8.08977,3.88486 -11.17996,3.35044 -1.25208,-0.21654 -4.52973,-1.04637 -5.86969,-1.04329 -3.15646,0.007 -5.74451,-0.16274 -6.45903,-1.1356 -1.565425,-2.1314 -3.804454,-1.10396 -3.005495,0.57546 0.798959,1.67943 1.800072,3.15851 3.160955,3.11263 z"
       style="opacity:1;vector-effect:none;fill:#000000;fill-opacity:1;fill-rule:evenodd;stroke:#000000;stroke-width:1.37826908px;stroke-linecap:round;stroke-linejoin:round;stroke-miterlimit:4;stroke-dasharray:none;stroke-dashoffset:0;stroke-opacity:1" />
    <path
       style="color:#000000;font-style:normal;font-variant:normal;font-weight:normal;font-stretch:normal;font-size:medium;line-height:normal;font-family:sans-serif;font-variant-ligatures:normal;font-variant-position:normal;font-variant-caps:normal;font-variant-numeric:normal;font-variant-alternates:normal;font-feature-settings:normal;text-indent:0;text-align:start;text-decoration:none;text-decoration-line:none;text-decoration-style:solid;text-decoration-color:#000000;letter-spacing:normal;word-spacing:normal;text-transform:none;writing-mode:lr-tb;direction:ltr;text-orientation:mixed;dominant-baseline:auto;baseline-shift:baseline;text-anchor:start;white-space:normal;shape-padding:0;clip-rule:nonzero;display:inline;overflow:visible;visibility:visible;opacity:1;isolation:auto;mix-blend-mode:normal;color-interpolation:sRGB;color-interpolation-filters:linearRGB;solid-color:#000000;solid-opacity:1;vector-effect:none;fill:#4f4f4f;fill-opacity:1;fill-rule:nonzero;stroke:none;stroke-width:0.26458332px;stroke-linecap:butt;stroke-linejoin:miter;stroke-miterlimit:4;stroke-dasharray:none;stroke-dashoffset:0;stroke-opacity:1;color-rendering:auto;image-rendering:auto;shape-rendering:auto;text-rendering:auto;enable-background:accumulate"
       d="m 102.35163,119.84926 c -2.649683,-0.99533 -4.30262,-3.14895 -4.944452,-4.77175 -0.357524,-0.90396 -0.800531,0.39088 -0.686148,0.63423 0.888837,1.89103 2.313604,3.30523 3.6714,4.20377 0.44188,0.29242 2.76072,0.23482 1.9592,-0.0662 z"
       id="path1395"
       inkscape:connector-curvature="0"
       sodipodi:nodetypes="cssssc" />
    <path
       style="color:#000000;font-style:normal;font-variant:normal;font-weight:normal;font-stretch:normal;font-size:medium;line-height:normal;font-family:sans-serif;font-variant-ligatures:normal;font-variant-position:normal;font-variant-caps:normal;font-variant-numeric:normal;font-variant-alternates:normal;font-feature-settings:normal;text-indent:0;text-align:start;text-decoration:none;text-decoration-line:none;text-decoration-style:solid;text-decoration-color:#000000;letter-spacing:normal;word-spacing:normal;text-transform:none;writing-mode:lr-tb;direction:ltr;text-orientation:mixed;dominant-baseline:auto;baseline-shift:baseline;text-anchor:start;white-space:normal;shape-padding:0;clip-rule:nonzero;display:inline;overflow:visible;visibility:visible;opacity:1;isolation:auto;mix-blend-mode:normal;color-interpolation:sRGB;color-interpolation-filters:linearRGB;solid-color:#000000;solid-opacity:1;vector-effect:none;fill:#4f4f4f;fill-opacity:1;fill-rule:nonzero;stroke:none;stroke-width:0.26458332px;stroke-linecap:butt;stroke-linejoin:miter;stroke-miterlimit:4;stroke-dasharray:none;stroke-dashoffset:0;stroke-opacity:1;color-rendering:auto;image-rendering:auto;shape-rendering:auto;text-rendering:auto;enable-background:accumulate"
       d="m 107.04348,120.01182 c -3.19609,-1.05843 -5.53995,-2.05932 -7.518571,-5.16741 -0.15042,-0.41539 -1.69079,-0.73913 -1.500823,-0.34794 2.109844,3.69075 2.419584,3.32617 4.966364,5.1034 1.25431,0.8753 5.3265,0.83368 4.05303,0.41195 z"
       id="path1399"
       inkscape:connector-curvature="0"
       sodipodi:nodetypes="sccss" />
    <path
       style="color:#000000;font-style:normal;font-variant:normal;font-weight:normal;font-stretch:normal;font-size:medium;line-height:normal;font-family:sans-serif;font-variant-ligatures:normal;font-variant-position:normal;font-variant-caps:normal;font-variant-numeric:normal;font-variant-alternates:normal;font-feature-settings:normal;text-indent:0;text-align:start;text-decoration:none;text-decoration-line:none;text-decoration-style:solid;text-decoration-color:#000000;letter-spacing:normal;word-spacing:normal;text-transform:none;writing-mode:lr-tb;direction:ltr;text-orientation:mixed;dominant-baseline:auto;baseline-shift:baseline;text-anchor:start;white-space:normal;shape-padding:0;clip-rule:nonzero;display:inline;overflow:visible;visibility:visible;opacity:1;isolation:auto;mix-blend-mode:normal;color-interpolation:sRGB;color-interpolation-filters:linearRGB;solid-color:#000000;solid-opacity:1;vector-effect:none;fill:#4f4f4f;fill-opacity:1;fill-rule:nonzero;stroke:none;stroke-width:0.26458332px;stroke-linecap:butt;stroke-linejoin:miter;stroke-miterlimit:4;stroke-dasharray:none;stroke-dashoffset:0;stroke-opacity:1;color-rendering:auto;image-rendering:auto;shape-rendering:auto;text-rendering:auto;enable-background:accumulate"
       d="m 111.10881,121.04919 c -2.09506,-2.10679 -5.81052,-2.68204 -7.69375,-4.36981 -0.31927,-0.28614 -2.21301,-0.66503 -1.84066,-0.30475 3.05866,2.95955 5.17008,2.62916 7.37255,4.14521 0.34977,0.24076 2.40558,0.77443 2.16186,0.52935 z"
       id="path1403"
       inkscape:connector-curvature="0"
       sodipodi:nodetypes="sssss" />
    <path
       style="color:#000000;font-style:normal;font-variant:normal;font-weight:normal;font-stretch:normal;font-size:medium;line-height:normal;font-family:sans-serif;font-variant-ligatures:normal;font-variant-position:normal;font-variant-caps:normal;font-variant-numeric:normal;font-variant-alternates:normal;font-feature-settings:normal;text-indent:0;text-align:start;text-decoration:none;text-decoration-line:none;text-decoration-style:solid;text-decoration-color:#000000;letter-spacing:normal;word-spacing:normal;text-transform:none;writing-mode:lr-tb;direction:ltr;text-orientation:mixed;dominant-baseline:auto;baseline-shift:baseline;text-anchor:start;white-space:normal;shape-padding:0;clip-rule:nonzero;display:inline;overflow:visible;visibility:visible;opacity:1;isolation:auto;mix-blend-mode:normal;color-interpolation:sRGB;color-interpolation-filters:linearRGB;solid-color:#000000;solid-opacity:1;vector-effect:none;fill:#4f4f4f;fill-opacity:1;fill-rule:nonzero;stroke:none;stroke-width:0.26458332px;stroke-linecap:butt;stroke-linejoin:miter;stroke-miterlimit:4;stroke-dasharray:none;stroke-dashoffset:0;stroke-opacity:1;color-rendering:auto;image-rendering:auto;shape-rendering:auto;text-rendering:auto;enable-background:accumulate"
       d="m 113.66843,121.70163 c -1.44309,-2.12843 -4.12804,-3.48409 -7.24423,-4.84114 -1.0421,-0.45382 -2.47174,-0.34389 -2.06697,-0.11491 2.72527,1.54143 6.07244,2.38303 7.93787,4.75688 0.34479,0.43876 1.62428,0.56934 1.37333,0.19921 z"
       id="path1407"
       inkscape:connector-curvature="0"
       sodipodi:nodetypes="cssssc" />
    <path
       style="color:#000000;font-style:normal;font-variant:normal;font-weight:normal;font-stretch:normal;font-size:medium;line-height:normal;font-family:sans-serif;font-variant-ligatures:normal;font-variant-position:normal;font-variant-caps:normal;font-variant-numeric:normal;font-variant-alternates:normal;font-feature-settings:normal;text-indent:0;text-align:start;text-decoration:none;text-decoration-line:none;text-decoration-style:solid;text-decoration-color:#000000;letter-spacing:normal;word-spacing:normal;text-transform:none;writing-mode:lr-tb;direction:ltr;text-orientation:mixed;dominant-baseline:auto;baseline-shift:baseline;text-anchor:start;white-space:normal;shape-padding:0;clip-rule:nonzero;display:inline;overflow:visible;visibility:visible;opacity:1;isolation:auto;mix-blend-mode:normal;color-interpolation:sRGB;color-interpolation-filters:linearRGB;solid-color:#000000;solid-opacity:1;vector-effect:none;fill:#4f4f4f;fill-opacity:1;fill-rule:nonzero;stroke:none;stroke-width:0.26458332px;stroke-linecap:butt;stroke-linejoin:miter;stroke-miterlimit:4;stroke-dasharray:none;stroke-dashoffset:0;stroke-opacity:1;color-rendering:auto;image-rendering:auto;shape-rendering:auto;text-rendering:auto;enable-background:accumulate"
       d="m 115.52976,121.59226 c -1.32504,-2.09329 -3.281,-3.15905 -4.95889,-4.3071 -0.43292,-0.29622 -3.02335,-0.64412 -2.74619,-0.49563 2.98804,1.60087 5.44262,3.08963 6.66406,5.17578 0.1434,0.24491 1.30875,0.0499 1.04102,-0.37305 z"
       id="path1415"
       inkscape:connector-curvature="0"
       sodipodi:nodetypes="sssss" />
    <path
       style="color:#000000;font-style:normal;font-variant:normal;font-weight:normal;font-stretch:normal;font-size:medium;line-height:normal;font-family:sans-serif;font-variant-ligatures:normal;font-variant-position:normal;font-variant-caps:normal;font-variant-numeric:normal;font-variant-alternates:normal;font-feature-settings:normal;text-indent:0;text-align:start;text-decoration:none;text-decoration-line:none;text-decoration-style:solid;text-decoration-color:#000000;letter-spacing:normal;word-spacing:normal;text-transform:none;writing-mode:lr-tb;direction:ltr;text-orientation:mixed;dominant-baseline:auto;baseline-shift:baseline;text-anchor:start;white-space:normal;shape-padding:0;clip-rule:nonzero;display:inline;overflow:visible;visibility:visible;opacity:1;isolation:auto;mix-blend-mode:normal;color-interpolation:sRGB;color-interpolation-filters:linearRGB;solid-color:#000000;solid-opacity:1;vector-effect:none;fill:#4f4f4f;fill-opacity:1;fill-rule:nonzero;stroke:none;stroke-width:0.26458332px;stroke-linecap:butt;stroke-linejoin:miter;stroke-miterlimit:4;stroke-dasharray:none;stroke-dashoffset:0;stroke-opacity:1;color-rendering:auto;image-rendering:auto;shape-rendering:auto;text-rendering:auto;enable-background:accumulate"
       d="m 117.56296,121.19773 c -0.77005,-1.75575 -2.3482,-2.62967 -3.43945,-3.37695 -0.39262,-0.26886 -2.22005,-0.21481 -1.92578,-0.0371 1.76452,1.0656 3.3764,2.45116 4.27539,3.85156 0.1929,0.30049 1.21349,-0.15558 1.08984,-0.43751 z"
       id="path1419"
       inkscape:connector-curvature="0"
       sodipodi:nodetypes="sssss" />
    <path
       style="color:#000000;font-style:normal;font-variant:normal;font-weight:normal;font-stretch:normal;font-size:medium;line-height:normal;font-family:sans-serif;font-variant-ligatures:normal;font-variant-position:normal;font-variant-caps:normal;font-variant-numeric:normal;font-variant-alternates:normal;font-feature-settings:normal;text-indent:0;text-align:start;text-decoration:none;text-decoration-line:none;text-decoration-style:solid;text-decoration-color:#000000;letter-spacing:normal;word-spacing:normal;text-transform:none;writing-mode:lr-tb;direction:ltr;text-orientation:mixed;dominant-baseline:auto;baseline-shift:baseline;text-anchor:start;white-space:normal;shape-padding:0;clip-rule:nonzero;display:inline;overflow:visible;visibility:visible;opacity:1;isolation:auto;mix-blend-mode:normal;color-interpolation:sRGB;color-interpolation-filters:linearRGB;solid-color:#000000;solid-opacity:1;vector-effect:none;fill:#4f4f4f;fill-opacity:1;fill-rule:nonzero;stroke:none;stroke-width:0.26458332px;stroke-linecap:butt;stroke-linejoin:miter;stroke-miterlimit:4;stroke-dasharray:none;stroke-dashoffset:0;stroke-opacity:1;color-rendering:auto;image-rendering:auto;shape-rendering:auto;text-rendering:auto;enable-background:accumulate"
       d="m 117.12044,117.84226 c -0.39781,-0.26389 -1.99012,-0.11433 -1.49302,0.2207 1.33398,0.89907 1.62848,1.10453 2.55664,2.79297 0.1832,0.33327 1.13754,-0.0593 0.91945,-0.50102 -0.86141,-1.74484 -0.64235,-1.62327 -1.98307,-2.51265 z"
       id="path1421"
       inkscape:connector-curvature="0"
       sodipodi:nodetypes="sssss" />
    <path
       style="opacity:1;vector-effect:none;fill:#000000;fill-opacity:1;fill-rule:evenodd;stroke:#000000;stroke-width:1.37826908px;stroke-linecap:round;stroke-linejoin:round;stroke-miterlimit:4;stroke-dasharray:none;stroke-dashoffset:0;stroke-opacity:1"
       d="m 90.839748,119.30242 c -1.3612,-0.0355 -7.818433,-0.3323 -10.696521,1.15545 -3.148905,1.62774 -6.297476,4.92899 -12.693219,-5.83616 4.037906,3.48802 8.119276,3.82281 11.205289,3.26475 1.250383,-0.22612 5.183746,-0.9916 6.523686,-0.99878 3.156422,-0.0172 5.224219,-0.41686 6.071463,-1.27661 1.459634,-1.48115 3.512417,-1.13088 2.726339,0.55461 -0.786077,1.68549 -1.775837,3.1722 -3.137037,3.13674 z"
       id="path1050"
       inkscape:connector-curvature="0"
       sodipodi:nodetypes="zscssszz" />
    <path
       sodipodi:nodetypes="ccccc"
       inkscape:connector-curvature="0"
       id="path1440"
       d="m 88.837749,119.87608 c 2.869392,-0.99306 3.509608,-3.04065 5.155251,-5.56712 0.377943,0.30023 0.474898,0.28547 0.495666,0.75869 0,0 -1.918241,4.15409 -3.714514,4.71826 -0.02882,0.0938 -1.177519,0.0718 -1.936403,0.0901 z"
       style="fill:#4f4f4f;fill-opacity:1;stroke:none;stroke-width:0.26458332px;stroke-linecap:butt;stroke-linejoin:miter;stroke-opacity:1" />
    <path
       sodipodi:nodetypes="sssss"
       inkscape:connector-curvature="0"
       id="path1442"
       d="m 88.092205,119.5926 c 2.843044,-1.02331 3.190241,-1.53762 4.85082,-4.91036 0.323348,-0.65675 -1.125959,-0.196 -1.538346,0.42416 -2.478356,3.72703 -2.482121,2.95524 -7.067185,4.66835 -1.116021,0.41698 2.633405,0.22145 3.754711,-0.18215 z"
       style="fill:#4f4f4f;fill-opacity:1;stroke:none;stroke-width:0.26458332px;stroke-linecap:butt;stroke-linejoin:miter;stroke-opacity:1" />
    <path
       sodipodi:nodetypes="ssscs"
       inkscape:connector-curvature="0"
       id="path1446"
       d="m 82.474548,120.19617 c 1.691802,-1.37044 5.831588,-1.55909 7.418946,-4.09002 0.223854,-0.35692 -1.197268,0.15051 -1.549481,0.44322 -1.934067,1.60735 -6.458254,2.21112 -7.507067,4.02202 0.4147,-0.075 1.4378,-0.21338 1.637602,-0.37522 z"
       style="fill:#4f4f4f;fill-opacity:1;stroke:none;stroke-width:0.26458332px;stroke-linecap:butt;stroke-linejoin:miter;stroke-opacity:1" />
    <path
       sodipodi:nodetypes="ssccs"
       inkscape:connector-curvature="0"
       id="path1450"
       d="m 79.174111,121.17688 c 2.50262,-2.4168 6.126783,-3.78426 7.373225,-4.29253 0.574138,-0.23412 -0.466599,-0.69295 -1.311825,-0.47094 -3.088103,1.40485 -6.046364,3.01363 -7.433127,5.11305 0.420486,-0.0225 0.844953,0.15913 1.371727,-0.34958 z"
       style="fill:#4f4f4f;fill-opacity:1;stroke:none;stroke-width:0.26458332px;stroke-linecap:butt;stroke-linejoin:miter;stroke-opacity:1" />
    <path
       style="fill:#4f4f4f;fill-opacity:1;stroke:none;stroke-width:0.26458332px;stroke-linecap:butt;stroke-linejoin:miter;stroke-opacity:1"
       d="m 76.988195,121.31538 c 1.2066,-2.15581 4.117143,-3.33876 5.962479,-4.47728 0.552343,-0.34078 -0.559254,-0.45088 -2.050329,0.39191 -2.953494,1.66938 -3.602619,2.03608 -4.956423,4.18107 0.112173,0.24535 0.834922,0.43646 1.044273,-0.0957 z"
       id="path1454"
       inkscape:connector-curvature="0"
       sodipodi:nodetypes="csscc" />
    <path
       sodipodi:nodetypes="sssss"
       inkscape:connector-curvature="0"
       id="path1460"
       d="m 73.91128,121.01297 c 1.555533,-2.31966 1.089614,-1.89683 3.408479,-3.33375 0.994155,-0.61605 2.060932,-0.44771 1.77343,-0.249 -2.790838,1.92903 -2.933656,1.75756 -4.317807,3.88309 -0.227371,0.34916 -1.059687,-0.009 -0.864102,-0.30034 z"
       style="fill:#4f4f4f;fill-opacity:1;stroke:none;stroke-width:0.26458332px;stroke-linecap:butt;stroke-linejoin:miter;stroke-opacity:1" />
    <path
       style="color:#000000;font-style:normal;font-variant:normal;font-weight:normal;font-stretch:normal;font-size:medium;line-height:normal;font-family:sans-serif;font-variant-ligatures:normal;font-variant-position:normal;font-variant-caps:normal;font-variant-numeric:normal;font-variant-alternates:normal;font-feature-settings:normal;text-indent:0;text-align:start;text-decoration:none;text-decoration-line:none;text-decoration-style:solid;text-decoration-color:#000000;letter-spacing:normal;word-spacing:normal;text-transform:none;writing-mode:lr-tb;direction:ltr;text-orientation:mixed;dominant-baseline:auto;baseline-shift:baseline;text-anchor:start;white-space:normal;shape-padding:0;clip-rule:nonzero;display:inline;overflow:visible;visibility:visible;opacity:1;isolation:auto;mix-blend-mode:normal;color-interpolation:sRGB;color-interpolation-filters:linearRGB;solid-color:#000000;solid-opacity:1;vector-effect:none;fill:#4f4f4f;fill-opacity:1;fill-rule:nonzero;stroke:none;stroke-width:0.26458332px;stroke-linecap:butt;stroke-linejoin:miter;stroke-miterlimit:4;stroke-dasharray:none;stroke-dashoffset:0;stroke-opacity:1;color-rendering:auto;image-rendering:auto;shape-rendering:auto;text-rendering:auto;enable-background:accumulate"
       d="m 73.178665,120.60114 c 0.647662,-1.35531 1.184426,-1.95834 2.560737,-2.79117 0.472659,-0.28601 -0.826113,-0.51385 -1.253415,-0.25599 -1.377501,0.83126 -1.485013,0.96845 -2.379631,2.6965 -0.09732,0.18798 0.892894,0.7261 1.072309,0.35066 z"
       id="path1462"
       inkscape:connector-curvature="0"
       sodipodi:nodetypes="sssss" />
    <path
       style="fill:none;stroke:#545454;stroke-width:0.26458332px;stroke-linecap:butt;stroke-linejoin:miter;stroke-opacity:1"
       d="m 68.25238,93.883652 c 6.957407,4.852301 13.368331,4.330031 20.399349,0.181919 0.71005,-0.461172 0.919935,-2.262318 -0.187995,-3.275287 -5.514569,-5.041913 -18.885429,-3.242515 -20.876969,2.018571"
       id="path1642"
       inkscape:connector-curvature="0"
       sodipodi:nodetypes="ccsc" />
  </g>
</svg>
