<?xml version="1.0" encoding="UTF-8" standalone="no"?>
<!-- Created with Inkscape (http://www.inkscape.org/) -->

<svg
   xmlns:dc="http://purl.org/dc/elements/1.1/"
   xmlns:cc="http://creativecommons.org/ns#"
   xmlns:rdf="http://www.w3.org/1999/02/22-rdf-syntax-ns#"
   xmlns:svg="http://www.w3.org/2000/svg"
   xmlns="http://www.w3.org/2000/svg"
   xmlns:sodipodi="http://sodipodi.sourceforge.net/DTD/sodipodi-0.dtd"
   xmlns:inkscape="http://www.inkscape.org/namespaces/inkscape"
   inkscape:export-ydpi="96"
   inkscape:export-xdpi="96"
   inkscape:export-filename="/run/media/tadlight/tinyshiny/creations/poster/asn/flyer_asn_fosdem_header.png"
   sodipodi:docname="flyer_asn_fosdem_header.svg"
   inkscape:version="0.92.2 2405546, 2018-03-11"
   id="svg8"
   version="1.1"
   viewBox="0 0 164.56277 90.036865"
   height="90.036865mm"
   width="164.56277mm">
  <sodipodi:namedview
     inkscape:window-maximized="0"
     inkscape:window-y="18"
     inkscape:window-x="0"
     inkscape:window-height="1041"
     inkscape:window-width="1916"
     inkscape:snap-page="true"
     inkscape:snap-global="false"
     showgrid="false"
     inkscape:current-layer="layer1"
     inkscape:document-units="mm"
     inkscape:cy="-21.447925"
     inkscape:cx="194.80762"
     inkscape:zoom="0.75811588"
     inkscape:pageshadow="2"
     inkscape:pageopacity="0.0"
     borderopacity="1.0"
     bordercolor="#666666"
     pagecolor="#ffffff"
     id="base"
     showguides="true"
     fit-margin-top="0"
     fit-margin-left="0"
     fit-margin-right="0"
     fit-margin-bottom="0" />
  <defs
     id="defs2" />
  <metadata
     id="metadata5">
    <rdf:RDF>
      <cc:Work
         rdf:about="">
        <dc:format>image/svg+xml</dc:format>
        <dc:type
           rdf:resource="http://purl.org/dc/dcmitype/StillImage" />
        <dc:title></dc:title>
      </cc:Work>
    </rdf:RDF>
  </metadata>
  <g
     id="layer1"
     inkscape:groupmode="layer"
     inkscape:label="Calque 1"
     transform="translate(-22.718609,1.8036532)">
    <path
       id="path62"
       d="M 61.974939,1.9673283 164.73856,-9.9847074 9.0277784,-11.14693 Z"
       inkscape:connector-curvature="0"
       style="fill:#748fb6;stroke:#748fb6;stroke-width:0.26158029" />
    <path
       id="path70"
       d="M 247.20565,319.99701 -4.2754592,304.28772 -91.907228,299.7537 Z"
       inkscape:connector-curvature="0"
       style="fill:#a8777e;stroke:#a8777e;stroke-width:0.26158029" />
    <path
       id="path136"
       d="M 32.629355,92.300395 12.265758,24.584506 -10.64855,97.332419 Z"
       inkscape:connector-curvature="0"
       style="fill:#77b2d4;stroke:#77b2d4;stroke-width:0.26158029" />
    <path
       id="path140"
       d="M 32.629355,92.300395 52.22221,44.466657 12.265758,24.584506 Z"
       inkscape:connector-curvature="0"
       style="fill:#73afd3;stroke:#73afd3;stroke-width:0.26158029" />
    <path
       id="path148"
       d="M 47.194625,123.99245 32.629355,92.300395 -2.2489507,136.6304 Z"
       inkscape:connector-curvature="0"
       style="fill:#aed1e5;stroke:#aed1e5;stroke-width:0.26158029" />
    <path
       id="path164"
       d="M 12.265758,24.584506 61.974939,1.9673283 9.0277784,-11.14693 Z"
       inkscape:connector-curvature="0"
       style="fill:#5489bb;stroke:#5489bb;stroke-width:0.26158029" />
    <path
       id="path166"
       d="M 94.096919,12.726773 164.73856,-9.9847074 61.974939,1.9673283 Z"
       inkscape:connector-curvature="0"
       style="fill:#869bc1;stroke:#869bc1;stroke-width:0.26158029" />
    <path
       id="path168"
       d="M 52.22221,44.466657 61.974939,1.9673283 12.265758,24.584506 Z"
       inkscape:connector-curvature="0"
       style="fill:#689dca;stroke:#689dca;stroke-width:0.26158029" />
    <path
       id="path170"
       d="M 47.194625,123.99245 78.531359,78.273451 32.629355,92.300395 Z"
       inkscape:connector-curvature="0"
       style="fill:#afd3e6;stroke:#afd3e6;stroke-width:0.26158029" />
    <path
       id="path172"
       d="M 78.531359,78.273451 52.22221,44.466657 32.629355,92.300395 Z"
       inkscape:connector-curvature="0"
       style="fill:#96c4de;stroke:#96c4de;stroke-width:0.26158029" />
    <path
       id="path174"
       d="M 80.835552,33.505275 61.974939,1.9673283 52.22221,44.466657 Z"
       inkscape:connector-curvature="0"
       style="fill:#7ba7cf;stroke:#7ba7cf;stroke-width:0.26158029" />
    <path
       id="path188"
       d="M 90.053826,144.18266 78.531359,78.273451 47.194625,123.99245 Z"
       inkscape:connector-curvature="0"
       style="fill:#cbe1ee;stroke:#cbe1ee;stroke-width:0.26158029" />
    <path
       id="path190"
       d="M 78.531359,78.273451 80.835552,33.505275 52.22221,44.466657 Z"
       inkscape:connector-curvature="0"
       style="fill:#8cbbd9;stroke:#8cbbd9;stroke-width:0.26158029" />
    <path
       id="path196"
       d="M 80.835552,33.505275 94.096919,12.726773 61.974939,1.9673283 Z"
       inkscape:connector-curvature="0"
       style="fill:#80a3ce;stroke:#80a3ce;stroke-width:0.26158029" />
    <path
       id="path198"
       d="M 90.053826,144.18266 115.88393,91.025009 78.531359,78.273451 Z"
       inkscape:connector-curvature="0"
       style="fill:#cce2ee;stroke:#cce2ee;stroke-width:0.26158029" />
    <path
       id="path202"
       d="M 148.8862,11.201148 164.73856,-9.9847074 94.096919,12.726773 Z"
       inkscape:connector-curvature="0"
       style="fill:#93a1c3;stroke:#93a1c3;stroke-width:0.26158029" />
    <path
       id="path204"
       d="M 143.49745,28.483411 94.096919,12.726773 80.835552,33.505275 Z"
       inkscape:connector-curvature="0"
       style="fill:#91aed3;stroke:#91aed3;stroke-width:0.26158029" />
    <path
       id="path206"
       d="M 115.88393,91.025009 143.49745,28.483411 80.835552,33.505275 Z"
       inkscape:connector-curvature="0"
       style="fill:#a0c2dd;stroke:#a0c2dd;stroke-width:0.26158029" />
    <path
       id="path208"
       d="M 115.88393,91.025009 80.835552,33.505275 78.531359,78.273451 Z"
       inkscape:connector-curvature="0"
       style="fill:#a8cce2;stroke:#a8cce2;stroke-width:0.26158029" />
    <path
       id="path212"
       d="M 155.76065,73.567304 143.49745,28.483411 115.88393,91.025009 Z"
       inkscape:connector-curvature="0"
       style="fill:#b5ccde;stroke:#b5ccde;stroke-width:0.26158029" />
    <path
       id="path222"
       d="M 143.49745,28.483411 148.8862,11.201148 94.096919,12.726773 Z"
       inkscape:connector-curvature="0"
       style="fill:#98acd3;stroke:#98acd3;stroke-width:0.26158029" />
    <path
       id="path238"
       d="M 138.79466,128.00682 155.76065,73.567304 115.88393,91.025009 Z"
       inkscape:connector-curvature="0"
       style="fill:#d3e1ea;stroke:#d3e1ea;stroke-width:0.26158029" />
    <path
       id="path248"
       d="M 155.76065,73.567304 170.31254,62.488633 143.49745,28.483411 Z"
       inkscape:connector-curvature="0"
       style="fill:#aebfd1;stroke:#aebfd1;stroke-width:0.26158029" />
    <path
       id="path250"
       d="M 176.03228,143.38243 212.20617,104.72088 155.76065,73.567304 Z"
       inkscape:connector-curvature="0"
       style="fill:#ded6d3;stroke:#ded6d3;stroke-width:0.26158029" />
    <path
       id="path252"
       d="M 176.03228,143.38243 155.76065,73.567304 138.79466,128.00682 Z"
       inkscape:connector-curvature="0"
       style="fill:#e4e3e3;stroke:#e4e3e3;stroke-width:0.26158029" />
    <path
       id="path256"
       d="M 199.47242,31.218915 148.8862,11.201148 143.49745,28.483411 Z"
       inkscape:connector-curvature="0"
       style="fill:#a1a7c4;stroke:#a1a7c4;stroke-width:0.26158029" />
    <path
       id="path258"
       d="M 170.31254,62.488633 199.47242,31.218915 143.49745,28.483411 Z"
       inkscape:connector-curvature="0"
       style="fill:#a8b1c5;stroke:#a8b1c5;stroke-width:0.26158029" />
    <path
       id="path260"
       d="M 199.47242,31.218915 164.73856,-9.9847074 148.8862,11.201148 Z"
       inkscape:connector-curvature="0"
       style="fill:#9b9ab7;stroke:#9b9ab7;stroke-width:0.26158029" />
    <path
       id="path266"
       d="M 212.20617,104.72088 170.31254,62.488633 155.76065,73.567304 Z"
       inkscape:connector-curvature="0"
       style="fill:#c7c9cd;stroke:#c7c9cd;stroke-width:0.26158029" />
    <path
       id="path270"
       d="M 199.47242,31.218915 224.5618,-1.1134188 164.73856,-9.9847074 Z"
       inkscape:connector-curvature="0"
       style="fill:#9a8aa0;stroke:#9a8aa0;stroke-width:0.26158029" />
    <path
       id="path276"
       d="M 212.20617,104.72088 199.47242,31.218915 170.31254,62.488633 Z"
       inkscape:connector-curvature="0"
       style="fill:#bbb7be;stroke:#bbb7be;stroke-width:0.26158029" />
    <rect
       y="-0.039764412"
       x="24.482498"
       height="86.509087"
       width="161.035"
       id="rect257"
       style="opacity:0.36700039;fill:#ffffff;fill-opacity:1;fill-rule:evenodd;stroke:#000000;stroke-width:3.52777767;stroke-linecap:round;stroke-linejoin:round;stroke-miterlimit:4;stroke-dasharray:none;stroke-opacity:1;paint-order:normal" />
    <text
       id="text53"
       y="62.373447"
       x="33.886345"
       style="font-style:normal;font-variant:normal;font-weight:normal;font-stretch:normal;font-size:14.11111069px;line-height:7.05555534px;font-family:'Liberation Sans';-inkscape-font-specification:'Liberation Sans';letter-spacing:0px;word-spacing:0px;fill:#000000;fill-opacity:1;stroke:none;stroke-width:0.26458332"
       xml:space="preserve"><tspan
         style="line-height:1em;stroke-width:0.26458332"
         y="62.373447"
         x="33.886345"
         id="tspan51"
         sodipodi:role="line"><tspan
   id="tspan67"
   style="font-style:normal;font-variant:normal;font-weight:bold;font-stretch:normal;line-height:1em;font-family:'Liberation Sans';-inkscape-font-specification:'Liberation Sans Bold'">A</tspan>ssociation <tspan
   id="tspan3495"
   style="font-weight:bold;line-height:1em">S</tspan>ans <tspan
   id="tspan3493"
   style="font-weight:bold;line-height:1em">N</tspan>om</tspan></text>
    <g
       id="g2639">
      <path
         style="fill:#6f6f6f;stroke:#292929;stroke-width:0.2877861;stroke-linecap:round;stroke-linejoin:round"
         inkscape:connector-curvature="0"
         d="m 69.842921,73.090888 h -1.7575 c -0.109813,-0.534467 0.435942,-0.991753 0.439379,-1.390318 -0.519751,-0.45814 -0.488137,-1.424436 0.43938,-1.43504 0.927534,-0.0106 0.991153,0.868019 0.439379,1.43504 0.01787,0.411178 0.550646,0.884437 0.439379,1.390318 z"
         id="keyhole" />
      <path
         style="fill:#3ba337;stroke:#123111;stroke-width:0.2877861;stroke-linecap:round;stroke-linejoin:round"
         inkscape:connector-curvature="0"
         d="m 68.072594,73.864759 c 0,0 -1.62607,-0.460671 -1.664721,-2.003087 -0.03866,-1.542355 1.232208,-2.346241 2.527951,-2.387286 1.295743,-0.04097 2.504949,1.024845 2.576778,2.387286 0.07186,1.362356 -1.66532,2.003087 -1.66532,2.003087 l 1.003297,2.542232 c 0,0 3.371343,-1.343201 3.377072,-4.545319 0.0057,-3.202117 -1.939809,-4.939266 -5.209908,-4.972786 -3.270098,-0.03346 -5.641736,1.293605 -5.577004,4.984672 0.06464,3.690982 3.472331,4.533433 3.472331,4.533433 z"
         id="opensource" />
      <path
         inkscape:connector-curvature="0"
         style="fill:#395582;fill-rule:evenodd;stroke:#182336;stroke-width:0.2877861;stroke-linecap:round;stroke-linejoin:round"
         id="bottomrightleg"
         d="m 74.402349,73.997301 1.507211,1.292579 -1.849168,2.600806 0.763371,-2.494089 -1.025786,-0.432573 z" />
      <path
         inkscape:connector-curvature="0"
         style="fill:#395582;fill-rule:evenodd;stroke:#182336;stroke-width:0.2877861;stroke-linecap:round;stroke-linejoin:round"
         id="bottomleftleg"
         d="m 63.420216,74.582194 -1.383733,1.578783 2.136056,1.962811 -1.049729,-2.065424 0.93352,-0.642613 z" />
      <path
         inkscape:connector-curvature="0"
         style="fill:#395582;fill-rule:evenodd;stroke:#182336;stroke-width:0.2877861;stroke-linecap:round;stroke-linejoin:round"
         id="middlerightleg"
         d="m 74.752088,70.845036 1.969737,0.250615 -0.113934,3.189119 -0.734169,-2.502811 -1.094622,0.202866 z" />
      <path
         inkscape:connector-curvature="0"
         style="fill:#395582;fill-rule:evenodd;stroke:#182336;stroke-width:0.2877861;stroke-linecap:round;stroke-linejoin:round"
         id="middleleftleg"
         d="m 62.823437,71.022385 -2.054393,0.432026 0.530038,2.852036 0.400267,-2.282022 1.132332,0.04642 z" />
      <path
         inkscape:connector-curvature="0"
         style="fill:#395582;fill-rule:evenodd;stroke:#182336;stroke-width:0.2877861;stroke-linecap:round;stroke-linejoin:round"
         id="toprighttleg"
         d="m 73.258217,67.88098 1.970592,-1.05999 1.31524,3.004845 -1.662327,-1.920655 -0.839681,0.730979 z" />
      <path
         inkscape:connector-curvature="0"
         style="fill:#395582;fill-rule:evenodd;stroke:#182336;stroke-width:0.2877861;stroke-linecap:round;stroke-linejoin:round"
         id="topleftleg"
         d="m 63.991513,68.076885 -1.78341,-1.110697 -1.527477,3.190231 1.846945,-2.055591 0.818473,0.814677 z" />
      <path
         style="fill:#e40000;fill-rule:evenodd;stroke:#320d0d;stroke-width:0.2877861;stroke-linecap:round;stroke-linejoin:round"
         inkscape:connector-curvature="0"
         d="m 69.457268,64.158274 1.747496,1.576902 -0.123384,0.954641 -1.018859,-0.232794 0.236215,-0.814617 z"
         id="rightmandible" />
      <path
         style="fill:#e40000;fill-rule:evenodd;stroke:#320d0d;stroke-width:0.2877861;stroke-linecap:round;stroke-linejoin:round"
         inkscape:connector-curvature="0"
         d="m 67.497108,66.28843 -0.437216,-0.621158 1.073329,-1.508835 -1.996417,1.541158 0.467307,1.098385 z"
         id="leftmandible" />
      <text
         xml:space="preserve"
         style="font-style:normal;font-variant:normal;font-weight:normal;font-stretch:normal;font-size:4.93888855px;line-height:7.05555534px;font-family:'Liberation Sans';-inkscape-font-specification:'Liberation Sans';letter-spacing:0px;word-spacing:0px;fill:#000000;fill-opacity:1;stroke:none;stroke-width:0.26458332"
         x="82.71106"
         y="73.704185"
         id="text101"><tspan
           sodipodi:role="line"
           id="tspan99"
           x="82.71106"
           y="73.704185"
           style="font-size:7.05555534px;stroke-width:0.26458332">Libre et Sécurité à 42</tspan></text>
    </g>
    <text
       xml:space="preserve"
       style="font-style:normal;font-variant:normal;font-weight:normal;font-stretch:normal;font-size:4.93888855px;line-height:7.05555534px;font-family:'Liberation Sans';-inkscape-font-specification:'Liberation Sans';letter-spacing:0px;word-spacing:0px;fill:#000000;fill-opacity:1;stroke:none;stroke-width:0.26458332"
       x="53.840336"
       y="43.248821"
       id="text3541"><tspan
         sodipodi:role="line"
         id="tspan3539"
         x="53.840336"
         y="43.248821"
         style="font-size:4.23333311px;stroke-width:0.26458332"><tspan
   style="font-weight:bold"
   id="tspan3586">F</tspan>ree and <tspan
   style="font-weight:bold"
   id="tspan3584">O</tspan>pen <tspan
   style="font-weight:bold"
   id="tspan3582">S</tspan>ource <tspan
   style="font-weight:bold"
   id="tspan3580">D</tspan>evelopers' <tspan
   style="font-weight:bold"
   id="tspan3578">E</tspan>uropean <tspan
   style="font-weight:bold"
   id="tspan3576">M</tspan>eeting</tspan></text>
    <g
       id="g2625">
      <text
         id="text3515"
         y="18.552334"
         x="105.44097"
         style="font-style:normal;font-variant:normal;font-weight:normal;font-stretch:normal;font-size:14.11111069px;line-height:7.05555534px;font-family:'Liberation Sans';-inkscape-font-specification:'Liberation Sans';letter-spacing:0px;word-spacing:0px;fill:#000000;fill-opacity:1;stroke:none;stroke-width:0.26458332"
         xml:space="preserve"><tspan
           id="tspan3519"
           style="font-style:normal;font-variant:normal;font-weight:normal;font-stretch:normal;font-size:14.11111069px;line-height:1.20000005em;font-family:'Liberation Sans';-inkscape-font-specification:'Liberation Sans, Bold';font-variant-ligatures:normal;font-variant-caps:normal;font-variant-numeric:normal;font-feature-settings:normal;text-align:center;writing-mode:lr-tb;text-anchor:middle;stroke-width:0.26458332"
           y="18.552334"
           x="105.44097"
           sodipodi:role="line">Voyage groupé au</tspan><tspan
           id="tspan3529"
           style="font-style:normal;font-variant:normal;font-weight:bold;font-stretch:normal;font-size:14.11111069px;line-height:1.20000005em;font-family:'Liberation Sans';-inkscape-font-specification:'Liberation Sans, Bold';font-variant-ligatures:normal;font-variant-caps:normal;font-variant-numeric:normal;font-feature-settings:normal;text-align:center;writing-mode:lr-tb;text-anchor:middle;stroke-width:0.26458332"
           y="35.485668"
           x="105.44097"
           sodipodi:role="line">     FOSDEM</tspan></text>
      <path
         sodipodi:nodetypes="ccccccccccccccccccccccccccccccccccccccccccccccccccccccccccccccccccccccccc"
         inkscape:connector-curvature="0"
         id="path5281"
         d="m 73.729816,21.59624 -0.739133,0.08807 -0.393848,1.732186 c -0.497717,0.123597 -0.980748,0.300199 -1.440814,0.526776 l -1.428468,-1.029887 -0.613405,0.421419 0.439321,1.685682 c -0.387976,0.346658 -0.737097,0.734487 -1.041202,1.156644 l -1.716343,-0.23746 -0.347342,0.658262 1.152732,1.275168 c -0.181702,0.492179 -0.308875,1.002801 -0.379238,1.522709 l -1.615718,0.586039 -0.0017,0.744276 1.613252,0.59324 c 0.0696,0.519318 0.195873,1.02945 0.376562,1.52127 l -1.162816,1.272905 0.344256,0.659909 1.716137,-0.229025 c 0.303415,0.422339 0.651844,0.810441 1.039147,1.157466 l -0.448787,1.68671 0.611553,0.424304 1.43073,-1.020629 c 0.45999,0.227794 0.943096,0.405569 1.44102,0.530274 l 0.386029,1.734244 0.738516,0.09136 0.801274,-1.605843 v -0.0033 c 0.505706,-0.01257 1.008665,-0.07857 1.500488,-0.196925 l 0.0047,0.02099 1.156026,1.372497 0.696537,-0.262359 -0.03683,-1.794123 -0.01667,-0.03087 c 0.440271,-0.244754 0.853545,-0.535191 1.232983,-0.866505 l 0.03334,0.03889 1.661401,0.678222 0.494881,-0.555993 -0.866505,-1.571481 -0.05371,-0.03601 c 0.278224,-0.417902 0.51182,-0.863851 0.696948,-1.330518 l 0.06441,0.02572 1.786305,-0.17182 0.179639,-0.722051 -1.4974,-0.988941 -0.08005,-0.0086 c 0.03015,-0.254572 0.04664,-0.510575 0.04939,-0.766911 -2.39e-4,-0.244813 -0.01302,-0.489453 -0.03827,-0.73296 l 0.07223,-0.0076 1.501927,-0.982149 -0.176551,-0.722875 -1.785277,-0.179845 -0.06893,0.02716 C 80.821186,27.306013 80.591179,26.85841 80.316356,26.43848 l 0.0535,-0.0356 0.873499,-1.567569 -0.492207,-0.558258 -1.664486,0.670609 -0.03498,0.04054 c -0.378171,-0.332331 -0.79027,-0.623938 -1.229486,-0.870003 l 0.01872,-0.03437 0.04486,-1.794121 -0.695304,-0.265448 -1.162197,1.367354 -0.0041,0.0179 c -0.491644,-0.121293 -0.994745,-0.1902 -1.500896,-0.205568 z m 0.40249,4.03868 c 2.253457,-0.08881 4.257583,1.422074 4.792423,3.612941 0.620987,2.543712 -0.937725,5.109198 -3.481452,5.730125 -2.543644,0.620856 -5.108988,-0.937827 -5.729919,-3.481452 -0.620986,-2.543711 0.937726,-5.109196 3.481451,-5.730124 0.30733,-0.075 0.621394,-0.119047 0.937497,-0.13149 z"
         style="fill:#ab1b93;fill-opacity:1;stroke:#ab1b93;stroke-width:0.26659888;stroke-linecap:round;stroke-linejoin:round;stroke-miterlimit:4;stroke-dasharray:none;stroke-dashoffset:0;stroke-opacity:1" />
      <circle
         r="1.2775302"
         cy="30.372198"
         cx="72.670052"
         id="path5368"
         style="fill:#ab1b93;fill-opacity:1;stroke:#ab1b93;stroke-width:0.25751382;stroke-linecap:round;stroke-linejoin:round;stroke-miterlimit:4;stroke-dasharray:none;stroke-dashoffset:0;stroke-opacity:1" />
      <circle
         r="1.2775302"
         cy="30.372198"
         cx="75.874374"
         id="path5368-6"
         style="fill:#ab1b93;fill-opacity:1;stroke:#ab1b93;stroke-width:0.25751382;stroke-linecap:round;stroke-linejoin:round;stroke-miterlimit:4;stroke-dasharray:none;stroke-dashoffset:0;stroke-opacity:1" />
    </g>
    <text
       xml:space="preserve"
       style="font-style:normal;font-weight:normal;font-size:5.64444447px;line-height:1.25;font-family:sans-serif;letter-spacing:0px;word-spacing:0px;fill:#000000;fill-opacity:1;stroke:none;stroke-width:0.26458332"
       x="95.951797"
       y="50.771305"
       id="text901"><tspan
         sodipodi:role="line"
         id="tspan899"
         x="95.951797"
         y="50.771305"
         style="font-style:normal;font-size:5.64444447px;stroke-width:0.26458332">avec l'</tspan></text>
  </g>
</svg>
