<?xml version="1.0" encoding="UTF-8" standalone="no"?>
<!-- Created with Inkscape (http://www.inkscape.org/) -->

<svg
   xmlns:dc="http://purl.org/dc/elements/1.1/"
   xmlns:cc="http://creativecommons.org/ns#"
   xmlns:rdf="http://www.w3.org/1999/02/22-rdf-syntax-ns#"
   xmlns:svg="http://www.w3.org/2000/svg"
   xmlns="http://www.w3.org/2000/svg"
   xmlns:sodipodi="http://sodipodi.sourceforge.net/DTD/sodipodi-0.dtd"
   xmlns:inkscape="http://www.inkscape.org/namespaces/inkscape"
   width="200mm"
   height="200mm"
   version="1.1"
   viewBox="0 0 200 200"
   id="svg26"
   sodipodi:docname="asn_logo.svg">
  <defs
     id="defs30" />
  <sodipodi:namedview
     pagecolor="#ffffff"
     bordercolor="#666666"
     borderopacity="1"
     objecttolerance="10"
     gridtolerance="10"
     guidetolerance="10"
     inkscape:pageopacity="0"
     inkscape:pageshadow="2"
     inkscape:window-width="640"
     inkscape:window-height="480"
     id="namedview28"
     showgrid="false"
     inkscape:snap-global="false" />
  <metadata
     id="metadata2">
    <rdf:RDF>
      <cc:Work
         rdf:about="">
        <dc:format>image/svg+xml</dc:format>
        <dc:type
           rdf:resource="http://purl.org/dc/dcmitype/StillImage" />
        <dc:title />
      </cc:Work>
    </rdf:RDF>
  </metadata>
  <g
     id="g4593"
     transform="matrix(1.2946021,0,0,1.2946021,330.65618,80.25899)"
     style="opacity:1;fill:none;fill-opacity:1;stroke:#970cff;stroke-width:2.04374242;stroke-linecap:round;stroke-linejoin:round;stroke-miterlimit:4;stroke-dasharray:none;stroke-opacity:1">
    <path
       style="fill:none;fill-opacity:1;stroke:#970cff;stroke-width:2.04374242;stroke-linecap:round;stroke-linejoin:round;stroke-miterlimit:4;stroke-dasharray:none;stroke-opacity:1"
       inkscape:connector-curvature="0"
       class="cls-1"
       d="m -169.1801,-49.521822 17.02858,14.869583 -0.96308,9.286875 -9.76313,-2.010833 2.05581,-7.9375 z"
       id="path8-6" />
    <path
       style="fill:none;fill-opacity:1;stroke:#970cff;stroke-width:2.04374242;stroke-linecap:round;stroke-linejoin:round;stroke-miterlimit:4;stroke-dasharray:none;stroke-opacity:1"
       inkscape:connector-curvature="0"
       class="cls-2"
       d="m -137.36131,-16.078489 18.79864,-10.265833 12.54919,29.1306246 -15.85648,-18.6266666 -8.01952,7.0908334 z"
       id="path10-2" />
    <path
       style="fill:none;fill-opacity:1;stroke:#970cff;stroke-width:2.04374242;stroke-linecap:round;stroke-linejoin:round;stroke-miterlimit:4;stroke-dasharray:none;stroke-opacity:1"
       inkscape:connector-curvature="0"
       class="cls-2"
       d="m -124.88885,43.214635 14.37216,12.514792 -17.62918,25.214791 7.29191,-24.182916 -9.78958,-4.180417 z"
       id="path12-7" />
    <path
       style="fill:none;fill-opacity:1;stroke:#970cff;stroke-width:2.04374242;stroke-linecap:round;stroke-linejoin:round;stroke-miterlimit:4;stroke-dasharray:none;stroke-opacity:1"
       inkscape:connector-curvature="0"
       class="cls-2"
       d="m -120.78781,12.655261 18.78541,2.434166 -1.09272,30.903333 -7.00353,-24.262291 -10.44045,1.957917 z"
       id="path14-6" />
    <path
       style="fill:none;fill-opacity:1;stroke:#970cff;stroke-width:2.04374242;stroke-linecap:round;stroke-linejoin:round;stroke-miterlimit:4;stroke-dasharray:none;stroke-opacity:1"
       inkscape:connector-curvature="0"
       class="cls-1"
       d="m -190.82037,-35.57828 2.05581,7.9375 -9.76313,2.010833 -0.96308,-9.286875 17.02858,-14.869583 z"
       id="path17" />
    <path
       style="fill:none;fill-opacity:1;stroke:#970cff;stroke-width:2.04374242;stroke-linecap:round;stroke-linejoin:round;stroke-miterlimit:4;stroke-dasharray:none;stroke-opacity:1"
       inkscape:connector-curvature="0"
       class="cls-2"
       d="m -221.75281,-9.0141139 -8.01952,-7.0908331 -15.85648,18.6266662 12.54919,-29.1306242 18.79864,10.265833 z"
       id="path19" />
    <path
       style="fill:none;fill-opacity:1;stroke:#970cff;stroke-width:2.04374242;stroke-linecap:round;stroke-linejoin:round;stroke-miterlimit:4;stroke-dasharray:none;stroke-opacity:1"
       inkscape:connector-curvature="0"
       class="cls-2"
       d="m -220.99875,52.316302 -9.78958,4.180417 7.29192,24.182916 -17.62919,-25.214791 14.37216,-12.514792 z"
       id="path21" />
    <path
       style="fill:none;fill-opacity:1;stroke:#970cff;stroke-width:2.04374242;stroke-linecap:round;stroke-linejoin:round;stroke-miterlimit:4;stroke-dasharray:none;stroke-opacity:1"
       inkscape:connector-curvature="0"
       class="cls-2"
       d="m -231.10054,23.423802 -10.44046,-1.957916 -7.00616,24.262291 -1.09273,-30.903333 18.78541,-2.434167 z"
       id="path23" />
    <path
       style="fill:none;fill-opacity:1;stroke:#970cff;stroke-width:2.04374242;stroke-linecap:round;stroke-linejoin:round;stroke-miterlimit:4;stroke-dasharray:none;stroke-opacity:1"
       d="m -169.88125,34.888198 c 9.08579,-3.159125 13.62075,-12.387792 10.13354,-20.613687 -3.48721,-8.225896 -13.67896,-12.3348751 -22.75416,-9.178396 -9.07521,3.1564792 -13.62075,12.387792 -10.13354,20.613687 1.78858,4.233334 5.47158,7.5565 10.13354,9.178396 l -11.87715,28.006145 c -26.15671,-9.093729 -39.23242,-35.67377 -29.19148,-59.3698529 10.04094,-23.6960831 39.39381,-35.5282491 65.55846,-26.4345201 26.16465,9.093729 39.23506,35.67377 29.19148,59.369853 -5.15408,12.170833 -15.76388,21.767271 -29.19148,26.43452 z"
       class="cls-3"
       id="path3773"
       inkscape:connector-curvature="0" />
    <path
       style="fill:none;fill-opacity:1;stroke:#970cff;stroke-width:2.04374242;stroke-linecap:round;stroke-linejoin:round;stroke-miterlimit:4;stroke-dasharray:none;stroke-opacity:1"
       id="path29"
       d="m -171.82064,19.936594 c 2.39448,-0.976312 3.937,-2.756958 3.937,-4.831291 0,-3.106208 -3.61421,-5.6250416 -8.07244,-5.6250416 -4.45823,0 -8.06715,2.5188336 -8.06715,5.6250416 0,2.024062 1.4949,3.780896 3.79942,4.7625 l -2.34156,8.919104 h 13.54931 z"
       class="cls-4"
       inkscape:connector-curvature="0" />
  </g>
  <path
     d="M 91.437212,135.9108 C 78.482679,127.74649 73.307048,115.3944 74.616,103.68315 75.924952,91.971911 89.0005,80.463915 104.862,81.698165 c 15.8615,1.23425 24.90712,8.966438 26.56471,20.798435 1.65758,11.83201 -0.51988,22.98886 -17.5524,30.91252 3.61146,12.07135 9.27485,24.32603 15.65198,35.55311 40.41781,-18.29148 41.20478,-38.95559 40.21693,-62.91565 C 168.75536,82.086511 153.206,51.969215 108.26,48.368165 63.314,44.767115 37.951306,76.025368 38.118,102.96321 c 0.166694,26.93786 5.459068,51.48364 38.658444,66.12788 4.542011,-11.2848 11.959449,-22.02694 14.660768,-33.18029 z"
     id="path4"
     inkscape:connector-curvature="0"
     style="fill:#3c7c3c;stroke:#000000;stroke-width:2.69169998;stroke-linecap:round;stroke-linejoin:round"
     sodipodi:nodetypes="czzzcczzzcc" />
  <g
     fill-rule="evenodd"
     stroke="#000"
     stroke-linecap="round"
     stroke-linejoin="round"
     stroke-width="2.6917"
     id="g22">
    <path
       d="m40.112 141.23-16.962 19.353 26.184 24.061-12.868-25.318 11.443-7.8773z"
       id="path6" />
    <path
       d="m44.265 62.331-21.861-13.615-18.724 39.107 22.64-25.198 10.033 9.9865z"
       id="path8" />
    <path
       d="m85.735 41.466-5.3595-7.6143 13.157-18.496-24.472 18.892 5.7283 13.464z"
       fill="#e40000"
       id="path10" />
    <path
       d="m110.97 15.625 21.883 18.805-1.2283 11.735-12.555-2.5499 2.6526-10.053z"
       fill="#e40000"
       id="path12" />
    <path
       d="m153.86 59.93 24.156-12.994 16.122 36.834-20.377-23.544-10.293 8.9605z"
       id="path14" />
    <path
       d="m167.88 134.91 18.476 15.845-22.667 31.881 9.3575-30.573-12.574-5.3026z"
       id="path16" />
    <path
       d="m29.479 103.63-24.732 7.1115 9.0203 34.397 2.8611-28.256 13.885-0.441z"
       id="path18" />
    <path
       d="m172.17 96.264 24.145 3.0721-1.3966 39.093-8.9996-30.68-13.418 2.4868z"
       id="path20" />
  </g>
  <path
     d="m107.25 111.52c0.28 3.6141 6.3475 7.5627 5.6511 14.581l-21.544 1.7421c-1.3461-6.5516 6.4487-11.83 6.4908-16.716-6.3712-5.616-5.1055-17.653 5.9195-17.73 11.422 1.8502 8.6083 13.164 3.4828 18.124z"
     fill="#6a6a6a"
     stroke="#000"
     stroke-linecap="round"
     stroke-linejoin="round"
     stroke-width="2.439"
     id="path24" />
</svg>
