<?xml version="1.0" encoding="UTF-8" standalone="no"?>
<!-- Created with Inkscape (http://www.inkscape.org/) -->

<svg
   xmlns:dc="http://purl.org/dc/elements/1.1/"
   xmlns:cc="http://creativecommons.org/ns#"
   xmlns:rdf="http://www.w3.org/1999/02/22-rdf-syntax-ns#"
   xmlns:svg="http://www.w3.org/2000/svg"
   xmlns="http://www.w3.org/2000/svg"
   xmlns:sodipodi="http://sodipodi.sourceforge.net/DTD/sodipodi-0.dtd"
   xmlns:inkscape="http://www.inkscape.org/namespaces/inkscape"
   width="210mm"
   height="297mm"
   version="1.1"
   viewBox="0 0 210 297"
   id="svg32"
   sodipodi:docname="asn_logo_bugopenlock_shaded.svg"
   inkscape:version="0.92.1 r15371">
  <defs
     id="defs36">
    <filter
       inkscape:collect="always"
       style="color-interpolation-filters:sRGB"
       id="filter1562"
       x="-0.12352993"
       width="1.2470599"
       y="-0.15939648"
       height="1.318793">
      <feGaussianBlur
         inkscape:collect="always"
         stdDeviation="4.998639"
         id="feGaussianBlur1564" />
    </filter>
    <filter
       inkscape:collect="always"
       style="color-interpolation-filters:sRGB"
       id="filter1912"
       x="-0.28274809"
       width="1.5654962"
       y="-0.099865995"
       height="1.199732">
      <feGaussianBlur
         inkscape:collect="always"
         stdDeviation="0.9927793"
         id="feGaussianBlur1914" />
    </filter>
    <filter
       inkscape:collect="always"
       style="color-interpolation-filters:sRGB"
       id="filter2640"
       x="-0.49956808"
       width="1.9991362"
       y="-0.25424396"
       height="1.5084879">
      <feGaussianBlur
         inkscape:collect="always"
         stdDeviation="11.275913"
         id="feGaussianBlur2642" />
    </filter>
    <filter
       inkscape:collect="always"
       style="color-interpolation-filters:sRGB"
       id="filter2750"
       x="-0.037257785"
       width="1.0745156"
       y="-0.039614463"
       height="1.0792289">
      <feGaussianBlur
         inkscape:collect="always"
         stdDeviation="1.0602631"
         id="feGaussianBlur2752" />
    </filter>
    <filter
       inkscape:collect="always"
       style="color-interpolation-filters:sRGB"
       id="filter2794"
       x="-0.031471702"
       width="1.0629434"
       y="-0.033384725"
       height="1.0667694">
      <feGaussianBlur
         inkscape:collect="always"
         stdDeviation="0.89560566"
         id="feGaussianBlur2796" />
    </filter>
    <filter
       inkscape:collect="always"
       style="color-interpolation-filters:sRGB"
       id="filter2826"
       x="-0.023272613"
       width="1.0465452"
       y="-0.027475457"
       height="1.0549509">
      <feGaussianBlur
         inkscape:collect="always"
         stdDeviation="1.3128349"
         id="feGaussianBlur2828" />
    </filter>
    <filter
       inkscape:collect="always"
       style="color-interpolation-filters:sRGB"
       id="filter2866"
       x="-0.023117816"
       width="1.0462356"
       y="-0.027694388"
       height="1.0553888">
      <feGaussianBlur
         inkscape:collect="always"
         stdDeviation="1.3155684"
         id="feGaussianBlur2868" />
    </filter>
  </defs>
  <sodipodi:namedview
     pagecolor="#ffffff"
     bordercolor="#666666"
     borderopacity="1"
     objecttolerance="10"
     gridtolerance="10"
     guidetolerance="10"
     inkscape:pageopacity="0"
     inkscape:pageshadow="2"
     inkscape:window-width="1536"
     inkscape:window-height="803"
     id="namedview34"
     showgrid="false"
     inkscape:zoom="0.2973261"
     inkscape:cx="382.9883"
     inkscape:cy="506.39845"
     inkscape:window-x="-8"
     inkscape:window-y="-8"
     inkscape:window-maximized="1"
     inkscape:current-layer="svg32" />
  <metadata
     id="metadata2">
    <rdf:RDF>
      <cc:Work
         rdf:about="">
        <dc:format>image/svg+xml</dc:format>
        <dc:type
           rdf:resource="http://purl.org/dc/dcmitype/StillImage" />
        <dc:title></dc:title>
      </cc:Work>
    </rdf:RDF>
  </metadata>
  <path
     d="m 72.797,211.15 c 4.268,-6.7225 16.859,-18.948 21.413,-25.025 -11.586,-8.1922 -16.726,-18.497 -15.969,-30.95 0.75646,-12.453 15.163,-24.478 31.883,-23.175 16.72,1.2992 27.781,13.557 27.351,27.352 -0.42851,13.795 -4.1677,18.62 -14.959,30.453 3.222,1.587 20.714,15.196 23.044,21.184 15.112,-10.822 27.586,-29.451 29.039,-47.981 2.6757,-34.691 -13.515,-62.346 -60.894,-66.142 -47.379,-3.796 -71.4,20.461 -73.939,48.736 -2.319,35.768 10.236,50.125 33.032,65.548 z"
     id="path4"
     inkscape:connector-curvature="0"
     style="fill:#3c7c3c;stroke:#000000;stroke-width:2.83739996;stroke-linecap:round;stroke-linejoin:round" />
  <path
     style="fill-rule:evenodd;stroke:#000000;stroke-width:2.83739996;stroke-linecap:round;stroke-linejoin:round"
     inkscape:connector-curvature="0"
     id="path6"
     d="m 41.87,191.96 -17.88,20.401 27.601,25.363 -13.565,-26.688 12.062,-8.3037 z" />
  <path
     style="fill-rule:evenodd;stroke:#000000;stroke-width:2.83739996;stroke-linecap:round;stroke-linejoin:round"
     inkscape:connector-curvature="0"
     id="path8"
     d="M 46.248,108.79 23.204,94.438 3.467,135.662 27.332,109.1 37.908,119.627 Z" />
  <path
     style="fill:#e40000;fill-rule:evenodd;stroke:#000000;stroke-width:2.83739996;stroke-linecap:round;stroke-linejoin:round"
     inkscape:connector-curvature="0"
     id="path10"
     d="m 89.963,86.796 -5.6496,-8.0264 13.869,-19.497 -25.797,19.915 6.0384,14.193 z" />
  <path
     style="fill:#e40000;fill-rule:evenodd;stroke:#000000;stroke-width:2.83739996;stroke-linecap:round;stroke-linejoin:round"
     inkscape:connector-curvature="0"
     id="path12"
     d="m 116.56,59.556 23.067,19.823 -1.2948,12.37 -13.235,-2.6879 2.7962,-10.597 z" />
  <path
     style="fill-rule:evenodd;stroke:#000000;stroke-width:2.83739996;stroke-linecap:round;stroke-linejoin:round"
     d="m 161.78,106.26 25.464,-13.697 16.995,38.828 -21.48,-24.818 -10.85,9.4455 z"
     id="path18"
     inkscape:connector-curvature="0" />
  <path
     style="fill-rule:evenodd;stroke:#000000;stroke-width:2.83739996;stroke-linecap:round;stroke-linejoin:round"
     d="m 176.55,185.3 19.476,16.703 -23.894,33.607 9.864,-32.228 -13.255,-5.5896 z"
     id="path20"
     inkscape:connector-curvature="0" />
  <path
     style="fill-rule:evenodd;stroke:#000000;stroke-width:2.83739996;stroke-linecap:round;stroke-linejoin:round"
     d="m 30.662,152.33 -26.071,7.4964 9.5085,36.259 3.016,-29.785 14.637,-0.46488 z"
     id="path22"
     inkscape:connector-curvature="0" />
  <path
     style="fill-rule:evenodd;stroke:#000000;stroke-width:2.83739996;stroke-linecap:round;stroke-linejoin:round"
     d="m 181.08,144.56 25.452,3.2384 -1.4722,41.209 -9.4867,-32.341 -14.144,2.6214 z"
     id="path24"
     inkscape:connector-curvature="0" />
  <path
     style="fill:#6a6a6a;stroke:#000000;stroke-width:2.5710001;stroke-linecap:round;stroke-linejoin:round"
     inkscape:connector-curvature="0"
     id="path28"
     d="m 112.64,160.64 c 0.29516,3.8097 6.6911,7.972 5.957,15.37 l -22.71,1.8364 c -1.419,-6.9062 6.7977,-12.47 6.8421,-17.621 -6.716,-5.92 -5.3818,-18.608 6.2399,-18.69 12.04,1.9503 9.0742,13.877 3.6713,19.105 z" />
  <path
     style="fill:#000000;fill-opacity:0.12857145;stroke:none;stroke-width:2.83739996;stroke-linecap:round;stroke-linejoin:round;filter:url(#filter2826)"
     inkscape:connector-curvature="0"
     id="path1350"
     d="m 72.797,211.15 c -3.343399,-2.38432 5.156663,-7.76574 11.485431,-13.74611 -17.934919,-2.38039 -44.628116,-38.57052 -27.220205,-65.53399 8.418924,-13.04024 22.198,-24.29405 42.875016,-25.80826 20.677018,-1.51421 44.143118,4.22081 56.152298,22.58407 15.65538,23.93867 3.5348,62.54683 -21.90719,69.83061 3.73752,3.62355 9.59768,9.12801 11.37765,12.51268 15.112,-10.822 27.586,-29.451 29.039,-47.981 2.6757,-34.691 -13.515,-62.346 -60.894,-66.142 -47.379,-3.796 -71.4,20.461 -73.939,48.736 -2.319,35.768 10.236,50.125 33.032,65.548 z"
     sodipodi:nodetypes="ccszscccsccc" />
  <path
     d="m 83.20333,85.70274 -2.795673,-5.598326 5.819234,-8.561687 -8.991892,8.665068 3.076513,10.341237 z"
     id="path1361"
     inkscape:connector-curvature="0"
     style="fill:#ffffff;fill-opacity:0.79047618;fill-rule:evenodd;stroke:none;stroke-width:2.83739996;stroke-linecap:round;stroke-linejoin:round"
     sodipodi:nodetypes="cccccc" />
  <path
     sodipodi:nodetypes="cccccc"
     style="fill:#ffffff;fill-opacity:0.75714285;fill-rule:evenodd;stroke:none;stroke-width:2.83739996;stroke-linecap:round;stroke-linejoin:round"
     inkscape:connector-curvature="0"
     id="path1363"
     d="m 134.32423,89.573587 0.92203,-9.802876 -12.52361,-12.947264 9.46219,12.605706 -1.77262,5.637768 z" />
  <path
     style="fill:#ffffff;fill-opacity:0.75714285;fill-rule:evenodd;stroke:none;stroke-width:2.83739996;stroke-linecap:round;stroke-linejoin:round"
     d="m 30.290988,209.77133 1.06103,6.07119 9.837409,7.6833 -7.847791,-11.19317 4.281249,-6.12202 7.849147,-3.64391 -4.894136,0.48627 -0.490354,-4.88417 z"
     id="path1365"
     inkscape:connector-curvature="0"
     sodipodi:nodetypes="ccccccccc" />
  <path
     style="fill:#ffffff;fill-opacity:0.75714285;fill-rule:evenodd;stroke:none;stroke-width:2.83739996;stroke-linecap:round;stroke-linejoin:round"
     d="m 25.210938,100.625 -13.068226,21.09723 13.725252,-17.34089 5.950802,3.18726 6.304614,7.80862 -1.489646,-5.96823 1.009872,-2.36657 -3.953751,-1.12611 -8.260167,-5.29522 z"
     id="path1367"
     inkscape:connector-curvature="0"
     sodipodi:nodetypes="cccccccccc" />
  <path
     style="fill:#ffffff;fill-opacity:0.75714285;fill-rule:evenodd;stroke:none;stroke-width:2.83739996;stroke-linecap:round;stroke-linejoin:round"
     d="m 21.043782,156.64225 -14.496611,4.7161 5.39249,21.4801 -0.289176,-18.28045 8.074309,-3.23818 9.964387,0.48413 z"
     id="path1369"
     inkscape:connector-curvature="0"
     sodipodi:nodetypes="ccccccc" />
  <path
     style="fill:#000000;fill-opacity:0.16145833;stroke:none;stroke-width:2.83739996;stroke-linecap:round;stroke-linejoin:round;filter:url(#filter2866)"
     d="m 103.06641,97.143702 c -32.332834,0.124265 -64.259743,20.836678 -64.04625,53.076838 0.115059,17.37537 5.316205,37.53176 18.793631,49.02035 3.780737,3.50486 10.831853,9.08998 14.983209,11.90911 1.457977,-2.9812 5.811143,-7.61958 6.936415,-9.54549 -17.78298,-1.18823 -32.088339,-22.73177 -34.583884,-42.59291 -2.495544,-19.86113 12.299415,-46.38003 32.246126,-53.71929 19.94671,-7.339265 39.785133,-5.0973 59.040253,1.62159 19.25512,6.71889 30.71294,22.94043 32.39626,45.13094 1.68332,22.19051 -7.30861,43.95134 -28.69842,50.66945 1.47187,2.09502 3.28885,6.50774 5.42625,8.27471 18.66999,-13.7411 33.70686,-39.62994 29.24477,-61.99486 -3.74666,-18.77907 -15.54512,-38.463 -33.56649,-45.46744 -12.24944,-4.761041 -25.29053,-6.432505 -38.17187,-6.382998 z"
     id="path1383"
     inkscape:connector-curvature="0"
     sodipodi:nodetypes="ssccczzzzccsss" />
  <path
     transform="matrix(0.99149567,0.13013965,-0.11314976,0.99357794,0,0)"
     style="opacity:1;fill:#ffffff;fill-opacity:0.53333285;stroke:none;stroke-width:0.2728343;stroke-miterlimit:4;stroke-dasharray:none;stroke-opacity:1;filter:url(#filter1562)"
     d="m 173.00785,128.42736 c 3.40389,18.15074 -1.96704,33.50079 -15.02744,38.57955 5.87761,-10.77418 12.66801,-23.93107 0.0279,-44.47709 -17.20587,-27.967517 -61.680877,-18.7106 -71.210675,9.856 -7.93245,23.77837 7.33898,32.80989 14.125965,42.24424 -19.225075,-4.01215 -26.249904,-16.91603 -26.249902,-32.85347 2e-6,-19.25729 10.506677,-43.188696 48.391562,-45.557926 37.88488,-2.369229 47.11541,17.133236 49.94258,32.208696 z"
     id="path1519"
     inkscape:connector-curvature="0"
     sodipodi:nodetypes="ccsscszsc" />
  <path
     sodipodi:nodetypes="sssccsccssssss"
     inkscape:connector-curvature="0"
     id="path2708"
     d="m 141.71273,161.73886 c 0,4.78321 -0.81587,10.19166 -3.02253,14.61792 -2.94258,5.90243 -7.8389,10.57771 -11.55223,14.71422 -1.02343,1.14006 -3.23153,-2.9553 -4.28098,-4.55978 8.87516,-11.64186 14.27223,-23.31844 12.0366,-34.02542 -3.17949,-13.48381 -24.00423,-19.02499 -27.48361,-19.02499 -3.56107,0 -24.032854,6.18653 -26.511582,19.23696 -1.492268,13.80023 7.381363,24.6508 14.306308,31.42353 -0.319043,1.20725 -3.322549,5.35309 -4.516363,4.4143 -8.071949,-6.3476 -17.273589,-15.62164 -17.27359,-26.79674 0,-6.12254 0.0027,-12.09726 2.740841,-17.09107 5.833763,-10.63971 18.572608,-17.61409 31.408146,-17.61409 11.06907,0 22.46536,5.35225 28.70532,13.64914 4.39196,5.83973 5.44367,13.13823 5.44367,21.05602 z"
     style="opacity:1;fill:#000000;fill-opacity:0.24761903;stroke:none;stroke-width:0.26499999;stroke-miterlimit:4;stroke-dasharray:none;stroke-opacity:1;filter:url(#filter2750)"
     transform="matrix(1.0804843,0,0,1.0804843,-8.6571897,-12.815179)" />
  <path
     sodipodi:nodetypes="ccccccccc"
     inkscape:connector-curvature="0"
     id="path1566"
     d="m 190.10396,198.78806 0.37772,6.15162 -7.78444,9.75757 5.0342,-12.70951 -5.58578,-4.96057 -8.48074,-1.72172 4.87328,-0.66345 -0.65717,-4.86454 z"
     style="fill:#ffffff;fill-opacity:0.75714285;fill-rule:evenodd;stroke:none;stroke-width:2.83739996;stroke-linecap:round;stroke-linejoin:round" />
  <path
     sodipodi:nodetypes="cccccccccc"
     inkscape:connector-curvature="0"
     id="path1568"
     d="m 186.26991,96.704759 11.43818,22.023621 -12.37692,-18.3276 -6.17444,2.72891 -6.87614,7.31037 1.93597,-5.83874 -0.82833,-2.43605 4.02749,-0.82442 8.63636,-4.656504 z"
     style="fill:#ffffff;fill-opacity:0.75714285;fill-rule:evenodd;stroke:none;stroke-width:2.83739996;stroke-linecap:round;stroke-linejoin:round" />
  <path
     sodipodi:nodetypes="ccccccc"
     inkscape:connector-curvature="0"
     id="path1570"
     d="m 189.66499,147.6326 15.11972,1.94617 -1.31586,22.10751 -3.10563,-18.01703 -8.53474,-1.68478 -9.7018,2.32345 z"
     style="fill:#ffffff;fill-opacity:0.75714285;fill-rule:evenodd;stroke:none;stroke-width:2.83739996;stroke-linecap:round;stroke-linejoin:round" />
  <path
     sodipodi:nodetypes="ccssc"
     inkscape:connector-curvature="0"
     id="path2644"
     transform="scale(0.26458333)"
     d="m 377.75865,658.57237 c 26.76793,-3.93209 36.85559,-4.83788 54.17118,-7.48071 -40.57763,-48.16796 -0.77293,-72.89316 -2.85009,-84.60809 -3.45728,-19.49859 -39.91666,-19.13443 -40.38719,1.11616 -0.26349,11.33978 33.13013,30.60261 -10.9339,90.97264 z"
     style="fill:#101010;fill-opacity:1;stroke:none;stroke-width:9.71716595;stroke-linecap:round;stroke-linejoin:round;filter:url(#filter2640)" />
  <path
     style="fill:#000000;fill-opacity:1;stroke:none;stroke-width:2.5710001;stroke-linecap:round;stroke-linejoin:round;filter:url(#filter1912)"
     d="m 107.2832,148.63672 c -4.29698,0.96966 0.385,5.47722 -0.33984,8.14844 0.70744,5.54971 -1.05704,10.07047 -3.57531,14.6237 1.73278,0.21536 8.21648,1.88632 7.68944,-0.38362 -4.07555,-6.41717 -2.98338,-14.32838 -0.077,-20.92172 -0.56559,-1.38185 -2.40049,-1.57292 -3.69727,-1.4668 z"
     id="path1634"
     inkscape:connector-curvature="0"
     sodipodi:nodetypes="ccccccc" />
  <path
     inkscape:connector-curvature="0"
     id="path2646"
     d="m 108.13929,169.72555 c -1.20934,-6.17939 0.24518,-10.82235 1.66138,-18.59952 0.26148,-1.43596 -3.1832,-1.79158 -2.95572,-0.0912 0.93618,6.99796 0.7174,12.76211 -0.74276,18.35268 -0.20305,2.70905 2.30513,1.93442 2.0371,0.33802 z"
     style="fill:#000000;fill-opacity:1;stroke:none;stroke-width:2.5710001;stroke-linecap:round;stroke-linejoin:round"
     sodipodi:nodetypes="csscc" />
  <path
     style="opacity:1;fill:#000000;fill-opacity:0.32291667;stroke:none;stroke-width:0.26499999;stroke-miterlimit:4;stroke-dasharray:none;stroke-opacity:1;filter:url(#filter2794)"
     d="m 141.71273,161.73886 c 0,4.78321 -0.81587,10.19166 -3.02253,14.61792 -2.94258,5.90243 -7.8389,10.57771 -11.55223,14.71422 -1.02343,1.14006 -2.00066,-0.75925 -3.05011,-2.36373 10.62226,-8.14767 14.49727,-26.09686 12.26164,-36.80384 -3.17949,-13.48381 -25.75132,-19.75294 -29.2307,-19.75294 -3.56107,0 -25.887813,6.97144 -28.366541,20.02187 -1.492268,13.80023 6.727579,27.15999 13.652524,33.93272 -0.319043,1.20725 -0.522626,3.36931 -1.71644,2.43052 -8.071949,-6.3476 -17.273589,-15.62164 -17.27359,-26.79674 0,-6.12254 0.0027,-12.09726 2.740841,-17.09107 5.833763,-10.63971 18.572608,-17.61409 31.408146,-17.61409 11.06907,0 22.46536,5.35225 28.70532,13.64914 4.39196,5.83973 5.44367,13.13823 5.44367,21.05602 z"
     id="path1358"
     inkscape:connector-curvature="0"
     sodipodi:nodetypes="sssccsccssssss" />
  <path
     style="fill:#101010;fill-opacity:1;stroke:none;stroke-width:9.71716595;stroke-linecap:round;stroke-linejoin:round;filter:url(#filter2640)"
     d="m 377.75865,658.57237 c 26.76793,-3.93209 36.85559,-4.83788 54.17118,-7.48071 -40.57763,-48.16796 -0.77293,-72.89316 -2.85009,-84.60809 -3.45728,-19.49859 -39.91666,-19.13443 -40.38719,1.11616 -0.26349,11.33978 33.13013,30.60261 -10.9339,90.97264 z"
     transform="scale(0.26458333)"
     id="path1583"
     inkscape:connector-curvature="0"
     sodipodi:nodetypes="ccssc" />
</svg>
