<?xml version="1.0" encoding="UTF-8"?>
<svg width="210mm" height="297mm" version="1.1" viewBox="0 0 210 297" xmlns="http://www.w3.org/2000/svg" xmlns:cc="http://creativecommons.org/ns#" xmlns:dc="http://purl.org/dc/elements/1.1/" xmlns:rdf="http://www.w3.org/1999/02/22-rdf-syntax-ns#">
  <metadata>
    <rdf:RDF>
      <cc:Work rdf:about="">
        <dc:format>image/svg+xml</dc:format>
        <dc:type rdf:resource="http://purl.org/dc/dcmitype/StillImage"/>
        <dc:title/>
      </cc:Work>
    </rdf:RDF>
  </metadata>
  <g transform="matrix(1.0014 0 0 1.0014 1.2652 1.0606)" stroke="#000" stroke-linecap="round" stroke-linejoin="round" stroke-width="2.8596">
    <path d="m70.472 216.47c4.5082-6.6394 17.572-18.563 22.348-24.544-11.416-8.6124-16.274-19.153-15.125-31.674 1.1488-12.521 16.035-24.187 32.837-22.355 16.802 1.8281 27.565 14.52 26.702 28.403-0.86016 13.883-4.7768 18.628-16.015 30.213 3.1964 1.6988 20.394 15.951 22.555 22.056 15.56-10.432 28.703-28.81 30.743-47.432 3.773-34.863-11.678-63.225-59.288-68.52-47.609-5.2956-72.561 18.394-75.997 46.798-3.4471 35.959 8.754 50.811 31.239 67.057z" fill="#3c7c3c"/>
    <path d="m113.09 165.63c0.41787 4.2295 7.6283 8.7075 6.9861 16.952l-25.211 2.5767c-1.7405-7.6464 7.2655-14.027 7.1936-19.756-7.6077-6.425-6.4227-20.566 6.4989-20.931 13.434 1.8853 10.417 15.217 4.5323 21.158z" fill="#6a6a6a"/>
    <g fill-rule="evenodd">
      <path d="m31.712 178.9-23.327 14.259 18.94 32.688-5.0382-29.748 14.098-4.3676z"/>
      <path d="m39.839 122.92-25.63-9.576-11.265 44.665 18.271-31.005l12.55 8.2874z"/>
      <path d="m89.292 92.602-5.1385-8.453 15.264-18.668-27.287 18.282 5.1125 14.681z" fill="#e40000"/>
      <path d="m117.94 66.195 21.855 21.493-2.1381 12.351-13.127-3.5975 3.5281-10.467z" fill="#e40000"/>
      <path d="m169.79 120.07 28.423-6.4274 6.0221 42.29-14.159-29.897-13.085 6.2434z"/>
      <path d="m181 178.4 22.559 12.639-16.939 37.95 3.3502-33.802-14.206-2.8925z"/>
    </g>
  </g>
</svg>
