<?xml version="1.0" encoding="UTF-8"?>
<svg width="210mm" height="297mm" version="1.1" viewBox="0 0 210 297" xmlns="http://www.w3.org/2000/svg" xmlns:cc="http://creativecommons.org/ns#" xmlns:dc="http://purl.org/dc/elements/1.1/" xmlns:rdf="http://www.w3.org/1999/02/22-rdf-syntax-ns#">
  <metadata>
    <rdf:RDF>
      <cc:Work rdf:about="">
        <dc:format>image/svg+xml</dc:format>
        <dc:type rdf:resource="http://purl.org/dc/dcmitype/StillImage"/>
        <dc:title/>
      </cc:Work>
    </rdf:RDF>
  </metadata>
  <g stroke="#000" stroke-linecap="round" stroke-linejoin="round">
    <g stroke-width="2.8374">
      <path d="m72.797 211.15c4.268-6.7225 16.859-18.948 21.413-25.025-11.586-8.1922-16.726-18.497-15.969-30.95 0.75646-12.453 15.163-24.478 31.883-23.175 16.72 1.2992 27.781 13.557 27.351 27.352-0.42851 13.795-4.1677 18.62-14.959 30.453 3.222 1.587 20.714 15.196 23.044 21.184 15.112-10.822 27.586-29.451 29.039-47.981 2.6757-34.691-13.515-62.346-60.894-66.142-47.379-3.796-71.4 20.461-73.939 48.736-2.319 35.768 10.236 50.125 33.032 65.548z" fill="#3c7c3c"/>
      <g fill-rule="evenodd">
        <path d="m41.87 191.96-17.88 20.401 27.601 25.363-13.565-26.688 12.062-8.3037z"/>
        <path d="m46.248 108.79-23.044-14.352-19.737 41.224 23.865-26.562l10.576 10.527z"/>
        <path d="m89.963 86.796-5.6496-8.0264 13.869-19.497-25.797 19.915 6.0384 14.193z" fill="#e40000"/>
        <path d="m116.56 59.556 23.067 19.823-1.2948 12.37-13.235-2.6879 2.7962-10.597z" fill="#e40000"/>
      </g>
    </g>
    <g fill-rule="evenodd" stroke-width="2.8374">
      <path d="m161.78 106.26 25.464-13.697 16.995 38.828-21.48-24.818-10.85 9.4455z"/>
      <path d="m176.55 185.3 19.476 16.703-23.894 33.607 9.864-32.228-13.255-5.5896z"/>
      <path d="m30.662 152.33-26.071 7.4964 9.5085 36.259 3.016-29.785 14.637-0.46488z"/>
      <path d="m181.08 144.56 25.452 3.2384-1.4722 41.209-9.4867-32.341-14.144 2.6214z"/>
    </g>
    <path d="m112.64 160.64c0.29516 3.8097 6.6911 7.972 5.957 15.37l-22.71 1.8364c-1.419-6.9062 6.7977-12.47 6.8421-17.621-6.716-5.92-5.3818-18.608 6.2399-18.69 12.04 1.9503 9.0742 13.877 3.6713 19.105z" fill="#6a6a6a" stroke-width="2.571"/>
  </g>
</svg>
