<?xml version="1.0" encoding="UTF-8"?>
<svg width="570" height="295" version="1.1" viewBox="0 0 150.81 78.052" xmlns="http://www.w3.org/2000/svg" xmlns:xlink="http://www.w3.org/1999/xlink">
  <defs>
    <linearGradient id="linearGradient3587" x1="1.5284" x2="149.28" y1="220.6" y2="268.69" gradientTransform="translate(-.0033785 -218.68)" gradientUnits="userSpaceOnUse">
      <stop style="stop-color:#093969" offset="0"/>
      <stop style="stop-color:#30335a" offset=".39532"/>
      <stop style="stop-color:#80273c" offset=".5994"/>
      <stop style="stop-color:#a8212d" offset="1"/>
    </linearGradient>
  </defs>
  <g transform="matrix(-.062229 -.0028463 .0027855 -.063587 131.67 75.31)">
    <path d="m210-385 324 21 1146 3z" style="fill:#c37e79;stroke-width:1.51;stroke:#c37e79"/>
    <path d="m534-364 511 59 635-56z" style="fill:#c28485;stroke-width:1.51;stroke:#c28485"/>
    <path d="m1045-305 83 16 552-72z" style="fill:#bb7f83;stroke-width:1.51;stroke:#bb7f83"/>
    <path d="m1371 1381-596 95 908-34z" style="fill:#748fb6;stroke-width:1.51;stroke:#748fb6"/>
    <path d="m2094 511 21 89 13-369z" style="fill:#979cbc;stroke-width:1.51;stroke:#979cbc"/>
    <path d="m1973-57 155 288 19-367z" style="fill:#986a7f;stroke-width:1.51;stroke:#986a7f"/>
    <path d="m2115 600-138 366 209 30z" style="fill:#6c94c0;stroke-width:1.51;stroke:#6c94c0"/>
    <path d="m210-385 1470 24 512 3z" style="fill:#a8777e;stroke-width:1.51;stroke:#a8777e"/>
    <path d="m1680-361 316 14 196-11z" style="fill:#794968;stroke-width:1.51;stroke:#794968"/>
    <path d="m2147-136-19 367 64-589z" style="fill:#8b5369;stroke-width:1.51;stroke:#8b5369"/>
    <path d="m2e3 1390-317 52 560-45z" style="fill:#205f9d;stroke-width:1.51;stroke:#205f9d"/>
    <path d="m2186 996-287 61 367 61z" style="fill:#427cb1;stroke-width:1.51;stroke:#427cb1"/>
    <path d="m1899 1057 101 333 266-272z" style="fill:#2e73b1;stroke-width:1.51;stroke:#2e73b1"/>
    <path d="m2115 600 71 396 80 122z" style="fill:#5d85b0;stroke-width:1.51;stroke:#5d85b0"/>
    <path d="m2128 231-13 369 151 518z" style="fill:#8498bc;stroke-width:1.51;stroke:#8498bc"/>
    <path d="m2192-358-64 589 138 887z" style="fill:#938aa1;stroke-width:1.51;stroke:#938aa1"/>
    <path d="m2e3 1390 243 7 23-279z" style="fill:#1d5b9a;stroke-width:1.51;stroke:#1d5b9a"/>
    <path d="m1856 761 121 205 138-366z" style="fill:#80a4cf;stroke-width:1.51;stroke:#80a4cf"/>
    <path d="m1940 413 154 98 34-280z" style="fill:#9d9fbd;stroke-width:1.51;stroke:#9d9fbd"/>
    <path d="m1951 272-11 141 188-182z" style="fill:#a29bb5;stroke-width:1.51;stroke:#a29bb5"/>
    <path d="m1977 966-78 91 287-61z" style="fill:#538dc1;stroke-width:1.51;stroke:#538dc1"/>
    <path d="m1996-347 151 211 45-222z" style="fill:#7d405f;stroke-width:1.51;stroke:#7d405f"/>
    <path d="m1973-57-22 329 177-41z" style="fill:#a3869a;stroke-width:1.51;stroke:#a3869a"/>
    <path d="m1996-347-23 290 174-79z" style="fill:#905370;stroke-width:1.51;stroke:#905370"/>
    <path d="m2094 511-238 250 259-161z" style="fill:#91a9d1;stroke-width:1.51;stroke:#91a9d1"/>
    <path d="m1940 413-84 348 238-250z" style="fill:#9ab1d4;stroke-width:1.51;stroke:#9ab1d4"/>
    <path d="m1128-289 254 23 298-95z" style="fill:#b37b80;stroke-width:1.51;stroke:#b37b80"/>
    <path d="m1711 596 145 165 84-348z" style="fill:#9dbbd9;stroke-width:1.51;stroke:#9dbbd9"/>
    <path d="m1743 101 208 171 22-329z" style="fill:#a88b99;stroke-width:1.51;stroke:#a88b99"/>
    <path d="m1856 761-86 57 207 148z" style="fill:#79a9d1;stroke-width:1.51;stroke:#79a9d1"/>
    <path d="m1666-118 307 61 23-290z" style="fill:#996277;stroke-width:1.51;stroke:#996277"/>
    <path d="m1680-361-14 243 330-229z" style="fill:#935f72;stroke-width:1.51;stroke:#935f72"/>
    <path d="m1899 1057-244 182 345 151z" style="fill:#3780b9;stroke-width:1.51;stroke:#3780b9"/>
    <path d="m1655 1239 28 203 317-52z" style="fill:#3176b0;stroke-width:1.51;stroke:#3176b0"/>
    <path d="m1770 818 129 239 78-91z" style="fill:#66a0cb;stroke-width:1.51;stroke:#66a0cb"/>
    <path d="m1666-118 77 219 230-158z" style="fill:#a77f8a;stroke-width:1.51;stroke:#a77f8a"/>
    <path d="m1675 506 36 90 229-183z" style="fill:#a6c1d8;stroke-width:1.51;stroke:#a6c1d8"/>
    <path d="m1675 506 265-93 11-141z" style="fill:#a7b2c9;stroke-width:1.51;stroke:#a7b2c9"/>
    <path d="m1743 101-68 405 276-234z" style="fill:#adaebc;stroke-width:1.51;stroke:#adaebc"/>
    <path d="m1770 818-115 421 244-182z" style="fill:#589ec9;stroke-width:1.51;stroke:#589ec9"/>
    <path d="m1519 858 136 381 115-421z" style="fill:#77b2d4;stroke-width:1.51;stroke:#77b2d4"/>
    <path d="m1711 596 59 222 86-57z" style="fill:#91bbd9;stroke-width:1.51;stroke:#91bbd9"/>
    <path d="m1519 858-102 278 238 103z" style="fill:#73afd3;stroke-width:1.51;stroke:#73afd3"/>
    <path d="m1433 159 9 277 233 70z" style="fill:#c9d0d5;stroke-width:1.51;stroke:#c9d0d5"/>
    <path d="m1433 159 242 347 68-405z" style="fill:#bfb9bd;stroke-width:1.51;stroke:#bfb9bd"/>
    <path d="m1711 596-192 262 251-40z" style="fill:#99c3de;stroke-width:1.51;stroke:#99c3de"/>
    <path d="m1426 681 93 177 192-262z" style="fill:#aed1e5;stroke-width:1.51;stroke:#aed1e5"/>
    <path d="m1666-118-233 277 310-58z" style="fill:#bc9a9c;stroke-width:1.51;stroke:#bc9a9c"/>
    <path d="m424 1441-240 34 591 1z" style="fill:#917383;stroke-width:1.51;stroke:#917383"/>
    <path d="m1418-107 15 266 233-277z" style="fill:#c49997;stroke-width:1.51;stroke:#c49997"/>
    <path d="m1382-266 284 148 14-243z" style="fill:#ad737c;stroke-width:1.51;stroke:#ad737c"/>
    <path d="m1675 506-249 175 285-85z" style="fill:#b4d1e4;stroke-width:1.51;stroke:#b4d1e4"/>
    <path d="m1382-266 36 159 248-11z" style="fill:#bd8688;stroke-width:1.51;stroke:#bd8688"/>
    <path d="m1442 436-16 245 249-175z" style="fill:#c4dcea;stroke-width:1.51;stroke:#c4dcea"/>
    <path d="m1655 1239-284 142 312 61z" style="fill:#5489bb;stroke-width:1.51;stroke:#5489bb"/>
    <path d="m1181 1328-406 148 596-95z" style="fill:#869bc1;stroke-width:1.51;stroke:#869bc1"/>
    <path d="m1417 1136-46 245 284-142z" style="fill:#689dca;stroke-width:1.51;stroke:#689dca"/>
    <path d="m1426 681-171 269 264-92z" style="fill:#afd3e6;stroke-width:1.51;stroke:#afd3e6"/>
    <path d="m1255 950 162 186 102-278z" style="fill:#96c4de;stroke-width:1.51;stroke:#96c4de"/>
    <path d="m1253 1206 118 175 46-245z" style="fill:#7ba7cf;stroke-width:1.51;stroke:#7ba7cf"/>
    <path d="m1418-107-294 109 309 157z" style="fill:#d8aaa2;stroke-width:1.51;stroke:#d8aaa2"/>
    <path d="m1124 2 5 109 304 48z" style="fill:#e6bbb0;stroke-width:1.51;stroke:#e6bbb0"/>
    <path d="m1129 111-7 359 311-311z" style="fill:#e9d3ca;stroke-width:1.51;stroke:#e9d3ca"/>
    <path d="m1171 577 255 104 16-245z" style="fill:#d4e6ef;stroke-width:1.51;stroke:#d4e6ef"/>
    <path d="m1433 159-311 311 320-34z" style="fill:#dedbda;stroke-width:1.51;stroke:#dedbda"/>
    <path d="m1122 470 49 107 271-141z" style="fill:#e4eaee;stroke-width:1.51;stroke:#e4eaee"/>
    <path d="m1171 577 84 373 171-269z" style="fill:#cbe1ee;stroke-width:1.51;stroke:#cbe1ee"/>
    <path d="m1255 950-2 256 164-70z" style="fill:#8cbbd9;stroke-width:1.51;stroke:#8cbbd9"/>
    <path d="m1382-266-254-23 290 182z" style="fill:#ca8787;stroke-width:1.51;stroke:#ca8787"/>
    <path d="m1128-289-4 291 294-109z" style="fill:#d99893;stroke-width:1.51;stroke:#d99893"/>
    <path d="m1253 1206-72 122 190 53z" style="fill:#80a3ce;stroke-width:1.51;stroke:#80a3ce"/>
    <path d="m1171 577-137 310 221 63z" style="fill:#cce2ee;stroke-width:1.51;stroke:#cce2ee"/>
    <path d="m984-67 140 69 4-291z" style="fill:#e29e96;stroke-width:1.51;stroke:#e29e96"/>
    <path d="m862 1351-87 125 406-148z" style="fill:#93a1c3;stroke-width:1.51;stroke:#93a1c3"/>
    <path d="m889 1251 292 77 72-122z" style="fill:#91aed3;stroke-width:1.51;stroke:#91aed3"/>
    <path d="m1034 887-145 364 364-45z" style="fill:#a0c2dd;stroke-width:1.51;stroke:#a0c2dd"/>
    <path d="m1034 887 219 319 2-256z" style="fill:#a8cce2;stroke-width:1.51;stroke:#a8cce2"/>
    <path d="m989 115 133 355 7-359z" style="fill:#f2d6c9;stroke-width:1.51;stroke:#f2d6c9"/>
    <path d="m806 997 83 254 145-364z" style="fill:#b5ccde;stroke-width:1.51;stroke:#b5ccde"/>
    <path d="m534-364 114 81 397-22z" style="fill:#ce7f76;stroke-width:1.51;stroke:#ce7f76"/>
    <path d="m989 115-13 361 146-6z" style="fill:#f6e7df;stroke-width:1.51;stroke:#f6e7df"/>
    <path d="m1045-305-61 238 144-222z" style="fill:#dc918c;stroke-width:1.51;stroke:#dc918c"/>
    <path d="m891 682 143 205 137-310z" style="fill:#e1ecf3;stroke-width:1.51;stroke:#e1ecf3"/>
    <path d="m889 1251-27 100 319-23z" style="fill:#98acd3;stroke-width:1.51;stroke:#98acd3"/>
    <path d="m1122 470-146 6 195 101z" style="fill:#eff0f2;stroke-width:1.51;stroke:#eff0f2"/>
    <path d="m976 476-85 206 280-105z" style="fill:#f0f3f6;stroke-width:1.51;stroke:#f0f3f6"/>
    <path d="m1124 2-135 113 140-4z" style="fill:#eebeaf;stroke-width:1.51;stroke:#eebeaf"/>
    <path d="m984-67 5 182 135-113z" style="fill:#eeb5a7;stroke-width:1.51;stroke:#eeb5a7"/>
    <path d="m795 434 181 42 13-361z" style="fill:#fbe6db;stroke-width:1.51;stroke:#fbe6db"/>
    <path d="m733-122 251 55 61-238z" style="fill:#e69a8f;stroke-width:1.51;stroke:#e69a8f"/>
    <path d="m648-283 85 161 312-183z" style="fill:#df897e;stroke-width:1.51;stroke:#df897e"/>
    <path d="m891 682-85 315 228-110z" style="fill:#d3e1ea;stroke-width:1.51;stroke:#d3e1ea"/>
    <path d="m795 434 96 248 85-206z" style="fill:#f8f2ef;stroke-width:1.51;stroke:#f8f2ef"/>
    <path d="m624 134 171 300 194-319z" style="fill:#fbd1bc;stroke-width:1.51;stroke:#fbd1bc"/>
    <path d="m984-67-251-55 256 237z" style="fill:#f0ad9d;stroke-width:1.51;stroke:#f0ad9d"/>
    <path d="m733-122-109 256 365-19z" style="fill:#f4b29c;stroke-width:1.51;stroke:#f4b29c"/>
    <path d="m806 997-82 67 165 187z" style="fill:#aebfd1;stroke-width:1.51;stroke:#aebfd1"/>
    <path d="m670 604-201 230 337 163z" style="fill:#ded6d3;stroke-width:1.51;stroke:#ded6d3"/>
    <path d="m670 604 136 393 85-315z" style="fill:#e4e3e3;stroke-width:1.51;stroke:#e4e3e3"/>
    <path d="m795 434-125 170 221 78z" style="fill:#f7ece7;stroke-width:1.51;stroke:#f7ece7"/>
    <path d="m562 1250 300 101 27-100z" style="fill:#a1a7c4;stroke-width:1.51;stroke:#a1a7c4"/>
    <path d="m724 1064-162 186 327 1z" style="fill:#a8b1c5;stroke-width:1.51;stroke:#a8b1c5"/>
    <path d="m562 1250 213 226 87-125z" style="fill:#9b9ab7;stroke-width:1.51;stroke:#9b9ab7"/>
    <path d="m624 134-103 90 274 210z" style="fill:#fccbb3;stroke-width:1.51;stroke:#fccbb3"/>
    <path d="m521 224-67 204 341 6z" style="fill:#fcd2bc;stroke-width:1.51;stroke:#fcd2bc"/>
    <path d="m469 834 255 230 82-67z" style="fill:#c7c9cd;stroke-width:1.51;stroke:#c7c9cd"/>
    <path d="m454 428 216 176 125-170z" style="fill:#fbe0d2;stroke-width:1.51;stroke:#fbe0d2"/>
    <path d="m562 1250-138 191 351 35z" style="fill:#9a8aa0;stroke-width:1.51;stroke:#9a8aa0"/>
    <path d="m648-283-170 169 255-8z" style="fill:#e28673;stroke-width:1.51;stroke:#e28673"/>
    <path d="m478-114 146 248 109-256z" style="fill:#ec9980;stroke-width:1.51;stroke:#ec9980"/>
    <path d="m469 834 93 416 162-186z" style="fill:#bbb7be;stroke-width:1.51;stroke:#bbb7be"/>
    <path d="m469 834-158 109 251 307z" style="fill:#c1aeae;stroke-width:1.51;stroke:#c1aeae"/>
    <path d="m388 734 81 100 201-230z" style="fill:#eacfc4;stroke-width:1.51;stroke:#eacfc4"/>
    <path d="m454 428-66 306 282-130z" style="fill:#f6d4c5;stroke-width:1.51;stroke:#f6d4c5"/>
    <path d="m534-364-56 250 170-169z" style="fill:#d87363;stroke-width:1.51;stroke:#d87363"/>
    <path d="m478-114 43 338 103-90z" style="fill:#f2a687;stroke-width:1.51;stroke:#f2a687"/>
    <path d="m478-114-166 14 209 324z" style="fill:#ea8e70;stroke-width:1.51;stroke:#ea8e70"/>
    <path d="m312-100-42 323 251 1z" style="fill:#ef9978;stroke-width:1.51;stroke:#ef9978"/>
    <path d="m312-100 166-14 56-250z" style="fill:#da705c;stroke-width:1.51;stroke:#da705c"/>
    <path d="m225 1189 199 252 138-191z" style="fill:#a38699;stroke-width:1.51;stroke:#a38699"/>
    <path d="m311 943-86 246 337 61z" style="fill:#ad969e;stroke-width:1.51;stroke:#ad969e"/>
    <path d="m270 223 184 205 67-204z" style="fill:#f8b89a;stroke-width:1.51;stroke:#f8b89a"/>
    <path d="m210-385 102 285 222-264z" style="fill:#c95b4d;stroke-width:1.51;stroke:#c95b4d"/>
    <path d="m-332-355 300 46 242-76z" style="fill:#a21e2c;stroke-width:1.51;stroke:#a21e2c"/>
    <path d="m149 405 239 329 66-306z" style="fill:#f6c1b0;stroke-width:1.51;stroke:#f6c1b0"/>
    <path d="m388 734-77 209 158-109z" style="fill:#d9b9b1;stroke-width:1.51;stroke:#d9b9b1"/>
    <path d="m149 405-4 333 243-4z" style="fill:#ebb2a5;stroke-width:1.51;stroke:#ebb2a5"/>
    <path d="m225 1189-41 286 240-34z" style="fill:#986d81;stroke-width:1.51;stroke:#986d81"/>
    <path d="m270 223-121 182 305 23z" style="fill:#f4b097;stroke-width:1.51;stroke:#f4b097"/>
    <path d="m145 738 166 205 77-209z" style="fill:#daafa6;stroke-width:1.51;stroke:#daafa6"/>
    <path d="m38 619 107 119 4-333z" style="fill:#e9a69b;stroke-width:1.51;stroke:#e9a69b"/>
    <path d="m61 450-23 169 111-214z" style="fill:#eba294;stroke-width:1.51;stroke:#eba294"/>
    <path d="m36 814-126 294 315 81z" style="fill:#b07f86;stroke-width:1.51;stroke:#b07f86"/>
    <path d="m39 1342 145 133 41-286z" style="fill:#97637b;stroke-width:1.51;stroke:#97637b"/>
    <path d="m36 814 189 375 86-246z" style="fill:#be9494;stroke-width:1.51;stroke:#be9494"/>
    <path d="m145 738-109 76 275 129z" style="fill:#d29e98;stroke-width:1.51;stroke:#d29e98"/>
    <path d="m-100 90 370 133 42-323z" style="fill:#e0765e;stroke-width:1.51;stroke:#e0765e"/>
    <path d="m-15-158-85 248 412-190z" style="fill:#d05647;stroke-width:1.51;stroke:#d05647"/>
    <path d="m210-385-225 227 327 58z" style="fill:#c84940;stroke-width:1.51;stroke:#c84940"/>
    <path d="m-32-309 17 151 225-227z" style="fill:#b53234;stroke-width:1.51;stroke:#b53234"/>
    <path d="m-100 90 249 315 121-182z" style="fill:#e78b73;stroke-width:1.51;stroke:#e78b73"/>
    <path d="m-90 1108 129 234 186-153z" style="fill:#9c697c;stroke-width:1.51;stroke:#9c697c"/>
    <path d="m-100 90 161 360 88-45z" style="fill:#e68e7b;stroke-width:1.51;stroke:#e68e7b"/>
    <path d="m39 1342-356 134 501-1z" style="fill:#82435c;stroke-width:1.51;stroke:#82435c"/>
    <path d="m-100 90-91 174 252 186z" style="fill:#de7c6b;stroke-width:1.51;stroke:#de7c6b"/>
    <path d="m38 619-2 195 109-76z" style="fill:#db9c96;stroke-width:1.51;stroke:#db9c96"/>
    <path d="m-200 569 236 245 2-195z" style="fill:#d9938e;stroke-width:1.51;stroke:#d9938e"/>
    <path d="m-200 569 238 50 23-169z" style="fill:#e49990;stroke-width:1.51;stroke:#e49990"/>
    <path d="m-191 264-9 305 261-119z" style="fill:#df897e;stroke-width:1.51;stroke:#df897e"/>
    <path d="m-366 923 276 185 126-294z" style="fill:#b1777e;stroke-width:1.51;stroke:#b1777e"/>
    <path d="m-90 1108-184 135 313 99z" style="fill:#92576f;stroke-width:1.51;stroke:#92576f"/>
    <path d="m-274 1243-43 233 356-134z" style="fill:#7e4262;stroke-width:1.51;stroke:#7e4262"/>
    <path d="m-200 569-166 354 402-109z" style="fill:#c28384;stroke-width:1.51;stroke:#c28384"/>
    <path d="m-334-47 234 137 85-248z" style="fill:#c1423c;stroke-width:1.51;stroke:#c1423c"/>
    <path d="m-32-309-300-46 317 197z" style="fill:#ab152a;stroke-width:1.51;stroke:#ab152a"/>
    <path d="m-332-355-2 308 319-111z" style="fill:#a8212d;stroke-width:1.51;stroke:#a8212d"/>
    <path d="m-325 335 125 234 9-305z" style="fill:#cc7e76;stroke-width:1.51;stroke:#cc7e76"/>
    <path d="m-366 923 92 320 184-135z" style="fill:#8b6072;stroke-width:1.51;stroke:#8b6072"/>
    <path d="m-334-47 143 311 91-174z" style="fill:#c4594c;stroke-width:1.51;stroke:#c4594c"/>
    <path d="m-334-47 9 382 134-71z" style="fill:#bd6256;stroke-width:1.51;stroke:#bd6256"/>
    <path d="m-325 335-41 588 166-354z" style="fill:#bd8284;stroke-width:1.51;stroke:#bd8284"/>
    <path d="m-366 923 49 553 43-233z" style="fill:#744d69;stroke-width:1.51;stroke:#744d69"/>
    <path d="m-334-47-32 970 41-588z" style="fill:#bb7874;stroke-width:1.51;stroke:#bb7874"/>
    <path d="m-366 923 32-970 2-308z" style="fill:#b45d53;stroke-width:1.51;stroke:#b45d53"/>
  </g>
  <rect y="-3.0518e-6" width="150.81" height="78.052" style="fill-opacity:.078431;fill-rule:evenodd;fill:#fff;paint-order:normal"/>
  <text x="0.5745483" y="11.446408" style="fill:#000000;font-family:sans-serif;font-size:5.6444px;letter-spacing:0px;line-height:1.25;stroke-width:.26458;word-spacing:0px" xml:space="preserve"><tspan x="0.5745483" y="16.440411" style="stroke-width:.26458"/></text>
  <g transform="rotate(172.77 146.49 65.235)">
    <path id="path241" d="m147.77 54.772c-4.9125 5.362-5.348 16.049-0.58563 21.456" style="opacity:0;stroke-width:.40216"/>
    <text style="fill:#323232;font-family:Waree;font-size:3.5278px;letter-spacing:0px;line-height:1.25;stroke-width:.3515;word-spacing:0px" xml:space="preserve"><textPath xlink:href="#path241">sansnom.org</textPath></text>
  </g>
  <g transform="matrix(1.4929 0 0 1.4929 31.341 -41.257)">
    <path id="keyhole" d="m69.843 73.091h-1.7575c-0.10981-0.53447 0.43594-0.99175 0.43938-1.3903-0.51975-0.45814-0.48814-1.4244 0.43938-1.435 0.92753-0.0106 0.99115 0.86802 0.43938 1.435 0.01787 0.41118 0.55065 0.88444 0.43938 1.3903z" style="fill:#6f6f6f;stroke-linecap:round;stroke-linejoin:round;stroke-width:.28779;stroke:#464646"/>
    <path id="opensource" d="m68.073 73.865s-1.6261-0.46067-1.6647-2.0031c-0.03866-1.5424 1.2322-2.3462 2.528-2.3873 1.2957-0.04097 2.5049 1.0248 2.5768 2.3873 0.07186 1.3624-1.6653 2.0031-1.6653 2.0031l1.0033 2.5422s3.3713-1.3432 3.3771-4.5453c0.0057-3.2021-1.9398-4.9393-5.2099-4.9728-3.2701-0.03346-5.6417 1.2936-5.577 4.9847 0.06464 3.691 3.4723 4.5334 3.4723 4.5334z" style="fill:#3ba337;stroke-linecap:round;stroke-linejoin:round;stroke-width:.28779;stroke:#266824"/>
    <path id="bottomrightleg" d="m74.402 73.997 1.5072 1.2926-1.8492 2.6008 0.76337-2.4941-1.0258-0.43257z" style="fill-rule:evenodd;fill:#395582;stroke-linecap:round;stroke-linejoin:round;stroke-width:.28779;stroke:#2b3f61"/>
    <path id="bottomleftleg" d="m63.42 74.582-1.3837 1.5788 2.1361 1.9628-1.0497-2.0654 0.93352-0.64261z" style="fill-rule:evenodd;fill:#395582;stroke-linecap:round;stroke-linejoin:round;stroke-width:.28779;stroke:#2b3f61"/>
    <path id="middlerightleg" d="m74.752 70.845 1.9697 0.25062-0.11393 3.1891-0.73417-2.5028-1.0946 0.20287z" style="fill-rule:evenodd;fill:#395582;stroke-linecap:round;stroke-linejoin:round;stroke-width:.28779;stroke:#2b3f61"/>
    <path id="middleleftleg" d="m62.823 71.022-2.0544 0.43203 0.53004 2.852 0.40027-2.282 1.1323 0.04642z" style="fill-rule:evenodd;fill:#395582;stroke-linecap:round;stroke-linejoin:round;stroke-width:.28779;stroke:#2b3f61"/>
    <path id="toprighttleg" d="m73.258 67.881 1.9706-1.06 1.3152 3.0048-1.6623-1.9207-0.83968 0.73098z" style="fill-rule:evenodd;fill:#395582;stroke-linecap:round;stroke-linejoin:round;stroke-width:.28779;stroke:#2b3f61"/>
    <path id="topleftleg" d="m63.992 68.077-1.7834-1.1107-1.5275 3.1902 1.8469-2.0556 0.81847 0.81468z" style="fill-rule:evenodd;fill:#395582;stroke-linecap:round;stroke-linejoin:round;stroke-width:.28779;stroke:#2b3f61"/>
    <path id="rightmandible" d="m69.457 64.158 1.7475 1.5769-0.12338 0.95464-1.0189-0.23279 0.23622-0.81462z" style="fill-rule:evenodd;fill:#e40000;stroke-linecap:round;stroke-linejoin:round;stroke-width:.28779;stroke:#6f1d1d"/>
    <path id="leftmandible" d="m67.497 66.288-0.43722-0.62116 1.0733-1.5088-1.9964 1.5412 0.46731 1.0984z" style="fill-rule:evenodd;fill:#e40000;stroke-linecap:round;stroke-linejoin:round;stroke-width:.28779;stroke:#6f1d1d"/>
  </g>
  <text style="fill:#3c3c3c;font-family:sans-serif;font-size:3.2868px;letter-spacing:0px;line-height:1.25;stroke-width:.15407;text-align:center;text-anchor:middle;word-spacing:0px" xml:space="preserve"><textPath startOffset="50%" xlink:href="#path1930"><tspan style="fill:#3c3c3c;font-family:'Fira Mono';font-weight:bold;stroke-width:.15407">Proposé par l'</tspan></textPath></text>
  <path id="path1930" d="m26.313 52.189c2.5295 12.557 16.322 11.311 20.957 11.311" style="opacity:0;stroke-width:.26458px"/>
  <g transform="translate(0 -218.42)">
    <text x="83.417694" y="281.95172" style="fill:#3c3c3c;font-family:sans-serif;font-size:2.8916px;letter-spacing:0px;line-height:1.25;stroke-width:.13554;text-align:center;text-anchor:middle;word-spacing:0px" xml:space="preserve"><tspan x="83.417694" y="281.95172" style="fill:#3c3c3c;font-family:'Baekmuk Headline';font-size:6.5061px;font-weight:bold;stroke-width:.13554"><tspan style="fill:#3c3c3c;font-size:7.189px;stroke-width:.13554">A</tspan><tspan style="fill:#3c3c3c;font-weight:normal;stroke-width:.13554">ssociation</tspan> <tspan style="fill:#3c3c3c;font-size:7.189px;stroke-width:.13554">S</tspan><tspan style="fill:#3c3c3c;font-weight:normal;stroke-width:.13554">ans</tspan> <tspan style="fill:#3c3c3c;font-size:7.189px;stroke-width:.13554">N</tspan><tspan style="fill:#3c3c3c;font-weight:normal;stroke-width:.13554">om</tspan></tspan></text>
    <g transform="matrix(.9067 0 0 .9067 6.521 -22.239)">
      <text x="90.500648" y="344.82489" style="fill:#3c3c3c;font-family:TSCu_Comic;font-feature-settings:normal;font-size:7.4543px;font-variant-caps:normal;font-variant-ligatures:normal;font-variant-numeric:normal;letter-spacing:0px;line-height:1.25;stroke-width:.3494;text-align:center;text-anchor:middle;word-spacing:0px" xml:space="preserve"><tspan x="90.500648" y="344.82489" style="fill:#3c3c3c;font-family:TSCu_Comic;font-feature-settings:normal;font-size:7.4543px;font-variant-caps:normal;font-variant-ligatures:normal;font-variant-numeric:normal;stroke-width:.3494;text-align:center;text-anchor:middle">Libre et securite a 42</tspan></text>
      <path d="m106.28 340.82c-0.32744 0.0797-0.81991 0.43799-1.194 0.54644-0.37408 0.10845-0.0582-0.41157 0.34111-0.55019 0.56305-0.28798 1.1253-0.80164 1.3838-0.57135s-0.0851 0.53463-0.53091 0.5751z" style="fill:#323232;stroke-width:.69478"/>
      <path d="m89.733 340.82c-0.32744 0.0797-0.81991 0.43799-1.194 0.54644-0.37408 0.10845-0.05822-0.41157 0.34111-0.55019 0.56305-0.28798 1.1253-0.80164 1.3838-0.57135 0.25846 0.23029-0.08508 0.53463-0.53091 0.5751z" style="fill:#323232;stroke-width:.69478"/>
      <path d="m112.16 340.82c0.32744 0.0797 0.8199 0.43799 1.194 0.54644s0.0582-0.41157-0.34109-0.55019c-0.56306-0.28798-1.1253-0.80164-1.3838-0.57135-0.25849 0.23027 0.0851 0.53463 0.53091 0.5751z" style="fill:#323232;stroke-width:.69478"/>
    </g>
  </g>
  <rect x="1.525" y="1.92" width="147.76" height="48.083" style="fill-opacity:.4486;fill-rule:evenodd;fill:#e5e5e5;paint-order:normal;stroke-linecap:round;stroke-linejoin:round;stroke-opacity:.69159;stroke-width:1.003;stroke:url(#linearGradient3587)"/>
  <g transform="matrix(.34664 .15034 -.15034 .34664 138.1 -.23)" style="opacity:.611">
    <path d="m15.697 21.043c-0.31958-0.38892 1.1885-5.6001 1.198-5.9351-4.1328 0.68764-2.737-0.7323 0.31019-0.9851 3.4438-0.11612 4.5691 1.1014 0.71372 0.9851 0.04938 0.34554 1.5216 5.51 1.2141 5.9351z" style="fill:#6f6f6f;stroke-linecap:round;stroke-linejoin:round;stroke-width:.46196;stroke:#292929"/>
    <path d="m12.836 9.1075-1.6983-3.7815c-0.089908-0.19527-0.28081-0.26537-0.43817-0.15378-0.15736 0.11158-0.21347 0.34892-0.12356 0.54419 0.49961 1.3778 1.1229 2.4952 1.6748 3.8254z" style="fill:#e40000;stroke-linecap:round;stroke-linejoin:round;stroke-width:.46196;stroke:#7a0000"/>
    <path d="m22.157 9.0211c0.48982-1.3082 1.106-2.5612 1.6708-3.8267 0.08991-0.19527 0.0338-0.44656-0.12356-0.54419-0.04496-0.027898-0.10129-0.05538-0.15749-0.05538-0.1124 0-0.22485 0.069685-0.28105 0.20916l-1.8007 3.7389z" style="fill:#e40000;stroke-linecap:round;stroke-linejoin:round;stroke-width:.46196;stroke:#7a0000"/>
    <path d="m10.211 21.679v4.9714c0 1.2621 0.83559 2.299 1.8526 2.299 1.017 0 1.8523-1.0369 1.8523-2.299v-4.7018z" style="fill:#395582;stroke-linecap:round;stroke-linejoin:round;stroke-width:.46196;stroke:#2f3948"/>
    <path d="m20.647 21.417v4.9023c0 1.2621 0.83522 2.299 1.8523 2.299 1.017 0 1.8526-1.0369 1.8526-2.299v-4.9925z" style="fill:#395582;stroke-linecap:round;stroke-linejoin:round;stroke-width:.46196;stroke:#2f3948"/>
    <path d="m25.265 14.776c-0.13696-3.3925-3.3863-1.9235-8.0692-1.9781-4.9776 0.25606-8.0694-0.08268-7.9634 2 0.52449 7.1214-1.4195 9.5146 5.0506 9.0324l1.8339-8.0837s-2.3714 0.39918-2.4745-0.28922c-0.10312-1.3698 2.1966-1.8879 4.1225-1.9636 1.9258-0.07561 3.4949 0.52833 3.4647 1.3957-0.03016 0.92403-2.4752 0.85714-2.4752 0.85714l1.6985 7.9041c5.8462 0.36482 4.974-2.3541 4.812-8.8748z" style="fill:#79c257;stroke-linecap:round;stroke-linejoin:round;stroke-width:.46196;stroke:#298100"/>
    <path d="m7.1241 17.871c-0.35524 0.07422-0.6882 0.31522-0.91197 0.70498l-1.698 2.9581c-0.40236 0.83678-0.55031 1.3682-0.59244 1.8148-0.045213 0.18293-0.22681 4.0704-0.22681 4.0704-0.048686 0.95497 0.54318 1.7887 1.3126 1.8485 0.76944 0.05972 1.4416-0.67591 1.4903-1.6309l0.24384-3.8527c0.031685-0.1673 1.7576-3.1866 1.7576-3.1866 0.44754-0.77953 0.29953-1.8759-0.32825-2.4308-0.31389-0.27743-0.69165-0.37003-1.0469-0.29581z" style="fill:#395582;stroke-width:.46196;stroke:#2f3948"/>
    <path d="m6.9995 12.508c-0.13767 0.01069-0.27583 0.04665-0.41085 0.11085l-3.1651 1.6782c-0.487 0.25822-0.81804 0.60334-1.1034 1.0702l-1.7687 2.8932c-0.46608 0.76244-0.34423 1.8637 0.26996 2.4417 0.61419 0.57806 1.5013 0.42641 1.9673-0.33602l1.9199-3.0432c0.066824-0.07695 2.8838-1.4491 2.8838-1.4491 0.72007-0.34238 1.0854-1.3575 0.8098-2.251-0.22391-0.72593-0.80609-1.1609-1.4027-1.1148z" style="fill:#395582;stroke-width:.46196;stroke:#2f3948"/>
    <path d="m27.711 16.279c-0.35383-0.08401-0.73315-0.0018-1.0519 0.26687-0.63751 0.53741-0.80502 1.6295-0.37147 2.4211l1.7002 3.2342c0.02922 0.07859 0.17533 3.8585 0.17533 3.8585 0.03166 0.95608 0.69022 1.71 1.4605 1.6715 0.77032-0.03849 1.3773-0.85566 1.3456-1.8117l-0.12008-3.628c-0.12444-0.73693-0.27364-1.3012-0.43389-1.7898-0.03078-0.17993-1.8055-3.4928-1.8055-3.4928-0.21678-0.39584-0.54499-0.64587-0.89882-0.72987z" style="fill:#395582;stroke-width:.46196;stroke:#2f3948"/>
    <path d="m27.311 10.821c-0.59185-0.10395-1.1992 0.27313-1.4681 0.97505-0.3309 0.8639-0.03052 1.9115 0.66583 2.3228l2.7837 1.7252c0.05154 0.04995 1.723 3.2207 1.723 3.2207 0.41672 0.80544 1.2915 1.0429 1.9402 0.52635 0.64864-0.51655 0.83934-1.6025 0.42262-2.408l-1.5814-3.0564c-0.48885-0.77127-0.94372-1.2487-1.192-1.4215-0.03182-0.02958-2.8908-1.7337-2.8908-1.7337-0.13056-0.07713-0.2664-0.12657-0.40299-0.15055z" style="fill:#395582;stroke-width:.46196;stroke:#2f3948"/>
    <path d="m17.196 7.5461c-2.2538 0.14709-8.2179 2.655-7.3631 4.7365 1.1907 0.03749 2.5111-0.0654 7.2233-0.15092 5.0875-0.09234 7.046-0.36367 7.8743-0.4566 0-2.8655-5.4808-4.276-7.7346-4.1289z" style="fill:#79c257;stroke-linecap:round;stroke-linejoin:round;stroke-width:.46196;stroke:#298100"/>
    <path d="m13.919 10.652c-0.33287 0-0.60234-0.26878-0.60234-0.6008s0.26947-0.6008 0.60234-0.6008 0.60234 0.26878 0.60234 0.6008-0.26947 0.6008-0.60234 0.6008z" style="fill:#fff"/>
    <path d="m20.577 10.378c-0.33287 0-0.60234-0.26878-0.60234-0.6008s0.26947-0.6008 0.60234-0.6008 0.60234 0.26878 0.60234 0.6008-0.26947 0.6008-0.60234 0.6008z" style="fill:#fff"/>
  </g>
  <g transform="matrix(.82335 0 0 .82335 -67.178 -74.46)" style="opacity:.611">
    <path d="m167.92 103.69-0.62378-0.59893c0.14316-0.22711 0.4927-0.20343 0.62974-0.34372-0.0283-0.33973 0.31218-0.67192 0.64499-0.3596 0.33282 0.31233 0.056 0.64585-0.33309 0.65907-0.13378 0.15202-0.10597 0.50156-0.31785 0.64319z" style="fill:#6f6f6f;stroke-linecap:round;stroke-linejoin:round;stroke-width:.1416;stroke:#292929"/>
    <path d="m167.03 103.37s-0.42015-0.71764 0.0918-1.2783c0.51189-0.5606 1.2369-0.41283 1.7108 0.0142 0.47385 0.42703 0.53982 1.2174 0.10101 1.7254-0.43876 0.50802-1.2737 0.14343-1.2737 0.14343l-0.51025 1.2442s1.6543 0.67217 2.7476-0.4624 0.99474-2.4141-0.15448-3.5404c-1.1492-1.1263-2.4432-1.4635-3.6781-0.13137-1.2349 1.3321-0.3125 2.7924-0.3125 2.7924z" style="fill:#3ba337;stroke-linecap:round;stroke-linejoin:round;stroke-width:.1416;stroke:#123111"/>
    <path d="m170.07 104.97 0.49137 0.31094 1.3595 0.39215-1.4753-0.038-0.69622-0.46177z" style="fill-rule:evenodd;fill:#395582;stroke-linecap:round;stroke-linejoin:round;stroke-width:.1416;stroke:#182336"/>
    <path d="m165.13 102.03-1.0292 0.0888 0.0892 1.4246 0.33129-1.0908 0.55033 0.09z" style="fill-rule:evenodd;fill:#395582;stroke-linecap:round;stroke-linejoin:round;stroke-width:.1416;stroke:#182336"/>
    <path d="m170.54 104.35 0.57237 0.43775 0.87367 0.24145-1.0448 0.0604-0.65608-0.36718z" style="fill-rule:evenodd;fill:#395582;stroke-linecap:round;stroke-linejoin:round;stroke-width:.1416;stroke:#182336"/>
    <path d="m166.14 100.57-0.87638-0.54677-0.78381 1.1929 0.91975-0.67354 0.38607 0.40236z" style="fill-rule:evenodd;fill:#395582;stroke-linecap:round;stroke-linejoin:round;stroke-width:.1416;stroke:#182336"/>
    <path d="m170.84 103.55 0.30824 0.40282 1.0468 0.13398-1.0682 0.25663-0.39831-0.43185z" style="fill-rule:evenodd;fill:#395582;stroke-linecap:round;stroke-linejoin:round;stroke-width:.1416;stroke:#182336"/>
    <path d="m167.55 99.921-0.25447-1.002-1.6293 0.61176 1.356-0.10017 0.0129 0.56807z" style="fill-rule:evenodd;fill:#395582;stroke-linecap:round;stroke-linejoin:round;stroke-width:.1416;stroke:#182336"/>
    <path d="m171.43 100.17-1.3086 0.25484-0.17034 0.62418-0.38752-0.34798 0.43161-0.5945z" style="fill-rule:evenodd;fill:#e40000;stroke-linecap:round;stroke-linejoin:round;stroke-width:.1416;stroke:#320d0d"/>
    <path d="m169.16 100.47-0.15398-0.36946-0.0637-0.73102-0.18141 0.50977-0.14999 0.29185z" style="fill-rule:evenodd;fill:#e40000;stroke-linecap:round;stroke-linejoin:round;stroke-width:.1416;stroke:#320d0d"/>
    <path d="m172.85 97.153 0.73997-0.44751c0.18233 0.19707 0.069 0.52857 0.16903 0.69725 0.33549 0.06055 0.56823 0.47544 0.18041 0.71608-0.38783 0.24064-0.63834-0.11309-0.5504-0.49232-0.11222-0.16857-0.45705-0.23217-0.53901-0.47349z" style="fill:#6f6f6f;stroke-linecap:round;stroke-linejoin:round;stroke-width:.1416;stroke:#292929"/>
    <path d="m173.4 96.376s0.80194-0.22009 1.211 0.41948c0.409 0.63954 0.0786 1.3016-0.45648 1.6488-0.53512 0.34719-1.3156 0.20634-1.6928-0.349-0.37716-0.5553 0.19111-1.2674 0.19111-1.2674l-1.0698-0.8149s-1.0774 1.424-0.26448 2.7736c0.81295 1.3497 2.0744 1.5857 3.4598 0.76711 1.3854-0.81858 2.046-1.9812 1.0789-3.5188-0.96706-1.5376-2.6163-1.0246-2.6163-1.0246z" style="fill:#3ba337;stroke-linecap:round;stroke-linejoin:round;stroke-width:.1416;stroke:#123111"/>
    <path d="m170.7 97.932-0.46763 0.4018-1.0743 0.78229 0.94204-1.1698 0.60819-0.57516z" style="fill-rule:evenodd;fill:#395582;stroke-linecap:round;stroke-linejoin:round;stroke-width:.1416;stroke:#182336"/>
    <path d="m175.18 94.89 0.1806-1.0171-1.3992-0.28251 0.96789 0.60232-0.22941 0.50827z" style="fill-rule:evenodd;fill:#395582;stroke-linecap:round;stroke-linejoin:round;stroke-width:.1416;stroke:#182336"/>
    <path d="m171.36 99.349-0.82699-0.36464-1.3594 0.54648 1.3102-0.88604 0.57458 0.23117z" style="fill-rule:evenodd;fill:#395582;stroke-linecap:round;stroke-linejoin:round;stroke-width:.1416;stroke:#182336"/>
    <path d="m176.33 96.237 0.75496-0.70501-0.94938-1.0658 0.41255 1.0627-0.48857 0.26878z" style="fill-rule:evenodd;fill:#395582;stroke-linecap:round;stroke-linejoin:round;stroke-width:.1416;stroke:#182336"/>
    <path d="m172.08 99.919-1.4017-0.25632-1.0967 0.0052 0.95509-0.25774 1.0678 0.18z" style="fill-rule:evenodd;fill:#395582;stroke-linecap:round;stroke-linejoin:round;stroke-width:.1416;stroke:#182336"/>
    <path d="m176.59 97.774 1.0337 0.01353-0.16921-1.7321-0.25422 1.3358-0.55204-0.1346z" style="fill-rule:evenodd;fill:#395582;stroke-linecap:round;stroke-linejoin:round;stroke-width:.1416;stroke:#182336"/>
    <path d="m175.29 100.82-0.51717-0.48355-0.81125-0.16877 0.48825-0.16142 0.52965 0.0807z" style="fill-rule:evenodd;fill:#e40000;stroke-linecap:round;stroke-linejoin:round;stroke-width:.1416;stroke:#320d0d"/>
    <path d="m175.47 99.385 0.27209 0.39576 0.54035 1.1074-0.11315-1.2157-0.30104-0.55394z" style="fill-rule:evenodd;fill:#e40000;stroke-linecap:round;stroke-linejoin:round;stroke-width:.1416;stroke:#320d0d"/>
    <path d="m176.27 104.45-0.2068 0.83968c-0.26827-0.0104-0.42253-0.32497-0.61255-0.37351-0.28004 0.19441-0.73798 0.0656-0.63391-0.37878 0.10407-0.44439 0.53133-0.3714 0.73731-0.0411 0.19855 0.0399 0.48735-0.15901 0.71595-0.0463z" style="fill:#6f6f6f;stroke-linecap:round;stroke-linejoin:round;stroke-width:.1416;stroke:#292929"/>
    <path d="m176.44 105.39s-0.41143 0.72268-1.1529 0.55965c-0.74144-0.16301-0.97597-0.86478-0.84312-1.4887 0.13289-0.62389 0.78438-1.0762 1.4438-0.9502 0.65934 0.12597 0.76106 1.0313 0.76106 1.0313l1.3326-0.18021s-0.24505-1.7688-1.7742-2.1483c-1.5292-0.3795-2.5881 0.3456-2.9889 1.904-0.40076 1.5584-0.0458 2.8476 1.7253 3.251 1.771 0.40342 2.5745-1.1255 2.5745-1.1255z" style="fill:#3ba337;stroke-linecap:round;stroke-linejoin:round;stroke-width:.1416;stroke:#123111"/>
    <path d="m176.59 102.04 0.12517-1.0724-0.2483-1.1835 0.49399 1.1774 0.0943 1.2577z" style="fill-rule:evenodd;fill:#395582;stroke-linecap:round;stroke-linejoin:round;stroke-width:.1416;stroke:#182336"/>
    <path d="m176.23 107.69 0.59147 0.84687 1.1891-0.78958-1.1103 0.2585-0.19718-0.52162z" style="fill-rule:evenodd;fill:#395582;stroke-linecap:round;stroke-linejoin:round;stroke-width:.1416;stroke:#182336"/>
    <path d="m175.89 101.91 0.0621-0.43204-0.54854-1.009 0.95027 0.94927-0.0319 0.54684z" style="fill-rule:evenodd;fill:#395582;stroke-linecap:round;stroke-linejoin:round;stroke-width:.1416;stroke:#182336"/>
    <path d="m174.46 107.56-0.0353 1.0324 1.425 0.0823-1.0432-0.45975 0.15542-0.53553z" style="fill-rule:evenodd;fill:#395582;stroke-linecap:round;stroke-linejoin:round;stroke-width:.1416;stroke:#182336"/>
    <path d="m175.28 101.87-0.134-0.52877-0.63379-0.85359 0.92077 0.79972 0.25044 0.61947z" style="fill-rule:evenodd;fill:#395582;stroke-linecap:round;stroke-linejoin:round;stroke-width:.1416;stroke:#182336"/>
    <path d="m173.19 106.65-0.7405 0.72137 1.3445 1.1052-0.76477-1.1243 0.48553-0.29518z" style="fill-rule:evenodd;fill:#395582;stroke-linecap:round;stroke-linejoin:round;stroke-width:.1416;stroke:#182336"/>
    <path d="m171.34 104.54 1.1353-0.18786 0.54682-0.40618-0.11535 0.61648-0.55734 0.24732z" style="fill-rule:evenodd;fill:#e40000;stroke-linecap:round;stroke-linejoin:round;stroke-width:.1416;stroke:#320d0d"/>
    <path d="m172.91 104.84-0.4466 0.33091-0.93901 0.14838 0.83816 0.28359 0.50275-0.16049z" style="fill-rule:evenodd;fill:#e40000;stroke-linecap:round;stroke-linejoin:round;stroke-width:.1416;stroke:#320d0d"/>
  </g>
  <g transform="matrix(.55284 -.28307 .28307 .55284 81.556 -92.14)" style="opacity:.611">
    <path d="m-176.9 92.49h-1.7575c-0.10981-0.53447 0.43595-0.99175 0.43938-1.3903-0.51975-0.45814-0.48813-1.4244 0.43938-1.435 0.92754-0.0106 0.99116 0.86802 0.43938 1.435 0.0179 0.41118 0.55065 0.88444 0.43938 1.3903z" style="fill:#6f6f6f;stroke-linecap:round;stroke-linejoin:round;stroke-width:.28779;stroke:#292929"/>
    <path d="m-178.67 93.264s-1.6261-0.46067-1.6647-2.0031c-0.0386-1.5424 1.2322-2.3462 2.528-2.3873 1.2957-0.04097 2.5049 1.0248 2.5768 2.3873 0.0719 1.3624-1.6653 2.0031-1.6653 2.0031l1.0033 2.5422s3.3713-1.3432 3.3771-4.5453c6e-3 -3.2021-1.9398-4.9393-5.2099-4.9728-3.2701-0.03346-5.6417 1.2936-5.577 4.9847 0.0646 3.691 3.4723 4.5334 3.4723 4.5334z" style="fill:#3ba337;stroke-linecap:round;stroke-linejoin:round;stroke-width:.28779;stroke:#123111"/>
    <path d="m-172.34 93.396 1.5072 1.2926-1.8492 2.6008 0.76337-2.4941-1.0258-0.43257z" style="fill-rule:evenodd;fill:#395582;stroke-linecap:round;stroke-linejoin:round;stroke-width:.28779;stroke:#182336"/>
    <path d="m-183.32 93.981-1.3837 1.5788 2.136 1.9628-1.0497-2.0654 0.93352-0.64261z" style="fill-rule:evenodd;fill:#395582;stroke-linecap:round;stroke-linejoin:round;stroke-width:.28779;stroke:#182336"/>
    <path d="m-171.99 90.244 1.9697 0.25062-0.11394 3.1891-0.73417-2.5028-1.0946 0.20287z" style="fill-rule:evenodd;fill:#395582;stroke-linecap:round;stroke-linejoin:round;stroke-width:.28779;stroke:#182336"/>
    <path d="m-183.92 90.421-2.0544 0.43203 0.53003 2.852 0.40027-2.282 1.1323 0.04642z" style="fill-rule:evenodd;fill:#395582;stroke-linecap:round;stroke-linejoin:round;stroke-width:.28779;stroke:#182336"/>
    <path d="m-173.49 87.28 1.9706-1.06 1.3152 3.0048-1.6623-1.9207-0.83968 0.73098z" style="fill-rule:evenodd;fill:#395582;stroke-linecap:round;stroke-linejoin:round;stroke-width:.28779;stroke:#182336"/>
    <path d="m-182.75 87.476-1.7834-1.1107-1.5275 3.1902 1.8469-2.0556 0.81848 0.81468z" style="fill-rule:evenodd;fill:#395582;stroke-linecap:round;stroke-linejoin:round;stroke-width:.28779;stroke:#182336"/>
    <path d="m-178 85.546 0.85331-2.036-1.6209 1.663c-3.3178 0.07601-3.5998 0.77341-3.1729 1.5151 0.5048 0.87704 1.6452-0.75557 2.5824-0.1696z" style="fill-rule:evenodd;fill:#e40000;stroke-linecap:round;stroke-linejoin:round;stroke-width:.30587;stroke:#320d0d"/>
    <path d="m-176.78 83.67c0.49786 0.25281 0.7582 0.13614 1.3765-0.07567l-0.13071 1.9702c1.1126 0.69047 2.6346 2.138 1.3379 2.7149-1.1423 0.46857-1.7492 0.48136-2.935-0.0504-0.98484-0.44164-1.4271-1.2009-1.9686-1.4436l1.4244-0.99856z" style="fill-rule:evenodd;fill:#e40000;stroke-linecap:round;stroke-linejoin:round;stroke-width:.30587;stroke:#320d0d"/>
  </g>
  <g transform="matrix(.95517 -.30696 .30696 .95517 -99.268 -66.95)" style="opacity:.611">
    <path d="m96.823 142.33-0.34792-0.49429 0.8541-1.2006-1.5886 1.2264 0.37185 0.87403z" style="fill-rule:evenodd;fill:#e40000;stroke-linecap:round;stroke-linejoin:round;stroke-width:.22901;stroke:#320d0d"/>
    <path d="m97.775 140.56 1.3906 1.2548-0.09819 0.75965-0.81076-0.18525 0.18797-0.64822z" style="fill-rule:evenodd;fill:#e40000;stroke-linecap:round;stroke-linejoin:round;stroke-width:.22901;stroke:#320d0d"/>
    <path d="m97.663 141.93c0.90599 0.0321 4.1834 5.4058 1.7262 7.954 0.70087-4.364-4.5202-3.9702-3.6077 0-3.4596-3.702 0.97552-7.9861 1.8815-7.954z" style="fill:#6f6f6f;stroke-linecap:round;stroke-linejoin:round;stroke-width:.22901;stroke:#292929"/>
    <path d="m97.712 141.4c0.89054 0.21579 4.413 5.5706 4.1761 9.2616-0.71695-2.3088-3.2504-7.3749-4.1761-9.2616z" style="fill-rule:evenodd;fill:#395582;stroke-linecap:round;stroke-linejoin:round;stroke-width:.22901;stroke:#182336"/>
    <path d="m97.641 141.39c-1.7204 0.62774-4.496 5.7964-4.3376 9.096 1.4943-4.2826 2.5353-7.2809 4.3376-9.096z" style="fill-rule:evenodd;fill:#395582;stroke-linecap:round;stroke-linejoin:round;stroke-width:.22901;stroke:#182336"/>
    <path d="m95.634 149.87s-0.70794-1.1074-0.40827-2.2938c0.2997-1.1864 1.5267-1.646 2.1495-1.6263 0.62281 0.0197 2.1293 0.30542 2.3626 1.4842 0.2333 1.1788-0.1851 2.4359-0.1851 2.4359l2.3628 0.77898c0.0354-0.67297-0.0602-0.88126-2.1173-5.167-2.057-4.2858-1.7493-3.9454-2.1388-3.9714-0.38945-0.026-0.66507-0.20258-2.5576 4.0168-1.8925 4.2194-1.7856 4.9143-1.7856 4.9143z" style="fill:#3ba337;stroke-linecap:round;stroke-linejoin:round;stroke-width:.22901;stroke:#123111"/>
  </g>
  <text x="75.718788" y="21.149746" style="fill:#000000;font-family:sans-serif;font-size:5.6444px;letter-spacing:0px;line-height:1.25;stroke-width:.26458;text-align:center;text-anchor:middle;word-spacing:0px" xml:space="preserve"><tspan x="75.718788" y="21.149746" style="font-family:Ubuntu;font-size:7.7611px;stroke-width:.26458;text-align:center;text-anchor:middle">Ensemble, libérons nos machines !</tspan><tspan x="75.718788" y="34.140759" style="font-family:Ubuntu;font-size:7.7611px;stroke-width:.26458;text-align:center;text-anchor:middle">Deuxième <tspan style="font-size:11.289px">Install Party</tspan> de l'ASN à 42</tspan></text>
  <g transform="matrix(.98475 .41677 -.41677 .98475 112.6 -258.55)" style="opacity:.611">
    <path d="m105.77 264.23 0.67446 1.0235-1.5399 1.2287 0.87738-1.3501-0.53511-0.43124z" style="fill-rule:evenodd;fill:#395582;stroke-linecap:round;stroke-linejoin:round;stroke-width:.17766;stroke:#182336"/>
    <path d="m98.828 264.79-1.0337 0.78172 1.0463 1.4534-0.37676-1.3798 0.64461-0.27195z" style="fill-rule:evenodd;fill:#395582;stroke-linecap:round;stroke-linejoin:round;stroke-width:.17766;stroke:#182336"/>
    <path d="m106.44 262.08 1.1801 0.3314-0.35831 1.9371-0.22169-1.5948-0.6868 0.0248z" style="fill-rule:evenodd;fill:#395582;stroke-linecap:round;stroke-linejoin:round;stroke-width:.17766;stroke:#182336"/>
    <path d="m98.713 262.43-1.2951 0.0486 0.02502 1.7906 0.48158-1.3468 0.68412 0.1464z" style="fill-rule:evenodd;fill:#395582;stroke-linecap:round;stroke-linejoin:round;stroke-width:.17766;stroke:#182336"/>
    <path d="m105.55 260 1.2683-0.54725 0.6493 1.918-0.92036-1.2696-0.55527 0.40498z" style="fill-rule:evenodd;fill:#395582;stroke-linecap:round;stroke-linejoin:round;stroke-width:.17766;stroke:#182336"/>
    <path d="m99.703 260.17-1.101-0.68567-0.94296 1.9694 1.1402-1.269 0.50527 0.50292z" style="fill-rule:evenodd;fill:#395582;stroke-linecap:round;stroke-linejoin:round;stroke-width:.17766;stroke:#182336"/>
    <path d="m103.25 257.51 1.0001 1.0541-0.12162 0.58166-0.61595-0.192 0.18435-0.49008z" style="fill-rule:evenodd;fill:#e40000;stroke-linecap:round;stroke-linejoin:round;stroke-width:.17766;stroke:#320d0d"/>
    <path d="m101.78 259-0.26991-0.38346 0.6626-0.93145-1.2324 0.95141 0.28848 0.67806z" style="fill-rule:evenodd;fill:#e40000;stroke-linecap:round;stroke-linejoin:round;stroke-width:.17766;stroke:#320d0d"/>
    <path d="m102.72 260.16c-4.9582 1.3392-2.6719 7.3902 0.64171 7.1371-1.8752-0.63562-1.9743-0.94872-2.4914-1.5945-0.19361-0.24181-0.57584-1.4944-0.50428-2.189 0.0814-0.61544 0.1579-1.1229 0.411-1.5504 0.67371-1.1378 1.8897-1.63 2.4436-1.4894 0.80824 0.2052 2.1415 1.4947 1.5317 2.7084-0.24263 0.48297-1.2306 0.75998-1.8932 0.58645-0.58284-0.15266-0.72682-1.0429-0.4636-1.3953 0.67352-0.55161 1.1928-0.13733 1.1269 0.23863-0.0335 0.19148-0.57696 0.35099-0.56881 0.64248 1.1974-0.25248 1.0465-1.16 0.45858-1.4862-0.59391-0.32953-2.0939 0.4691-1.592 1.6716 0.0898 0.21507 0.47741 0.49365 0.64565 0.69788 0.34204 0.33542 1.1487 0.18659 1.8031-0.0808 1.5014-0.61326 0.78549-2.6295 0.45638-2.9625-0.23135-0.23409-1.0958-1.045-2.0055-0.93448z" style="fill:#6f6f6f;stroke-linecap:round;stroke-linejoin:round;stroke-width:.19665;stroke:#292929"/>
    <path d="m100.03 263.57c-4.7e-4 2.6374 1.7391 3.5841 3.212 3.8214-1.1173 0.0561-2.0998 0.0807-3.4325-1.9897-0.75275-1.1694-0.80464-2.7864-0.04427-4.2825 1.4201-2.0451 3.8043-2.1579 5.172-0.99526 1.6319 1.3872 0.99824 3.5716-0.40967 4.3-2.3451 1.0857-4.2011-1.7924-2.3416-2.9165 0.93516-0.56533 1.8258 0.0753 1.9996 0.7621 0.0483 0.19078 0.24815 0.51213-0.23088 0.90397-0.25898 0.21185-0.61593 0.2574-0.97542 0.16187 1.524-0.24651 0.78261-2.0607-0.56463-1.3382-0.57376 0.30769-0.53272 1.0434-0.4013 1.3989 0.33009 0.89287 2.0138 0.99853 2.714 0.28885 1.0715-1.0861 0.15605-2.7267-1.024-3.331-1.1187-0.57286-2.4424 0.36644-2.9902 1.1207-0.54784 0.75426-0.68274 0.83646-0.68297 2.0955z" style="fill:#3ba337;stroke-linecap:round;stroke-linejoin:round;stroke-width:.19665;stroke:#123111"/>
  </g>
  <style>.st0{fill:#79c257}</style>
</svg>
